<svg width="17" height="12" viewBox="0 0 17 12" fill="none" xmlns="http://www.w3.org/2000/svg">
<path fill-rule="evenodd" clip-rule="evenodd" d="M14.8227 0.699762C15.511 0.884655 16.0532 1.43098 16.237 2.12354C16.5713 3.37914 16.5713 6.00002 16.5713 6.00002C16.5713 6.00002 16.5713 8.6209 16.237 9.8765C16.0532 10.5691 15.511 11.1154 14.8227 11.3003C13.5744 11.6366 8.57077 11.6366 8.57077 11.6366C8.57077 11.6366 3.56822 11.6366 2.31993 11.3003C1.63155 11.1154 1.08941 10.5691 0.90556 9.8765C0.571289 8.6209 0.571289 6.00002 0.571289 6.00002C0.571289 6.00002 0.571289 3.37914 0.90556 2.12354C1.08941 1.43098 1.63155 0.884655 2.31993 0.699762C3.56718 0.363403 8.57077 0.363403 8.57077 0.363403C8.57077 0.363403 13.5744 0.363403 14.8227 0.699762ZM11.1157 5.99988L6.93319 8.37841V3.6203L11.1157 5.99988Z" fill="#FF0000"/>
</svg>
