<svg width="29" height="20" viewBox="0 0 29 20" fill="none" xmlns="http://www.w3.org/2000/svg">
<path fill-rule="evenodd" clip-rule="evenodd" d="M25.2836 0.596739C26.5048 0.92476 27.4667 1.894 27.7928 3.12269C28.3859 5.35026 28.3859 10 28.3859 10C28.3859 10 28.3859 14.6498 27.7928 16.8773C27.4667 18.106 26.5048 19.0753 25.2836 19.4033C23.069 20 14.192 20 14.192 20C14.192 20 5.31691 20 3.1023 19.4033C1.88102 19.0753 0.919203 18.106 0.593035 16.8773C2.2534e-06 14.6498 0 10 0 10C0 10 2.2534e-06 5.35026 0.593035 3.12269C0.919203 1.894 1.88102 0.92476 3.1023 0.596739C5.31505 0 14.192 0 14.192 0C14.192 0 23.069 0 25.2836 0.596739ZM18.7077 10.0003L11.2874 14.2201V5.77869L18.7077 10.0003Z" fill="white"/>
</svg>
