<svg width="17" height="16" viewBox="0 0 17 16" fill="none" xmlns="http://www.w3.org/2000/svg">
<path d="M16.1415 6.86947C16.1415 3.29012 12.5528 0.378174 8.14204 0.378174C3.73131 0.378174 0.142578 3.29012 0.142578 6.86947C0.142578 10.078 2.9887 12.7665 6.83229 13.2741C7.09236 13.3305 7.44748 13.4454 7.5373 13.6689C7.61772 13.8715 7.58952 14.188 7.56341 14.3917C7.56341 14.3917 7.46943 14.9557 7.44958 15.0768C7.41511 15.2784 7.28872 15.8675 8.14204 15.5082C8.99641 15.1489 12.7492 12.7957 14.4276 10.8635C15.5869 9.59237 16.1426 8.30247 16.1426 6.86947H16.1415ZM5.31992 8.78083C5.31992 8.86647 5.24997 8.93645 5.16433 8.93645H2.92293C2.88115 8.93645 2.84352 8.91974 2.81532 8.89259C2.81532 8.89259 2.81428 8.89154 2.81323 8.8905C2.81219 8.8905 2.81114 8.88841 2.81114 8.88736C2.78398 8.86021 2.76728 8.82156 2.76728 8.77978V5.29443C2.76728 5.20774 2.83728 5.13881 2.92293 5.13881H3.48376C3.56941 5.13881 3.63941 5.20774 3.63941 5.29443V8.06224H5.16433C5.24997 8.06224 5.31992 8.13222 5.31992 8.21787V8.77874V8.78083ZM6.67251 8.78083C6.67251 8.86647 6.60251 8.93645 6.51686 8.93645H5.95598C5.87033 8.93645 5.80038 8.86647 5.80038 8.78083V5.29548C5.80038 5.20983 5.87033 5.13985 5.95598 5.13985H6.51686C6.60251 5.13985 6.67251 5.20983 6.67251 5.29548V8.78083ZM10.5349 8.78083C10.5349 8.86647 10.4649 8.93645 10.3793 8.93645H9.81837C9.8048 8.93645 9.79123 8.93436 9.7787 8.93123H9.7766C9.7766 8.93123 9.76928 8.9281 9.76615 8.92705C9.76406 8.92705 9.76306 8.92601 9.76202 8.92496C9.75889 8.92392 9.75676 8.92288 9.75467 8.92183C9.75154 8.92079 9.74947 8.91974 9.74738 8.91765C9.74529 8.91765 9.74424 8.91661 9.7432 8.91556C9.74007 8.91348 9.73695 8.91139 9.73382 8.91034C9.73382 8.91034 9.73275 8.91034 9.73275 8.9093C9.71812 8.8999 9.70456 8.88632 9.69307 8.87065L8.094 6.71072V8.78083C8.094 8.86647 8.024 8.93645 7.93835 8.93645H7.37752C7.29187 8.93645 7.22187 8.86647 7.22187 8.78083V5.29548C7.22187 5.20983 7.29187 5.13985 7.37752 5.13985H7.93835C7.93835 5.13985 7.94152 5.13985 7.94361 5.13985C7.94674 5.13985 7.94884 5.13985 7.95197 5.13985C7.9551 5.13985 7.9572 5.13985 7.96033 5.1409C7.96242 5.1409 7.96447 5.1409 7.96656 5.1409C7.96969 5.1409 7.97286 5.1409 7.97599 5.14299C7.97808 5.14299 7.98015 5.14403 7.98119 5.14403C7.98433 5.14507 7.98744 5.14612 7.99058 5.14716C7.99267 5.14716 7.99374 5.14716 7.99583 5.14925C7.99896 5.1503 8.00208 5.15134 8.00521 5.15343C8.0073 5.15343 8.00838 5.15552 8.01047 5.15552C8.0136 5.15656 8.01565 5.15865 8.01878 5.1597C8.02087 5.16074 8.02192 5.16179 8.02296 5.16283C8.02609 5.16492 8.02819 5.16596 8.03132 5.16805C8.03341 5.16805 8.03446 5.17014 8.03551 5.17119C8.03864 5.17327 8.04074 5.17641 8.04387 5.1785C8.04491 5.1785 8.04594 5.18059 8.04698 5.18059C8.05011 5.18372 8.05328 5.18685 8.05642 5.18999C8.06059 5.19521 8.06476 5.20043 8.06789 5.20565L9.66589 7.36246V5.29234C9.66589 5.2067 9.73589 5.13672 9.82154 5.13672H10.3824C10.4681 5.13672 10.538 5.2067 10.538 5.29234V8.7777L10.5349 8.78083ZM13.6338 5.85739C13.6338 5.94304 13.5638 6.01302 13.4781 6.01302H11.9533V6.60209H13.4781C13.5638 6.60209 13.6338 6.67207 13.6338 6.75772V7.31859C13.6338 7.40528 13.5638 7.47421 13.4781 7.47421H11.9533V8.06329H13.4781C13.5638 8.06329 13.6338 8.13327 13.6338 8.21891V8.77978C13.6338 8.86543 13.5638 8.93541 13.4781 8.93541H11.2368C11.195 8.93541 11.1574 8.9187 11.1292 8.89154C11.1292 8.89154 11.1271 8.8905 11.1271 8.88945C11.1271 8.88945 11.125 8.88736 11.125 8.88632C11.0979 8.85916 11.0812 8.82052 11.0812 8.77874V5.29339C11.0812 5.25161 11.0978 5.21401 11.1239 5.18581C11.1239 5.18581 11.126 5.18372 11.126 5.18268C11.126 5.18268 11.1271 5.18267 11.1281 5.18059C11.1563 5.15343 11.194 5.13672 11.2357 5.13672H13.4771C13.5628 5.13672 13.6327 5.2067 13.6327 5.29234V5.85322L13.6338 5.85739Z" fill="#06C755"/>
</svg>
