<svg width="17" height="20" viewBox="0 0 17 20" fill="none" xmlns="http://www.w3.org/2000/svg">
<path fill-rule="evenodd" clip-rule="evenodd" d="M10.8907 10.4511C10.8145 11.3987 10.523 12.5048 9.66955 12.9786C8.81607 13.4539 7.52314 13.3358 6.82362 12.6737C6.43948 12.312 6.3468 11.7739 6.56354 11.2971C6.75785 10.8696 7.09865 10.6364 7.60535 10.4615C8.48574 10.1566 10.0238 10.1252 10.8907 10.4496V10.4511ZM5.11516 6.79498C5.54713 7.06254 5.95369 7.41828 6.38567 7.67686C6.72945 7.37045 6.84604 7.10738 7.43197 6.88616C8.33776 6.54387 9.56343 6.65149 10.2644 7.36447C10.5305 7.63651 10.7547 8.18656 10.8085 8.69476C9.88479 8.65291 8.89081 8.56921 7.97754 8.70523C6.42303 8.93691 5.05238 9.92491 4.86853 11.5213C4.67123 13.2432 5.91184 14.4479 7.50371 14.7782C9.08213 15.1056 10.8848 14.6138 11.7068 13.2477C12.1911 12.442 12.3615 11.2163 12.4781 11.0519C13.2225 11.2866 13.7262 12.2163 13.8607 12.9637C14.3988 15.9725 11.3302 17.5808 8.74133 17.6391C4.42909 17.7363 2.32005 15.2715 1.96131 11.2149C1.58465 6.9594 2.95829 3.4812 6.45741 2.62025C8.47976 2.12251 10.7607 2.34373 12.4736 3.52007C13.4303 4.17624 14.1926 5.31372 14.5468 6.40187C14.629 6.65597 14.6888 6.77705 14.7979 6.9878C15.4586 6.91904 15.7515 6.71875 16.2852 6.58124C16.1103 4.23902 13.5827 1.90577 11.4079 1.20027C7.33631 -0.118068 2.80882 1.22568 1.14072 5.375C0.070502 8.03559 0.0107135 11.4032 0.925478 14.1221C1.79989 16.7199 3.53226 18.4268 6.26609 19.0382C7.72792 19.364 9.43638 19.3865 10.8758 19.0083C12.7203 18.524 14.351 17.3447 15.1268 15.5719C15.6918 14.282 15.7471 12.6572 15.0341 11.4122C14.4452 10.3823 13.7546 9.82776 12.6934 9.27023C12.3989 9.11478 12.523 9.17457 12.4961 8.81285C12.4497 8.1746 12.1597 7.31664 11.8802 6.86075C11.5693 6.35404 11.1374 5.88022 10.6202 5.57081C9.51709 4.91164 7.61881 4.94004 6.42901 5.5454C6.01647 5.75466 5.24221 6.33013 5.11068 6.79797L5.11516 6.79498Z" fill="black"/>
</svg>
