<svg width="16" height="18" viewBox="0 0 16 18" fill="none" xmlns="http://www.w3.org/2000/svg">
<path d="M10.9095 11.8066V5.74466C12.0793 6.58447 13.5128 7.07911 15.0593 7.07911V4.76073C14.1658 4.56946 13.3788 4.08965 12.7993 3.42421C11.8646 2.81481 11.1903 1.83978 10.9798 0.703125H8.79601L8.79127 12.6577C8.74115 13.9963 7.63949 15.0707 6.28874 15.0707C5.45219 15.0707 4.71202 14.6573 4.25623 14.0256C3.45823 13.6057 2.912 12.7692 2.912 11.8063C2.912 10.4235 4.03679 9.29873 5.41957 9.29873C5.67756 9.29873 5.92518 9.34144 6.15944 9.41468V7.07614C3.19193 7.14553 0.798828 9.57926 0.798828 12.5634C0.798828 14.0067 1.35959 15.3206 2.27324 16.3016C3.16495 16.9276 4.2497 17.2968 5.41957 17.2968C8.44698 17.2968 10.9098 14.834 10.9098 11.8066H10.9095Z" fill="black"/>
</svg>
