<svg width="25" height="28" viewBox="0 0 25 28" fill="none" xmlns="http://www.w3.org/2000/svg">
<path fill-rule="evenodd" clip-rule="evenodd" d="M16.5073 14.6799C16.3924 16.1085 15.9531 17.7758 14.6665 18.4901C13.3799 19.2066 11.4309 19.0286 10.3764 18.0304C9.79732 17.4852 9.65762 16.674 9.98433 15.9552C10.2772 15.3108 10.791 14.9593 11.5548 14.6957C12.8819 14.236 15.2005 14.1887 16.5073 14.6777V14.6799ZM7.80098 9.1686C8.45216 9.57192 9.06503 10.1082 9.7162 10.498C10.2344 10.0361 10.4102 9.63952 11.2934 9.30605C12.6589 8.79006 14.5065 8.95229 15.5633 10.0271C15.9643 10.4372 16.3023 11.2663 16.3834 12.0324C14.9909 11.9693 13.4926 11.8431 12.1159 12.0482C9.77253 12.3974 7.70635 13.8868 7.42921 16.2932C7.13178 18.8889 9.00194 20.705 11.4016 21.2029C13.781 21.6964 16.4983 20.9551 17.7376 18.8957C18.4676 17.6812 18.7245 15.8336 18.9002 15.5857C20.0223 15.9395 20.7817 17.341 20.9844 18.4676C21.7956 23.0032 17.1698 25.4277 13.2672 25.5156C6.76677 25.662 3.5875 21.9465 3.04674 15.8313C2.47893 9.41645 4.54962 4.17326 9.82436 2.87542C12.8729 2.1251 16.3113 2.45858 18.8935 4.23184C20.3355 5.221 21.4847 6.93568 22.0187 8.57601C22.1426 8.95905 22.2327 9.14156 22.3972 9.45926C23.3931 9.35562 23.8347 9.05369 24.6391 8.84639C24.3755 5.31563 20.5654 1.79839 17.287 0.73488C11.1492 -1.25244 4.3243 0.773185 1.80973 7.02806C0.19644 11.0388 0.106312 16.1152 1.48527 20.2138C2.80339 24.1298 5.41485 26.703 9.53595 27.6245C11.7396 28.1157 14.315 28.1495 16.4848 27.5795C19.2653 26.8494 21.7235 25.0717 22.8929 22.3994C23.7446 20.4549 23.828 18.0056 22.7532 16.1287C21.8654 14.5763 20.8245 13.7403 19.2247 12.8999C18.7808 12.6656 18.9678 12.7557 18.9273 12.2104C18.8574 11.2483 18.4203 9.95497 17.999 9.26774C17.5303 8.50391 16.8791 7.78964 16.0995 7.32323C14.4367 6.32957 11.5751 6.37238 9.78155 7.28493C9.15966 7.60038 7.99251 8.46786 7.79422 9.17311L7.80098 9.1686Z" fill="white"/>
</svg>
