<svg width="25" height="24" viewBox="0 0 25 24" fill="none" xmlns="http://www.w3.org/2000/svg">
<path d="M21.7377 4.91938C21.5201 4.35927 21.2592 3.95919 20.8399 3.53991C20.4191 3.12062 20.0206 2.85977 19.4589 2.64213C19.0364 2.4773 18.4011 2.28206 17.2296 2.22925C15.9638 2.17163 15.5845 2.15883 12.3807 2.15883C9.17682 2.15883 8.79594 2.17163 7.53169 2.22925C6.36185 2.28206 5.72653 2.4789 5.30244 2.64213C4.74233 2.85977 4.34225 3.12062 3.92296 3.53991C3.50368 3.95919 3.24283 4.35927 3.02519 4.91938C2.86035 5.34187 2.66511 5.9772 2.6123 7.14863C2.55469 8.41448 2.54189 8.79376 2.54189 11.9992C2.54189 15.2046 2.55469 15.5839 2.6123 16.8482C2.66511 18.018 2.86195 18.6533 3.02519 19.0774C3.24283 19.6375 3.50368 20.0376 3.92296 20.4569C4.34225 20.8762 4.74233 21.137 5.30244 21.3547C5.72493 21.5195 6.36025 21.7147 7.53169 21.7676C8.79754 21.8252 9.17682 21.838 12.3807 21.838C15.5845 21.838 15.9654 21.8252 17.2296 21.7676C18.3995 21.7147 19.0364 21.5179 19.4589 21.3547C20.019 21.137 20.4191 20.8762 20.8399 20.4569C21.2592 20.0376 21.5201 19.6375 21.7377 19.0774C21.9026 18.6549 22.0978 18.0196 22.1506 16.8482C22.2082 15.5823 22.221 15.203 22.221 11.9992C22.221 8.79536 22.2082 8.41448 22.1506 7.14863C22.0978 5.9788 21.901 5.34347 21.7377 4.91938ZM12.3823 18.162C8.97838 18.162 6.21942 15.4031 6.21942 11.9992C6.21942 8.59532 8.97838 5.83637 12.3823 5.83637C15.7861 5.83637 18.5451 8.59532 18.5451 11.9992C18.5451 15.4031 15.7861 18.162 12.3823 18.162ZM18.7883 7.03181C17.993 7.03181 17.348 6.38688 17.348 5.59152C17.348 4.79616 17.993 4.15123 18.7883 4.15123C19.5837 4.15123 20.2286 4.79616 20.2286 5.59152C20.2286 6.38688 19.5837 7.03181 18.7883 7.03181ZM12.3823 7.9984C10.1722 7.9984 8.38146 9.78916 8.38146 11.9992C8.38146 14.2092 10.1722 16 12.3823 16C14.5923 16 16.3831 14.2092 16.3831 11.9992C16.3831 9.78916 14.5923 7.9984 12.3823 7.9984ZM24.311 16.9474C24.2518 18.2244 24.0502 19.0966 23.7541 19.86C23.4469 20.6489 23.0372 21.3179 22.3699 21.9852C21.7025 22.6525 21.0336 23.0622 20.2446 23.3695C19.4813 23.6655 18.6091 23.8688 17.332 23.928C16.0518 23.9856 15.6437 24 12.3839 24C9.12401 24 8.71592 23.9856 7.43567 23.928C6.15861 23.8688 5.28644 23.6671 4.52308 23.3695C3.73413 23.0622 3.06519 22.6525 2.39786 21.9852C1.73053 21.3179 1.32084 20.6489 1.01358 19.86C0.717524 19.0966 0.514283 18.2244 0.455071 16.9474C0.39746 15.6671 0.383057 15.2591 0.383057 11.9992C0.383057 8.73935 0.39746 8.33127 0.455071 7.05101C0.512683 5.77395 0.715923 4.90178 1.01358 4.13843C1.32084 3.34947 1.73053 2.67894 2.39786 2.0132C3.06519 1.34587 3.73413 0.936187 4.52308 0.628926C5.28644 0.332867 6.15861 0.129626 7.43567 0.0720144C8.71592 0.0128025 9.12401 0 12.3839 0C15.6437 0 16.0518 0.0144028 17.332 0.0720144C18.6091 0.129626 19.4813 0.332867 20.2446 0.630526C21.0336 0.937788 21.7025 1.34747 22.3699 2.0148C23.0372 2.68214 23.4469 3.35107 23.7541 4.14003C24.0502 4.90338 24.2534 5.77556 24.311 7.05261C24.3703 8.33287 24.3831 8.74095 24.3831 12.0008C24.3831 15.2607 24.3687 15.6687 24.311 16.949V16.9474Z" fill="white"/>
</svg>
