<svg width="25" height="28" viewBox="0 0 25 28" fill="none" xmlns="http://www.w3.org/2000/svg">
<path fill-rule="evenodd" clip-rule="evenodd" d="M13.8272 18.4687C13.8224 23.7891 8.13698 25.0059 5.91338 21.1098C4.17888 18.0679 6.78421 14.3794 10.4226 14.8709L10.4584 10.4499C5.169 10.4094 0.607293 13.1316 0.612064 18.9841C0.61445 22.0045 1.8861 24.2591 4.06675 26.2108C8.12982 29.3195 14.1612 28.2459 16.9526 24.0086C17.9881 22.4388 18.4653 20.6565 18.4581 18.6668C18.4533 17.7005 18.3412 10.3688 18.5058 9.10672C19.4196 9.54333 21.9748 11.7908 25 11.3136C25 11.1538 25 7.05252 25 6.53718C23.9837 6.53718 23.2584 6.51332 22.2802 6.17453C18.47 4.86233 18.4724 1.28358 18.3006 0L13.8415 0.0190867L13.8296 18.4687H13.8272Z" fill="white"/>
</svg>
