<svg width="26" height="24" viewBox="0 0 26 24" fill="none" xmlns="http://www.w3.org/2000/svg">
<path d="M25.5452 10.22C25.5452 4.58463 19.8951 0 12.9507 0C6.00637 0 0.356201 4.58463 0.356201 10.22C0.356201 15.2717 4.83719 19.5044 10.8886 20.3036C11.2981 20.3924 11.8572 20.5733 11.9986 20.9252C12.1252 21.2442 12.0808 21.7424 12.0397 22.0631C12.0397 22.0631 11.8917 22.9511 11.8605 23.1418C11.8062 23.4592 11.6072 24.3867 12.9507 23.821C14.2958 23.2553 20.2042 19.5504 22.8468 16.5083C24.6721 14.507 25.5469 12.4762 25.5469 10.22H25.5452ZM8.50752 13.2293C8.50752 13.3642 8.39738 13.4743 8.26254 13.4743H4.73364C4.66787 13.4743 4.60862 13.448 4.56422 13.4053C4.56422 13.4053 4.56257 13.4036 4.56093 13.402C4.55929 13.402 4.55764 13.3987 4.55764 13.397C4.51488 13.3543 4.48859 13.2934 4.48859 13.2277V7.74026C4.48859 7.60377 4.5988 7.49524 4.73364 7.49524H5.61663C5.75147 7.49524 5.86168 7.60377 5.86168 7.74026V12.098H8.26254C8.39738 12.098 8.50752 12.2081 8.50752 12.343V13.226V13.2293ZM10.6371 13.2293C10.6371 13.3642 10.5268 13.4743 10.392 13.4743H9.50894C9.37409 13.4743 9.26396 13.3642 9.26396 13.2293V7.7419C9.26396 7.60706 9.37409 7.49688 9.50894 7.49688H10.392C10.5268 7.49688 10.6371 7.60706 10.6371 7.7419V13.2293ZM16.7181 13.2293C16.7181 13.3642 16.6079 13.4743 16.473 13.4743H15.59C15.5686 13.4743 15.5472 13.471 15.5275 13.4661H15.5242C15.5242 13.4661 15.5127 13.4612 15.5077 13.4595C15.5045 13.4595 15.5029 13.4579 15.5012 13.4562C15.4963 13.4546 15.493 13.4529 15.4897 13.4513C15.4847 13.4497 15.4815 13.448 15.4782 13.4447C15.4749 13.4447 15.4733 13.4431 15.4716 13.4414C15.4667 13.4381 15.4618 13.4349 15.4568 13.4332C15.4568 13.4332 15.4552 13.4332 15.4552 13.4316C15.4321 13.4168 15.4108 13.3954 15.3927 13.3707L12.8751 9.97008V13.2293C12.8751 13.3642 12.7649 13.4743 12.63 13.4743H11.747C11.6122 13.4743 11.502 13.3642 11.502 13.2293V7.7419C11.502 7.60706 11.6122 7.49688 11.747 7.49688H12.63C12.63 7.49688 12.635 7.49688 12.6383 7.49688C12.6432 7.49688 12.6465 7.49688 12.6515 7.49688C12.6564 7.49688 12.6597 7.49688 12.6646 7.49853C12.6679 7.49853 12.6711 7.49853 12.6744 7.49853C12.6794 7.49853 12.6843 7.49853 12.6893 7.50182C12.6926 7.50182 12.6958 7.50346 12.6975 7.50346C12.7024 7.5051 12.7073 7.50675 12.7122 7.50839C12.7155 7.50839 12.7172 7.50839 12.7205 7.51168C12.7254 7.51333 12.7304 7.51497 12.7353 7.51826C12.7386 7.51826 12.7403 7.52155 12.7436 7.52155C12.7485 7.52319 12.7517 7.52648 12.7566 7.52813C12.7599 7.52977 12.7616 7.53141 12.7632 7.53306C12.7682 7.53635 12.7715 7.53799 12.7764 7.54128C12.7797 7.54128 12.7813 7.54457 12.783 7.54621C12.7879 7.5495 12.7912 7.55444 12.7962 7.55773C12.7978 7.55773 12.7994 7.56101 12.801 7.56101C12.806 7.56595 12.811 7.57088 12.8159 7.57581C12.8225 7.58404 12.829 7.59226 12.834 7.60048L15.3499 10.9962V7.73697C15.3499 7.60212 15.4601 7.49195 15.5949 7.49195H16.478C16.6129 7.49195 16.723 7.60212 16.723 7.73697V13.2244L16.7181 13.2293ZM21.597 8.62659C21.597 8.76144 21.4868 8.87161 21.352 8.87161H18.9512V9.79906H21.352C21.4868 9.79906 21.597 9.90924 21.597 10.0441V10.9271C21.597 11.0636 21.4868 11.1721 21.352 11.1721H18.9512V12.0996H21.352C21.4868 12.0996 21.597 12.2098 21.597 12.3446V13.2277C21.597 13.3625 21.4868 13.4727 21.352 13.4727H17.8231C17.7573 13.4727 17.6981 13.4464 17.6537 13.4036C17.6537 13.4036 17.6505 13.402 17.6505 13.4003C17.6505 13.4003 17.6472 13.397 17.6472 13.3954C17.6044 13.3526 17.5781 13.2918 17.5781 13.226V7.73861C17.5781 7.67283 17.6044 7.61364 17.6455 7.56924C17.6455 7.56924 17.6488 7.56595 17.6488 7.5643C17.6488 7.5643 17.6504 7.5643 17.6521 7.56101C17.6965 7.51826 17.7557 7.49195 17.8215 7.49195H21.3504C21.4852 7.49195 21.5954 7.60212 21.5954 7.73697V8.62002L21.597 8.62659Z" fill="white"/>
</svg>
