<svg width="412" height="48" viewBox="0 0 412 48" fill="none" xmlns="http://www.w3.org/2000/svg">
<mask id="path-1-outside-1_1591_49392" maskUnits="userSpaceOnUse" x="0" y="0.703125" width="412" height="47" fill="black">
<rect fill="white" y="0.703125" width="412" height="47"/>
<path d="M0.991494 1.90312H10.9115V19.8231H29.2795V1.90312H39.1995V46.7031H29.2795V28.1431H10.9115V46.7031H0.991494V1.90312ZM77.6475 47.1511C74.4475 47.1511 71.4608 46.5965 68.6875 45.4871C65.9142 44.3778 63.4822 42.8205 61.3915 40.8151C59.3008 38.7671 57.6582 36.3565 56.4635 33.5831C55.2688 30.7671 54.6715 27.6738 54.6715 24.3031C54.6715 20.9325 55.2688 17.8605 56.4635 15.0871C57.6582 12.2711 59.3008 9.86046 61.3915 7.85512C63.4822 5.80712 65.9142 4.22846 68.6875 3.11912C71.4608 2.00979 74.4475 1.45512 77.6475 1.45512C80.8048 1.45512 83.7702 2.00979 86.5435 3.11912C89.3595 4.22846 91.7915 5.80712 93.8395 7.85512C95.9302 9.86046 97.5728 12.2711 98.7675 15.0871C99.9622 17.8605 100.559 20.9325 100.559 24.3031C100.559 27.6738 99.9622 30.7671 98.7675 33.5831C97.5728 36.3565 95.9302 38.7671 93.8395 40.8151C91.7488 42.8205 89.3168 44.3778 86.5435 45.4871C83.7702 46.5965 80.8048 47.1511 77.6475 47.1511ZM77.6475 38.7031C80.1648 38.7031 82.3835 38.1058 84.3035 36.9111C86.2662 35.6738 87.7808 33.9671 88.8475 31.7911C89.9568 29.6151 90.5115 27.1191 90.5115 24.3031C90.5115 21.4445 89.9568 18.9485 88.8475 16.8151C87.7808 14.6391 86.2662 12.9538 84.3035 11.7591C82.3835 10.5218 80.1648 9.90312 77.6475 9.90312C75.0448 9.90312 72.7835 10.5218 70.8635 11.7591C68.9435 12.9538 67.4288 14.6391 66.3195 16.8151C65.2528 18.9485 64.7195 21.4445 64.7195 24.3031C64.7195 27.1191 65.2528 29.6151 66.3195 31.7911C67.4288 33.9671 68.9435 35.6738 70.8635 36.9111C72.7835 38.1058 75.0448 38.7031 77.6475 38.7031ZM116.004 1.90312H125.924V19.8231H128.804L143.588 1.90312H155.428L137.508 23.9191L156.004 46.7031H143.588L128.804 28.1431H125.924V46.7031H116.004V1.90312ZM170.104 1.90312H180.024V19.8231H182.904L197.688 1.90312H209.528L191.608 23.9191L210.104 46.7031H197.688L182.904 28.1431H180.024V46.7031H170.104V1.90312ZM245.964 10.1591H243.724L230.924 46.7031H220.748L236.94 1.90312H252.94L269.068 46.7031H258.892L245.964 10.1591ZM231.564 28.7831H257.676V37.0391H231.564V28.7831ZM282.929 1.90312H292.849V46.7031H282.929V1.90312ZM327.878 1.90312C332.699 1.90312 336.859 2.84179 340.358 4.71912C343.899 6.55379 346.63 9.17779 348.55 12.5911C350.512 15.9618 351.494 19.8871 351.494 24.3671C351.494 28.8471 350.512 32.7725 348.55 36.1431C346.63 39.4711 343.899 42.0738 340.358 43.9511C336.859 45.7858 332.699 46.7031 327.878 46.7031H310.342V1.90312H327.878ZM327.366 38.4471C331.803 38.4471 335.259 37.1885 337.734 34.6711C340.208 32.1538 341.446 28.7191 341.446 24.3671C341.446 19.9725 340.208 16.5165 337.734 13.9991C335.259 11.4391 331.803 10.1591 327.366 10.1591H320.262V38.4471H327.366ZM388.06 47.1511C384.86 47.1511 381.873 46.5965 379.1 45.4871C376.327 44.3778 373.895 42.8205 371.804 40.8151C369.713 38.7671 368.071 36.3565 366.876 33.5831C365.681 30.7671 365.084 27.6738 365.084 24.3031C365.084 20.9325 365.681 17.8605 366.876 15.0871C368.071 12.2711 369.713 9.86046 371.804 7.85512C373.895 5.80712 376.327 4.22846 379.1 3.11912C381.873 2.00979 384.86 1.45512 388.06 1.45512C391.217 1.45512 394.183 2.00979 396.956 3.11912C399.772 4.22846 402.204 5.80712 404.252 7.85512C406.343 9.86046 407.985 12.2711 409.18 15.0871C410.375 17.8605 410.972 20.9325 410.972 24.3031C410.972 27.6738 410.375 30.7671 409.18 33.5831C407.985 36.3565 406.343 38.7671 404.252 40.8151C402.161 42.8205 399.729 44.3778 396.956 45.4871C394.183 46.5965 391.217 47.1511 388.06 47.1511ZM388.06 38.7031C390.577 38.7031 392.796 38.1058 394.716 36.9111C396.679 35.6738 398.193 33.9671 399.26 31.7911C400.369 29.6151 400.924 27.1191 400.924 24.3031C400.924 21.4445 400.369 18.9485 399.26 16.8151C398.193 14.6391 396.679 12.9538 394.716 11.7591C392.796 10.5218 390.577 9.90312 388.06 9.90312C385.457 9.90312 383.196 10.5218 381.276 11.7591C379.356 12.9538 377.841 14.6391 376.732 16.8151C375.665 18.9485 375.132 21.4445 375.132 24.3031C375.132 27.1191 375.665 29.6151 376.732 31.7911C377.841 33.9671 379.356 35.6738 381.276 36.9111C383.196 38.1058 385.457 38.7031 388.06 38.7031Z"/>
</mask>
<path d="M0.991494 1.90312V1.40312H0.491494V1.90312H0.991494ZM10.9115 1.90312H11.4115V1.40312H10.9115V1.90312ZM10.9115 19.8231H10.4115V20.3231H10.9115V19.8231ZM29.2795 19.8231V20.3231H29.7795V19.8231H29.2795ZM29.2795 1.90312V1.40312H28.7795V1.90312H29.2795ZM39.1995 1.90312H39.6995V1.40312H39.1995V1.90312ZM39.1995 46.7031V47.2031H39.6995V46.7031H39.1995ZM29.2795 46.7031H28.7795V47.2031H29.2795V46.7031ZM29.2795 28.1431H29.7795V27.6431H29.2795V28.1431ZM10.9115 28.1431V27.6431H10.4115V28.1431H10.9115ZM10.9115 46.7031V47.2031H11.4115V46.7031H10.9115ZM0.991494 46.7031H0.491494V47.2031H0.991494V46.7031ZM0.991494 2.40312H10.9115V1.40312H0.991494V2.40312ZM10.4115 1.90312V19.8231H11.4115V1.90312H10.4115ZM10.9115 20.3231H29.2795V19.3231H10.9115V20.3231ZM29.7795 19.8231V1.90312H28.7795V19.8231H29.7795ZM29.2795 2.40312H39.1995V1.40312H29.2795V2.40312ZM38.6995 1.90312V46.7031H39.6995V1.90312H38.6995ZM39.1995 46.2031H29.2795V47.2031H39.1995V46.2031ZM29.7795 46.7031V28.1431H28.7795V46.7031H29.7795ZM29.2795 27.6431H10.9115V28.6431H29.2795V27.6431ZM10.4115 28.1431V46.7031H11.4115V28.1431H10.4115ZM10.9115 46.2031H0.991494V47.2031H10.9115V46.2031ZM1.49149 46.7031V1.90312H0.491494V46.7031H1.49149ZM68.6875 45.4871L68.5018 45.9514L68.6875 45.4871ZM61.3915 40.8151L61.0416 41.1723L61.0454 41.176L61.3915 40.8151ZM56.4635 33.5831L56.0032 33.7784L56.0043 33.7809L56.4635 33.5831ZM56.4635 15.0871L56.9227 15.2849L56.9238 15.2824L56.4635 15.0871ZM61.3915 7.85512L61.7376 8.21598L61.7414 8.2123L61.3915 7.85512ZM68.6875 3.11912L68.5018 2.65488L68.6875 3.11912ZM86.5435 3.11912L86.3578 3.58337L86.3602 3.58433L86.5435 3.11912ZM93.8395 7.85512L93.4859 8.20875L93.4934 8.21596L93.8395 7.85512ZM98.7675 15.0871L98.3072 15.2824L98.3083 15.2849L98.7675 15.0871ZM98.7675 33.5831L99.2267 33.7809L99.2278 33.7784L98.7675 33.5831ZM93.8395 40.8151L94.1856 41.176L94.1894 41.1723L93.8395 40.8151ZM86.5435 45.4871L86.7292 45.9514L86.5435 45.4871ZM84.3035 36.9111L84.5676 37.3357L84.5701 37.3341L84.3035 36.9111ZM88.8475 31.7911L88.402 31.564L88.3985 31.571L88.8475 31.7911ZM88.8475 16.8151L88.3984 17.0353L88.4039 17.0458L88.8475 16.8151ZM84.3035 11.7591L84.0326 12.1795L84.0435 12.1862L84.3035 11.7591ZM70.8635 11.7591L71.1277 12.1837L71.1343 12.1794L70.8635 11.7591ZM66.3195 16.8151L65.874 16.588L65.8723 16.5915L66.3195 16.8151ZM66.3195 31.7911L65.8705 32.0112L65.874 32.0182L66.3195 31.7911ZM70.8635 36.9111L70.5926 37.3315L70.5993 37.3357L70.8635 36.9111ZM77.6475 46.6511C74.5065 46.6511 71.5834 46.107 68.8732 45.0229L68.5018 45.9514C71.3383 47.086 74.3885 47.6511 77.6475 47.6511V46.6511ZM68.8732 45.0229C66.1576 43.9366 63.7805 42.4138 61.7376 40.4543L61.0454 41.176C63.1838 43.2271 65.6707 44.8189 68.5018 45.9514L68.8732 45.0229ZM61.7414 40.4579C59.6987 38.4569 58.0925 36.1009 56.9227 33.3853L56.0043 33.7809C57.2238 36.6121 58.903 39.0773 61.0416 41.1723L61.7414 40.4579ZM56.9238 33.3878C55.7579 30.6396 55.1715 27.6136 55.1715 24.3031H54.1715C54.1715 27.734 54.7798 30.8946 56.0032 33.7784L56.9238 33.3878ZM55.1715 24.3031C55.1715 20.9926 55.7579 17.9889 56.9227 15.2849L56.0043 14.8893C54.7797 17.732 54.1715 20.8724 54.1715 24.3031H55.1715ZM56.9238 15.2824C58.0935 12.5252 59.6985 10.1718 61.7376 8.21596L61.0454 7.49428C58.9031 9.5491 57.2228 12.017 56.0032 14.8918L56.9238 15.2824ZM61.7414 8.2123C63.7839 6.21144 66.1598 4.66871 68.8732 3.58336L68.5018 2.65488C65.6685 3.7882 63.1804 5.40281 61.0416 7.49794L61.7414 8.2123ZM68.8732 3.58336C71.5834 2.4993 74.5065 1.95512 77.6475 1.95512V0.955124C74.3885 0.955124 71.3383 1.52028 68.5018 2.65488L68.8732 3.58336ZM77.6475 1.95512C80.7449 1.95512 83.6468 2.49898 86.3578 3.58336L86.7292 2.65488C83.8935 1.5206 80.8648 0.955124 77.6475 0.955124V1.95512ZM86.3602 3.58433C89.1153 4.66967 91.4886 6.21136 93.4859 8.20868L94.193 7.50157C92.0944 5.40289 89.6036 3.78724 86.7268 2.65392L86.3602 3.58433ZM93.4934 8.21596C95.5325 10.1718 97.1375 12.5252 98.3072 15.2824L99.2278 14.8918C98.0082 12.017 96.3279 9.5491 94.1856 7.49428L93.4934 8.21596ZM98.3083 15.2849C99.4731 17.9889 100.059 20.9926 100.059 24.3031H101.059C101.059 20.8724 100.451 17.732 99.2267 14.8893L98.3083 15.2849ZM100.059 24.3031C100.059 27.6136 99.4731 30.6396 98.3072 33.3878L99.2278 33.7784C100.451 30.8946 101.059 27.734 101.059 24.3031H100.059ZM98.3083 33.3853C97.1385 36.1009 95.5323 38.4569 93.4896 40.4579L94.1894 41.1723C96.328 39.0773 98.0071 36.6121 99.2267 33.7809L98.3083 33.3853ZM93.4934 40.4543C91.4505 42.4138 89.0734 43.9366 86.3578 45.0229L86.7292 45.9514C89.5602 44.8189 92.0472 43.2271 94.1856 41.176L93.4934 40.4543ZM86.3578 45.0229C83.6468 46.1073 80.7449 46.6511 77.6475 46.6511V47.6511C80.8648 47.6511 83.8935 47.0856 86.7292 45.9514L86.3578 45.0229ZM77.6475 39.2031C80.2473 39.2031 82.5596 38.5851 84.5676 37.3357L84.0393 36.4866C82.2074 37.6265 80.0824 38.2031 77.6475 38.2031V39.2031ZM84.5701 37.3341C86.6148 36.0451 88.1909 34.2665 89.2965 32.0112L88.3985 31.571C87.3708 33.6677 85.9175 35.3025 84.0368 36.4882L84.5701 37.3341ZM89.2929 32.0182C90.4433 29.7618 91.0115 27.186 91.0115 24.3031H90.0115C90.0115 27.0523 89.4704 29.4684 88.402 31.564L89.2929 32.0182ZM91.0115 24.3031C91.0115 21.3792 90.4439 18.8013 89.2911 16.5844L88.4039 17.0458C89.4698 19.0956 90.0115 21.5097 90.0115 24.3031H91.0115ZM89.2965 16.595C88.1902 14.3383 86.6121 12.579 84.5635 11.332L84.0435 12.1862C85.9202 13.3285 87.3714 14.9399 88.3985 17.0352L89.2965 16.595ZM84.5743 11.3388C82.5654 10.0442 80.2507 9.40312 77.6475 9.40312V10.4031C80.0789 10.4031 82.2015 10.9994 84.0326 12.1794L84.5743 11.3388ZM77.6475 9.40312C74.9625 9.40312 72.6042 10.0425 70.5926 11.3388L71.1343 12.1794C72.9628 11.0011 75.1271 10.4031 77.6475 10.4031V9.40312ZM70.5993 11.3346C68.5959 12.5812 67.0213 14.3377 65.874 16.588L66.7649 17.0422C67.8364 14.9406 69.2911 13.3264 71.1276 12.1837L70.5993 11.3346ZM65.8723 16.5915C64.7647 18.8067 64.2195 21.3821 64.2195 24.3031H65.2195C65.2195 21.5068 65.741 19.0902 66.7667 17.0387L65.8723 16.5915ZM64.2195 24.3031C64.2195 27.1831 64.7652 29.7564 65.8705 32.0112L66.7685 31.571C65.7404 29.4738 65.2195 27.0552 65.2195 24.3031H64.2195ZM65.874 32.0182C67.0206 34.2673 68.5932 36.0429 70.5926 37.3314L71.1343 36.4908C69.2937 35.3047 67.837 33.667 66.7649 31.564L65.874 32.0182ZM70.5993 37.3357C72.61 38.5867 74.9658 39.2031 77.6475 39.2031V38.2031C75.1238 38.2031 72.957 37.6249 71.1276 36.4866L70.5993 37.3357ZM116.004 1.90312V1.40312H115.504V1.90312H116.004ZM125.924 1.90312H126.424V1.40312H125.924V1.90312ZM125.924 19.8231H125.424V20.3231H125.924V19.8231ZM128.804 19.8231V20.3231H129.04L129.19 20.1413L128.804 19.8231ZM143.588 1.90312V1.40312H143.352L143.202 1.58493L143.588 1.90312ZM155.428 1.90312L155.816 2.21876L156.48 1.40312H155.428V1.90312ZM137.508 23.9191L137.12 23.6035L136.864 23.9187L137.12 24.2343L137.508 23.9191ZM156.004 46.7031V47.2031H157.054L156.392 46.388L156.004 46.7031ZM143.588 46.7031L143.197 47.0146L143.347 47.2031H143.588V46.7031ZM128.804 28.1431L129.195 27.8316L129.045 27.6431H128.804V28.1431ZM125.924 28.1431V27.6431H125.424V28.1431H125.924ZM125.924 46.7031V47.2031H126.424V46.7031H125.924ZM116.004 46.7031H115.504V47.2031H116.004V46.7031ZM116.004 2.40312H125.924V1.40312H116.004V2.40312ZM125.424 1.90312V19.8231H126.424V1.90312H125.424ZM125.924 20.3231H128.804V19.3231H125.924V20.3231ZM129.19 20.1413L143.974 2.22131L143.202 1.58493L128.418 19.5049L129.19 20.1413ZM143.588 2.40312H155.428V1.40312H143.588V2.40312ZM155.04 1.58749L137.12 23.6035L137.896 24.2348L155.816 2.21876L155.04 1.58749ZM137.12 24.2343L155.616 47.0183L156.392 46.388L137.896 23.604L137.12 24.2343ZM156.004 46.2031H143.588V47.2031H156.004V46.2031ZM143.979 46.3916L129.195 27.8316L128.413 28.4546L143.197 47.0146L143.979 46.3916ZM128.804 27.6431H125.924V28.6431H128.804V27.6431ZM125.424 28.1431V46.7031H126.424V28.1431H125.424ZM125.924 46.2031H116.004V47.2031H125.924V46.2031ZM116.504 46.7031V1.90312H115.504V46.7031H116.504ZM170.104 1.90312V1.40312H169.604V1.90312H170.104ZM180.024 1.90312H180.524V1.40312H180.024V1.90312ZM180.024 19.8231H179.524V20.3231H180.024V19.8231ZM182.904 19.8231V20.3231H183.14L183.29 20.1413L182.904 19.8231ZM197.688 1.90312V1.40312H197.452L197.302 1.58493L197.688 1.90312ZM209.528 1.90312L209.916 2.21876L210.58 1.40312H209.528V1.90312ZM191.608 23.9191L191.22 23.6035L190.964 23.9187L191.22 24.2343L191.608 23.9191ZM210.104 46.7031V47.2031H211.154L210.492 46.388L210.104 46.7031ZM197.688 46.7031L197.297 47.0146L197.447 47.2031H197.688V46.7031ZM182.904 28.1431L183.295 27.8316L183.145 27.6431H182.904V28.1431ZM180.024 28.1431V27.6431H179.524V28.1431H180.024ZM180.024 46.7031V47.2031H180.524V46.7031H180.024ZM170.104 46.7031H169.604V47.2031H170.104V46.7031ZM170.104 2.40312H180.024V1.40312H170.104V2.40312ZM179.524 1.90312V19.8231H180.524V1.90312H179.524ZM180.024 20.3231H182.904V19.3231H180.024V20.3231ZM183.29 20.1413L198.074 2.22131L197.302 1.58493L182.518 19.5049L183.29 20.1413ZM197.688 2.40312H209.528V1.40312H197.688V2.40312ZM209.14 1.58749L191.22 23.6035L191.996 24.2348L209.916 2.21876L209.14 1.58749ZM191.22 24.2343L209.716 47.0183L210.492 46.388L191.996 23.604L191.22 24.2343ZM210.104 46.2031H197.688V47.2031H210.104V46.2031ZM198.079 46.3916L183.295 27.8316L182.513 28.4546L197.297 47.0146L198.079 46.3916ZM182.904 27.6431H180.024V28.6431H182.904V27.6431ZM179.524 28.1431V46.7031H180.524V28.1431H179.524ZM180.024 46.2031H170.104V47.2031H180.024V46.2031ZM170.604 46.7031V1.90312H169.604V46.7031H170.604ZM245.964 10.1591L246.435 9.99237L246.317 9.65912H245.964V10.1591ZM243.724 10.1591V9.65912H243.369L243.252 9.99384L243.724 10.1591ZM230.924 46.7031V47.2031H231.279L231.396 46.8684L230.924 46.7031ZM220.748 46.7031L220.278 46.5332L220.036 47.2031H220.748V46.7031ZM236.94 1.90312V1.40312H236.589L236.47 1.73317L236.94 1.90312ZM252.94 1.90312L253.41 1.73376L253.291 1.40312H252.94V1.90312ZM269.068 46.7031V47.2031H269.779L269.538 46.5338L269.068 46.7031ZM258.892 46.7031L258.421 46.8699L258.539 47.2031H258.892V46.7031ZM231.564 28.7831V28.2831H231.064V28.7831H231.564ZM257.676 28.7831H258.176V28.2831H257.676V28.7831ZM257.676 37.0391V37.5391H258.176V37.0391H257.676ZM231.564 37.0391H231.064V37.5391H231.564V37.0391ZM245.964 9.65912H243.724V10.6591H245.964V9.65912ZM243.252 9.99384L230.452 46.5378L231.396 46.8684L244.196 10.3244L243.252 9.99384ZM230.924 46.2031H220.748V47.2031H230.924V46.2031ZM221.218 46.8731L237.41 2.07308L236.47 1.73317L220.278 46.5332L221.218 46.8731ZM236.94 2.40312H252.94V1.40312H236.94V2.40312ZM252.47 2.07248L268.598 46.8725L269.538 46.5338L253.41 1.73376L252.47 2.07248ZM269.068 46.2031H258.892V47.2031H269.068V46.2031ZM259.363 46.5364L246.435 9.99237L245.493 10.3259L258.421 46.8699L259.363 46.5364ZM231.564 29.2831H257.676V28.2831H231.564V29.2831ZM257.176 28.7831V37.0391H258.176V28.7831H257.176ZM257.676 36.5391H231.564V37.5391H257.676V36.5391ZM232.064 37.0391V28.7831H231.064V37.0391H232.064ZM282.929 1.90312V1.40312H282.429V1.90312H282.929ZM292.849 1.90312H293.349V1.40312H292.849V1.90312ZM292.849 46.7031V47.2031H293.349V46.7031H292.849ZM282.929 46.7031H282.429V47.2031H282.929V46.7031ZM282.929 2.40312H292.849V1.40312H282.929V2.40312ZM292.349 1.90312V46.7031H293.349V1.90312H292.349ZM292.849 46.2031H282.929V47.2031H292.849V46.2031ZM283.429 46.7031V1.90312H282.429V46.7031H283.429ZM340.358 4.71912L340.121 5.15975L340.128 5.16308L340.358 4.71912ZM348.549 12.5911L348.114 12.8363L348.117 12.8427L348.549 12.5911ZM348.549 36.1431L348.117 35.8915L348.116 35.8933L348.549 36.1431ZM340.358 43.9511L340.59 44.3939L340.592 44.3929L340.358 43.9511ZM310.341 46.7031H309.841V47.2031H310.341V46.7031ZM310.341 1.90312V1.40312H309.841V1.90312H310.341ZM337.733 34.6711L337.377 34.3206L337.733 34.6711ZM337.733 13.9991L337.374 14.3466L337.377 14.3496L337.733 13.9991ZM320.262 10.1591V9.65912H319.762V10.1591H320.262ZM320.262 38.4471H319.762V38.9471H320.262V38.4471ZM327.878 2.40312C332.634 2.40312 336.709 3.3289 340.121 5.1597L340.594 4.27854C337.009 2.35468 332.764 1.40312 327.878 1.40312V2.40312ZM340.128 5.16308C343.584 6.95381 346.242 9.50947 348.114 12.8363L348.985 12.346C347.017 8.84611 344.214 6.15377 340.587 4.27517L340.128 5.16308ZM348.117 12.8427C350.029 16.1262 350.993 19.9622 350.993 24.3671H351.993C351.993 19.8121 350.995 15.7973 348.982 12.3395L348.117 12.8427ZM350.993 24.3671C350.993 28.7721 350.029 32.608 348.117 35.8915L348.982 36.3947C350.995 32.9369 351.993 28.9222 351.993 24.3671H350.993ZM348.116 35.8933C346.245 39.1363 343.585 41.674 340.123 43.5094L340.592 44.3929C344.212 42.4735 347.014 39.806 348.983 36.393L348.116 35.8933ZM340.125 43.5083C336.712 45.298 332.636 46.2031 327.878 46.2031V47.2031C332.762 47.2031 337.005 46.2736 340.59 44.3939L340.125 43.5083ZM327.878 46.2031H310.341V47.2031H327.878V46.2031ZM310.841 46.7031V1.90312H309.841V46.7031H310.841ZM310.341 2.40312H327.878V1.40312H310.341V2.40312ZM327.366 38.9471C331.9 38.9471 335.499 37.6578 338.09 35.0216L337.377 34.3206C335.019 36.7191 331.705 37.9471 327.366 37.9471V38.9471ZM338.09 35.0216C340.677 32.39 341.945 28.8179 341.945 24.3671H340.945C340.945 28.6203 339.739 31.9175 337.377 34.3206L338.09 35.0216ZM341.945 24.3671C341.945 19.8752 340.678 16.2811 338.09 13.6486L337.377 14.3496C339.738 16.7518 340.945 20.0697 340.945 24.3671H341.945ZM338.093 13.6516C335.502 10.9713 331.903 9.65912 327.366 9.65912V10.6591C331.703 10.6591 335.016 11.9069 337.374 14.3466L338.093 13.6516ZM327.366 9.65912H320.262V10.6591H327.366V9.65912ZM319.762 10.1591V38.4471H320.762V10.1591H319.762ZM320.262 38.9471H327.366V37.9471H320.262V38.9471ZM379.1 45.4871L378.914 45.9514L379.1 45.4871ZM371.804 40.8151L371.454 41.1723L371.458 41.176L371.804 40.8151ZM366.876 33.5831L366.416 33.7784L366.417 33.7809L366.876 33.5831ZM366.876 15.0871L367.335 15.2849L367.336 15.2824L366.876 15.0871ZM371.804 7.85512L372.15 8.21598L372.154 8.2123L371.804 7.85512ZM379.1 3.11912L378.914 2.65488L379.1 3.11912ZM396.956 3.11912L396.77 3.58337L396.773 3.58433L396.956 3.11912ZM404.252 7.85512L403.898 8.20875L403.906 8.21596L404.252 7.85512ZM409.18 15.0871L408.72 15.2824L408.721 15.2849L409.18 15.0871ZM409.18 33.5831L409.639 33.7809L409.64 33.7784L409.18 33.5831ZM404.252 40.8151L404.598 41.176L404.602 41.1723L404.252 40.8151ZM396.956 45.4871L397.142 45.9514L396.956 45.4871ZM394.716 36.9111L394.98 37.3357L394.983 37.3341L394.716 36.9111ZM399.26 31.7911L398.814 31.564L398.811 31.571L399.26 31.7911ZM399.26 16.8151L398.811 17.0353L398.816 17.0458L399.26 16.8151ZM394.716 11.7591L394.445 12.1795L394.456 12.1862L394.716 11.7591ZM381.276 11.7591L381.54 12.1837L381.547 12.1794L381.276 11.7591ZM376.732 16.8151L376.287 16.588L376.285 16.5915L376.732 16.8151ZM376.732 31.7911L376.283 32.0112L376.287 32.0182L376.732 31.7911ZM381.276 36.9111L381.005 37.3315L381.012 37.3357L381.276 36.9111ZM388.06 46.6511C384.919 46.6511 381.996 46.107 379.286 45.0229L378.914 45.9514C381.751 47.086 384.801 47.6511 388.06 47.6511V46.6511ZM379.286 45.0229C376.57 43.9366 374.193 42.4138 372.15 40.4543L371.458 41.176C373.596 43.2271 376.083 44.8189 378.914 45.9514L379.286 45.0229ZM372.154 40.4579C370.111 38.4569 368.505 36.1009 367.335 33.3853L366.417 33.7809C367.636 36.6121 369.316 39.0773 371.454 41.1723L372.154 40.4579ZM367.336 33.3878C366.17 30.6396 365.584 27.6136 365.584 24.3031H364.584C364.584 27.734 365.192 30.8946 366.416 33.7784L367.336 33.3878ZM365.584 24.3031C365.584 20.9926 366.17 17.9889 367.335 15.2849L366.417 14.8893C365.192 17.732 364.584 20.8724 364.584 24.3031H365.584ZM367.336 15.2824C368.506 12.5252 370.111 10.1718 372.15 8.21596L371.458 7.49428C369.316 9.5491 367.635 12.017 366.416 14.8918L367.336 15.2824ZM372.154 8.2123C374.196 6.21144 376.572 4.66871 379.286 3.58336L378.914 2.65488C376.081 3.7882 373.593 5.40281 371.454 7.49794L372.154 8.2123ZM379.286 3.58336C381.996 2.4993 384.919 1.95512 388.06 1.95512V0.955124C384.801 0.955124 381.751 1.52028 378.914 2.65488L379.286 3.58336ZM388.06 1.95512C391.157 1.95512 394.059 2.49898 396.77 3.58336L397.142 2.65488C394.306 1.5206 391.277 0.955124 388.06 0.955124V1.95512ZM396.773 3.58433C399.528 4.66967 401.901 6.21136 403.898 8.20868L404.606 7.50157C402.507 5.40289 400.016 3.78724 397.139 2.65392L396.773 3.58433ZM403.906 8.21596C405.945 10.1718 407.55 12.5252 408.72 15.2824L409.64 14.8918C408.421 12.017 406.74 9.5491 404.598 7.49428L403.906 8.21596ZM408.721 15.2849C409.886 17.9889 410.472 20.9926 410.472 24.3031H411.472C411.472 20.8724 410.864 17.732 409.639 14.8893L408.721 15.2849ZM410.472 24.3031C410.472 27.6136 409.886 30.6396 408.72 33.3878L409.64 33.7784C410.864 30.8946 411.472 27.734 411.472 24.3031H410.472ZM408.721 33.3853C407.551 36.1009 405.945 38.4569 403.902 40.4579L404.602 41.1723C406.741 39.0773 408.42 36.6121 409.639 33.7809L408.721 33.3853ZM403.906 40.4543C401.863 42.4138 399.486 43.9366 396.77 45.0229L397.142 45.9514C399.973 44.8189 402.46 43.2271 404.598 41.176L403.906 40.4543ZM396.77 45.0229C394.059 46.1073 391.157 46.6511 388.06 46.6511V47.6511C391.277 47.6511 394.306 47.0856 397.142 45.9514L396.77 45.0229ZM388.06 39.2031C390.66 39.2031 392.972 38.5851 394.98 37.3357L394.452 36.4866C392.62 37.6265 390.495 38.2031 388.06 38.2031V39.2031ZM394.983 37.3341C397.027 36.0451 398.603 34.2665 399.709 32.0112L398.811 31.571C397.783 33.6677 396.33 35.3025 394.449 36.4882L394.983 37.3341ZM399.705 32.0182C400.856 29.7618 401.424 27.186 401.424 24.3031H400.424C400.424 27.0523 399.883 29.4684 398.815 31.564L399.705 32.0182ZM401.424 24.3031C401.424 21.3792 400.856 18.8013 399.704 16.5844L398.816 17.0458C399.882 19.0956 400.424 21.5097 400.424 24.3031H401.424ZM399.709 16.595C398.603 14.3383 397.025 12.579 394.976 11.332L394.456 12.1862C396.333 13.3285 397.784 14.9399 398.811 17.0352L399.709 16.595ZM394.987 11.3388C392.978 10.0442 390.663 9.40312 388.06 9.40312V10.4031C390.491 10.4031 392.614 10.9994 394.445 12.1794L394.987 11.3388ZM388.06 9.40312C385.375 9.40312 383.017 10.0425 381.005 11.3388L381.547 12.1794C383.375 11.0011 385.54 10.4031 388.06 10.4031V9.40312ZM381.012 11.3346C379.008 12.5812 377.434 14.3377 376.287 16.588L377.177 17.0422C378.249 14.9406 379.704 13.3264 381.54 12.1837L381.012 11.3346ZM376.285 16.5915C375.177 18.8067 374.632 21.3821 374.632 24.3031H375.632C375.632 21.5068 376.154 19.0902 377.179 17.0387L376.285 16.5915ZM374.632 24.3031C374.632 27.1831 375.178 29.7564 376.283 32.0112L377.181 31.571C376.153 29.4738 375.632 27.0552 375.632 24.3031H374.632ZM376.287 32.0182C377.433 34.2673 379.006 36.0429 381.005 37.3314L381.547 36.4908C379.706 35.3047 378.25 33.667 377.177 31.564L376.287 32.0182ZM381.012 37.3357C383.023 38.5867 385.378 39.2031 388.06 39.2031V38.2031C385.536 38.2031 383.37 37.6249 381.54 36.4866L381.012 37.3357Z" fill="#BFE781" mask="url(#path-1-outside-1_1591_49392)"/>
</svg>
