<svg width="509" height="47" viewBox="0 0 509 47" fill="none" xmlns="http://www.w3.org/2000/svg">
<g opacity="0.6">
<mask id="path-1-outside-1_1591_49337" maskUnits="userSpaceOnUse" x="0" y="0" width="509" height="47" fill="black">
<rect fill="white" width="509" height="47"/>
<path d="M11.3428 46H1.42275V1.2H13.0068L26.2548 33.136L39.5668 1.2H51.0868V46H41.1668V18.736L30.2228 46H22.2868L11.3428 18.736V46ZM68.5228 1.2H78.4428V46H68.5228V1.2ZM125.759 1.2H137.023L120.127 30.768V46H110.207V30.832L93.3113 1.2H104.575L115.199 20.848L125.759 1.2ZM173.545 9.456H171.305L158.505 46H148.329L164.521 1.2H180.521L196.649 46H186.473L173.545 9.456ZM159.145 28.08H185.257V36.336H159.145V28.08ZM210.51 1.2H220.43V19.12H223.31L238.094 1.2H249.934L232.014 23.216L250.51 46H238.094L223.31 27.44H220.43V46H210.51V1.2ZM285.666 46.448C282.466 46.448 279.48 45.8933 276.706 44.784C273.933 43.6747 271.501 42.1173 269.41 40.112C267.32 38.064 265.677 35.6533 264.482 32.88C263.288 30.064 262.69 26.9707 262.69 23.6C262.69 20.2293 263.288 17.1573 264.482 14.384C265.677 11.568 267.32 9.15733 269.41 7.152C271.501 5.104 273.933 3.52533 276.706 2.416C279.48 1.30666 282.466 0.751999 285.666 0.751999C288.824 0.751999 291.789 1.30666 294.562 2.416C297.378 3.52533 299.81 5.104 301.858 7.152C303.949 9.15733 305.592 11.568 306.786 14.384C307.981 17.1573 308.578 20.2293 308.578 23.6C308.578 26.9707 307.981 30.064 306.786 32.88C305.592 35.6533 303.949 38.064 301.858 40.112C299.768 42.1173 297.336 43.6747 294.562 44.784C291.789 45.8933 288.824 46.448 285.666 46.448ZM285.666 38C288.184 38 290.402 37.4027 292.322 36.208C294.285 34.9707 295.8 33.264 296.866 31.088C297.976 28.912 298.53 26.416 298.53 23.6C298.53 20.7413 297.976 18.2453 296.866 16.112C295.8 13.936 294.285 12.2507 292.322 11.056C290.402 9.81866 288.184 9.2 285.666 9.2C283.064 9.2 280.802 9.81866 278.882 11.056C276.962 12.2507 275.448 13.936 274.338 16.112C273.272 18.2453 272.738 20.7413 272.738 23.6C272.738 26.416 273.272 28.912 274.338 31.088C275.448 33.264 276.962 34.9707 278.882 36.208C280.802 37.4027 283.064 38 285.666 38ZM341.623 1.2H351.479V32.048C351.479 35.12 350.86 37.7227 349.623 39.856C348.385 41.9893 346.679 43.632 344.503 44.784C342.327 45.8933 339.809 46.448 336.951 46.448C333.239 46.448 330.145 45.552 327.671 43.76C325.196 41.968 323.553 39.3653 322.743 35.952L331.575 33.904C331.788 34.8 332.129 35.568 332.599 36.208C333.111 36.848 333.708 37.3387 334.391 37.68C335.073 38.0213 335.841 38.192 336.695 38.192C337.676 38.192 338.529 37.9573 339.255 37.488C340.023 37.0187 340.599 36.3573 340.983 35.504C341.409 34.6507 341.623 33.6693 341.623 32.56V1.2ZM368.748 1.2H378.668V46H368.748V1.2ZM406.08 46H396.16V1.2H407.744L420.992 33.136L434.304 1.2H445.824V46H435.904V18.736L424.96 46H417.024L406.08 18.736V46ZM485.02 9.456H482.78L469.98 46H459.804L475.996 1.2H491.996L508.124 46H497.948L485.02 9.456ZM470.62 28.08H496.732V36.336H470.62V28.08Z"/>
</mask>
<path d="M11.3428 46V46.5H11.8428V46H11.3428ZM1.42275 46H0.922752V46.5H1.42275V46ZM1.42275 1.2V0.699997H0.922752V1.2H1.42275ZM13.0068 1.2L13.4686 1.00841L13.3407 0.699997H13.0068V1.2ZM26.2548 33.136L25.7929 33.3276L26.2536 34.4382L26.7163 33.3284L26.2548 33.136ZM39.5668 1.2V0.699997H39.2335L39.1052 1.00762L39.5668 1.2ZM51.0868 1.2H51.5868V0.699997H51.0868V1.2ZM51.0868 46V46.5H51.5868V46H51.0868ZM41.1668 46H40.6668V46.5H41.1668V46ZM41.1668 18.736H41.6668L40.7027 18.5497L41.1668 18.736ZM30.2228 46V46.5H30.5608L30.6868 46.1863L30.2228 46ZM22.2868 46L21.8227 46.1863L21.9487 46.5H22.2868V46ZM11.3428 18.736L11.8068 18.5497L10.8428 18.736H11.3428ZM11.3428 45.5H1.42275V46.5H11.3428V45.5ZM1.92275 46V1.2H0.922752V46H1.92275ZM1.42275 1.7H13.0068V0.699997H1.42275V1.7ZM12.5449 1.39158L25.7929 33.3276L26.7166 32.9444L13.4686 1.00841L12.5449 1.39158ZM26.7163 33.3284L40.0283 1.39237L39.1052 1.00762L25.7932 32.9436L26.7163 33.3284ZM39.5668 1.7H51.0868V0.699997H39.5668V1.7ZM50.5868 1.2V46H51.5868V1.2H50.5868ZM51.0868 45.5H41.1668V46.5H51.0868V45.5ZM41.6668 46V18.736H40.6668V46H41.6668ZM40.7027 18.5497L29.7587 45.8137L30.6868 46.1863L41.6308 18.9223L40.7027 18.5497ZM30.2228 45.5H22.2868V46.5H30.2228V45.5ZM22.7508 45.8137L11.8068 18.5497L10.8787 18.9223L21.8227 46.1863L22.7508 45.8137ZM10.8428 18.736V46H11.8428V18.736H10.8428ZM68.5228 1.2V0.699997H68.0228V1.2H68.5228ZM78.4427 1.2H78.9427V0.699997H78.4427V1.2ZM78.4427 46V46.5H78.9427V46H78.4427ZM68.5228 46H68.0228V46.5H68.5228V46ZM68.5228 1.7H78.4427V0.699997H68.5228V1.7ZM77.9427 1.2V46H78.9427V1.2H77.9427ZM78.4427 45.5H68.5228V46.5H78.4427V45.5ZM69.0228 46V1.2H68.0228V46H69.0228ZM125.759 1.2V0.699997H125.46L125.319 0.963289L125.759 1.2ZM137.023 1.2L137.457 1.44807L137.885 0.699997H137.023V1.2ZM120.127 30.768L119.693 30.5199L119.627 30.6352V30.768H120.127ZM120.127 46V46.5H120.627V46H120.127ZM110.207 46H109.707V46.5H110.207V46ZM110.207 30.832H110.707V30.6995L110.642 30.5843L110.207 30.832ZM93.3112 1.2V0.699997H92.4506L92.8769 1.44766L93.3112 1.2ZM104.575 1.2L105.015 0.962178L104.873 0.699997H104.575V1.2ZM115.199 20.848L114.759 21.0858L115.201 21.9017L115.64 21.0847L115.199 20.848ZM125.759 1.7H137.023V0.699997H125.759V1.7ZM136.589 0.951927L119.693 30.5199L120.561 31.0161L137.457 1.44807L136.589 0.951927ZM119.627 30.768V46H120.627V30.768H119.627ZM120.127 45.5H110.207V46.5H120.127V45.5ZM110.707 46V30.832H109.707V46H110.707ZM110.642 30.5843L93.7456 0.952332L92.8769 1.44766L109.773 31.0797L110.642 30.5843ZM93.3112 1.7H104.575V0.699997H93.3112V1.7ZM104.135 1.43781L114.759 21.0858L115.639 20.6102L105.015 0.962178L104.135 1.43781ZM115.64 21.0847L126.2 1.4367L125.319 0.963289L114.759 20.6113L115.64 21.0847ZM173.545 9.456L174.017 9.28924L173.899 8.956H173.545V9.456ZM171.305 9.456V8.956H170.951L170.833 9.29071L171.305 9.456ZM158.505 46V46.5H158.86L158.977 46.1653L158.505 46ZM148.329 46L147.859 45.83L147.617 46.5H148.329V46ZM164.521 1.2V0.699997H164.17L164.051 1.03004L164.521 1.2ZM180.521 1.2L180.992 1.03064L180.873 0.699997H180.521V1.2ZM196.649 46V46.5H197.361L197.12 45.8306L196.649 46ZM186.473 46L186.002 46.1668L186.12 46.5H186.473V46ZM159.145 28.08V27.58H158.645V28.08H159.145ZM185.257 28.08H185.757V27.58H185.257V28.08ZM185.257 36.336V36.836H185.757V36.336H185.257ZM159.145 36.336H158.645V36.836H159.145V36.336ZM173.545 8.956H171.305V9.956H173.545V8.956ZM170.833 9.29071L158.033 45.8347L158.977 46.1653L171.777 9.62128L170.833 9.29071ZM158.505 45.5H148.329V46.5H158.505V45.5ZM148.799 46.17L164.991 1.36995L164.051 1.03004L147.859 45.83L148.799 46.17ZM164.521 1.7H180.521V0.699997H164.521V1.7ZM180.051 1.36936L196.179 46.1694L197.12 45.8306L180.992 1.03064L180.051 1.36936ZM196.649 45.5H186.473V46.5H196.649V45.5ZM186.945 45.8332L174.017 9.28924L173.074 9.62275L186.002 46.1668L186.945 45.8332ZM159.145 28.58H185.257V27.58H159.145V28.58ZM184.757 28.08V36.336H185.757V28.08H184.757ZM185.257 35.836H159.145V36.836H185.257V35.836ZM159.645 36.336V28.08H158.645V36.336H159.645ZM210.51 1.2V0.699997H210.01V1.2H210.51ZM220.43 1.2H220.93V0.699997H220.43V1.2ZM220.43 19.12H219.93V19.62H220.43V19.12ZM223.31 19.12V19.62H223.546L223.696 19.4382L223.31 19.12ZM238.094 1.2V0.699997H237.859L237.709 0.881805L238.094 1.2ZM249.934 1.2L250.322 1.51563L250.986 0.699997H249.934V1.2ZM232.014 23.216L231.626 22.9004L231.37 23.2156L231.626 23.5311L232.014 23.216ZM250.51 46V46.5H251.56L250.898 45.6849L250.51 46ZM238.094 46L237.703 46.3115L237.853 46.5H238.094V46ZM223.31 27.44L223.701 27.1285L223.551 26.94H223.31V27.44ZM220.43 27.44V26.94H219.93V27.44H220.43ZM220.43 46V46.5H220.93V46H220.43ZM210.51 46H210.01V46.5H210.51V46ZM210.51 1.7H220.43V0.699997H210.51V1.7ZM219.93 1.2V19.12H220.93V1.2H219.93ZM220.43 19.62H223.31V18.62H220.43V19.62ZM223.696 19.4382L238.48 1.51819L237.709 0.881805L222.925 18.8018L223.696 19.4382ZM238.094 1.7H249.934V0.699997H238.094V1.7ZM249.546 0.884361L231.626 22.9004L232.402 23.5316L250.322 1.51563L249.546 0.884361ZM231.626 23.5311L250.122 46.3151L250.898 45.6849L232.402 22.9009L231.626 23.5311ZM250.51 45.5H238.094V46.5H250.51V45.5ZM238.485 45.6885L223.701 27.1285L222.919 27.7515L237.703 46.3115L238.485 45.6885ZM223.31 26.94H220.43V27.94H223.31V26.94ZM219.93 27.44V46H220.93V27.44H219.93ZM220.43 45.5H210.51V46.5H220.43V45.5ZM211.01 46V1.2H210.01V46H211.01ZM276.706 44.784L276.521 45.2482L276.706 44.784ZM269.41 40.112L269.06 40.4692L269.064 40.4728L269.41 40.112ZM264.482 32.88L264.022 33.0753L264.023 33.0778L264.482 32.88ZM264.482 14.384L264.941 14.5818L264.943 14.5793L264.482 14.384ZM269.41 7.152L269.756 7.51286L269.76 7.50918L269.41 7.152ZM276.706 2.416L276.521 1.95176L276.706 2.416ZM294.562 2.416L294.377 2.88024L294.379 2.8812L294.562 2.416ZM301.858 7.152L301.505 7.50563L301.512 7.51284L301.858 7.152ZM306.786 14.384L306.326 14.5793L306.327 14.5818L306.786 14.384ZM306.786 32.88L307.245 33.0778L307.247 33.0753L306.786 32.88ZM301.858 40.112L302.204 40.4729L302.208 40.4692L301.858 40.112ZM294.562 44.784L294.748 45.2482L294.562 44.784ZM292.322 36.208L292.586 36.6325L292.589 36.631L292.322 36.208ZM296.866 31.088L296.421 30.8609L296.417 30.8679L296.866 31.088ZM296.866 16.112L296.417 16.3321L296.423 16.3427L296.866 16.112ZM292.322 11.056L292.051 11.4764L292.062 11.4831L292.322 11.056ZM278.882 11.056L279.146 11.4806L279.153 11.4763L278.882 11.056ZM274.338 16.112L273.893 15.8849L273.891 15.8884L274.338 16.112ZM274.338 31.088L273.889 31.3081L273.893 31.3151L274.338 31.088ZM278.882 36.208L278.611 36.6283L278.618 36.6325L278.882 36.208ZM285.666 45.948C282.525 45.948 279.602 45.4038 276.892 44.3198L276.521 45.2482C279.357 46.3828 282.407 46.948 285.666 46.948V45.948ZM276.892 44.3198C274.176 43.2335 271.799 41.7107 269.756 39.7512L269.064 40.4728C271.203 42.524 273.689 44.1158 276.521 45.2482L276.892 44.3198ZM269.76 39.7548C267.717 37.7538 266.111 35.3977 264.941 32.6822L264.023 33.0778C265.243 35.9089 266.922 38.3742 269.06 40.4692L269.76 39.7548ZM264.943 32.6847C263.777 29.9365 263.19 26.9104 263.19 23.6H262.19C262.19 27.0309 262.799 30.1915 264.022 33.0753L264.943 32.6847ZM263.19 23.6C263.19 20.2894 263.777 17.2858 264.941 14.5818L264.023 14.1862C262.798 17.0289 262.19 20.1692 262.19 23.6H263.19ZM264.943 14.5793C266.112 11.8221 267.717 9.46869 269.756 7.51284L269.064 6.79116C266.922 8.84597 265.242 11.3139 264.022 14.1887L264.943 14.5793ZM269.76 7.50918C271.803 5.50831 274.179 3.96558 276.892 2.88024L276.521 1.95176C273.687 3.08508 271.199 4.69968 269.06 6.79482L269.76 7.50918ZM276.892 2.88024C279.602 1.79617 282.525 1.252 285.666 1.252V0.251999C282.407 0.251999 279.357 0.81716 276.521 1.95176L276.892 2.88024ZM285.666 1.252C288.764 1.252 291.666 1.79585 294.377 2.88024L294.748 1.95176C291.912 0.817474 288.884 0.251999 285.666 0.251999V1.252ZM294.379 2.8812C297.134 3.96655 299.507 5.50823 301.505 7.50555L302.212 6.79844C300.113 4.69976 297.622 3.08411 294.746 1.95079L294.379 2.8812ZM301.512 7.51284C303.551 9.46869 305.156 11.8221 306.326 14.5793L307.247 14.1887C306.027 11.3139 304.347 8.84597 302.204 6.79116L301.512 7.51284ZM306.327 14.5818C307.492 17.2858 308.078 20.2894 308.078 23.6H309.078C309.078 20.1692 308.47 17.0289 307.245 14.1862L306.327 14.5818ZM308.078 23.6C308.078 26.9104 307.492 29.9365 306.326 32.6847L307.247 33.0753C308.47 30.1915 309.078 27.0309 309.078 23.6H308.078ZM306.327 32.6822C305.157 35.3977 303.551 37.7538 301.508 39.7548L302.208 40.4692C304.347 38.3742 306.026 35.9089 307.245 33.0778L306.327 32.6822ZM301.512 39.7512C299.469 41.7107 297.092 43.2335 294.377 44.3198L294.748 45.2482C297.579 44.1158 300.066 42.524 302.204 40.4728L301.512 39.7512ZM294.377 44.3198C291.666 45.4041 288.764 45.948 285.666 45.948V46.948C288.884 46.948 291.912 46.3825 294.748 45.2482L294.377 44.3198ZM285.666 38.5C288.266 38.5 290.578 37.882 292.586 36.6325L292.058 35.7835C290.226 36.9234 288.101 37.5 285.666 37.5V38.5ZM292.589 36.631C294.634 35.3419 296.21 33.5634 297.315 31.3081L296.417 30.8679C295.389 32.9646 293.936 34.5994 292.056 35.785L292.589 36.631ZM297.312 31.3151C298.462 29.0587 299.03 26.4828 299.03 23.6H298.03C298.03 26.3492 297.489 28.7653 296.421 30.8609L297.312 31.3151ZM299.03 23.6C299.03 20.6761 298.463 18.0982 297.31 15.8813L296.423 16.3427C297.489 18.3925 298.03 20.8065 298.03 23.6H299.03ZM297.315 15.8919C296.209 13.6352 294.631 11.8759 292.582 10.6289L292.062 11.4831C293.939 12.6254 295.39 14.2368 296.417 16.3321L297.315 15.8919ZM292.593 10.6357C290.584 9.34109 288.269 8.7 285.666 8.7V9.7C288.098 9.7 290.22 10.2962 292.051 11.4763L292.593 10.6357ZM285.666 8.7C282.981 8.7 280.623 9.33936 278.611 10.6357L279.153 11.4763C280.982 10.298 283.146 9.7 285.666 9.7V8.7ZM278.618 10.6315C276.615 11.8781 275.04 13.6346 273.893 15.8849L274.784 16.3391C275.855 14.2374 277.31 12.6233 279.146 11.4805L278.618 10.6315ZM273.891 15.8884C272.783 18.1036 272.238 20.679 272.238 23.6H273.238C273.238 20.8037 273.76 18.387 274.785 16.3356L273.891 15.8884ZM272.238 23.6C272.238 26.48 272.784 29.0533 273.889 31.3081L274.787 30.8679C273.759 28.7707 273.238 26.352 273.238 23.6H272.238ZM273.893 31.3151C275.039 33.5641 276.612 35.3398 278.611 36.6283L279.153 35.7877C277.312 34.6015 275.856 32.9639 274.784 30.8609L273.893 31.3151ZM278.618 36.6325C280.629 37.8836 282.985 38.5 285.666 38.5V37.5C283.143 37.5 280.976 36.9217 279.146 35.7835L278.618 36.6325ZM341.623 1.2V0.699997H341.123V1.2H341.623ZM351.479 1.2H351.979V0.699997H351.479V1.2ZM349.623 39.856L350.055 40.1069L349.623 39.856ZM344.503 44.784L344.73 45.2295L344.737 45.2259L344.503 44.784ZM327.671 43.76L327.378 44.165L327.671 43.76ZM322.743 35.952L322.63 35.4649L322.14 35.5785L322.256 36.0675L322.743 35.952ZM331.575 33.904L332.061 33.7882L331.946 33.3046L331.462 33.4169L331.575 33.904ZM332.599 36.208L332.196 36.5037L332.202 36.5121L332.208 36.5203L332.599 36.208ZM334.391 37.68L334.167 38.1272L334.391 37.68ZM339.255 37.488L338.994 37.0612L338.983 37.0682L339.255 37.488ZM340.983 35.504L340.536 35.2804L340.531 35.2895L340.527 35.2988L340.983 35.504ZM341.623 1.7H351.479V0.699997H341.623V1.7ZM350.979 1.2V32.048H351.979V1.2H350.979ZM350.979 32.048C350.979 35.0533 350.374 37.5646 349.19 39.6051L350.055 40.1069C351.346 37.8807 351.979 35.1867 351.979 32.048H350.979ZM349.19 39.6051C348 41.6576 346.362 43.234 344.269 44.3421L344.737 45.2259C346.996 44.03 348.771 42.3211 350.055 40.1069L349.19 39.6051ZM344.276 44.3385C342.181 45.4064 339.744 45.948 336.951 45.948V46.948C339.875 46.948 342.472 46.3803 344.73 45.2295L344.276 44.3385ZM336.951 45.948C333.321 45.948 330.336 45.073 327.964 43.355L327.378 44.165C329.954 46.031 333.157 46.948 336.951 46.948V45.948ZM327.964 43.355C325.601 41.6436 324.017 39.1516 323.229 35.8365L322.256 36.0675C323.09 39.579 324.792 42.2924 327.378 44.165L327.964 43.355ZM322.856 36.4391L331.688 34.3911L331.462 33.4169L322.63 35.4649L322.856 36.4391ZM331.088 34.0198C331.315 34.9704 331.681 35.8019 332.196 36.5037L333.002 35.9123C332.578 35.3341 332.262 34.6296 332.061 33.7882L331.088 34.0198ZM332.208 36.5203C332.762 37.2126 333.415 37.7512 334.167 38.1272L334.614 37.2328C334.001 36.9262 333.459 36.4834 332.989 35.8957L332.208 36.5203ZM334.167 38.1272C334.927 38.5072 335.773 38.692 336.695 38.692V37.692C335.91 37.692 335.22 37.5355 334.614 37.2328L334.167 38.1272ZM336.695 38.692C337.759 38.692 338.71 38.4363 339.526 37.9078L338.983 37.0682C338.349 37.4783 337.593 37.692 336.695 37.692V38.692ZM339.516 37.9146C340.373 37.3907 341.015 36.6504 341.439 35.7092L340.527 35.2988C340.182 36.0642 339.673 36.6467 338.994 37.0614L339.516 37.9146ZM341.43 35.7276C341.897 34.7944 342.123 33.7343 342.123 32.56H341.123C341.123 33.6043 340.922 34.507 340.536 35.2804L341.43 35.7276ZM342.123 32.56V1.2H341.123V32.56H342.123ZM368.748 1.2V0.699997H368.248V1.2H368.748ZM378.668 1.2H379.168V0.699997H378.668V1.2ZM378.668 46V46.5H379.168V46H378.668ZM368.748 46H368.248V46.5H368.748V46ZM368.748 1.7H378.668V0.699997H368.748V1.7ZM378.168 1.2V46H379.168V1.2H378.168ZM378.668 45.5H368.748V46.5H378.668V45.5ZM369.248 46V1.2H368.248V46H369.248ZM406.08 46V46.5H406.58V46H406.08ZM396.16 46H395.66V46.5H396.16V46ZM396.16 1.2V0.699997H395.66V1.2H396.16ZM407.744 1.2L408.206 1.00841L408.078 0.699997H407.744V1.2ZM420.992 33.136L420.53 33.3276L420.991 34.4382L421.454 33.3284L420.992 33.136ZM434.304 1.2V0.699997H433.971L433.843 1.00762L434.304 1.2ZM445.824 1.2H446.324V0.699997H445.824V1.2ZM445.824 46V46.5H446.324V46H445.824ZM435.904 46H435.404V46.5H435.904V46ZM435.904 18.736H436.404L435.44 18.5497L435.904 18.736ZM424.96 46V46.5H425.298L425.424 46.1863L424.96 46ZM417.024 46L416.56 46.1863L416.686 46.5H417.024V46ZM406.08 18.736L406.544 18.5497L405.58 18.736H406.08ZM406.08 45.5H396.16V46.5H406.08V45.5ZM396.66 46V1.2H395.66V46H396.66ZM396.16 1.7H407.744V0.699997H396.16V1.7ZM407.282 1.39158L420.53 33.3276L421.454 32.9444L408.206 1.00841L407.282 1.39158ZM421.454 33.3284L434.766 1.39237L433.843 1.00762L420.531 32.9436L421.454 33.3284ZM434.304 1.7H445.824V0.699997H434.304V1.7ZM445.324 1.2V46H446.324V1.2H445.324ZM445.824 45.5H435.904V46.5H445.824V45.5ZM436.404 46V18.736H435.404V46H436.404ZM435.44 18.5497L424.496 45.8137L425.424 46.1863L436.368 18.9223L435.44 18.5497ZM424.96 45.5H417.024V46.5H424.96V45.5ZM417.488 45.8137L406.544 18.5497L405.616 18.9223L416.56 46.1863L417.488 45.8137ZM405.58 18.736V46H406.58V18.736H405.58ZM485.02 9.456L485.492 9.28924L485.374 8.956H485.02V9.456ZM482.78 9.456V8.956H482.426L482.308 9.29071L482.78 9.456ZM469.98 46V46.5H470.335L470.452 46.1653L469.98 46ZM459.804 46L459.334 45.83L459.092 46.5H459.804V46ZM475.996 1.2V0.699997H475.645L475.526 1.03004L475.996 1.2ZM491.996 1.2L492.467 1.03064L492.348 0.699997H491.996V1.2ZM508.124 46V46.5H508.836L508.595 45.8306L508.124 46ZM497.948 46L497.477 46.1668L497.595 46.5H497.948V46ZM470.62 28.08V27.58H470.12V28.08H470.62ZM496.732 28.08H497.232V27.58H496.732V28.08ZM496.732 36.336V36.836H497.232V36.336H496.732ZM470.62 36.336H470.12V36.836H470.62V36.336ZM485.02 8.956H482.78V9.956H485.02V8.956ZM482.308 9.29071L469.508 45.8347L470.452 46.1653L483.252 9.62128L482.308 9.29071ZM469.98 45.5H459.804V46.5H469.98V45.5ZM460.274 46.17L476.466 1.36995L475.526 1.03004L459.334 45.83L460.274 46.17ZM475.996 1.7H491.996V0.699997H475.996V1.7ZM491.526 1.36936L507.654 46.1694L508.595 45.8306L492.467 1.03064L491.526 1.36936ZM508.124 45.5H497.948V46.5H508.124V45.5ZM498.42 45.8332L485.492 9.28924L484.549 9.62275L497.477 46.1668L498.42 45.8332ZM470.62 28.58H496.732V27.58H470.62V28.58ZM496.232 28.08V36.336H497.232V28.08H496.232ZM496.732 35.836H470.62V36.836H496.732V35.836ZM471.12 36.336V28.08H470.12V36.336H471.12Z" fill="#7598FF" mask="url(#path-1-outside-1_1591_49337)"/>
</g>
</svg>
