<svg width="356" height="60" viewBox="0 0 356 60" fill="none" xmlns="http://www.w3.org/2000/svg">
<path d="M38 54L2 6" stroke="#EF788C" stroke-width="3"/>
<mask id="path-2-outside-1_1591_49206" maskUnits="userSpaceOnUse" x="47" y="8" width="263" height="43" fill="black">
<rect fill="white" x="47" y="8" width="263" height="43"/>
<path d="M60.84 32.44V25.6C58.84 25.76 56.8 25.92 54.12 25.92C53.44 25.92 53.24 25.68 53.16 25.08C53.04 24.32 52.88 23 52.72 21.6C53.76 21.76 54.8 21.8 55.84 21.8C57.52 21.8 59.24 21.64 60.92 21.48C60.92 20.16 60.96 18.64 60.96 16.92C60.96 15.88 60.92 14.72 60.68 13.68C62.68 13.8 64.36 14.08 65.44 14.4C65.92 14.52 66.24 14.8 66.24 15.16C66.24 15.32 66.16 15.52 66 15.8C65.72 16.32 65.52 16.84 65.44 17.36C65.32 18.4 65.28 19.4 65.24 20.68C67 20.32 68.64 19.8 70.36 19.2C70.72 19.08 71 19.16 71.04 19.56C71.2 20.56 71.28 21.64 71.28 22.68C71.28 23.08 71.16 23.2 70.76 23.32C68.12 24.16 67.44 24.36 65.04 24.84C65 26.76 65 28.72 64.96 30.64C68.72 29.04 72.24 28.4 74.8 28.44C79.76 28.48 83.32 31.64 83.32 36.44C83.32 41.56 80.04 44.56 74.64 44.56C73.48 44.56 72.2 44.4 71.36 44.2C70.72 44.04 70.48 43.64 70.48 43C70.4 42.12 70.12 40.76 69.28 39.6C71.2 40.24 72.8 40.32 74.28 40.32C76.52 40.32 78.6 39.04 78.6 36.2C78.6 33.6 77 32.16 74.2 32.16C71.92 32.16 69.16 32.76 65.04 34.88C65.08 36.56 65.12 37.92 65.2 39.68C65.32 41.44 65.52 43.96 65.52 44.88C65.52 45.44 65.6 46.04 64.92 46.2C64.04 46.44 62.76 46.64 61.96 46.68C61.52 46.72 61.36 46.4 61 45.88C59.92 44.4 57.84 42.48 55.32 40.76C54.88 41 54.4 41.32 54.04 41.64C53.84 41.84 53.56 41.92 53.36 41.92C53.04 41.92 52.72 41.68 52.48 41.28C52.04 40.56 51.24 38.88 50.64 37.56C51.68 37.32 53 36.88 54.32 36.16C56.04 35.2 57.92 34.12 60.84 32.44ZM61.04 36.64C59.92 37.4 58.56 38.32 57.12 39.36C58.24 39.96 59.6 40.64 60.88 41.16C61.2 41.24 61.32 41.2 61.28 40.84C61.2 39.8 61.12 37.96 61.04 36.64ZM74.4 21.48C74.92 20.4 75.56 19.36 76.24 18.36C76.52 17.92 76.64 17.8 76.92 17.88C80.6 18.96 83.32 20.64 85.4 22.76C85.56 22.92 85.64 23.04 85.64 23.16C85.64 23.28 85.56 23.4 85.48 23.56C84.96 24.36 83.92 25.6 83.32 26.4C83.2 26.56 82.64 26.6 82.52 26.4C80.4 24.04 77.6 22.56 74.4 21.48ZM111.88 18.8C111.84 17.56 111.84 16.56 111.8 15.48C111.72 14.32 111.64 13.76 111.32 12.56C113.12 12.68 115.04 12.92 116 13.12C116.68 13.24 117.12 13.52 117.12 13.88C117.12 14.2 117 14.4 116.76 14.8C116.64 15.04 116.52 15.44 116.44 15.96C116.4 16.48 116.4 17 116.36 18.52C120.68 18.36 124.8 18.32 128.64 18.32C129.12 18.32 129.2 18.4 129.24 18.92C129.28 19.92 129.28 20.96 129.24 21.96C129.24 22.4 129.04 22.52 128.56 22.48C124.4 22.36 120.52 22.36 116.36 22.4C116.36 24.84 116.36 27.4 116.4 29.84C116.8 30.92 117 32.48 117 33.8C117 38.44 115.12 43.28 109.88 46.72C109.2 47.16 108.68 47.48 108.32 47.48C107.96 47.48 107.52 47.2 107.12 46.88C106.2 46.12 105.12 45.6 104.08 45.28C108.76 43.2 111.56 39.84 112.28 36.48C111.48 37.64 109.84 38.08 108.52 38.08C105.36 38.08 102.96 35.8 102.96 31.96C102.96 28.24 105.76 25.96 109 25.96C110.2 25.96 111.4 26.2 112.04 26.76C112.04 25.36 112 24 112 22.68C106.96 22.96 101.32 23.44 98.16 23.88C97.28 24 96.64 24.36 96.28 24.36C95.88 24.36 95.72 24.2 95.6 23.8C95.28 23 94.92 21.4 94.6 19.76C96.08 19.92 97.36 19.76 99.48 19.6C101.92 19.4 107.08 19.08 111.88 18.8ZM109.32 29.08C108.08 29.08 106.68 29.92 106.68 31.68C106.68 33.44 107.8 34.4 109.24 34.4C110.72 34.4 111.96 33.48 111.96 31.64C111.96 30 110.92 29.08 109.32 29.08ZM155.88 18.8C155.84 17.56 155.84 16.56 155.8 15.48C155.72 14.32 155.64 13.76 155.32 12.56C157.12 12.68 159.04 12.92 160 13.12C160.68 13.24 161.12 13.52 161.12 13.88C161.12 14.2 161 14.4 160.76 14.8C160.64 15.04 160.52 15.44 160.44 15.96C160.4 16.48 160.4 17 160.36 18.52C164.68 18.36 168.8 18.32 172.64 18.32C173.12 18.32 173.2 18.4 173.24 18.92C173.28 19.92 173.28 20.96 173.24 21.96C173.24 22.4 173.04 22.52 172.56 22.48C168.4 22.36 164.52 22.36 160.36 22.4C160.36 24.84 160.36 27.4 160.4 29.84C160.8 30.92 161 32.48 161 33.8C161 38.44 159.12 43.28 153.88 46.72C153.2 47.16 152.68 47.48 152.32 47.48C151.96 47.48 151.52 47.2 151.12 46.88C150.2 46.12 149.12 45.6 148.08 45.28C152.76 43.2 155.56 39.84 156.28 36.48C155.48 37.64 153.84 38.08 152.52 38.08C149.36 38.08 146.96 35.8 146.96 31.96C146.96 28.24 149.76 25.96 153 25.96C154.2 25.96 155.4 26.2 156.04 26.76C156.04 25.36 156 24 156 22.68C150.96 22.96 145.32 23.44 142.16 23.88C141.28 24 140.64 24.36 140.28 24.36C139.88 24.36 139.72 24.2 139.6 23.8C139.28 23 138.92 21.4 138.6 19.76C140.08 19.92 141.36 19.76 143.48 19.6C145.92 19.4 151.08 19.08 155.88 18.8ZM153.32 29.08C152.08 29.08 150.68 29.92 150.68 31.68C150.68 33.44 151.8 34.4 153.24 34.4C154.72 34.4 155.96 33.48 155.96 31.64C155.96 30 154.92 29.08 153.32 29.08ZM201.16 21.2C201.6 19.92 201.96 18.44 202.32 16.32C202.44 15.44 202.52 14.48 202.4 13.6C204.4 14 205.96 14.56 207.12 15.2C207.56 15.4 207.76 15.64 207.76 15.92C207.76 16.12 207.64 16.36 207.48 16.6C207.12 17.12 206.92 17.48 206.68 18.08C206.44 18.72 206.08 19.68 205.56 21.28C211.88 22.28 216.24 26.52 216.24 32.88C216.24 40 211.92 44.28 203.96 46.24C203.08 46.44 202.8 46.32 202.32 45.56C201.72 44.6 200.8 43.56 199.72 42.92C205.16 41.8 211.68 39.32 211.68 32.36C211.68 28.32 208.88 25.24 204.48 24.8C202.52 29.56 200.76 33.16 198.64 36.48C199.08 37.08 199.6 37.8 200.36 38.52C199.32 39.76 198.64 40.48 197.88 40.96C197.72 41.08 197.52 41.16 197.32 41.16C197.12 41.16 196.96 41.08 196.76 40.92C196.44 40.6 196.12 40.28 195.68 39.76C193.08 42.52 191.16 43.56 189 43.56C185.96 43.56 183.76 41.08 183.76 37.08C183.76 32.92 185.6 29.08 189.44 25.6C189 24.08 188.6 22.08 188.2 20.32C187.8 18.76 187.56 17.68 187 16.56C188.92 16.64 190.44 16.84 191.52 17.2C192.16 17.36 192.28 17.64 192.28 18.36C192.28 19 192.28 19.6 192.44 20.64C192.64 21.8 192.76 22.52 193 23.48C195.24 22.28 198.44 21.44 201.16 21.2ZM193.96 27.08C194.48 29 195.32 31.28 196.2 32.92C197.56 30.72 198.72 28.16 200 24.84C198.12 25.08 195.76 25.92 193.96 27.08ZM190.68 29.72C188.92 31.8 187.88 34.36 187.88 36.68C187.88 38.04 188.44 39.12 189.28 39.12C190.48 39.12 191.76 38.24 193.44 36.2C192.28 33.96 191.32 31.76 190.68 29.72ZM241.72 22.68H231.96C228.32 22.68 227.08 22.76 226.84 22.76C226.44 22.76 226.44 22.72 226.44 22.32V19.2C226.44 18.76 226.44 18.72 226.84 18.72C227.08 18.72 228.32 18.8 231.96 18.8H241.72V16.36C241.72 14.24 241.68 12.88 241.44 11.52C242.92 11.56 244.4 11.64 245.8 11.8C246.2 11.84 246.36 12.04 246.36 12.24C246.36 12.6 246.28 12.92 246.16 13.28C246 13.8 245.96 14.8 245.96 16.28V18.8H255.56C259.2 18.8 260.44 18.72 260.68 18.72C261.08 18.72 261.12 18.76 261.12 19.2V22.32C261.12 22.72 261.08 22.76 260.68 22.76C260.44 22.76 259.2 22.68 255.56 22.68H246.32C247.12 25.36 248.24 27.76 249.64 29.96C251.16 28.64 252.6 27.24 254 25.56C254.52 24.96 254.92 24.36 255.28 23.64C256.6 24.48 257.68 25.28 258.4 25.92C258.8 26.28 258.88 26.48 258.88 26.72C258.88 27 258.64 27.2 258.32 27.36C257.84 27.6 257.24 28.04 256.28 29C254.92 30.4 253.52 31.64 251.8 33C254.52 36.32 258 39 262.12 41.12C261.36 41.88 260.6 42.88 259.96 44C259.6 44.64 259.44 44.92 259.2 44.92C259 44.92 258.72 44.72 258.28 44.44C252.04 40.44 248.04 35.36 245.76 28.6C245.88 33.68 246.04 38.72 246.04 43.28C246.04 45.12 245.72 46.2 244.52 46.92C243.56 47.52 242.28 47.76 239 47.8C237.76 47.84 237.84 47.8 237.48 46.6C237.12 45.44 236.64 44.28 236 43.52C237.28 43.64 238.28 43.72 239.12 43.72C241.24 43.72 241.72 43.48 241.72 42.2V22.68ZM239.6 32.4C239.64 33.2 239.8 34.28 240 35.24C240.28 36.48 240.28 36.48 239.28 37.24C236.2 39.52 233.28 41.36 230.56 42.88C229.96 43.2 229.6 43.52 229.4 43.68C229.16 43.96 228.96 44.08 228.76 44.08C228.52 44.08 228.32 43.88 228.16 43.56C227.64 42.64 226.96 41.24 226.44 39.92C227.64 39.56 228.68 39.08 229.68 38.6C232.92 36.96 236.32 34.88 239.6 32.4ZM229.76 26.16L231.68 24.24C232.04 23.88 232.12 23.84 232.48 24.08C234.24 25.28 236.52 27.32 238 29C238.16 29.16 238.24 29.28 238.24 29.4C238.24 29.48 238.16 29.6 238 29.8L235.8 32.04C235.4 32.44 235.28 32.56 235 32.2C233.56 30.32 231.56 28.36 229.68 26.96C229.48 26.8 229.4 26.72 229.4 26.64C229.4 26.52 229.52 26.4 229.76 26.16ZM249.88 13.4L251.68 11.88C252.04 11.6 252.16 11.64 252.6 11.88C254.08 12.84 255.68 14.32 257.04 15.72C257.28 15.92 257.32 16.12 256.8 16.52L254.88 18.12C254.68 18.28 254.52 18.4 254.4 18.4C254.28 18.4 254.16 18.28 254 18.08C252.88 16.68 251.24 15.2 249.76 14.08C249.44 13.84 249.44 13.76 249.88 13.4ZM306.2 43.32C305.28 44.2 304.52 45.28 303.96 46.44C303.64 47.12 303.52 47.4 303.24 47.4C303.04 47.4 302.8 47.24 302.32 46.92C294.68 42 290.04 35.16 288.2 27.8C286.08 36.24 281.04 42.8 273.72 46.96C273.28 47.2 273 47.36 272.8 47.36C272.52 47.36 272.36 47.08 272 46.4C271.32 45.28 270.52 44.44 269.68 43.72C280.2 38.84 285.32 28.84 285.24 17.64C285.2 15.88 285.16 14.2 284.96 12.44C286.52 12.52 288.44 12.72 289.88 12.92C290.4 13 290.64 13.24 290.64 13.56C290.64 14 290.44 14.24 290.24 14.56C290 14.96 289.92 15.92 289.92 17.2C289.88 17.68 289.88 18.16 289.88 18.64C291.6 30.36 296.64 38.12 306.2 43.32Z"/>
</mask>
<path d="M60.84 32.44V25.6C58.84 25.76 56.8 25.92 54.12 25.92C53.44 25.92 53.24 25.68 53.16 25.08C53.04 24.32 52.88 23 52.72 21.6C53.76 21.76 54.8 21.8 55.84 21.8C57.52 21.8 59.24 21.64 60.92 21.48C60.92 20.16 60.96 18.64 60.96 16.92C60.96 15.88 60.92 14.72 60.68 13.68C62.68 13.8 64.36 14.08 65.44 14.4C65.92 14.52 66.24 14.8 66.24 15.16C66.24 15.32 66.16 15.52 66 15.8C65.72 16.32 65.52 16.84 65.44 17.36C65.32 18.4 65.28 19.4 65.24 20.68C67 20.32 68.64 19.8 70.36 19.2C70.72 19.08 71 19.16 71.04 19.56C71.2 20.56 71.28 21.64 71.28 22.68C71.28 23.08 71.16 23.2 70.76 23.32C68.12 24.16 67.44 24.36 65.04 24.84C65 26.76 65 28.72 64.96 30.64C68.72 29.04 72.24 28.4 74.8 28.44C79.76 28.48 83.32 31.64 83.32 36.44C83.32 41.56 80.04 44.56 74.64 44.56C73.48 44.56 72.2 44.4 71.36 44.2C70.72 44.04 70.48 43.64 70.48 43C70.4 42.12 70.12 40.76 69.28 39.6C71.2 40.24 72.8 40.32 74.28 40.32C76.52 40.32 78.6 39.04 78.6 36.2C78.6 33.6 77 32.16 74.2 32.16C71.92 32.16 69.16 32.76 65.04 34.88C65.08 36.56 65.12 37.92 65.2 39.68C65.32 41.44 65.52 43.96 65.52 44.88C65.52 45.44 65.6 46.04 64.92 46.2C64.04 46.44 62.76 46.64 61.96 46.68C61.52 46.72 61.36 46.4 61 45.88C59.92 44.4 57.84 42.48 55.32 40.76C54.88 41 54.4 41.32 54.04 41.64C53.84 41.84 53.56 41.92 53.36 41.92C53.04 41.92 52.72 41.68 52.48 41.28C52.04 40.56 51.24 38.88 50.64 37.56C51.68 37.32 53 36.88 54.32 36.16C56.04 35.2 57.92 34.12 60.84 32.44ZM61.04 36.64C59.92 37.4 58.56 38.32 57.12 39.36C58.24 39.96 59.6 40.64 60.88 41.16C61.2 41.24 61.32 41.2 61.28 40.84C61.2 39.8 61.12 37.96 61.04 36.64ZM74.4 21.48C74.92 20.4 75.56 19.36 76.24 18.36C76.52 17.92 76.64 17.8 76.92 17.88C80.6 18.96 83.32 20.64 85.4 22.76C85.56 22.92 85.64 23.04 85.64 23.16C85.64 23.28 85.56 23.4 85.48 23.56C84.96 24.36 83.92 25.6 83.32 26.4C83.2 26.56 82.64 26.6 82.52 26.4C80.4 24.04 77.6 22.56 74.4 21.48ZM111.88 18.8C111.84 17.56 111.84 16.56 111.8 15.48C111.72 14.32 111.64 13.76 111.32 12.56C113.12 12.68 115.04 12.92 116 13.12C116.68 13.24 117.12 13.52 117.12 13.88C117.12 14.2 117 14.4 116.76 14.8C116.64 15.04 116.52 15.44 116.44 15.96C116.4 16.48 116.4 17 116.36 18.52C120.68 18.36 124.8 18.32 128.64 18.32C129.12 18.32 129.2 18.4 129.24 18.92C129.28 19.92 129.28 20.96 129.24 21.96C129.24 22.4 129.04 22.52 128.56 22.48C124.4 22.36 120.52 22.36 116.36 22.4C116.36 24.84 116.36 27.4 116.4 29.84C116.8 30.92 117 32.48 117 33.8C117 38.44 115.12 43.28 109.88 46.72C109.2 47.16 108.68 47.48 108.32 47.48C107.96 47.48 107.52 47.2 107.12 46.88C106.2 46.12 105.12 45.6 104.08 45.28C108.76 43.2 111.56 39.84 112.28 36.48C111.48 37.64 109.84 38.08 108.52 38.08C105.36 38.08 102.96 35.8 102.96 31.96C102.96 28.24 105.76 25.96 109 25.96C110.2 25.96 111.4 26.2 112.04 26.76C112.04 25.36 112 24 112 22.68C106.96 22.96 101.32 23.44 98.16 23.88C97.28 24 96.64 24.36 96.28 24.36C95.88 24.36 95.72 24.2 95.6 23.8C95.28 23 94.92 21.4 94.6 19.76C96.08 19.92 97.36 19.76 99.48 19.6C101.92 19.4 107.08 19.08 111.88 18.8ZM109.32 29.08C108.08 29.08 106.68 29.92 106.68 31.68C106.68 33.44 107.8 34.4 109.24 34.4C110.72 34.4 111.96 33.48 111.96 31.64C111.96 30 110.92 29.08 109.32 29.08ZM155.88 18.8C155.84 17.56 155.84 16.56 155.8 15.48C155.72 14.32 155.64 13.76 155.32 12.56C157.12 12.68 159.04 12.92 160 13.12C160.68 13.24 161.12 13.52 161.12 13.88C161.12 14.2 161 14.4 160.76 14.8C160.64 15.04 160.52 15.44 160.44 15.96C160.4 16.48 160.4 17 160.36 18.52C164.68 18.36 168.8 18.32 172.64 18.32C173.12 18.32 173.2 18.4 173.24 18.92C173.28 19.92 173.28 20.96 173.24 21.96C173.24 22.4 173.04 22.52 172.56 22.48C168.4 22.36 164.52 22.36 160.36 22.4C160.36 24.84 160.36 27.4 160.4 29.84C160.8 30.92 161 32.48 161 33.8C161 38.44 159.12 43.28 153.88 46.72C153.2 47.16 152.68 47.48 152.32 47.48C151.96 47.48 151.52 47.2 151.12 46.88C150.2 46.12 149.12 45.6 148.08 45.28C152.76 43.2 155.56 39.84 156.28 36.48C155.48 37.64 153.84 38.08 152.52 38.08C149.36 38.08 146.96 35.8 146.96 31.96C146.96 28.24 149.76 25.96 153 25.96C154.2 25.96 155.4 26.2 156.04 26.76C156.04 25.36 156 24 156 22.68C150.96 22.96 145.32 23.44 142.16 23.88C141.28 24 140.64 24.36 140.28 24.36C139.88 24.36 139.72 24.2 139.6 23.8C139.28 23 138.92 21.4 138.6 19.76C140.08 19.92 141.36 19.76 143.48 19.6C145.92 19.4 151.08 19.08 155.88 18.8ZM153.32 29.08C152.08 29.08 150.68 29.92 150.68 31.68C150.68 33.44 151.8 34.4 153.24 34.4C154.72 34.4 155.96 33.48 155.96 31.64C155.96 30 154.92 29.08 153.32 29.08ZM201.16 21.2C201.6 19.92 201.96 18.44 202.32 16.32C202.44 15.44 202.52 14.48 202.4 13.6C204.4 14 205.96 14.56 207.12 15.2C207.56 15.4 207.76 15.64 207.76 15.92C207.76 16.12 207.64 16.36 207.48 16.6C207.12 17.12 206.92 17.48 206.68 18.08C206.44 18.72 206.08 19.68 205.56 21.28C211.88 22.28 216.24 26.52 216.24 32.88C216.24 40 211.92 44.28 203.96 46.24C203.08 46.44 202.8 46.32 202.32 45.56C201.72 44.6 200.8 43.56 199.72 42.92C205.16 41.8 211.68 39.32 211.68 32.36C211.68 28.32 208.88 25.24 204.48 24.8C202.52 29.56 200.76 33.16 198.64 36.48C199.08 37.08 199.6 37.8 200.36 38.52C199.32 39.76 198.64 40.48 197.88 40.96C197.72 41.08 197.52 41.16 197.32 41.16C197.12 41.16 196.96 41.08 196.76 40.92C196.44 40.6 196.12 40.28 195.68 39.76C193.08 42.52 191.16 43.56 189 43.56C185.96 43.56 183.76 41.08 183.76 37.08C183.76 32.92 185.6 29.08 189.44 25.6C189 24.08 188.6 22.08 188.2 20.32C187.8 18.76 187.56 17.68 187 16.56C188.92 16.64 190.44 16.84 191.52 17.2C192.16 17.36 192.28 17.64 192.28 18.36C192.28 19 192.28 19.6 192.44 20.64C192.64 21.8 192.76 22.52 193 23.48C195.24 22.28 198.44 21.44 201.16 21.2ZM193.96 27.08C194.48 29 195.32 31.28 196.2 32.92C197.56 30.72 198.72 28.16 200 24.84C198.12 25.08 195.76 25.92 193.96 27.08ZM190.68 29.72C188.92 31.8 187.88 34.36 187.88 36.68C187.88 38.04 188.44 39.12 189.28 39.12C190.48 39.12 191.76 38.24 193.44 36.2C192.28 33.96 191.32 31.76 190.68 29.72ZM241.72 22.68H231.96C228.32 22.68 227.08 22.76 226.84 22.76C226.44 22.76 226.44 22.72 226.44 22.32V19.2C226.44 18.76 226.44 18.72 226.84 18.72C227.08 18.72 228.32 18.8 231.96 18.8H241.72V16.36C241.72 14.24 241.68 12.88 241.44 11.52C242.92 11.56 244.4 11.64 245.8 11.8C246.2 11.84 246.36 12.04 246.36 12.24C246.36 12.6 246.28 12.92 246.16 13.28C246 13.8 245.96 14.8 245.96 16.28V18.8H255.56C259.2 18.8 260.44 18.72 260.68 18.72C261.08 18.72 261.12 18.76 261.12 19.2V22.32C261.12 22.72 261.08 22.76 260.68 22.76C260.44 22.76 259.2 22.68 255.56 22.68H246.32C247.12 25.36 248.24 27.76 249.64 29.96C251.16 28.64 252.6 27.24 254 25.56C254.52 24.96 254.92 24.36 255.28 23.64C256.6 24.48 257.68 25.28 258.4 25.92C258.8 26.28 258.88 26.48 258.88 26.72C258.88 27 258.64 27.2 258.32 27.36C257.84 27.6 257.24 28.04 256.28 29C254.92 30.4 253.52 31.64 251.8 33C254.52 36.32 258 39 262.12 41.12C261.36 41.88 260.6 42.88 259.96 44C259.6 44.64 259.44 44.92 259.2 44.92C259 44.92 258.72 44.72 258.28 44.44C252.04 40.44 248.04 35.36 245.76 28.6C245.88 33.68 246.04 38.72 246.04 43.28C246.04 45.12 245.72 46.2 244.52 46.92C243.56 47.52 242.28 47.76 239 47.8C237.76 47.84 237.84 47.8 237.48 46.6C237.12 45.44 236.64 44.28 236 43.52C237.28 43.64 238.28 43.72 239.12 43.72C241.24 43.72 241.72 43.48 241.72 42.2V22.68ZM239.6 32.4C239.64 33.2 239.8 34.28 240 35.24C240.28 36.48 240.28 36.48 239.28 37.24C236.2 39.52 233.28 41.36 230.56 42.88C229.96 43.2 229.6 43.52 229.4 43.68C229.16 43.96 228.96 44.08 228.76 44.08C228.52 44.08 228.32 43.88 228.16 43.56C227.64 42.64 226.96 41.24 226.44 39.92C227.64 39.56 228.68 39.08 229.68 38.6C232.92 36.96 236.32 34.88 239.6 32.4ZM229.76 26.16L231.68 24.24C232.04 23.88 232.12 23.84 232.48 24.08C234.24 25.28 236.52 27.32 238 29C238.16 29.16 238.24 29.28 238.24 29.4C238.24 29.48 238.16 29.6 238 29.8L235.8 32.04C235.4 32.44 235.28 32.56 235 32.2C233.56 30.32 231.56 28.36 229.68 26.96C229.48 26.8 229.4 26.72 229.4 26.64C229.4 26.52 229.52 26.4 229.76 26.16ZM249.88 13.4L251.68 11.88C252.04 11.6 252.16 11.64 252.6 11.88C254.08 12.84 255.68 14.32 257.04 15.72C257.28 15.92 257.32 16.12 256.8 16.52L254.88 18.12C254.68 18.28 254.52 18.4 254.4 18.4C254.28 18.4 254.16 18.28 254 18.08C252.88 16.68 251.24 15.2 249.76 14.08C249.44 13.84 249.44 13.76 249.88 13.4ZM306.2 43.32C305.28 44.2 304.52 45.28 303.96 46.44C303.64 47.12 303.52 47.4 303.24 47.4C303.04 47.4 302.8 47.24 302.32 46.92C294.68 42 290.04 35.16 288.2 27.8C286.08 36.24 281.04 42.8 273.72 46.96C273.28 47.2 273 47.36 272.8 47.36C272.52 47.36 272.36 47.08 272 46.4C271.32 45.28 270.52 44.44 269.68 43.72C280.2 38.84 285.32 28.84 285.24 17.64C285.2 15.88 285.16 14.2 284.96 12.44C286.52 12.52 288.44 12.72 289.88 12.92C290.4 13 290.64 13.24 290.64 13.56C290.64 14 290.44 14.24 290.24 14.56C290 14.96 289.92 15.92 289.92 17.2C289.88 17.68 289.88 18.16 289.88 18.64C291.6 30.36 296.64 38.12 306.2 43.32Z" fill="white"/>
<path d="M60.84 32.44L62.3361 35.0403C63.2665 34.505 63.84 33.5134 63.84 32.44H60.84ZM60.84 25.6H63.84C63.84 24.7628 63.4901 23.9636 62.875 23.3957C62.2598 22.8278 61.4353 22.5428 60.6008 22.6096L60.84 25.6ZM53.16 25.08L56.1337 24.6835C56.1305 24.6597 56.127 24.6359 56.1233 24.6121L53.16 25.08ZM52.72 21.6L53.1762 18.6349C52.2519 18.4927 51.3142 18.7896 50.6403 19.4379C49.9663 20.0861 49.6332 21.0116 49.7394 21.9406L52.72 21.6ZM60.92 21.48L61.2044 24.4665C62.7441 24.3198 63.92 23.0267 63.92 21.48H60.92ZM60.68 13.68L60.8597 10.6854C59.9156 10.6287 59 11.0206 58.3893 11.7428C57.7785 12.4651 57.5441 13.433 57.7568 14.3546L60.68 13.68ZM65.44 14.4L64.5877 17.2764C64.629 17.2886 64.6706 17.3 64.7124 17.3104L65.44 14.4ZM66 15.8L63.3953 14.3116C63.3828 14.3335 63.3705 14.3555 63.3586 14.3777L66 15.8ZM65.44 17.36L62.4749 16.9038C62.4691 16.9412 62.4641 16.9786 62.4598 17.0161L65.44 17.36ZM65.24 20.68L62.2415 20.5863C62.2128 21.5033 62.6054 22.3831 63.307 22.9743C64.0087 23.5654 64.9423 23.803 65.8412 23.6191L65.24 20.68ZM70.36 19.2L69.4113 16.3539C69.3981 16.3583 69.385 16.3628 69.3719 16.3674L70.36 19.2ZM71.04 19.56L68.0549 19.8585C68.0608 19.9172 68.0684 19.9757 68.0777 20.034L71.04 19.56ZM70.76 23.32L69.898 20.4465C69.8821 20.4513 69.8662 20.4562 69.8504 20.4612L70.76 23.32ZM65.04 24.84L64.4517 21.8983C63.0724 22.1741 62.07 23.3712 62.0407 24.7775L65.04 24.84ZM64.96 30.64L61.9607 30.5775C61.9394 31.5954 62.436 32.5546 63.2793 33.125C64.1227 33.6954 65.1978 33.7991 66.1347 33.4005L64.96 30.64ZM74.8 28.44L74.7531 31.4396C74.7607 31.4398 74.7682 31.4398 74.7758 31.4399L74.8 28.44ZM71.36 44.2L70.6324 47.1104C70.6433 47.1132 70.6542 47.1158 70.6651 47.1184L71.36 44.2ZM70.48 43H73.48C73.48 42.9093 73.4759 42.8187 73.4677 42.7284L70.48 43ZM69.28 39.6L70.2287 36.7539C68.9925 36.3419 67.6318 36.7749 66.8611 37.8255C66.0903 38.8762 66.0859 40.3042 66.8502 41.3595L69.28 39.6ZM65.04 34.88L63.6674 32.2124C62.6452 32.7384 62.0135 33.8022 62.0409 34.9514L65.04 34.88ZM65.2 39.68L62.2031 39.8162C62.2041 39.8389 62.2054 39.8615 62.2069 39.8841L65.2 39.68ZM64.92 46.2L64.2329 43.2797C64.1987 43.2878 64.1646 43.2965 64.1306 43.3057L64.92 46.2ZM61.96 46.68L61.8102 43.6837C61.7695 43.6858 61.7289 43.6886 61.6884 43.6923L61.96 46.68ZM61 45.88L63.4666 44.1724C63.4524 44.1519 63.438 44.1317 63.4234 44.1116L61 45.88ZM55.32 40.76L57.0112 38.2822C56.0806 37.647 54.8726 37.5868 53.8834 38.1263L55.32 40.76ZM54.04 41.64L52.0469 39.3978C52.003 39.4368 51.9602 39.4771 51.9187 39.5187L54.04 41.64ZM52.48 41.28L55.0525 39.7365C55.0483 39.7295 55.0441 39.7226 55.0398 39.7156L52.48 41.28ZM50.64 37.56L49.9654 34.6368C49.0884 34.8392 48.3486 35.4247 47.9501 36.2317C47.5516 37.0387 47.5365 37.982 47.9089 38.8014L50.64 37.56ZM54.32 36.16L55.7566 38.7937C55.7651 38.789 55.7736 38.7843 55.7821 38.7796L54.32 36.16ZM61.04 36.64L64.0345 36.4585C63.9693 35.3822 63.3315 34.4237 62.3639 33.9479C61.3963 33.4721 60.2477 33.5521 59.3555 34.1576L61.04 36.64ZM57.12 39.36L55.3635 36.928C54.525 37.5335 54.0576 38.5284 54.1267 39.5604C54.1958 40.5924 54.7916 41.516 55.7033 42.0044L57.12 39.36ZM60.88 41.16L59.7509 43.9394C59.8815 43.9925 60.0156 44.0362 60.1524 44.0704L60.88 41.16ZM61.28 40.84L58.2888 41.0701C58.2914 41.1039 58.2946 41.1376 58.2983 41.1713L61.28 40.84ZM74.4 21.48L71.697 20.1786C71.324 20.9533 71.3013 21.8509 71.6348 22.6435C71.9683 23.4361 72.6259 24.0475 73.4407 24.3225L74.4 21.48ZM76.24 18.36L78.7208 20.0469C78.7379 20.0218 78.7546 19.9963 78.771 19.9706L76.24 18.36ZM76.92 17.88L77.7648 15.0014C77.7579 14.9994 77.751 14.9974 77.7442 14.9954L76.92 17.88ZM85.4 22.76L83.2586 24.861C83.2652 24.8678 83.2719 24.8746 83.2787 24.8813L85.4 22.76ZM85.48 23.56L87.9953 25.195C88.0568 25.1004 88.1129 25.0025 88.1633 24.9017L85.48 23.56ZM83.32 26.4L80.92 24.6L80.92 24.6L83.32 26.4ZM82.52 26.4L85.0925 24.8565C84.9939 24.6922 84.8798 24.5377 84.7518 24.3952L82.52 26.4ZM63.84 32.44V25.6H57.84V32.44H63.84ZM60.6008 22.6096C58.6102 22.7688 56.6718 22.92 54.12 22.92V28.92C56.9282 28.92 59.0698 28.7512 61.0792 28.5904L60.6008 22.6096ZM54.12 22.92C54.1209 22.92 54.1546 22.9199 54.213 22.9263C54.2714 22.9327 54.3684 22.947 54.4917 22.981C54.7545 23.0535 55.1175 23.2111 55.4593 23.5293C56.1198 24.1443 56.1555 24.8472 56.1337 24.6835L50.1863 25.4765C50.2445 25.9128 50.4202 27.0357 51.3707 27.9207C52.3586 28.8404 53.5367 28.92 54.12 28.92V22.92ZM56.1233 24.6121C56.015 23.9264 55.8619 22.6708 55.7006 21.2594L49.7394 21.9406C49.8981 23.3292 50.065 24.7136 50.1967 25.5479L56.1233 24.6121ZM52.2638 24.5651C53.5198 24.7583 54.7314 24.8 55.84 24.8V18.8C54.8686 18.8 54.0002 18.7617 53.1762 18.6349L52.2638 24.5651ZM55.84 24.8C57.6848 24.8 59.5437 24.6246 61.2044 24.4665L60.6356 18.4935C58.9363 18.6553 57.3552 18.8 55.84 18.8V24.8ZM63.92 21.48C63.92 20.8443 63.9296 20.1571 63.9397 19.3895C63.9497 18.6292 63.96 17.8017 63.96 16.92H57.96C57.96 17.7583 57.9503 18.5508 57.9403 19.3105C57.9304 20.0629 57.92 20.7957 57.92 21.48H63.92ZM63.96 16.92C63.96 15.8466 63.9245 14.398 63.6032 13.0054L57.7568 14.3546C57.9155 15.042 57.96 15.9134 57.96 16.92H63.96ZM60.5003 16.6746C62.3595 16.7862 63.797 17.0421 64.5877 17.2764L66.2923 11.5236C64.923 11.1179 63.0005 10.8138 60.8597 10.6854L60.5003 16.6746ZM64.7124 17.3104C64.6023 17.2829 64.303 17.1896 63.9787 16.8884C63.6176 16.5531 63.24 15.9536 63.24 15.16H69.24C69.24 12.6998 67.1211 11.7279 66.1676 11.4896L64.7124 17.3104ZM63.24 15.16C63.24 14.7503 63.34 14.463 63.3765 14.367C63.4145 14.2674 63.4381 14.2366 63.3953 14.3116L68.6047 17.2884C68.7677 17.0033 69.24 16.1885 69.24 15.16H63.24ZM63.3586 14.3777C62.9725 15.0948 62.6223 15.9458 62.4749 16.9038L68.4051 17.8162C68.4177 17.7342 68.4676 17.5452 68.6414 17.2223L63.3586 14.3777ZM62.4598 17.0161C62.3238 18.1944 62.2814 19.3077 62.2415 20.5863L68.2385 20.7737C68.2786 19.4923 68.3162 18.6056 68.4202 17.7039L62.4598 17.0161ZM65.8412 23.6191C67.7963 23.2192 69.5835 22.6481 71.3481 22.0326L69.3719 16.3674C67.6965 16.9518 66.2037 17.4208 64.6388 17.7409L65.8412 23.6191ZM71.3087 22.0461C71.1973 22.0832 70.4654 22.3226 69.57 21.9122C68.4261 21.3879 68.104 20.35 68.0549 19.8585L74.0251 19.2615C73.936 18.37 73.4539 17.0921 72.07 16.4578C70.9346 15.9374 69.8827 16.1968 69.4113 16.3539L71.3087 22.0461ZM68.0777 20.034C68.2106 20.8645 68.28 21.7853 68.28 22.68H74.28C74.28 21.4947 74.1894 20.2555 74.0023 19.086L68.0777 20.034ZM68.28 22.68C68.28 22.6717 68.2579 21.9057 68.8753 21.1726C69.161 20.8333 69.4652 20.6457 69.6486 20.5523C69.8138 20.4682 69.9271 20.4378 69.898 20.4465L71.622 26.1935C71.8602 26.122 72.768 25.8648 73.4647 25.0374C74.2421 24.1143 74.28 23.0883 74.28 22.68H68.28ZM69.8504 20.4612C67.275 21.2806 66.708 21.447 64.4517 21.8983L65.6284 27.7817C68.172 27.273 68.965 27.0393 71.6696 26.1788L69.8504 20.4612ZM62.0407 24.7775C62.0203 25.756 62.0101 26.7418 62.0002 27.7091C61.9901 28.6818 61.9803 29.636 61.9607 30.5775L67.9594 30.7025C67.9797 29.724 67.9899 28.7382 67.9998 27.7709C68.0099 26.7982 68.0197 25.844 68.0394 24.9025L62.0407 24.7775ZM66.1347 33.4005C69.5716 31.9379 72.6759 31.4072 74.7531 31.4396L74.8469 25.4404C71.8041 25.3928 67.8684 26.1421 63.7853 27.8795L66.1347 33.4005ZM74.7758 31.4399C76.6274 31.4548 78.0032 32.0446 78.8843 32.8586C79.741 33.6501 80.32 34.8229 80.32 36.44H86.32C86.32 33.257 85.119 30.4499 82.9557 28.4514C80.8168 26.4754 77.9326 25.4652 74.8242 25.4401L74.7758 31.4399ZM80.32 36.44C80.32 38.3386 79.7312 39.508 78.9622 40.2229C78.1642 40.965 76.801 41.56 74.64 41.56V47.56C77.879 47.56 80.8559 46.655 83.0478 44.6171C85.2688 42.552 86.32 39.6614 86.32 36.44H80.32ZM74.64 41.56C73.7004 41.56 72.6544 41.4243 72.0549 41.2816L70.6651 47.1184C71.7456 47.3757 73.2596 47.56 74.64 47.56V41.56ZM72.0876 41.2896C72.267 41.3344 72.7577 41.5167 73.1377 42.0596C73.4819 42.5513 73.48 42.9818 73.48 43H67.48C67.48 43.6582 67.5981 44.6087 68.2223 45.5004C68.8823 46.4433 69.813 46.9056 70.6324 47.1104L72.0876 41.2896ZM73.4677 42.7284C73.3626 41.5723 72.9908 39.6095 71.7098 37.8405L66.8502 41.3595C67.2492 41.9105 67.4374 42.6677 67.4923 43.2716L73.4677 42.7284ZM68.3313 42.446C70.6927 43.2332 72.6608 43.32 74.28 43.32V37.32C72.9392 37.32 71.7073 37.2468 70.2287 36.7539L68.3313 42.446ZM74.28 43.32C75.9349 43.32 77.7543 42.85 79.2146 41.6179C80.75 40.3224 81.6 38.4226 81.6 36.2H75.6C75.6 36.5394 75.5392 36.7318 75.4969 36.8271C75.4562 36.919 75.4073 36.9799 75.3454 37.0321C75.2057 37.15 74.8651 37.32 74.28 37.32V43.32ZM81.6 36.2C81.6 34.269 80.9864 32.3719 79.4732 30.9899C78.0014 29.6456 76.0831 29.16 74.2 29.16V35.16C75.1169 35.16 75.3986 35.3944 75.4268 35.4201C75.4441 35.4359 75.4743 35.4662 75.5085 35.5547C75.5468 35.6536 75.6 35.8547 75.6 36.2H81.6ZM74.2 29.16C71.3124 29.16 68.0787 29.9425 63.6674 32.2124L66.4126 37.5476C70.2413 35.5775 72.5276 35.16 74.2 35.16V29.16ZM62.0409 34.9514C62.0811 36.6435 62.1218 38.0269 62.2031 39.8162L68.1969 39.5438C68.1182 37.8131 68.0789 36.4765 68.0392 34.8086L62.0409 34.9514ZM62.2069 39.8841C62.3358 41.7735 62.52 44.0962 62.52 44.88H68.52C68.52 43.8238 68.3042 41.1065 68.1931 39.4759L62.2069 39.8841ZM62.52 44.88C62.52 44.9744 62.5217 45.0794 62.5223 45.1276C62.5231 45.1916 62.523 45.2181 62.5227 45.2318C62.5216 45.2774 62.5187 45.1298 62.5793 44.9058C62.6485 44.6505 62.8132 44.2472 63.1869 43.8761C63.5641 43.5016 63.9715 43.3412 64.2329 43.2797L65.6071 49.1203C66.2085 48.9788 66.8609 48.6834 67.4144 48.1339C67.9643 47.5878 68.2365 46.9695 68.3707 46.4742C68.4964 46.0102 68.5159 45.5976 68.5211 45.3682C68.5239 45.2444 68.5228 45.1309 68.5219 45.0543C68.5208 44.9618 68.52 44.9256 68.52 44.88H62.52ZM64.1306 43.3057C63.4559 43.4897 62.3903 43.6547 61.8102 43.6837L62.1098 49.6763C63.1297 49.6253 64.6241 49.3903 65.7094 49.0943L64.1306 43.3057ZM61.6884 43.6923C61.9718 43.6666 62.3584 43.6898 62.7746 43.8538C63.1766 44.0121 63.4389 44.2363 63.5713 44.3687C63.6852 44.4826 63.7351 44.5624 63.6892 44.4976C63.6714 44.4724 63.6486 44.4391 63.6083 44.3798C63.5723 44.3268 63.5212 44.2512 63.4666 44.1724L58.5334 47.5876C58.5531 47.616 58.725 47.8694 58.7908 47.9624C58.8899 48.1026 59.0748 48.3574 59.3287 48.6113C59.6011 48.8837 60.0085 49.2129 60.5754 49.4362C61.1566 49.6652 61.7282 49.7134 62.2316 49.6677L61.6884 43.6923ZM63.4234 44.1116C62.0705 42.2576 59.6933 40.1128 57.0112 38.2822L53.6288 43.2379C55.9867 44.8472 57.7695 46.5424 58.5766 47.6484L63.4234 44.1116ZM53.8834 38.1263C53.2985 38.4454 52.618 38.8901 52.0469 39.3978L56.0331 43.8822C56.182 43.7499 56.4615 43.5546 56.7566 43.3937L53.8834 38.1263ZM51.9187 39.5187C52.1698 39.2675 52.435 39.1254 52.6466 39.046C52.8506 38.9695 53.0868 38.92 53.36 38.92V44.92C54.2028 44.92 55.2991 44.6235 56.1613 43.7613L51.9187 39.5187ZM53.36 38.92C53.9725 38.92 54.4197 39.1515 54.6641 39.3308C54.9028 39.5059 55.0148 39.6738 55.0525 39.7365L49.9075 42.8235C50.3835 43.6167 51.5031 44.92 53.36 44.92V38.92ZM55.0398 39.7156C54.7136 39.1818 53.9898 37.6797 53.3711 36.3186L47.9089 38.8014C48.4902 40.0803 49.3664 41.9382 49.9202 42.8443L55.0398 39.7156ZM51.3146 40.4832C52.5779 40.1916 54.1613 39.6638 55.7566 38.7937L52.8834 33.5263C51.8387 34.0962 50.7821 34.4484 49.9654 34.6368L51.3146 40.4832ZM55.7821 38.7796C57.5225 37.8082 59.4205 36.7178 62.3361 35.0403L59.3439 29.8397C56.4195 31.5222 54.5575 32.5918 52.8579 33.5404L55.7821 38.7796ZM59.3555 34.1576C58.2413 34.9136 56.845 35.858 55.3635 36.928L58.8765 41.792C60.275 40.782 61.5987 39.8864 62.7245 39.1224L59.3555 34.1576ZM55.7033 42.0044C56.8686 42.6287 58.3326 43.3632 59.7509 43.9394L62.0091 38.3806C60.8674 37.9168 59.6114 37.2913 58.5367 36.7156L55.7033 42.0044ZM60.1524 44.0704C60.293 44.1056 60.6054 44.18 60.9821 44.1927C61.3453 44.2049 62.1375 44.1751 62.9226 43.6316C63.7827 43.0361 64.1098 42.198 64.2211 41.6415C64.3206 41.144 64.2849 40.718 64.2617 40.5087L58.2983 41.1713C58.2951 41.142 58.2594 40.856 58.3376 40.4648C58.4277 40.0145 58.7123 39.2489 59.5074 38.6984C60.2275 38.1999 60.9322 38.1876 61.1842 38.1961C61.3328 38.2011 61.445 38.218 61.5027 38.228C61.563 38.2384 61.6015 38.248 61.6076 38.2496L60.1524 44.0704ZM64.2712 40.6099C64.1926 39.5881 64.121 37.8858 64.0345 36.4585L58.0455 36.8215C58.119 38.0342 58.2074 40.0119 58.2888 41.0701L64.2712 40.6099ZM77.103 22.7814C77.5356 21.883 78.088 20.9774 78.7208 20.0469L73.7592 16.6731C73.032 17.7426 72.3044 18.917 71.697 20.1786L77.103 22.7814ZM78.771 19.9706C78.8318 19.875 78.8349 19.8754 78.8075 19.9112C78.7862 19.939 78.6434 20.1274 78.38 20.325C78.0701 20.5574 77.6374 20.7699 77.1071 20.8362C76.6239 20.8966 76.2545 20.8099 76.0959 20.7646L77.7442 14.9954C77.4456 14.9101 76.9561 14.8084 76.3629 14.8825C75.7226 14.9626 75.1899 15.2176 74.78 15.525C74.1645 15.9866 73.7859 16.6286 73.709 16.7494L78.771 19.9706ZM76.0752 20.7586C79.3055 21.7066 81.5667 23.1366 83.2586 24.861L87.5414 20.659C85.0733 18.1434 81.8945 16.2134 77.7648 15.0014L76.0752 20.7586ZM83.2787 24.8813C83.2771 24.8797 83.2502 24.853 83.2103 24.8055C83.171 24.7589 83.1016 24.6717 83.025 24.5473C82.8668 24.2902 82.64 23.8089 82.64 23.16H88.64C88.64 21.6908 87.6662 20.7835 87.5213 20.6387L83.2787 24.8813ZM82.64 23.16C82.64 22.5677 82.8358 22.1536 82.8661 22.0878C82.8872 22.0421 82.9026 22.0143 82.884 22.0496C82.8751 22.0665 82.8347 22.1424 82.7967 22.2183L88.1633 24.9017C88.1623 24.9036 88.1633 24.9015 88.1684 24.8918C88.1761 24.8771 88.1786 24.8724 88.1935 24.8441C88.2124 24.8082 88.2628 24.7129 88.3139 24.6022C88.4042 24.4064 88.64 23.8723 88.64 23.16H82.64ZM82.9647 21.925C82.5027 22.6358 81.7209 23.5321 80.92 24.6L85.72 28.2C86.1191 27.6679 87.4173 26.0842 87.9953 25.195L82.9647 21.925ZM80.92 24.6C81.4473 23.897 82.106 23.684 82.2351 23.6422C82.4727 23.5651 82.6747 23.5409 82.8318 23.5363C82.981 23.5319 83.2384 23.5405 83.5592 23.639C83.8174 23.7183 84.5775 23.9983 85.0925 24.8565L79.9475 27.9435C80.5225 28.9017 81.3976 29.2517 81.7983 29.3748C82.2616 29.517 82.689 29.5431 83.0082 29.5337C83.3353 29.5241 83.7073 29.4724 84.0874 29.3491C84.359 29.2609 85.1327 28.983 85.72 28.2L80.92 24.6ZM84.7518 24.3952C82.1572 21.5069 78.8242 19.8069 75.3593 18.6375L73.4407 24.3225C76.3758 25.3131 78.6428 26.5731 80.2882 28.4048L84.7518 24.3952ZM111.88 18.8L112.055 21.7949C113.678 21.7002 114.931 20.3289 114.878 18.7033L111.88 18.8ZM111.8 15.48L114.798 15.369C114.797 15.3371 114.795 15.3054 114.793 15.2736L111.8 15.48ZM111.32 12.56L111.52 9.56664C110.555 9.50231 109.618 9.90719 109.003 10.6541C108.389 11.4011 108.172 12.3984 108.421 13.333L111.32 12.56ZM116 13.12L115.388 16.0569C115.418 16.0632 115.448 16.069 115.479 16.0743L116 13.12ZM116.76 14.8L114.188 13.2565C114.148 13.3224 114.111 13.3897 114.077 13.4584L116.76 14.8ZM116.44 15.96L113.475 15.5038C113.463 15.5788 113.455 15.6542 113.449 15.7299L116.44 15.96ZM116.36 18.52L113.361 18.4411C113.339 19.2694 113.661 20.0699 114.25 20.6526C114.839 21.2354 115.643 21.5486 116.471 21.5179L116.36 18.52ZM129.24 18.92L132.238 18.8001C132.236 18.7633 132.234 18.7266 132.231 18.6899L129.24 18.92ZM129.24 21.96L126.242 21.8401C126.241 21.88 126.24 21.92 126.24 21.96H129.24ZM128.56 22.48L128.809 19.4904C128.755 19.4859 128.701 19.4828 128.647 19.4812L128.56 22.48ZM116.36 22.4L116.331 19.4001C114.686 19.416 113.36 20.7544 113.36 22.4H116.36ZM116.4 29.84L113.4 29.8892C113.406 30.2283 113.469 30.5639 113.587 30.8819L116.4 29.84ZM109.88 46.72L111.51 49.2387C111.515 49.2351 111.521 49.2315 111.526 49.2279L109.88 46.72ZM107.12 46.88L105.209 49.1929C105.221 49.2029 105.234 49.2128 105.246 49.2226L107.12 46.88ZM104.08 45.28L102.862 42.5386C101.718 43.0466 101.011 44.2107 101.085 45.4595C101.16 46.7082 102.002 47.7794 103.198 48.1473L104.08 45.28ZM112.28 36.48L115.213 37.1086C115.513 35.7091 114.783 34.2927 113.469 33.7256C112.155 33.1584 110.623 33.5986 109.81 34.7768L112.28 36.48ZM112.04 26.76L110.064 29.0177C110.95 29.7929 112.208 29.9783 113.28 29.4919C114.352 29.0055 115.04 27.9371 115.04 26.76H112.04ZM112 22.68H115C115 21.8555 114.661 21.0673 114.062 20.5006C113.463 19.934 112.657 19.6389 111.834 19.6846L112 22.68ZM98.16 23.88L98.5653 26.8525L98.5737 26.8513L98.16 23.88ZM95.6 23.8L98.4735 22.938C98.4479 22.8526 98.4185 22.7685 98.3854 22.6858L95.6 23.8ZM94.6 19.76L94.9224 16.7774C93.9749 16.6749 93.0351 17.0288 92.3905 17.7307C91.7458 18.4327 91.473 19.3991 91.6555 20.3345L94.6 19.76ZM99.48 19.6L99.7058 22.5915C99.7122 22.591 99.7186 22.5905 99.7251 22.59L99.48 19.6ZM114.878 18.7033C114.847 17.7405 114.832 16.3006 114.798 15.369L108.802 15.591C108.848 16.8194 108.833 17.3795 108.882 18.8967L114.878 18.7033ZM114.793 15.2736C114.701 13.9435 114.593 13.192 114.219 11.787L108.421 13.333C108.687 14.328 108.739 14.6965 108.807 15.6864L114.793 15.2736ZM111.12 15.5534C112.85 15.6687 114.618 15.8964 115.388 16.0569L116.612 10.1831C115.462 9.94356 113.39 9.69133 111.52 9.56664L111.12 15.5534ZM115.479 16.0743C115.583 16.0927 115.422 16.0867 115.151 15.9061C114.884 15.7282 114.12 15.0806 114.12 13.88H120.12C120.12 12.3194 119.136 11.3518 118.479 10.9138C117.818 10.4732 117.097 10.2673 116.521 10.1656L115.479 16.0743ZM114.12 13.88C114.12 13.7659 114.131 13.6267 114.164 13.4739C114.196 13.3231 114.24 13.2046 114.273 13.1282C114.301 13.0608 114.321 13.0299 114.303 13.0617C114.283 13.0977 114.254 13.1465 114.188 13.2565L119.332 16.3435C119.496 16.0715 120.12 15.1654 120.12 13.88H114.12ZM114.077 13.4584C113.764 14.0847 113.58 14.8229 113.475 15.5038L119.405 16.4162C119.429 16.2615 119.455 16.1525 119.472 16.0894C119.481 16.0586 119.486 16.0463 119.484 16.0506C119.483 16.053 119.471 16.0861 119.443 16.1416L114.077 13.4584ZM113.449 15.7299C113.401 16.3505 113.398 17.0247 113.361 18.4411L119.359 18.5989C119.402 16.9753 119.399 16.6094 119.431 16.1901L113.449 15.7299ZM116.471 21.5179C120.74 21.3598 124.82 21.32 128.64 21.32V15.32C124.78 15.32 120.62 15.3602 116.249 15.5221L116.471 21.5179ZM128.64 21.32C128.724 21.32 128.563 21.3281 128.324 21.2786C128.034 21.2188 127.484 21.0466 126.984 20.5463C126.505 20.0674 126.343 19.5566 126.29 19.3504C126.243 19.1646 126.241 19.0495 126.249 19.1501L132.231 18.6899C132.219 18.5305 132.192 18.2104 132.103 17.8634C132.009 17.4959 131.79 16.8676 131.226 16.3037C130.641 15.7184 129.978 15.4937 129.538 15.4027C129.147 15.3219 128.796 15.32 128.64 15.32V21.32ZM126.242 19.0399C126.279 19.96 126.279 20.92 126.242 21.8401L132.238 22.0799C132.281 21 132.281 19.88 132.238 18.8001L126.242 19.0399ZM126.24 21.96C126.24 21.8409 126.256 20.7443 127.315 19.9738C127.768 19.6445 128.204 19.5425 128.438 19.5085C128.559 19.491 128.653 19.4876 128.709 19.4872C128.765 19.4869 128.801 19.4897 128.809 19.4904L128.311 25.4696C128.626 25.4959 129.786 25.5961 130.845 24.8262C132.124 23.8957 132.24 22.5191 132.24 21.96H126.24ZM128.647 19.4812C124.432 19.3597 120.509 19.36 116.331 19.4001L116.389 25.3999C120.531 25.36 124.368 25.3603 128.473 25.4788L128.647 19.4812ZM113.36 22.4C113.36 24.8353 113.36 27.4203 113.4 29.8892L119.4 29.7908C119.36 27.3797 119.36 24.8447 119.36 22.4H113.36ZM113.587 30.8819C113.82 31.513 114 32.6872 114 33.8H120C120 32.2728 119.78 30.327 119.213 28.7981L113.587 30.8819ZM114 33.8C114 37.5499 112.533 41.3898 108.234 44.2121L111.526 49.2279C117.707 45.1702 120 39.3301 120 33.8H114ZM108.25 44.2013C108.084 44.309 107.95 44.3947 107.833 44.4661C107.715 44.5382 107.641 44.5798 107.598 44.6025C107.577 44.6129 107.573 44.6147 107.581 44.611C107.589 44.6075 107.618 44.5948 107.666 44.5787C107.714 44.5628 107.792 44.5393 107.896 44.5193C108 44.4993 108.145 44.48 108.32 44.48V50.48C109.267 50.48 110.035 50.0976 110.362 49.9275C110.769 49.7164 111.185 49.4486 111.51 49.2387L108.25 44.2013ZM108.32 44.48C108.612 44.48 108.83 44.5354 108.947 44.5727C109.067 44.6108 109.138 44.6481 109.153 44.6565C109.175 44.668 109.125 44.6422 108.994 44.5374L105.246 49.2226C105.515 49.4378 105.885 49.712 106.317 49.9435C106.704 50.1516 107.421 50.48 108.32 50.48V44.48ZM109.031 44.5671C107.75 43.5091 106.299 42.8241 104.962 42.4127L103.198 48.1473C103.941 48.3759 104.65 48.7309 105.209 49.1929L109.031 44.5671ZM105.298 48.0214C110.624 45.6545 114.245 41.629 115.213 37.1086L109.347 35.8514C108.875 38.051 106.896 40.7455 102.862 42.5386L105.298 48.0214ZM109.81 34.7768C109.857 34.7099 109.828 34.7977 109.535 34.9086C109.248 35.017 108.874 35.08 108.52 35.08V41.08C110.211 41.08 113.113 40.556 114.75 38.1832L109.81 34.7768ZM108.52 35.08C107.684 35.08 107.108 34.7931 106.733 34.3965C106.352 33.9944 105.96 33.247 105.96 31.96H99.96C99.96 34.513 100.768 36.8256 102.377 38.5235C103.992 40.2269 106.196 41.08 108.52 41.08V35.08ZM105.96 31.96C105.96 30.0788 107.229 28.96 109 28.96V22.96C104.291 22.96 99.96 26.4012 99.96 31.96H105.96ZM109 28.96C109.416 28.96 109.769 29.0031 110.015 29.0636C110.135 29.093 110.198 29.1187 110.215 29.1267C110.235 29.1358 110.169 29.1094 110.064 29.0177L114.016 24.5023C113.194 23.7831 112.219 23.4262 111.445 23.2364C110.631 23.0369 109.784 22.96 109 22.96V28.96ZM115.04 26.76C115.04 26.0346 115.03 25.3232 115.02 24.6459C115.01 23.9612 115 23.3139 115 22.68H109C109 23.3661 109.01 24.0588 109.02 24.7341C109.03 25.4168 109.04 26.0854 109.04 26.76H115.04ZM111.834 19.6846C106.76 19.9665 101.026 20.452 97.7463 20.9087L98.5737 26.8513C101.614 26.428 107.16 25.9535 112.166 25.6754L111.834 19.6846ZM97.7547 20.9075C97.023 21.0073 96.4223 21.2036 96.0763 21.3189C95.8665 21.3889 95.8193 21.4054 95.7758 21.4178C95.767 21.4204 95.8054 21.4088 95.8744 21.3958C95.9402 21.3835 96.0845 21.36 96.28 21.36V27.36C96.8051 27.36 97.2435 27.2387 97.428 27.1859C97.6332 27.1271 97.8685 27.0461 97.9737 27.011C98.2577 26.9164 98.417 26.8727 98.5653 26.8525L97.7547 20.9075ZM96.28 21.36C96.462 21.36 97.1397 21.3971 97.7874 21.9522C98.0769 22.2004 98.2497 22.4614 98.3458 22.6409C98.4353 22.8082 98.4706 22.9285 98.4735 22.938L92.7265 24.662C92.8344 25.0218 93.1105 25.8459 93.8826 26.5078C94.7403 27.2429 95.698 27.36 96.28 27.36V21.36ZM98.3854 22.6858C98.19 22.1972 97.8771 20.8903 97.5445 19.1855L91.6555 20.3345C91.9629 21.9097 92.37 23.8028 92.8146 24.9142L98.3854 22.6858ZM94.2776 22.7426C96.1105 22.9408 97.7768 22.7371 99.7058 22.5915L99.2542 16.6085C96.9432 16.7829 96.0495 16.8992 94.9224 16.7774L94.2776 22.7426ZM99.7251 22.59C102.123 22.3934 107.246 22.0754 112.055 21.7949L111.705 15.8051C106.914 16.0846 101.717 16.4066 99.2349 16.61L99.7251 22.59ZM109.32 26.08C108.066 26.08 106.695 26.495 105.59 27.4359C104.415 28.4364 103.68 29.9216 103.68 31.68H109.68C109.68 31.6462 109.685 31.6961 109.642 31.7888C109.6 31.8793 109.539 31.9537 109.48 32.0041C109.426 32.0504 109.384 32.0672 109.369 32.0724C109.356 32.0771 109.343 32.08 109.32 32.08V26.08ZM103.68 31.68C103.68 33.2141 104.183 34.706 105.299 35.8213C106.403 36.9259 107.848 37.4 109.24 37.4V31.4C109.213 31.4 109.239 31.3956 109.303 31.4201C109.371 31.446 109.459 31.4963 109.541 31.5787C109.625 31.6621 109.667 31.7431 109.684 31.7873C109.699 31.8274 109.68 31.8018 109.68 31.68H103.68ZM109.24 37.4C110.587 37.4 112.046 36.9776 113.197 35.9076C114.387 34.8021 114.96 33.272 114.96 31.64H108.96C108.96 31.7615 108.94 31.7767 108.962 31.7238C108.985 31.6664 109.034 31.5858 109.113 31.5124C109.274 31.3624 109.373 31.4 109.24 31.4V37.4ZM114.96 31.64C114.96 30.167 114.475 28.675 113.301 27.5653C112.152 26.4784 110.683 26.08 109.32 26.08V32.08C109.557 32.08 109.408 32.1416 109.179 31.9247C109.071 31.8232 109.006 31.712 108.974 31.6299C108.945 31.5547 108.96 31.5459 108.96 31.64H114.96ZM155.88 18.8L156.055 21.7949C157.678 21.7002 158.931 20.3289 158.878 18.7033L155.88 18.8ZM155.8 15.48L158.798 15.369C158.797 15.3371 158.795 15.3054 158.793 15.2736L155.8 15.48ZM155.32 12.56L155.52 9.56664C154.555 9.50231 153.618 9.90719 153.003 10.6541C152.389 11.4011 152.172 12.3984 152.421 13.333L155.32 12.56ZM160 13.12L159.388 16.0569C159.418 16.0632 159.448 16.069 159.479 16.0743L160 13.12ZM160.76 14.8L158.188 13.2565C158.148 13.3224 158.111 13.3897 158.077 13.4584L160.76 14.8ZM160.44 15.96L157.475 15.5038C157.463 15.5788 157.455 15.6542 157.449 15.7299L160.44 15.96ZM160.36 18.52L157.361 18.4411C157.339 19.2694 157.661 20.0699 158.25 20.6526C158.839 21.2354 159.643 21.5486 160.471 21.5179L160.36 18.52ZM173.24 18.92L176.238 18.8001C176.236 18.7633 176.234 18.7266 176.231 18.6899L173.24 18.92ZM173.24 21.96L170.242 21.8401C170.241 21.88 170.24 21.92 170.24 21.96H173.24ZM172.56 22.48L172.809 19.4904C172.755 19.4859 172.701 19.4828 172.647 19.4812L172.56 22.48ZM160.36 22.4L160.331 19.4001C158.686 19.416 157.36 20.7544 157.36 22.4H160.36ZM160.4 29.84L157.4 29.8892C157.406 30.2283 157.469 30.5639 157.587 30.8819L160.4 29.84ZM153.88 46.72L155.51 49.2387C155.515 49.2351 155.521 49.2315 155.526 49.2279L153.88 46.72ZM151.12 46.88L149.209 49.1929C149.221 49.2029 149.234 49.2128 149.246 49.2226L151.12 46.88ZM148.08 45.28L146.862 42.5386C145.718 43.0466 145.011 44.2107 145.085 45.4595C145.16 46.7082 146.002 47.7794 147.198 48.1473L148.08 45.28ZM156.28 36.48L159.213 37.1086C159.513 35.7091 158.783 34.2927 157.469 33.7256C156.155 33.1584 154.623 33.5986 153.81 34.7768L156.28 36.48ZM156.04 26.76L154.064 29.0177C154.95 29.7929 156.208 29.9783 157.28 29.4919C158.352 29.0055 159.04 27.9371 159.04 26.76H156.04ZM156 22.68H159C159 21.8555 158.661 21.0673 158.062 20.5006C157.463 19.934 156.657 19.6389 155.834 19.6846L156 22.68ZM142.16 23.88L142.565 26.8525L142.574 26.8513L142.16 23.88ZM139.6 23.8L142.473 22.938C142.448 22.8526 142.419 22.7685 142.385 22.6858L139.6 23.8ZM138.6 19.76L138.922 16.7774C137.975 16.6749 137.035 17.0288 136.39 17.7307C135.746 18.4327 135.473 19.3991 135.656 20.3345L138.6 19.76ZM143.48 19.6L143.706 22.5915C143.712 22.591 143.719 22.5905 143.725 22.59L143.48 19.6ZM158.878 18.7033C158.847 17.7405 158.832 16.3006 158.798 15.369L152.802 15.591C152.848 16.8194 152.833 17.3795 152.882 18.8967L158.878 18.7033ZM158.793 15.2736C158.701 13.9435 158.593 13.192 158.219 11.787L152.421 13.333C152.687 14.328 152.739 14.6965 152.807 15.6864L158.793 15.2736ZM155.12 15.5534C156.85 15.6687 158.618 15.8964 159.388 16.0569L160.612 10.1831C159.462 9.94356 157.39 9.69133 155.52 9.56664L155.12 15.5534ZM159.479 16.0743C159.583 16.0927 159.422 16.0867 159.151 15.9061C158.884 15.7282 158.12 15.0806 158.12 13.88H164.12C164.12 12.3194 163.136 11.3518 162.479 10.9138C161.818 10.4732 161.097 10.2673 160.521 10.1656L159.479 16.0743ZM158.12 13.88C158.12 13.7659 158.131 13.6267 158.164 13.4739C158.196 13.3231 158.24 13.2046 158.273 13.1282C158.301 13.0608 158.321 13.0299 158.303 13.0617C158.283 13.0977 158.254 13.1465 158.188 13.2565L163.332 16.3435C163.496 16.0715 164.12 15.1654 164.12 13.88H158.12ZM158.077 13.4584C157.764 14.0847 157.58 14.8229 157.475 15.5038L163.405 16.4162C163.429 16.2615 163.455 16.1525 163.472 16.0894C163.481 16.0586 163.486 16.0463 163.484 16.0506C163.483 16.053 163.471 16.0861 163.443 16.1416L158.077 13.4584ZM157.449 15.7299C157.401 16.3505 157.398 17.0247 157.361 18.4411L163.359 18.5989C163.402 16.9753 163.399 16.6094 163.431 16.1901L157.449 15.7299ZM160.471 21.5179C164.74 21.3598 168.82 21.32 172.64 21.32V15.32C168.78 15.32 164.62 15.3602 160.249 15.5221L160.471 21.5179ZM172.64 21.32C172.724 21.32 172.563 21.3281 172.324 21.2786C172.034 21.2188 171.484 21.0466 170.984 20.5463C170.505 20.0674 170.343 19.5566 170.29 19.3504C170.243 19.1646 170.241 19.0495 170.249 19.1501L176.231 18.6899C176.219 18.5305 176.192 18.2104 176.103 17.8634C176.009 17.4959 175.79 16.8676 175.226 16.3037C174.641 15.7184 173.978 15.4937 173.538 15.4027C173.147 15.3219 172.796 15.32 172.64 15.32V21.32ZM170.242 19.0399C170.279 19.96 170.279 20.92 170.242 21.8401L176.238 22.0799C176.281 21 176.281 19.88 176.238 18.8001L170.242 19.0399ZM170.24 21.96C170.24 21.8409 170.256 20.7443 171.315 19.9738C171.768 19.6445 172.204 19.5425 172.438 19.5085C172.559 19.491 172.653 19.4876 172.709 19.4872C172.765 19.4869 172.801 19.4897 172.809 19.4904L172.311 25.4696C172.626 25.4959 173.786 25.5961 174.845 24.8262C176.124 23.8957 176.24 22.5191 176.24 21.96H170.24ZM172.647 19.4812C168.432 19.3597 164.509 19.36 160.331 19.4001L160.389 25.3999C164.531 25.36 168.368 25.3603 172.473 25.4788L172.647 19.4812ZM157.36 22.4C157.36 24.8353 157.36 27.4203 157.4 29.8892L163.4 29.7908C163.36 27.3797 163.36 24.8447 163.36 22.4H157.36ZM157.587 30.8819C157.82 31.513 158 32.6872 158 33.8H164C164 32.2728 163.78 30.327 163.213 28.7981L157.587 30.8819ZM158 33.8C158 37.5499 156.533 41.3898 152.234 44.2121L155.526 49.2279C161.707 45.1702 164 39.3301 164 33.8H158ZM152.25 44.2013C152.084 44.309 151.95 44.3947 151.833 44.4661C151.715 44.5382 151.641 44.5798 151.598 44.6025C151.577 44.6129 151.573 44.6147 151.581 44.611C151.589 44.6075 151.618 44.5948 151.666 44.5787C151.714 44.5628 151.792 44.5393 151.896 44.5193C152 44.4993 152.145 44.48 152.32 44.48V50.48C153.267 50.48 154.035 50.0976 154.362 49.9275C154.769 49.7164 155.185 49.4486 155.51 49.2387L152.25 44.2013ZM152.32 44.48C152.612 44.48 152.83 44.5354 152.947 44.5727C153.067 44.6108 153.138 44.6481 153.153 44.6565C153.175 44.668 153.125 44.6422 152.994 44.5374L149.246 49.2226C149.515 49.4378 149.885 49.712 150.317 49.9435C150.704 50.1516 151.421 50.48 152.32 50.48V44.48ZM153.031 44.5671C151.75 43.5091 150.299 42.8241 148.962 42.4127L147.198 48.1473C147.941 48.3759 148.65 48.7309 149.209 49.1929L153.031 44.5671ZM149.298 48.0214C154.624 45.6545 158.245 41.629 159.213 37.1086L153.347 35.8514C152.875 38.051 150.896 40.7455 146.862 42.5386L149.298 48.0214ZM153.81 34.7768C153.857 34.7099 153.828 34.7977 153.535 34.9086C153.248 35.017 152.874 35.08 152.52 35.08V41.08C154.211 41.08 157.113 40.556 158.75 38.1832L153.81 34.7768ZM152.52 35.08C151.684 35.08 151.108 34.7931 150.733 34.3965C150.352 33.9944 149.96 33.247 149.96 31.96H143.96C143.96 34.513 144.768 36.8256 146.377 38.5235C147.992 40.2269 150.196 41.08 152.52 41.08V35.08ZM149.96 31.96C149.96 30.0788 151.229 28.96 153 28.96V22.96C148.291 22.96 143.96 26.4012 143.96 31.96H149.96ZM153 28.96C153.416 28.96 153.769 29.0031 154.015 29.0636C154.135 29.093 154.198 29.1187 154.215 29.1267C154.235 29.1358 154.169 29.1094 154.064 29.0177L158.016 24.5023C157.194 23.7831 156.219 23.4262 155.445 23.2364C154.631 23.0369 153.784 22.96 153 22.96V28.96ZM159.04 26.76C159.04 26.0346 159.03 25.3232 159.02 24.6459C159.01 23.9612 159 23.3139 159 22.68H153C153 23.3661 153.01 24.0588 153.02 24.7341C153.03 25.4168 153.04 26.0854 153.04 26.76H159.04ZM155.834 19.6846C150.76 19.9665 145.026 20.452 141.746 20.9087L142.574 26.8513C145.614 26.428 151.16 25.9535 156.166 25.6754L155.834 19.6846ZM141.755 20.9075C141.023 21.0073 140.422 21.2036 140.076 21.3189C139.867 21.3889 139.819 21.4054 139.776 21.4178C139.767 21.4204 139.805 21.4088 139.874 21.3958C139.94 21.3835 140.084 21.36 140.28 21.36V27.36C140.805 27.36 141.243 27.2387 141.428 27.1859C141.633 27.1271 141.868 27.0461 141.974 27.011C142.258 26.9164 142.417 26.8727 142.565 26.8525L141.755 20.9075ZM140.28 21.36C140.462 21.36 141.14 21.3971 141.787 21.9522C142.077 22.2004 142.25 22.4614 142.346 22.6409C142.435 22.8082 142.471 22.9285 142.473 22.938L136.727 24.662C136.834 25.0218 137.11 25.8459 137.883 26.5078C138.74 27.2429 139.698 27.36 140.28 27.36V21.36ZM142.385 22.6858C142.19 22.1972 141.877 20.8903 141.544 19.1855L135.656 20.3345C135.963 21.9097 136.37 23.8028 136.815 24.9142L142.385 22.6858ZM138.278 22.7426C140.11 22.9408 141.777 22.7371 143.706 22.5915L143.254 16.6085C140.943 16.7829 140.049 16.8992 138.922 16.7774L138.278 22.7426ZM143.725 22.59C146.123 22.3934 151.246 22.0754 156.055 21.7949L155.705 15.8051C150.914 16.0846 145.717 16.4066 143.235 16.61L143.725 22.59ZM153.32 26.08C152.066 26.08 150.695 26.495 149.59 27.4359C148.415 28.4364 147.68 29.9216 147.68 31.68H153.68C153.68 31.6462 153.685 31.6961 153.642 31.7888C153.6 31.8793 153.539 31.9537 153.48 32.0041C153.426 32.0504 153.384 32.0672 153.369 32.0724C153.356 32.0771 153.343 32.08 153.32 32.08V26.08ZM147.68 31.68C147.68 33.2141 148.183 34.706 149.299 35.8213C150.403 36.9259 151.848 37.4 153.24 37.4V31.4C153.213 31.4 153.239 31.3956 153.303 31.4201C153.371 31.446 153.459 31.4963 153.541 31.5787C153.625 31.6621 153.667 31.7431 153.684 31.7873C153.699 31.8274 153.68 31.8018 153.68 31.68H147.68ZM153.24 37.4C154.587 37.4 156.046 36.9776 157.197 35.9076C158.387 34.8021 158.96 33.272 158.96 31.64H152.96C152.96 31.7615 152.94 31.7767 152.962 31.7238C152.985 31.6664 153.034 31.5858 153.113 31.5124C153.274 31.3624 153.373 31.4 153.24 31.4V37.4ZM158.96 31.64C158.96 30.167 158.475 28.675 157.301 27.5653C156.152 26.4784 154.683 26.08 153.32 26.08V32.08C153.557 32.08 153.408 32.1416 153.179 31.9247C153.071 31.8232 153.006 31.712 152.974 31.6299C152.945 31.5547 152.96 31.5459 152.96 31.64H158.96ZM201.16 21.2L201.424 24.1884C202.604 24.0843 203.612 23.2955 203.997 22.1752L201.16 21.2ZM202.32 16.32L205.278 16.8222C205.283 16.79 205.288 16.7577 205.292 16.7253L202.32 16.32ZM202.4 13.6L202.988 10.6583C202.037 10.468 201.052 10.7496 200.345 11.4141C199.638 12.0786 199.296 13.044 199.428 14.0053L202.4 13.6ZM207.12 15.2L205.671 17.8267C205.739 17.8642 205.808 17.899 205.879 17.9311L207.12 15.2ZM207.48 16.6L209.947 18.3076C209.957 18.2932 209.966 18.2787 209.976 18.2641L207.48 16.6ZM206.68 18.08L203.895 16.9658C203.887 16.986 203.879 17.0063 203.871 17.0266L206.68 18.08ZM205.56 21.28L202.707 20.3527C202.436 21.1875 202.543 22.0992 203.002 22.8476C203.461 23.596 204.224 24.106 205.091 24.2431L205.56 21.28ZM203.96 46.24L204.625 49.1654C204.642 49.1614 204.66 49.1573 204.677 49.153L203.96 46.24ZM202.32 45.56L199.776 47.15C199.779 47.154 199.781 47.158 199.784 47.162L202.32 45.56ZM199.72 42.92L199.115 39.9816C197.901 40.2315 196.966 41.2021 196.761 42.4244C196.556 43.6467 197.124 44.8691 198.191 45.5009L199.72 42.92ZM204.48 24.8L204.779 21.8149C203.46 21.683 202.211 22.4322 201.706 23.6578L204.48 24.8ZM198.64 36.48L196.112 34.8654C195.445 35.9093 195.488 37.2554 196.221 38.2541L198.64 36.48ZM200.36 38.52L202.659 40.4478C203.678 39.2323 203.575 37.4332 202.423 36.3421L200.36 38.52ZM197.88 40.96L196.278 38.4235C196.21 38.4664 196.144 38.5119 196.08 38.56L197.88 40.96ZM196.76 40.92L194.639 43.0413C194.717 43.1196 194.799 43.1935 194.886 43.2626L196.76 40.92ZM195.68 39.76L197.97 37.8222C197.418 37.1698 196.614 36.7838 195.76 36.7611C194.906 36.7383 194.082 37.0809 193.496 37.7029L195.68 39.76ZM189.44 25.6L191.455 27.823C192.304 27.0532 192.64 25.8668 192.322 24.7658L189.44 25.6ZM188.2 20.32L191.125 19.6551C191.119 19.6283 191.113 19.6015 191.106 19.5749L188.2 20.32ZM187 16.56L187.125 13.5626C186.064 13.5184 185.058 14.0385 184.481 14.93C183.904 15.8216 183.842 16.9518 184.317 17.9016L187 16.56ZM191.52 17.2L190.571 20.046C190.644 20.0703 190.718 20.0918 190.792 20.1104L191.52 17.2ZM192.44 20.64L189.475 21.0962C189.478 21.114 189.481 21.1319 189.484 21.1497L192.44 20.64ZM193 23.48L190.09 24.2076C190.314 25.1048 190.939 25.8484 191.785 26.2229C192.63 26.5975 193.601 26.5611 194.417 26.1244L193 23.48ZM193.96 27.08L192.335 24.5583C191.237 25.266 190.723 26.6032 191.064 27.8642L193.96 27.08ZM196.2 32.92L193.557 34.3385C194.064 35.2834 195.036 35.8858 196.108 35.9186C197.18 35.9514 198.188 35.4096 198.752 34.4975L196.2 32.92ZM200 24.84L202.799 25.9192C203.179 24.9335 203.013 23.8205 202.361 22.9891C201.709 22.1577 200.668 21.7304 199.62 21.8642L200 24.84ZM190.68 29.72L193.542 28.822C193.215 27.7784 192.346 26.9956 191.273 26.7793C190.201 26.5629 189.096 26.9472 188.39 27.7822L190.68 29.72ZM193.44 36.2L195.756 38.1071C196.519 37.18 196.656 35.8869 196.104 34.8204L193.44 36.2ZM203.997 22.1752C204.508 20.6892 204.901 19.0378 205.278 16.8222L199.362 15.8178C199.019 17.8421 198.692 19.1508 198.323 20.2248L203.997 22.1752ZM205.292 16.7253C205.422 15.7778 205.549 14.4897 205.372 13.1947L199.428 14.0053C199.491 14.4703 199.458 15.1022 199.348 15.9147L205.292 16.7253ZM201.812 16.5417C203.593 16.8979 204.845 17.3709 205.671 17.8267L208.569 12.5733C207.075 11.749 205.207 11.1021 202.988 10.6583L201.812 16.5417ZM205.879 17.9311C205.875 17.9297 205.623 17.8202 205.347 17.5055C205.02 17.1315 204.76 16.574 204.76 15.92H210.76C210.76 13.8473 209.167 12.835 208.361 12.4689L205.879 17.9311ZM204.76 15.92C204.76 15.4522 204.891 15.1353 204.929 15.0488C204.975 14.9416 205.009 14.8985 204.984 14.9359L209.976 18.2641C210.145 18.0115 210.76 17.1035 210.76 15.92H204.76ZM205.013 14.8924C204.536 15.5814 204.225 16.1391 203.895 16.9658L209.465 19.1942C209.615 18.8209 209.704 18.6586 209.947 18.3076L205.013 14.8924ZM203.871 17.0266C203.624 17.6861 203.246 18.6926 202.707 20.3527L208.413 22.2073C208.914 20.6674 209.256 19.7539 209.489 19.1334L203.871 17.0266ZM205.091 24.2431C207.718 24.6588 209.746 25.7151 211.094 27.1357C212.417 28.5289 213.24 30.4273 213.24 32.88H219.24C219.24 28.9727 217.883 25.5711 215.446 23.0043C213.034 20.4649 209.722 18.9012 206.029 18.3169L205.091 24.2431ZM213.24 32.88C213.24 35.7808 212.384 37.8625 210.9 39.4391C209.356 41.0804 206.888 42.4296 203.243 43.327L204.677 49.153C208.992 48.0905 212.664 46.3196 215.27 43.5509C217.936 40.7175 219.24 37.0992 219.24 32.88H213.24ZM203.295 43.3146C203.146 43.3484 203.18 43.3305 203.305 43.3265C203.462 43.3215 203.776 43.3375 204.144 43.4908C204.511 43.6438 204.742 43.8544 204.847 43.9663C204.929 44.0549 204.939 44.0892 204.856 43.958L199.784 47.162C200.04 47.5687 200.655 48.5373 201.836 49.0292C203.022 49.5233 204.145 49.2745 204.625 49.1654L203.295 43.3146ZM204.864 43.97C204.089 42.7305 202.854 41.29 201.249 40.3391L198.191 45.5009C198.746 45.83 199.351 46.4695 199.776 47.15L204.864 43.97ZM200.325 45.8584C203.169 45.2728 206.648 44.272 209.47 42.2812C212.434 40.1896 214.68 36.9772 214.68 32.36H208.68C208.68 34.7028 207.666 36.2104 206.01 37.3788C204.212 38.648 201.711 39.4472 199.115 39.9816L200.325 45.8584ZM214.68 32.36C214.68 26.6782 210.61 22.398 204.779 21.8149L204.181 27.7851C207.15 28.082 208.68 29.9618 208.68 32.36H214.68ZM201.706 23.6578C199.784 28.3265 198.101 31.7498 196.112 34.8654L201.168 38.0946C203.419 34.5702 205.256 30.7935 207.254 25.9422L201.706 23.6578ZM196.221 38.2541C196.648 38.837 197.314 39.767 198.297 40.6979L202.423 36.3421C201.886 35.833 201.512 35.323 201.059 34.7059L196.221 38.2541ZM198.061 36.5922C197.008 37.8481 196.595 38.2232 196.278 38.4235L199.482 43.4965C200.685 42.7368 201.632 41.6719 202.659 40.4478L198.061 36.5922ZM196.08 38.56C196.329 38.3733 196.745 38.16 197.32 38.16V44.16C198.295 44.16 199.111 43.7867 199.68 43.36L196.08 38.56ZM197.32 38.16C197.655 38.16 197.979 38.2345 198.258 38.3586C198.383 38.4138 198.476 38.4693 198.536 38.5081C198.595 38.546 198.629 38.5736 198.634 38.5774L194.886 43.2626C195.32 43.6096 196.136 44.16 197.32 44.16V38.16ZM198.881 38.7987C198.575 38.4919 198.327 38.2435 197.97 37.8222L193.39 41.6978C193.913 42.3165 194.305 42.7081 194.639 43.0413L198.881 38.7987ZM193.496 37.7029C191.112 40.234 189.932 40.56 189 40.56V46.56C192.388 46.56 195.048 44.806 197.864 41.8171L193.496 37.7029ZM189 40.56C188.358 40.56 187.899 40.3261 187.548 39.9035C187.162 39.4384 186.76 38.5479 186.76 37.08H180.76C180.76 39.6121 181.458 41.9616 182.932 43.7365C184.441 45.5539 186.602 46.56 189 46.56V40.56ZM186.76 37.08C186.76 33.9301 188.11 30.854 191.455 27.823L187.425 23.377C183.09 27.306 180.76 31.9099 180.76 37.08H186.76ZM192.322 24.7658C191.914 23.3576 191.555 21.5439 191.125 19.6551L185.275 20.9849C185.645 22.6161 186.086 24.8024 186.558 26.4342L192.322 24.7658ZM191.106 19.5749C190.743 18.1588 190.422 16.6955 189.683 15.2184L184.317 17.9016C184.698 18.6645 184.857 19.3612 185.294 21.0651L191.106 19.5749ZM186.875 19.5574C188.717 19.6342 189.898 19.8218 190.571 20.046L192.469 14.3539C190.982 13.8582 189.123 13.6458 187.125 13.5626L186.875 19.5574ZM190.792 20.1104C190.786 20.1088 190.743 20.098 190.676 20.0727C190.609 20.0472 190.504 20.0023 190.379 19.9284C190.103 19.7643 189.805 19.5031 189.58 19.1343C189.372 18.7944 189.31 18.4998 189.291 18.3815C189.273 18.2757 189.28 18.2412 189.28 18.36H195.28C195.28 18.0064 195.292 16.9745 194.7 16.0057C193.984 14.8345 192.868 14.4448 192.248 14.2896L190.792 20.1104ZM189.28 18.36C189.28 19.0578 189.281 19.8339 189.475 21.0962L195.405 20.1838C195.279 19.3661 195.28 18.9422 195.28 18.36H189.28ZM189.484 21.1497C189.68 22.2881 189.818 23.1204 190.09 24.2076L195.91 22.7524C195.702 21.9196 195.6 21.3119 195.396 20.1303L189.484 21.1497ZM194.417 26.1244C196.225 25.1557 199.014 24.401 201.424 24.1884L200.896 18.2116C197.866 18.479 194.255 19.4043 191.583 20.8356L194.417 26.1244ZM191.064 27.8642C191.626 29.9383 192.54 32.4447 193.557 34.3385L198.843 31.5015C198.1 30.1153 197.334 28.0617 196.856 26.2958L191.064 27.8642ZM198.752 34.4975C200.255 32.0664 201.493 29.3081 202.799 25.9192L197.201 23.7608C195.947 27.0119 194.865 29.3736 193.648 31.3425L198.752 34.4975ZM199.62 21.8642C197.289 22.1617 194.505 23.1598 192.335 24.5583L195.585 29.6017C197.015 28.6802 198.951 27.9983 200.38 27.8158L199.62 21.8642ZM188.39 27.7822C186.264 30.2943 184.88 33.519 184.88 36.68H190.88C190.88 35.201 191.576 33.3057 192.97 31.6578L188.39 27.7822ZM184.88 36.68C184.88 37.7243 185.088 38.8706 185.644 39.8695C186.197 40.8621 187.381 42.12 189.28 42.12V36.12C189.752 36.12 190.163 36.2822 190.456 36.493C190.725 36.6856 190.847 36.8809 190.886 36.9505C190.952 37.0694 190.88 36.9957 190.88 36.68H184.88ZM189.28 42.12C191.986 42.12 194.063 40.1627 195.756 38.1071L191.124 34.2929C190.366 35.214 189.825 35.7121 189.462 35.9656C189.126 36.2001 189.096 36.12 189.28 36.12V42.12ZM196.104 34.8204C194.996 32.6811 194.115 30.6468 193.542 28.822L187.818 30.618C188.525 32.8732 189.564 35.2389 190.776 37.5796L196.104 34.8204ZM241.72 22.68H244.72C244.72 21.0231 243.377 19.68 241.72 19.68V22.68ZM241.72 18.8V21.8C243.377 21.8 244.72 20.4569 244.72 18.8H241.72ZM241.44 11.52L241.521 8.52109C240.62 8.49675 239.756 8.87854 239.168 9.56092C238.58 10.2433 238.329 11.154 238.486 12.0414L241.44 11.52ZM245.8 11.8L245.459 14.7806C245.473 14.7822 245.487 14.7837 245.501 14.7851L245.8 11.8ZM246.16 13.28L243.314 12.3313C243.307 12.3534 243.299 12.3755 243.293 12.3977L246.16 13.28ZM245.96 18.8H242.96C242.96 20.4569 244.303 21.8 245.96 21.8V18.8ZM246.32 22.68V19.68C245.372 19.68 244.481 20.1277 243.914 20.8876C243.348 21.6474 243.174 22.6301 243.445 23.5381L246.32 22.68ZM249.64 29.96L247.109 31.5706C247.578 32.3072 248.344 32.803 249.208 32.9287C250.072 33.0544 250.948 32.7976 251.607 32.2251L249.64 29.96ZM254 25.56L251.733 23.5952C251.72 23.6098 251.708 23.6246 251.695 23.6394L254 25.56ZM255.28 23.64L256.891 21.109C256.174 20.653 255.298 20.5221 254.479 20.7489C253.661 20.9756 252.977 21.5387 252.597 22.2984L255.28 23.64ZM258.4 25.92L260.407 23.6901C260.402 23.686 260.398 23.6819 260.393 23.6778L258.4 25.92ZM258.32 27.36L259.662 30.0433V30.0433L258.32 27.36ZM256.28 29L254.159 26.8787C254.148 26.8889 254.138 26.8992 254.128 26.9096L256.28 29ZM251.8 33L249.939 30.6468C249.308 31.1458 248.904 31.8776 248.817 32.6776C248.731 33.4776 248.969 34.2788 249.479 34.9012L251.8 33ZM262.12 41.12L264.241 43.2413C264.919 42.5638 265.232 41.6033 265.084 40.6566C264.936 39.7099 264.345 38.8909 263.493 38.4524L262.12 41.12ZM259.96 44L257.355 42.5116C257.352 42.5175 257.349 42.5233 257.345 42.5292L259.96 44ZM258.28 44.44L256.661 46.9657L256.669 46.971L258.28 44.44ZM245.76 28.6L248.603 27.6412C248.129 26.2362 246.7 25.3882 245.239 25.6455C243.779 25.9029 242.726 27.1885 242.761 28.6708L245.76 28.6ZM244.52 46.92L242.977 44.3475C242.961 44.3569 242.945 44.3664 242.93 44.376L244.52 46.92ZM239 47.8L238.963 44.8002C238.943 44.8005 238.923 44.8009 238.903 44.8016L239 47.8ZM237.48 46.6L240.353 45.738C240.351 45.7289 240.348 45.7198 240.345 45.7108L237.48 46.6ZM236 43.52L236.28 40.5331C235.068 40.4194 233.907 41.0499 233.342 42.1288C232.777 43.2077 232.921 44.5209 233.705 45.4524L236 43.52ZM239.6 32.4L242.596 32.2502C242.541 31.1401 241.876 30.1517 240.869 29.6816C239.862 29.2115 238.677 29.3367 237.791 30.007L239.6 32.4ZM240 35.24L237.063 35.8519C237.066 35.8682 237.07 35.8845 237.074 35.9008L240 35.24ZM239.28 37.24L241.065 39.6512C241.075 39.6437 241.085 39.6361 241.095 39.6285L239.28 37.24ZM230.56 42.88L231.972 45.5271C231.989 45.5178 232.006 45.5084 232.023 45.4988L230.56 42.88ZM229.4 43.68L227.526 41.3374C227.379 41.4546 227.244 41.5852 227.122 41.7276L229.4 43.68ZM228.16 43.56L230.843 42.2184C230.821 42.1729 230.797 42.1281 230.772 42.0838L228.16 43.56ZM226.44 39.92L225.578 37.0465C224.774 37.2877 224.108 37.8546 223.741 38.6096C223.375 39.3646 223.341 40.2387 223.649 41.0196L226.44 39.92ZM229.68 38.6L230.978 41.3046C230.997 41.2955 231.016 41.2861 231.035 41.2766L229.68 38.6ZM229.76 26.16L231.881 28.2813V28.2813L229.76 26.16ZM231.68 24.24L229.559 22.1187V22.1187L231.68 24.24ZM232.48 24.08L234.17 21.6013C234.161 21.5955 234.153 21.5896 234.144 21.5839L232.48 24.08ZM238 29L235.749 30.9831C235.791 31.0305 235.834 31.0766 235.879 31.1213L238 29ZM238 29.8L240.14 31.9021C240.212 31.8296 240.279 31.7535 240.343 31.6741L238 29.8ZM235.8 32.04L237.921 34.1613C237.928 34.1549 237.934 34.1486 237.94 34.1421L235.8 32.04ZM235 32.2L232.618 34.0242C232.623 34.0301 232.627 34.036 232.632 34.0418L235 32.2ZM229.68 26.96L227.806 29.3026C227.833 29.3243 227.86 29.3454 227.888 29.3661L229.68 26.96ZM249.88 13.4L251.78 15.7219C251.792 15.712 251.804 15.7021 251.816 15.6921L249.88 13.4ZM251.68 11.88L249.838 9.51194C249.806 9.53663 249.775 9.56196 249.744 9.58791L251.68 11.88ZM252.6 11.88L254.233 9.36312C254.169 9.32171 254.103 9.28275 254.037 9.24631L252.6 11.88ZM257.04 15.72L254.888 17.8104C254.961 17.8858 255.039 17.9573 255.119 18.0247L257.04 15.72ZM256.8 16.52L254.971 14.1421C254.94 14.1659 254.909 14.1903 254.879 14.2153L256.8 16.52ZM254.88 18.12L256.754 20.4626C256.77 20.4501 256.785 20.4375 256.801 20.4247L254.88 18.12ZM254 18.08L256.343 16.2059L256.343 16.2059L254 18.08ZM249.76 14.08L251.57 11.6878L251.56 11.68L249.76 14.08ZM241.72 19.68H231.96V25.68H241.72V19.68ZM231.96 19.68C230.118 19.68 228.872 19.7002 228.05 19.7209C227.638 19.7313 227.335 19.7417 227.121 19.7495C226.857 19.759 226.828 19.76 226.84 19.76V25.76C226.991 25.76 227.564 25.7351 228.2 25.719C228.968 25.6998 230.162 25.68 231.96 25.68V19.68ZM226.84 19.76C226.725 19.76 226.897 19.7516 227.134 19.7938C227.41 19.8429 228.176 20.0272 228.795 20.7694C229.352 21.4388 229.418 22.1344 229.43 22.2467C229.444 22.3782 229.44 22.4842 229.44 22.32H223.44C223.44 22.3558 223.436 22.6168 223.462 22.8683C223.487 23.1006 223.578 23.8812 224.185 24.6106C224.854 25.4128 225.695 25.6321 226.084 25.7012C226.433 25.7634 226.755 25.76 226.84 25.76V19.76ZM229.44 22.32V19.2H223.44V22.32H229.44ZM229.44 19.2C229.44 19.0309 229.443 19.114 229.433 19.2238C229.426 19.2981 229.377 19.9627 228.868 20.6241C228.268 21.4034 227.489 21.6199 227.166 21.681C226.909 21.7295 226.718 21.72 226.84 21.72V15.72C226.762 15.72 226.421 15.7155 226.052 15.7853C225.616 15.8676 224.762 16.1216 224.112 16.9659C223.553 17.6923 223.479 18.4494 223.46 18.6549C223.437 18.896 223.44 19.1491 223.44 19.2H229.44ZM226.84 21.72C226.828 21.72 226.857 21.721 227.121 21.7305C227.335 21.7383 227.638 21.7487 228.05 21.7591C228.872 21.7798 230.118 21.8 231.96 21.8V15.8C230.162 15.8 228.968 15.7802 228.2 15.7609C227.564 15.7449 226.991 15.72 226.84 15.72V21.72ZM231.96 21.8H241.72V15.8H231.96V21.8ZM244.72 18.8V16.36H238.72V18.8H244.72ZM244.72 16.36C244.72 14.2381 244.685 12.6433 244.394 10.9986L238.486 12.0414C238.675 13.1167 238.72 14.2419 238.72 16.36H244.72ZM241.359 14.5189C242.791 14.5576 244.177 14.6341 245.459 14.7806L246.141 8.8194C244.623 8.64594 243.049 8.56239 241.521 8.52109L241.359 14.5189ZM245.501 14.7851C245.273 14.7622 244.75 14.6587 244.237 14.2022C243.682 13.7088 243.36 12.9907 243.36 12.24H249.36C249.36 11.2893 248.958 10.3712 248.223 9.71777C247.53 9.1013 246.727 8.87775 246.099 8.81489L245.501 14.7851ZM243.36 12.24C243.36 12.2179 243.361 12.1971 243.363 12.1796C243.365 12.1624 243.367 12.1534 243.367 12.155C243.366 12.1573 243.363 12.1711 243.355 12.2004C243.346 12.2303 243.334 12.2719 243.314 12.3313L249.006 14.2287C249.167 13.7459 249.36 13.0711 249.36 12.24H243.36ZM243.293 12.3977C243.101 13.0192 243.038 13.6999 243.005 14.2403C242.97 14.8329 242.96 15.5257 242.96 16.28H248.96C248.96 15.5543 248.97 15.0071 248.995 14.5997C249.022 14.1401 249.059 14.0608 249.027 14.1623L243.293 12.3977ZM242.96 16.28V18.8H248.96V16.28H242.96ZM245.96 21.8H255.56V15.8H245.96V21.8ZM255.56 21.8C257.402 21.8 258.648 21.7798 259.47 21.7591C259.882 21.7487 260.185 21.7383 260.399 21.7305C260.663 21.721 260.692 21.72 260.68 21.72V15.72C260.529 15.72 259.956 15.7449 259.32 15.7609C258.552 15.7802 257.358 15.8 255.56 15.8V21.8ZM260.68 21.72C260.791 21.72 260.625 21.728 260.394 21.6872C260.122 21.639 259.437 21.4702 258.846 20.8298C258.286 20.2239 258.17 19.5774 258.142 19.3913C258.114 19.2067 258.12 19.0845 258.12 19.2H264.12C264.12 19.0955 264.121 18.8033 264.073 18.4874C264.025 18.1701 263.874 17.4311 263.254 16.7602C262.603 16.0548 261.833 15.8485 261.441 15.7791C261.09 15.717 260.769 15.72 260.68 15.72V21.72ZM258.12 19.2V22.32H264.12V19.2H258.12ZM258.12 22.32C258.12 22.4249 258.113 22.2765 258.148 22.0643C258.187 21.8309 258.331 21.1667 258.929 20.5687C259.527 19.9706 260.191 19.8272 260.424 19.7883C260.637 19.7529 260.785 19.76 260.68 19.76V25.76C260.775 25.76 261.078 25.762 261.411 25.7067C261.764 25.6478 262.513 25.4694 263.171 24.8113C263.829 24.1533 264.008 23.4041 264.067 23.0507C264.122 22.7185 264.12 22.4151 264.12 22.32H258.12ZM260.68 19.76C260.692 19.76 260.663 19.759 260.399 19.7495C260.185 19.7417 259.882 19.7313 259.47 19.7209C258.648 19.7002 257.402 19.68 255.56 19.68V25.68C257.358 25.68 258.552 25.6998 259.32 25.719C259.956 25.7351 260.529 25.76 260.68 25.76V19.76ZM255.56 19.68H246.32V25.68H255.56V19.68ZM243.445 23.5381C244.326 26.4899 245.564 29.1425 247.109 31.5706L252.171 28.3494C250.916 26.3775 249.914 24.2301 249.195 21.8219L243.445 23.5381ZM251.607 32.2251C253.216 30.828 254.777 29.3137 256.305 27.4806L251.695 23.6394C250.423 25.1663 249.104 26.452 247.673 27.6949L251.607 32.2251ZM256.267 27.5248C256.954 26.7327 257.493 25.9228 257.963 24.9816L252.597 22.2984C252.347 22.7972 252.086 23.1873 251.733 23.5952L256.267 27.5248ZM253.669 26.171C254.906 26.9577 255.845 27.6624 256.407 28.1622L260.393 23.6778C259.515 22.8976 258.294 22.0023 256.891 21.109L253.669 26.171ZM256.393 28.1499C256.495 28.2413 256.337 28.1239 256.172 27.8308C256.079 27.6633 255.996 27.4623 255.942 27.235C255.889 27.0131 255.88 26.83 255.88 26.72H261.88C261.88 26.1858 261.773 25.5512 261.408 24.8992C261.103 24.3561 260.705 23.9587 260.407 23.6901L256.393 28.1499ZM255.88 26.72C255.88 25.9055 256.259 25.3194 256.548 25.016C256.68 24.8766 256.798 24.7903 256.863 24.7464C256.929 24.7014 256.973 24.6794 256.978 24.6767L259.662 30.0433C259.986 29.8812 261.88 28.9417 261.88 26.72H255.88ZM256.978 24.6767C256.075 25.1282 255.208 25.8294 254.159 26.8787L258.401 31.1213C259.272 30.2506 259.605 30.0718 259.662 30.0433L256.978 24.6767ZM254.128 26.9096C252.877 28.1978 251.578 29.3508 249.939 30.6468L253.661 35.3532C255.462 33.9292 256.963 32.6022 258.432 31.0904L254.128 26.9096ZM249.479 34.9012C252.499 38.5868 256.322 41.5103 260.747 43.7876L263.493 38.4524C259.678 36.4897 256.541 34.0532 254.121 31.0988L249.479 34.9012ZM259.999 38.9987C259.03 39.967 258.113 41.1857 257.355 42.5116L262.565 45.4884C263.087 44.5743 263.69 43.793 264.241 43.2413L259.999 38.9987ZM257.345 42.5292C257.251 42.6975 257.193 42.7995 257.147 42.8764C257.098 42.9592 257.106 42.9375 257.154 42.8747C257.195 42.8217 257.374 42.591 257.705 42.3701C258.096 42.1098 258.613 41.92 259.2 41.92V47.92C260.754 47.92 261.63 46.898 261.916 46.5253C262.192 46.1648 262.442 45.7062 262.575 45.4708L257.345 42.5292ZM259.2 41.92C259.636 41.92 259.956 42.0258 260.093 42.0777C260.171 42.107 260.228 42.1335 260.259 42.1488C260.291 42.1644 260.309 42.1747 260.309 42.1749C260.31 42.1754 260.301 42.1706 260.28 42.1575C260.259 42.1444 260.231 42.1271 260.193 42.1029C260.154 42.0782 260.113 42.0516 260.061 42.018C260.011 41.9857 259.953 41.9484 259.891 41.909L256.669 46.971C256.8 47.0541 257.112 47.2596 257.351 47.3951C257.49 47.4741 257.709 47.5908 257.974 47.691C258.234 47.7892 258.664 47.92 259.2 47.92V41.92ZM259.899 41.9144C254.214 38.27 250.657 33.7336 248.603 27.6412L242.917 29.5588C245.423 36.9864 249.866 42.61 256.661 46.9656L259.899 41.9144ZM242.761 28.6708C242.882 33.7879 243.04 38.7669 243.04 43.28H249.04C249.04 38.6731 248.878 33.5721 248.759 28.5292L242.761 28.6708ZM243.04 43.28C243.04 43.6607 243.023 43.9339 242.997 44.1332C242.971 44.3299 242.941 44.414 242.935 44.4304C242.933 44.4356 242.949 44.3971 242.989 44.3508C243.026 44.3073 243.039 44.3101 242.977 44.3475L246.063 49.4925C247.201 48.8101 248.04 47.8536 248.525 46.6096C248.96 45.4936 249.04 44.3148 249.04 43.28H243.04ZM242.93 44.376C242.772 44.4749 242.31 44.7594 238.963 44.8002L239.037 50.7998C242.25 50.7606 244.348 50.5651 246.11 49.464L242.93 44.376ZM238.903 44.8016C238.748 44.8066 238.653 44.8089 238.583 44.8092C238.511 44.8094 238.524 44.8067 238.582 44.8124C238.693 44.8232 239.287 44.8921 239.868 45.3917C240.133 45.6206 240.298 45.8573 240.392 46.0205C240.437 46.0996 240.468 46.1639 240.486 46.2041C240.503 46.2442 240.513 46.27 240.514 46.2741C240.514 46.2742 240.504 46.2438 240.472 46.1373C240.457 46.0875 240.441 46.0335 240.421 45.9643C240.401 45.8977 240.378 45.8209 240.353 45.738L234.607 47.462C234.662 47.6479 234.774 48.045 234.876 48.3246C234.98 48.6121 235.257 49.3395 235.952 49.9383C236.713 50.5929 237.542 50.7393 237.998 50.7839C238.403 50.8235 238.841 50.8067 239.097 50.7984L238.903 44.8016ZM240.345 45.7108C239.962 44.4748 239.34 42.829 238.295 41.5876L233.705 45.4524C233.94 45.731 234.278 46.4052 234.615 47.4892L240.345 45.7108ZM235.72 46.5069C236.99 46.626 238.121 46.72 239.12 46.72V40.72C238.439 40.72 237.57 40.654 236.28 40.5331L235.72 46.5069ZM239.12 46.72C239.682 46.72 240.258 46.7056 240.789 46.6397C241.298 46.5768 242.01 46.4408 242.703 46.0447C243.506 45.5859 244.089 44.8915 244.411 44.0573C244.686 43.343 244.72 42.6528 244.72 42.2H238.72C238.72 42.3872 238.694 42.207 238.813 41.8977C238.882 41.7181 238.996 41.5044 239.175 41.2951C239.354 41.0852 239.551 40.9356 239.727 40.8353C240.035 40.6592 240.23 40.6632 240.052 40.6852C239.897 40.7044 239.618 40.72 239.12 40.72V46.72ZM244.72 42.2V22.68H238.72V42.2H244.72ZM236.604 32.5498C236.654 33.5569 236.844 34.8006 237.063 35.8519L242.937 34.6281C242.756 33.7594 242.626 32.8431 242.596 32.2502L236.604 32.5498ZM237.074 35.9008C237.11 36.0636 237.134 36.1703 237.153 36.2582C237.171 36.3467 237.173 36.3658 237.17 36.3482C237.167 36.3215 237.112 35.9185 237.297 35.4038C237.484 34.8851 237.787 34.6062 237.815 34.5807C237.83 34.5663 237.819 34.5779 237.75 34.6325C237.681 34.6867 237.596 34.7516 237.465 34.8515L241.095 39.6285C241.297 39.4749 241.624 39.2309 241.893 38.9818C242.193 38.7038 242.666 38.2049 242.943 37.4362C243.218 36.6715 243.173 35.9885 243.122 35.5893C243.076 35.2277 242.983 34.8317 242.926 34.5792L237.074 35.9008ZM237.495 34.8288C234.525 37.0275 231.713 38.799 229.097 40.2612L232.023 45.4988C234.847 43.921 237.875 42.0125 241.065 39.6512L237.495 34.8288ZM229.148 40.2329C228.252 40.7112 227.658 41.2316 227.526 41.3374L231.274 46.0226C231.464 45.8705 231.482 45.8491 231.61 45.7552C231.704 45.6858 231.821 45.6075 231.972 45.5271L229.148 40.2329ZM227.122 41.7276C227.125 41.7239 227.154 41.6909 227.208 41.6419C227.261 41.5931 227.354 41.5161 227.486 41.4342C227.774 41.2561 228.213 41.08 228.76 41.08V47.08C230.304 47.08 231.267 46.1113 231.678 45.6324L227.122 41.7276ZM228.76 41.08C229.548 41.08 230.124 41.4288 230.437 41.7101C230.715 41.9603 230.827 42.1867 230.843 42.2184L225.477 44.9016C225.715 45.3791 226.667 47.08 228.76 47.08V41.08ZM230.772 42.0838C230.321 41.2866 229.701 40.0125 229.231 38.8204L223.649 41.0196C224.219 42.4675 224.959 43.9934 225.548 45.0362L230.772 42.0838ZM227.302 42.7935C228.741 42.3617 229.96 41.7934 230.978 41.3046L228.382 35.8954C227.4 36.3666 226.539 36.7583 225.578 37.0465L227.302 42.7935ZM231.035 41.2766C234.428 39.5592 237.981 37.3853 241.409 34.793L237.791 30.007C234.659 32.3747 231.412 34.3608 228.325 35.9234L231.035 41.2766ZM231.881 28.2813L233.801 26.3613L229.559 22.1187L227.639 24.0387L231.881 28.2813ZM233.801 26.3613C233.9 26.2623 233.86 26.3084 233.772 26.3787C233.681 26.4508 233.321 26.7294 232.745 26.8604C232.086 27.0101 231.527 26.8869 231.182 26.7553C230.916 26.6536 230.757 26.5372 230.816 26.5761L234.144 21.5839C234.079 21.5406 232.935 20.6642 231.415 21.0096C230.729 21.1656 230.259 21.5067 230.041 21.68C229.825 21.8516 229.64 22.0377 229.559 22.1187L233.801 26.3613ZM230.79 26.5587C232.327 27.6063 234.421 29.4755 235.749 30.9831L240.251 27.0169C238.619 25.1645 236.153 22.9536 234.17 21.6013L230.79 26.5587ZM235.879 31.1213C235.877 31.1197 235.85 31.093 235.81 31.0455C235.771 30.999 235.702 30.9117 235.625 30.7873C235.467 30.5302 235.24 30.0489 235.24 29.4H241.24C241.24 27.9308 240.266 27.0235 240.121 26.8787L235.879 31.1213ZM235.24 29.4C235.24 28.9305 235.355 28.5715 235.43 28.3775C235.508 28.1787 235.59 28.0404 235.625 27.9827C235.689 27.8793 235.728 27.8372 235.657 27.9259L240.343 31.6741C240.432 31.5628 240.591 31.3607 240.735 31.1273C240.821 30.9876 241.24 30.3267 241.24 29.4H235.24ZM235.86 27.6979L233.66 29.9379L237.94 34.1421L240.14 31.9021L235.86 27.6979ZM233.679 29.9187C233.55 30.0476 233.556 30.0384 233.588 30.0108C233.615 29.9883 233.697 29.9187 233.823 29.8376C233.949 29.7568 234.172 29.6291 234.482 29.535C234.81 29.4351 235.209 29.3812 235.648 29.4369C236.081 29.4918 236.435 29.6386 236.697 29.7908C236.945 29.9354 237.113 30.0867 237.203 30.1754C237.295 30.266 237.351 30.3366 237.368 30.3582L232.632 34.0418C232.767 34.2153 233.112 34.6466 233.677 34.9755C234.417 35.4062 235.331 35.5482 236.228 35.275C236.908 35.0683 237.36 34.6809 237.503 34.558C237.679 34.4066 237.85 34.2324 237.921 34.1613L233.679 29.9187ZM237.382 30.3758C235.769 28.2707 233.57 26.116 231.472 24.5539L227.888 29.3661C229.55 30.604 231.351 32.3693 232.618 34.0242L237.382 30.3758ZM231.554 24.6174C231.443 24.5283 231.555 24.6075 231.695 24.7631C231.832 24.9156 232.4 25.5757 232.4 26.64H226.4C226.4 27.7843 227.008 28.5244 227.235 28.7769C227.465 29.0325 227.717 29.2317 227.806 29.3026L231.554 24.6174ZM232.4 26.64C232.4 27.6314 231.888 28.2502 231.833 28.3191C231.78 28.3854 231.745 28.4192 231.767 28.397C231.786 28.3767 231.815 28.3478 231.881 28.2813L227.639 24.0387C227.571 24.1068 227.336 24.3347 227.147 24.5709C226.972 24.7898 226.4 25.5286 226.4 26.64H232.4ZM251.816 15.6921L253.616 14.1721L249.744 9.58791L247.944 11.1079L251.816 15.6921ZM253.522 14.2481C253.522 14.2481 253.52 14.2493 253.517 14.2515C253.514 14.2537 253.51 14.257 253.504 14.2613C253.492 14.2698 253.473 14.2835 253.447 14.3007C253.396 14.3336 253.304 14.3904 253.176 14.4498C252.885 14.5844 252.477 14.7013 251.995 14.6828C251.56 14.6661 251.253 14.5448 251.158 14.5047C251.078 14.471 251.043 14.448 251.163 14.5137L254.037 9.24631C254.003 9.22822 253.201 8.72475 252.225 8.68721C250.956 8.63838 250.095 9.31235 249.838 9.51194L253.522 14.2481ZM250.967 14.3969C252.16 15.1707 253.573 16.4569 254.888 17.8104L259.192 13.6296C257.787 12.1831 256 10.5093 254.233 9.36312L250.967 14.3969ZM255.119 18.0247C255.057 17.9725 254.782 17.7422 254.551 17.3248C254.273 16.8219 254.123 16.1598 254.263 15.4567C254.385 14.8479 254.675 14.4654 254.794 14.3248C254.919 14.1749 255.008 14.1134 254.971 14.1421L258.629 18.8979C258.852 18.7266 259.131 18.4901 259.388 18.1839C259.637 17.8871 260 17.3671 260.147 16.6333C260.517 14.7817 259.253 13.6592 258.961 13.4153L255.119 18.0247ZM254.879 14.2153L252.959 15.8153L256.801 20.4247L258.721 18.8247L254.879 14.2153ZM253.006 15.7774C252.893 15.8675 252.931 15.8314 253.02 15.776C253.073 15.7428 253.206 15.6628 253.401 15.5865C253.59 15.512 253.94 15.4 254.4 15.4V21.4C255.352 21.4 256.034 20.968 256.2 20.864C256.449 20.7086 256.667 20.5325 256.754 20.4626L253.006 15.7774ZM254.4 15.4C255.378 15.4 255.995 15.8915 256.153 16.0248C256.326 16.1716 256.409 16.2892 256.343 16.2059L251.657 19.9541C251.751 20.0708 251.974 20.3484 252.277 20.6052C252.565 20.8485 253.302 21.4 254.4 21.4V15.4ZM256.343 16.2059C255.017 14.5494 253.173 12.9003 251.57 11.6878L247.95 16.4722C249.307 17.4997 250.743 18.8106 251.657 19.9541L256.343 16.2059ZM251.56 11.68C251.48 11.6199 251.691 11.7619 251.909 12.0302C252.197 12.3841 252.668 13.1765 252.498 14.2529C252.364 15.1036 251.892 15.5975 251.839 15.6546C251.741 15.7613 251.681 15.803 251.78 15.7219L247.98 11.0781C247.859 11.177 247.634 11.3637 247.422 11.5942C247.256 11.775 246.721 12.3714 246.572 13.3171C246.387 14.4885 246.89 15.3684 247.254 15.8161C247.549 16.1781 247.88 16.4201 247.96 16.48L251.56 11.68ZM306.2 43.32L308.274 45.4879C308.966 44.8259 309.3 43.8731 309.174 42.9237C309.047 41.9742 308.475 41.1423 307.633 40.6846L306.2 43.32ZM303.96 46.44L301.258 45.1358C301.254 45.1447 301.25 45.1536 301.246 45.1626L303.96 46.44ZM302.32 46.92L303.984 44.4238C303.971 44.415 303.958 44.4063 303.944 44.3978L302.32 46.92ZM288.2 27.8L291.11 27.0724C290.777 25.7375 289.578 24.8008 288.202 24.8C286.826 24.7992 285.626 25.7346 285.29 27.0691L288.2 27.8ZM273.72 46.96L275.157 49.5937C275.172 49.5853 275.187 49.5768 275.202 49.5682L273.72 46.96ZM272 46.4L274.651 44.9963C274.624 44.9444 274.595 44.8933 274.564 44.8431L272 46.4ZM269.68 43.72L268.418 40.9986C267.492 41.428 266.848 42.2988 266.708 43.3099C266.569 44.3209 266.953 45.3335 267.728 45.9978L269.68 43.72ZM285.24 17.64L288.24 17.6186C288.24 17.603 288.24 17.5874 288.239 17.5718L285.24 17.64ZM284.96 12.44L285.114 9.44394C284.233 9.39879 283.378 9.74308 282.774 10.3854C282.17 11.0276 281.88 11.9029 281.979 12.7787L284.96 12.44ZM289.88 12.92L290.336 9.95488C290.322 9.95266 290.307 9.95054 290.293 9.94852L289.88 12.92ZM290.24 14.56L287.696 12.97C287.686 12.9854 287.677 13.0009 287.668 13.0165L290.24 14.56ZM289.92 17.2L292.91 17.4491C292.917 17.3663 292.92 17.2831 292.92 17.2H289.92ZM289.88 18.64H286.88C286.88 18.7858 286.891 18.9314 286.912 19.0756L289.88 18.64ZM304.126 41.1521C302.923 42.3033 301.959 43.6842 301.258 45.1358L306.662 47.7442C307.081 46.8758 307.637 46.0967 308.274 45.4879L304.126 41.1521ZM301.246 45.1626C301.155 45.3547 301.108 45.4568 301.066 45.5407C301.021 45.6306 301.039 45.5849 301.101 45.4925C301.162 45.4034 301.37 45.1092 301.768 44.8452C302.231 44.538 302.754 44.4 303.24 44.4V50.4C303.866 50.4 304.509 50.227 305.083 49.8461C305.593 49.5083 305.903 49.1016 306.069 48.8575C306.342 48.4545 306.578 47.9218 306.674 47.7174L301.246 45.1626ZM303.24 44.4C303.598 44.4 303.88 44.4729 304.055 44.5332C304.22 44.5899 304.323 44.6469 304.334 44.6533C304.349 44.6615 304.334 44.6536 304.263 44.6081C304.194 44.5634 304.11 44.5077 303.984 44.4238L300.656 49.4162C300.851 49.5461 301.154 49.7513 301.436 49.9067C301.694 50.0491 302.356 50.4 303.24 50.4V44.4ZM303.944 44.3978C296.931 39.8815 292.761 33.6761 291.11 27.0724L285.29 28.5276C287.319 36.6439 292.429 44.1185 300.696 49.4422L303.944 44.3978ZM285.29 27.0691C283.369 34.7183 278.842 40.5983 272.238 44.3518L275.202 49.5682C283.238 45.0017 288.791 37.7617 291.11 28.5309L285.29 27.0691ZM272.283 44.3263C272.16 44.3938 272.081 44.4371 272.005 44.4777C271.971 44.4961 271.945 44.5093 271.926 44.5189C271.908 44.5286 271.9 44.532 271.901 44.5315C271.902 44.531 271.918 44.5235 271.947 44.5122C271.974 44.501 272.023 44.4826 272.088 44.4627C272.207 44.4261 272.46 44.36 272.8 44.36V50.36C273.603 50.36 274.235 50.0634 274.439 49.9685C274.698 49.8475 274.99 49.6845 275.157 49.5937L272.283 44.3263ZM272.8 44.36C273.281 44.36 273.763 44.4945 274.178 44.7497C274.54 44.9719 274.74 45.218 274.802 45.2985C274.867 45.3816 274.884 45.4204 274.839 45.3427C274.798 45.2719 274.744 45.1705 274.651 44.9963L269.349 47.8037C269.484 48.0584 269.744 48.5659 270.058 48.9715C270.462 49.4935 271.35 50.36 272.8 50.36V44.36ZM274.564 44.8431C273.678 43.3831 272.643 42.3087 271.632 41.4422L267.728 45.9978C268.397 46.5713 268.962 47.1769 269.436 47.9569L274.564 44.8431ZM270.942 46.4414C282.713 40.9813 288.327 29.777 288.24 17.6186L282.24 17.6614C282.313 27.903 277.687 36.6987 268.418 40.9986L270.942 46.4414ZM288.239 17.5718C288.2 15.8277 288.158 14.0163 287.941 12.1013L281.979 12.7787C282.162 14.3837 282.2 15.9323 282.241 17.7082L288.239 17.5718ZM284.806 15.4361C286.263 15.5107 288.095 15.7008 289.467 15.8915L290.293 9.94852C288.785 9.73917 286.777 9.52925 285.114 9.44394L284.806 15.4361ZM289.424 15.8851C289.351 15.874 288.927 15.8013 288.473 15.4021C287.933 14.9267 287.64 14.2378 287.64 13.56H293.64C293.64 12.5622 293.227 11.5933 292.437 10.8979C291.733 10.2787 290.929 10.046 290.336 9.95488L289.424 15.8851ZM287.64 13.56C287.64 13.4366 287.655 13.2944 287.692 13.1437C287.728 12.9944 287.777 12.8764 287.815 12.7983C287.848 12.7293 287.872 12.695 287.849 12.7311C287.837 12.7498 287.824 12.77 287.796 12.8139C287.771 12.8519 287.735 12.9082 287.696 12.97L292.784 16.15C292.793 16.1351 293.64 15.0593 293.64 13.56H287.64ZM287.668 13.0165C287.185 13.8207 287.062 14.7377 287.008 15.2187C286.941 15.8293 286.92 16.5156 286.92 17.2H292.92C292.92 16.6043 292.939 16.1707 292.972 15.8813C292.988 15.7382 293.001 15.6803 293 15.6837C292.999 15.6881 292.99 15.7268 292.966 15.7899C292.943 15.8505 292.897 15.9634 292.812 16.1035L287.668 13.0165ZM286.93 16.9509C286.878 17.5758 286.88 18.1806 286.88 18.64H292.88C292.88 18.1394 292.882 17.7842 292.91 17.4491L286.93 16.9509ZM286.912 19.0756C287.819 25.258 289.628 30.5702 292.594 35.0748C295.57 39.5941 299.613 43.152 304.767 45.9554L307.633 40.6846C303.227 38.288 299.97 35.3659 297.606 31.7752C295.232 28.1698 293.661 23.742 292.848 18.2044L286.912 19.0756Z" fill="#EF788C" mask="url(#path-2-outside-1_1591_49206)"/>
<path d="M318 54L354 6" stroke="#EF788C" stroke-width="3"/>
</svg>
