<svg width="93" height="108" viewBox="0 0 93 108" fill="none" xmlns="http://www.w3.org/2000/svg">
<g clip-path="url(#clip0_1591_49002)">
<path d="M49.987 97.9461C42.7914 94.4763 48.0244 82.8616 54.7276 84.0117C68.4248 85.5891 60.8308 102.15 49.987 97.9461ZM48.3309 102.906C66.3959 108.849 75.8666 83.4981 57.0637 78.9823C42.7836 75.6477 34.6121 97.0333 48.3309 102.906Z" fill="#7895AB"/>
<path d="M12.4275 83.4422C5.23184 79.9724 10.4648 68.3577 17.1681 69.5078C30.8653 71.0852 23.2712 87.646 12.4275 83.4422ZM10.7713 88.4018C28.8364 94.3454 38.307 68.9942 19.5042 64.4784C5.22403 61.1438 -2.9475 82.5294 10.7713 88.4018Z" fill="#7895AB"/>
<path d="M44.105 87.1987C46.7047 88.1984 48.2691 84.3699 45.7612 83.3109C39.1391 81.0023 33.1044 76.69 26.3352 74.9987C18.9623 78.8494 42.3125 85.5728 44.1044 87.2002L44.105 87.1987Z" fill="#7895AB"/>
<path d="M47.132 88.3038C50.1468 84.7248 50.3755 78.6872 51.5927 74.0715C54.0316 63.1077 56.4599 52.2367 59.1475 41.3414C60.1844 37.1383 69.7717 8.84618 63.4499 12.549C62.4119 13.157 61.6869 14.1862 61.3994 15.3537C40.9162 98.5629 43.4881 87.5577 47.13 88.3048L47.132 88.3038Z" fill="#7895AB"/>
<path d="M27.4584 78.0899C29.086 77.858 29.867 76.1236 30.6466 74.8663C34.4567 68.7198 35.8499 66.4805 38.7489 61.43C45.903 48.9685 54.0219 37.0789 60.8163 24.4117C62.3286 21.63 63.6861 18.7635 64.838 15.8164C65.5551 13.3079 63.0443 12.4409 62.2555 13.7679C57.6962 21.4279 52.7354 30.3153 48.2781 38.0128C42.7336 48.1636 38.3084 55.8182 30.2641 67.6255C28.6697 69.9653 27.2368 72.3803 25.5906 74.6698C24.4086 76.0552 25.6337 78.3576 27.4584 78.0899Z" fill="#7895AB"/>
<path d="M64.7997 93.077C65.2474 93.085 65.5906 92.6906 65.5478 92.2523C65.4989 90.9042 65.0633 89.6254 64.7264 88.3305C64.2413 86.7532 63.5492 85.2253 62.6552 83.8383C61.6333 82.4877 60.0787 81.5599 58.4917 81.0288C58.3966 81.0005 58.2937 81.0576 58.2654 81.1526C58.2162 81.4571 58.6652 81.4181 58.8536 81.5231C60.7247 82.2775 61.9531 83.9376 62.647 85.7743C63.2724 87.1399 63.6335 88.5974 63.9167 90.0649C64.0624 90.8085 64.081 91.5669 64.0703 92.3217C64.0636 92.7274 64.402 93.0713 64.7987 93.0749L64.7997 93.077Z" fill="#ADC5D7"/>
<path d="M7.06437 80.5423C7.94343 80.2427 7.41966 79.4325 7.28467 78.8129C7.07276 78.0358 6.96479 77.2377 6.92969 76.4346C6.70215 73.6592 7.64497 70.8691 9.50705 68.8094C10.0207 68.2817 10.5944 67.7853 11.2531 67.4524C11.3369 67.4598 11.4201 67.406 11.4442 67.323C11.468 66.6947 10.4089 67.5221 10.1882 67.6445C8.86798 68.526 7.90867 69.8321 7.09339 71.1718C6.12235 72.8446 5.7331 74.8433 5.77569 76.7649C5.77971 77.5841 5.87779 78.4008 6.04941 79.2009C6.18208 79.7741 6.24088 80.7124 7.06233 80.5433L7.06437 80.5423Z" fill="#ADC5D7"/>
<path d="M56.444 46.916C56.6543 46.9779 56.8726 46.853 56.938 46.6473C57.1288 46.0064 57.282 45.3523 57.4502 44.7035C58.0736 41.9742 58.5923 39.225 59.3592 36.5307C60.1439 33.3414 61.3031 30.253 62.0295 27.0467C62.6819 24.4663 63.1833 21.8533 63.7023 19.2431C64.0081 17.6368 64.2006 16.011 64.5684 14.4162C64.6208 14.3634 64.6292 14.2767 64.6323 14.2049C64.6317 14.0523 64.4381 13.9523 64.3241 14.0698C63.8834 14.9159 63.6887 15.8721 63.4244 16.7852C62.9395 18.4626 62.3932 20.1217 62.0538 21.8382C61.5722 23.9265 60.9995 25.9896 60.5008 28.0735C59.243 32.4718 57.9372 36.8668 57.0959 41.3672C56.8295 42.6436 56.6286 43.9312 56.391 45.2126C56.3112 45.6334 56.2218 46.0524 56.1657 46.4781C56.14 46.6723 56.2573 46.8641 56.4465 46.9186L56.444 46.916Z" fill="#ADC5D7"/>
<path d="M33.9694 66.0511C34.4938 65.0581 35.1995 64.166 35.7374 63.1778C36.9623 61.0082 38.1967 58.8452 39.5072 56.7259C40.8759 54.3104 42.1776 51.8493 43.7351 49.5474C44.6922 48.0204 45.6213 46.4769 46.571 44.9473C47.8682 42.5134 49.2782 40.1395 50.7927 37.8343C50.8456 37.7513 50.8171 37.6346 50.7334 37.5833C50.6468 37.5309 50.5357 37.5579 50.4823 37.6425C49.1573 39.6822 47.8723 41.758 46.7251 43.9041C46.0924 45.1672 45.2499 46.3094 44.5461 47.534C43.6902 49.0474 42.6476 50.4462 41.7877 51.9565C40.3821 54.4048 39.0337 56.8833 37.5355 59.2771C36.6262 60.8412 35.7867 62.4433 34.8098 63.9684C34.387 64.5753 33.9682 65.1854 33.5233 65.7778C33.4274 65.9016 33.4534 66.0835 33.588 66.1679C33.7177 66.2473 33.9045 66.1976 33.9674 66.0521L33.9694 66.0511Z" fill="#ADC5D7"/>
</g>
<defs>
<clipPath id="clip0_1591_49002">
<rect width="65.6441" height="90.964" fill="white" transform="matrix(-0.943663 -0.330908 -0.330908 0.943663 92.123 21.8672)"/>
</clipPath>
</defs>
</svg>
