<svg width="8" height="12" viewBox="0 0 8 12" fill="none" xmlns="http://www.w3.org/2000/svg">
<path d="M5.45302 5.38775C5.60882 5.27644 5.74236 5.18738 5.80913 5.09833C6.25428 4.6308 6.47685 3.98516 6.47685 3.18367C6.47685 1.60297 5.23045 0 3.18278 0H0V12H3.62793C5.36399 12 7.14457 10.6419 7.14457 8.37106C7.14457 6.87941 6.25428 5.87755 5.47527 5.38775H5.45302ZM1.58026 4.8757V1.60297H3.16052C4.22887 1.60297 4.85207 2.42672 4.85207 3.20594C4.85207 4.16326 4.18436 4.74211 3.5389 4.8757H1.58026ZM5.49753 8.39332C5.49753 9.64007 4.51821 10.397 3.58341 10.397H1.58026V6.47866H3.78373C4.85207 6.47866 5.49753 7.48052 5.49753 8.39332Z" fill="black"/>
</svg>
