<svg width="25" height="25" viewBox="0 0 25 25" fill="none" xmlns="http://www.w3.org/2000/svg">
<path d="M12.5375 16.987C13.628 16.987 14.5143 17.8715 14.5126 18.9641C14.5126 20.0549 13.628 20.9374 12.5375 20.9374C11.4467 20.9374 10.5625 20.0546 10.5625 18.9641C10.5625 17.8736 11.4467 16.989 12.5375 16.987ZM11.705 4.08992H13.3718C14.154 4.08992 14.7836 4.81635 14.7836 5.7188L14.2883 13.7199C14.2883 14.6223 13.657 15.3488 12.5375 15.3488C11.4181 15.3488 10.7884 14.6223 10.7884 13.7199L10.2931 5.7188C10.2935 4.8167 10.9231 4.08992 11.705 4.08992ZM12.5375 0.154297C5.71166 0.154297 0.177124 5.68711 0.177124 12.5147C0.177124 19.3405 5.71131 24.8734 12.5375 24.8734C19.363 24.8754 24.8976 19.3405 24.8976 12.5147C24.8976 5.68711 19.3634 0.154297 12.5375 0.154297Z" fill="#FF3153"/>
</svg>
