<svg width="100" height="100" viewBox="0 0 100 100" fill="none" xmlns="http://www.w3.org/2000/svg">
<rect width="100" height="100" fill="#EEEEEE"/>
<path d="M30.184 55.972L30.016 57.148C29.608 57.208 29.2 57.232 28.744 57.232C27.364 57.232 26.848 56.884 26.464 55.84L26.2 55.132C24.04 54.976 22.6 53.26 22.6 50.368C22.6 47.296 24.22 45.544 26.596 45.544C28.984 45.544 30.58 47.272 30.58 50.344C30.58 52.924 29.44 54.592 27.688 55.012L27.844 55.468C28.024 55.924 28.3 56.104 29.008 56.104C29.404 56.104 29.776 56.056 30.184 55.972ZM26.596 46.804C25.228 46.804 24.316 47.968 24.316 50.356C24.316 52.72 25.228 53.932 26.596 53.932C27.964 53.932 28.864 52.72 28.864 50.356C28.864 47.968 27.964 46.804 26.596 46.804ZM32.2918 45.712H35.6398C37.9078 45.712 38.9398 46.624 38.9398 48.244C38.9398 49.396 38.2918 50.248 37.0918 50.608L39.2398 55.024H37.4998L35.6158 50.848C35.4838 50.848 35.3518 50.86 35.1958 50.86H33.8758V55.024H32.2918V45.712ZM33.8758 46.924V49.66H35.4958C36.7678 49.66 37.3198 49.132 37.3198 48.268C37.3198 47.44 36.8518 46.924 35.5678 46.924H33.8758ZM51.1723 48.376L49.6003 48.76C49.3723 47.464 48.7003 46.792 47.6443 46.792C46.2643 46.792 45.3043 47.992 45.3043 50.368C45.3043 52.732 46.2883 53.944 47.6443 53.944C48.7603 53.944 49.4323 53.308 49.6963 51.952L51.2203 52.42C50.7283 54.34 49.5283 55.192 47.6323 55.192C45.2203 55.192 43.5883 53.452 43.5883 50.38C43.5883 47.296 45.2323 45.544 47.6323 45.544C49.5403 45.544 50.7883 46.612 51.1723 48.376ZM56.1976 45.556C58.5856 45.556 60.1816 47.284 60.1816 50.368C60.1816 53.44 58.5736 55.204 56.1856 55.204C53.7976 55.204 52.2016 53.464 52.2016 50.392C52.2016 47.308 53.8216 45.556 56.1976 45.556ZM56.1976 46.804C54.8296 46.804 53.9176 47.992 53.9176 50.38C53.9176 52.756 54.8296 53.956 56.1976 53.956C57.5656 53.956 58.4656 52.756 58.4656 50.38C58.4656 47.992 57.5656 46.804 56.1976 46.804ZM61.8933 45.712H65.0133C67.7853 45.712 69.4413 47.176 69.4413 50.308C69.4413 53.44 67.5933 55.024 64.7973 55.024H61.8933V45.712ZM63.5013 46.96V53.776H64.7613C66.5733 53.776 67.7253 52.744 67.7253 50.32C67.7253 47.92 66.6453 46.96 64.8453 46.96H63.5013ZM77.3069 45.712V46.996H72.7829V49.456H76.2029V50.74H72.7829V53.74H77.4029V55.024H71.1629V45.712H77.3069Z" fill="black"/>
</svg>
