<svg width="202" height="201" viewBox="0 0 202 201" fill="none" xmlns="http://www.w3.org/2000/svg">
<g opacity="0.14" clip-path="url(#clip0_1591_49581)">
<path d="M158.893 78.7254L171.498 74.1578C173.796 73.3251 174.983 70.7875 174.15 68.4897C173.318 66.192 170.78 65.0045 168.482 65.8369L155.878 70.4045C153.58 71.2369 152.392 73.7748 153.225 76.0726C154.057 78.3699 156.595 79.5582 158.893 78.7254Z" fill="#7598FF"/>
<path d="M168.671 106.361L160.085 102.343C157.872 101.307 155.237 102.261 154.201 104.475C153.165 106.688 154.12 109.323 156.334 110.359L164.92 114.377C167.133 115.413 169.768 114.458 170.804 112.245C171.84 110.031 170.885 107.397 168.671 106.361Z" fill="#7598FF"/>
<path d="M135.779 53.6387C137.993 54.6747 140.627 53.72 141.663 51.5065L145.681 42.9205C146.717 40.707 145.763 38.0726 143.549 37.0367C141.336 36.0007 138.701 36.9554 137.665 39.1689L133.647 47.7549C132.611 49.9684 133.566 52.6028 135.779 53.6387Z" fill="#7598FF"/>
<path d="M25.2657 103.477C22.97 104.309 21.7801 106.848 22.613 109.145L31.7484 134.354C32.5807 136.651 35.1184 137.84 37.4166 137.007L47.2762 133.434L35.1255 99.9046L25.2657 103.477Z" fill="#7598FF"/>
<path d="M93.1436 139.19L58.8016 139.262L69.0367 167.506C69.869 169.803 72.4069 170.992 74.7049 170.159L96.7626 162.165C99.0604 161.333 100.248 158.795 99.4153 156.497L93.1436 139.19Z" fill="#7598FF"/>
<path d="M118.341 42.3702C117.85 41.0154 116.73 39.9846 115.339 39.607C113.948 39.2297 112.461 39.5532 111.352 40.4741L43.4458 96.8886L55.5964 130.418L143.879 130.232C145.321 130.229 146.67 129.524 147.496 128.343C148.322 127.163 148.522 125.654 148.031 124.299L118.341 42.3702Z" fill="#7598FF"/>
</g>
<defs>
<clipPath id="clip0_1591_49581">
<rect width="151.049" height="151.049" fill="white" transform="translate(64.4131) rotate(25.0801)"/>
</clipPath>
</defs>
</svg>
