<svg width="12" height="12" viewBox="0 0 12 12" fill="none" xmlns="http://www.w3.org/2000/svg">
<path d="M11.3861 5.35547H0.677734V6.64406H11.3861V5.35547Z" fill="black"/>
<path d="M6.0293 12.0009C4.17747 12.0009 2.5068 11.1351 1.88281 9.8264L3.05027 9.26265C3.45284 10.1083 4.68069 10.6922 6.0293 10.6922C7.7201 10.6922 9.14922 9.766 9.14922 8.65862C9.14922 8.45728 9.10897 8.25594 9.00832 8.05459L10.1758 7.4707C10.3569 7.83312 10.4576 8.2358 10.4576 8.65862C10.4576 10.5311 8.52524 11.9808 6.04942 11.9808L6.0293 12.0009Z" fill="black"/>
<path d="M6.03315 6.64428C3.5976 6.64428 1.625 5.15435 1.625 3.32214C1.625 1.48993 3.5976 0 6.03315 0C7.88498 0 9.55565 0.86577 10.1796 2.17449L9.01218 2.73825C8.60961 1.89261 7.38176 1.28859 6.03315 1.28859C4.34235 1.28859 2.91323 2.21476 2.91323 3.32214C2.91323 4.42952 4.34235 5.3557 6.03315 5.3557V6.64428Z" fill="black"/>
</svg>
