<svg width="128" height="98" viewBox="0 0 128 98" fill="none" xmlns="http://www.w3.org/2000/svg">
<g opacity="0.6" clip-path="url(#clip0_1591_49453)">
<path d="M89.4712 11.0861C100.723 16.1272 101.53 29.7639 99.622 40.7416C96.8625 55.2816 80.6392 79.3531 77.7626 78.9825C55.8694 75.0029 38.5473 69.968 27.3848 52.9977C19.7303 38.976 31.5951 23.8117 44.8262 21.6878C51.1499 21.4324 55.5772 24.907 61.1648 27.661C65.9902 15.7852 76.3455 6.01601 89.4689 11.0868L89.4712 11.0861Z" fill="#EC6869"/>
<path d="M28.5718 43.4719C20.0627 39.6526 35.2636 25.6645 38.6619 24.6248C44.7442 21.4375 55.585 22.5665 59.0693 27.3198C38.1182 20.6002 34.9012 46.5241 28.5725 43.4742L28.5718 43.4719Z" fill="#F37F80"/>
<path d="M91.7014 22.4721C82.4003 11.5791 70.4028 19.6793 63.2481 27.7452C61.0036 29.5026 64.4081 23.6391 65.2887 22.3245C69.3876 13.821 79.0411 10.7432 87.7953 12.6868C100.32 17.8506 95.9758 24.186 91.6991 22.4728L91.7014 22.4721Z" fill="#F37F80"/>
<path d="M116.344 29.3612C117.207 31.8752 113.259 32.2552 111.782 33.3926C109.656 34.4739 107.485 35.4605 105.272 36.3509C101.959 37.5034 98.5155 38.2602 95.2691 39.6147C92.5353 40.7513 90.178 43.2591 87.948 39.8775C86.9257 42.8592 84.9043 47.0714 82.5898 42.1741C82.2265 41.9933 81.8773 41.7851 81.5259 41.57C80.8733 41.1694 80.2611 40.7126 79.7025 40.2005C79.3034 47.4862 79.9907 44.396 70.8921 47.9031C68.7018 49.0051 64.976 42.54 63.8151 40.9046C63.2478 44.7569 62.3091 48.6726 61.0378 52.2578C59.1919 54.1236 55.8176 50.7356 53.8095 50.1066C52.8644 51.7672 52.5025 55.9425 50.2816 56.0453C46.0889 54.6254 42.6448 51.4402 39.0016 48.99C39.0246 51.5904 38.5783 54.1788 38.6596 56.7784C39.1096 58.4818 37.6948 59.218 36.2807 59.5676C32.3766 61.7661 28.17 63.2915 24.1164 65.1745C20.8659 66.754 17.4897 68.3459 13.851 68.7079C13.542 69.0053 13.1112 69.1614 12.6849 69.133C11.3909 69.0246 10.474 67.2931 11.4125 66.2701C12.6193 65.2346 14.5357 65.8396 15.9859 65.2217C22.6898 62.7983 29.124 59.5896 35.5705 56.5701C35.4918 53.075 36.3573 49.5412 35.6923 46.0742C35.553 45.3309 35.9592 44.5753 36.6844 44.3222C38.0083 43.8973 38.789 45.3549 39.8734 45.8405C43.0519 48.1349 46.1949 50.5169 49.5963 52.4754C52.7411 44.2171 51.3009 45.5003 58.7915 49.2296C59.6785 46.088 60.5665 42.8546 60.8947 39.6203C61.0767 37.9682 60.7972 36.2253 61.321 34.6313C61.8796 33.415 63.7493 33.5495 64.1653 34.814C65.7055 38.5034 67.8445 41.9422 70.6473 44.802C72.6089 44.2716 74.4307 43.3133 76.4167 42.8589C76.7801 40.1548 76.6686 37.4531 76.2927 34.76C75.813 33.0432 77.9165 31.5598 79.1065 33.1198C79.9602 36.0891 81.7121 38.6228 84.6674 39.8094C85.5584 38.3212 85.8051 34.6429 88.267 35.505C89.2311 36.3292 89.7075 37.5997 90.7968 38.3939C95.7351 35.5102 101.498 34.7588 106.674 32.4518C109.238 31.2529 111.764 29.977 114.284 28.688C115.032 28.3158 115.965 28.6085 116.348 29.3574L116.344 29.3612Z" fill="#FFBABB"/>
</g>
<defs>
<clipPath id="clip0_1591_49453">
<rect width="111.944" height="65.3933" fill="white" transform="translate(0.625 35.1211) rotate(-17.793)"/>
</clipPath>
</defs>
</svg>
