<svg width="114" height="79" viewBox="0 0 114 79" fill="none" xmlns="http://www.w3.org/2000/svg">
<g opacity="0.6" clip-path="url(#clip0_1591_49458)">
<path d="M89.2204 46.5415C84.8411 37.6923 78.0919 33.7471 67.1873 34.2647C53.117 34.579 45.8055 47.4718 50.2054 61.4204C50.2499 61.5331 50.2959 61.6442 50.3436 61.7553C56.1858 75.642 74.1573 79.1966 84.7617 68.4915C90.048 63.154 92.4211 55.2589 89.2204 46.5399V46.5415ZM74.2336 56.2829C73.6713 58.6246 71.1949 60.1058 68.879 60.1154C67.1047 60.1519 65.367 59.2549 64.5489 57.6498C63.9771 56.556 63.7468 55.0478 63.966 53.7333C64.5108 50.4501 69.7018 48.9626 72.2242 50.8391C73.989 52.0695 74.6688 54.3302 74.2336 56.2845V56.2829Z" fill="#EBBDA2"/>
<path d="M113.313 65.5276C115.008 66.9834 113.115 68.3868 112.418 69.9665C111.749 72.4955 111.204 75.1865 111.345 77.7473C110.205 82.1973 101.948 73.429 100.835 72.4971C99.0668 70.5126 97.8453 68.217 96.7842 65.7451C92.6908 54.9019 88.464 42.1313 77.6849 38.102C73.1738 36.4382 68.4053 35.673 63.8132 37.5511C63.0873 37.7337 62.4376 37.6781 61.9229 37.205C58.7715 32.8947 74.1412 32.32 75.4468 32.936C89.4711 33.6202 94.1887 40.35 101.062 50.3518C109.8 61.4681 110.829 64.4703 113.313 65.5276Z" fill="#EBBDA2"/>
<path d="M55.7728 57.5164C54.7483 52.9711 54.8674 47.7162 57.6456 43.7964C57.9966 43.2646 58.8321 43.8107 58.4715 44.3442C58.246 44.6648 58.0093 44.9808 57.8076 45.3173C56.4336 47.9972 55.9809 51.0993 56.2318 54.084C56.3399 55.1683 56.4892 56.2527 56.7417 57.3132C56.8815 57.9323 55.9062 58.1498 55.7728 57.5164Z" fill="#D2A88F"/>
<path d="M72.6233 68.6026C72.6042 68.3295 72.8139 68.0977 73.0823 68.0739C74.0767 67.9866 75.0758 67.8961 76.0416 67.6309C77.6062 67.215 78.8817 66.1704 80.0603 65.1067C81.5487 63.9414 82.5986 62.3649 83.2419 60.5979C83.5405 60.028 83.612 59.258 84.0886 58.8182C84.4587 58.6119 84.9447 59.0183 84.7827 59.4183C83.9821 61.3838 83.2737 63.4969 81.6726 64.9749C80.0841 66.4371 78.4401 68.0263 76.2925 68.5867C75.6429 68.6835 72.6233 69.571 72.6249 68.6026H72.6233Z" fill="#D2A88F"/>
<path d="M81.8011 41.9439C80.4383 39.5498 75.4045 37.9765 72.7566 38.0368C72.1165 37.9019 70.725 38.4893 70.5471 37.6288C70.528 37.3653 70.7361 37.1113 71.0062 37.1001C74.4721 36.7239 77.8984 37.7733 80.8655 39.5307C81.4008 39.8673 83.2641 41.4851 82.4905 42.0725C82.2681 42.2249 81.9584 42.1645 81.8027 41.9439H81.8011Z" fill="#D2A88F"/>
<path d="M78.5319 53.4874C78.4509 51.6728 77.9172 49.9106 76.7878 48.477C76.5385 48.1627 76.2605 47.8642 75.9126 47.6562C75.3757 47.3101 75.9285 46.4719 76.4606 46.8307C77.9537 47.8769 78.8163 49.6883 79.2706 51.4093C79.2531 52.0586 79.9742 53.797 79.0625 53.9431C78.7908 53.9637 78.5605 53.7541 78.5335 53.4843L78.5319 53.4874Z" fill="#D2A88F"/>
<path d="M60.9157 70.3156C59.2145 69.5202 57.4403 68.7709 56.017 67.5183C54.2809 66.0323 52.756 64.2082 51.6663 62.1967C51.5583 61.9935 51.6631 61.7315 51.8633 61.6347C52.3557 61.4219 52.5193 62.0443 52.702 62.3665C53.9171 64.2447 55.3801 66.0069 57.1655 67.369C58.433 68.2803 59.8817 68.9074 61.2922 69.5631C61.7814 69.7981 61.4002 70.5633 60.9141 70.3156H60.9157Z" fill="#D2A88F"/>
<path d="M109.678 78.6998C109.346 78.5855 109.056 78.3823 108.727 78.2553C108.515 78.1791 108.296 78.1315 108.085 78.0537C107.302 77.7774 106.552 77.4012 105.868 76.9297C105.274 76.5074 104.74 76.0136 104.189 75.5374C103.706 75.2056 103.24 74.8483 102.819 74.4388C101.661 73.3671 100.651 72.151 99.5742 71.0096C98.9468 70.384 98.5942 69.5585 98.1605 68.798C97.6824 67.9455 97.2742 67.058 96.8628 66.1722C96.3767 65.2403 95.9224 64.2925 95.5587 63.3066C95.0949 62.1889 94.6501 61.0633 94.2832 59.9107C93.5573 58.1358 92.8472 56.3545 92.1801 54.5574C91.397 52.7698 90.5631 50.9409 89.6338 49.2374C89.0906 48.2134 88.452 47.2465 87.8278 46.2702C86.6031 44.5302 85.191 42.9299 83.6852 41.4296C82.0761 39.8912 80.2859 38.5545 78.4894 37.2447C77.5872 36.597 76.5642 36.1588 75.5476 35.7254C74.2229 35.0729 72.8251 34.5903 71.3907 34.2458C70.5076 34.0441 69.6307 33.7933 68.7253 33.7092C68.6062 33.6949 68.6284 33.5075 68.7492 33.5234C69.2606 33.5822 69.7658 33.6647 70.2645 33.7917C71.1938 33.9997 72.1325 34.1791 73.0522 34.4299C74.4437 34.8252 75.7859 35.3745 77.1377 35.881C78.9389 36.6256 80.4892 37.8369 82.0602 38.9657C83.2356 39.7658 84.3015 40.7104 85.2895 41.7312C86.1838 42.6235 87.0225 43.5697 87.8024 44.5619C89.4956 46.7528 90.8172 49.2136 92.0054 51.695C92.5963 52.9873 93.238 54.2573 93.7129 55.6004C94.2228 56.9626 94.8232 58.2882 95.3395 59.6472C95.6651 60.6331 96.0289 61.6031 96.4403 62.5572C96.8247 63.5558 97.2297 64.5449 97.7491 65.4816C98.232 66.4865 98.6799 67.5105 99.2327 68.4821C99.5869 69.1441 99.9189 69.8284 100.442 70.3793C101.434 71.5303 102.29 72.7988 103.371 73.8752C103.774 74.3038 104.246 74.634 104.702 74.9896C104.975 75.2214 105.231 75.4739 105.488 75.7231C105.823 75.9962 106.147 76.2835 106.492 76.5439C107.23 77.0075 107.996 77.4425 108.811 77.7552C109.181 77.906 109.516 78.1267 109.872 78.3029C109.969 78.3522 110.005 78.4823 109.966 78.5792C109.916 78.6967 109.788 78.7379 109.677 78.6982L109.678 78.6998Z" fill="#FFDBC5"/>
<path d="M49.867 50.6565C49.7971 50.647 49.7463 50.5803 49.7574 50.5104C49.7955 50.2406 49.832 49.9691 49.8733 49.6992C49.9814 48.9514 50.1481 48.2164 50.3816 47.4988C50.9567 45.6604 51.6635 43.8299 52.8374 42.2851C54.1415 40.5055 55.5567 38.7559 57.3405 37.4351C58.0538 36.9477 58.8178 36.5413 59.5167 36.0316C60.5031 35.4061 61.5801 34.9044 62.6936 34.5536C63.4703 34.3964 64.2153 34.1218 64.9666 33.8741C65.2398 33.7947 65.5178 33.7344 65.7958 33.6788C65.8402 33.6709 65.8831 33.6931 65.8958 33.7392C65.907 33.7804 65.8799 33.8296 65.8371 33.8376C65.575 33.8884 65.3161 33.9487 65.0571 34.017C64.5218 34.1884 63.9929 34.379 63.4528 34.5345C63.0494 34.6536 62.6268 34.7092 62.2377 34.8759C61.148 35.3569 60.0663 35.8729 59.1244 36.6127C58.4223 37.1255 57.6551 37.5478 56.9959 38.1193C55.7347 39.2195 54.6529 40.5055 53.6538 41.8438C53.1963 42.4566 52.7373 43.0726 52.3529 43.7299C51.4983 45.2349 50.8963 46.8828 50.4102 48.5371C50.3022 48.934 50.2101 49.3324 50.1481 49.7389C50.1021 50.0072 50.0576 50.2771 50.0131 50.547C50.002 50.6168 49.9369 50.6676 49.867 50.6565Z" fill="#FFDBC5"/>
<path d="M69.0518 64.9021C68.4243 64.8814 67.8144 64.7163 67.2044 64.5814C66.8788 64.5036 66.5532 64.4179 66.2482 64.2782C65.5858 63.9606 65.0076 63.4907 64.4692 62.9954C63.9466 62.4016 63.5145 61.7348 63.1015 61.0633C62.5122 60.287 62.2406 59.3392 62.0087 58.4073C61.8705 57.769 61.6846 57.1388 61.6179 56.4863C61.5798 55.8385 61.6354 55.1908 61.6306 54.5431C61.6195 53.7477 61.7911 52.9539 62.1866 52.2601C62.4487 51.7727 62.7727 51.3234 63.0888 50.8694C63.1142 50.8329 63.1698 50.8281 63.2032 50.8551C63.2397 50.8837 63.2445 50.9329 63.2175 50.9694C63.1142 51.1155 63.0126 51.2631 62.9093 51.4092C61.664 53.1508 61.7466 54.0588 61.8165 56.1053C61.888 56.9975 62.2088 57.8262 62.4487 58.6787C62.6377 59.1883 62.8077 59.7138 63.0888 60.1822C63.3144 60.4918 63.5638 60.8252 63.7655 61.1379C63.7655 61.1363 63.7623 61.1347 63.7623 61.1316C63.7575 61.1236 63.7528 61.1173 63.748 61.1093C64.053 61.5713 64.3723 61.9857 64.7297 62.4016C65.2125 62.8922 65.7812 63.3145 66.3864 63.6415C66.9042 63.8987 67.4856 63.9718 68.0447 64.1019C69.7443 64.5163 71.4249 63.9035 73.0165 63.3701C73.3882 63.2621 73.5883 63.8209 73.2246 63.9702C71.8855 64.4576 70.5004 64.9576 69.055 64.9037L69.0518 64.9021Z" fill="#FFDBC5"/>
<path d="M83.1606 56.1606C82.7905 56.0479 82.9843 55.6303 83.0288 55.3652C83.086 55.0858 83.1431 54.8556 83.1638 54.5793C83.2226 53.6141 83.1638 52.6234 83.0987 51.6693C83.0987 51.6709 83.0987 51.6725 83.0987 51.6756C83.0304 51.0025 82.9636 50.3214 82.7428 49.6769C82.5792 49.226 82.3505 48.7942 82.2091 48.3369C81.793 47.1844 81.2545 46.0492 80.4809 45.0919C80.3014 44.8919 80.1108 44.7014 79.925 44.5077C79.6597 44.214 79.4326 43.8838 79.1324 43.6218C78.7051 43.2011 78.2651 42.8106 77.6821 42.6423C77.6154 42.6153 77.5598 42.5772 77.5471 42.5026C77.5296 42.3851 77.7075 42.3422 77.7441 42.4549C78.2381 42.5994 78.6717 42.8629 79.0593 43.1979C79.4548 43.4726 79.79 43.8155 80.1124 44.1711C80.4222 44.4823 80.7732 44.7538 81.0464 45.0983C81.4673 45.6285 81.8406 46.1953 82.1535 46.797C82.4458 47.3114 82.6634 47.8146 82.8747 48.3592C83.113 48.918 83.4005 49.4594 83.5275 50.0579C83.6911 50.8025 83.7579 51.5836 83.7992 52.3345C83.842 53.2442 83.8992 54.1666 83.7467 55.0683C83.688 55.362 83.6165 55.6526 83.5466 55.9431C83.5069 56.1098 83.3194 56.2066 83.1606 56.1622V56.1606Z" fill="#FFDBC5"/>
<path d="M108.762 74.8438C107.145 74.35 106.076 72.9117 105.019 71.6797C102.824 68.957 101.105 65.8167 99.5328 62.7257C99.5439 62.7495 99.5566 62.7717 99.5677 62.7956C99.582 62.8225 99.5963 62.8511 99.6027 62.8654C99.4851 62.6304 99.3644 62.3939 99.2485 62.1589C99.2612 62.1859 99.2755 62.2129 99.2898 62.2399C97.1644 58.0344 94.785 53.8209 92.747 49.6011C91.8527 47.7992 90.8202 46.0703 89.6782 44.4145C89.0666 43.5619 88.5186 42.6602 87.8546 41.8457C87.5163 41.4711 87.1526 41.1202 86.7952 40.7662C86.4425 40.4169 86.109 40.0454 85.742 39.7104C85.0082 39.1183 84.233 38.5753 83.442 38.0625C82.6922 37.5973 81.8996 37.202 81.1832 36.6813C80.5256 36.2415 79.8061 35.897 79.0627 35.6303C78.2558 35.3668 77.4663 35.0604 76.6959 34.7048C75.619 34.3079 74.5754 33.8109 73.4571 33.5379C73.041 33.4633 72.6184 33.4506 72.1959 33.4522C72.0037 33.4522 72.0037 33.1553 72.1959 33.1553C72.655 33.1553 73.1251 33.1553 73.5747 33.2601C74.3435 33.4728 75.1091 33.6966 75.8715 33.9284C76.6149 34.1364 77.3662 34.3079 78.1033 34.5365C78.6513 34.6794 79.2072 34.7905 79.7552 34.9334C81.0244 35.2969 82.2094 35.897 83.4229 36.4098C84.0932 36.7019 84.7413 37.0385 85.3767 37.3957C86.1439 37.7593 86.9985 38.2054 87.6116 38.7769C88.0373 39.1516 88.4678 39.5215 88.8967 39.8898C89.5765 40.4534 90.1356 41.1345 90.6725 41.8314C91.7606 43.1698 92.855 44.5573 93.7636 46.0068C95.225 48.3294 96.3305 50.8601 97.6076 53.278C98.5146 55.2212 99.5042 57.0659 100.411 58.9933C101.576 61.3985 102.64 63.8592 104.041 66.1406C104.827 67.471 105.68 68.7617 106.619 69.9905C107.423 70.9573 108.152 72.0274 109.213 72.7323C109.402 72.8577 109.588 72.9815 109.753 73.1403C110.474 73.8547 109.783 75.1184 108.76 74.8454L108.762 74.8438Z" fill="#F4D0BC"/>
<path d="M107.6 68.4788C106.39 67.2928 105.655 65.7418 104.713 64.3526C103.734 62.8063 103.007 61.0917 102.135 59.4914C101.151 57.5403 100.297 55.5304 99.3009 53.5872C99.3025 53.5919 99.3056 53.5951 99.3072 53.5999C99.3199 53.6253 99.3326 53.6491 99.3453 53.6745C98.5321 51.9282 97.7108 50.1834 96.6958 48.5434C96.1462 47.6496 95.7142 46.6859 95.1185 45.8207C94.6865 45.2063 94.2608 44.5887 93.8176 43.9839C93.3713 43.3726 92.8566 42.817 92.3801 42.2312C91.4366 40.9913 90.3374 39.8847 89.2668 38.7575C88.1977 37.6986 87.0001 36.7699 85.7786 35.8967C85.0733 35.495 84.2664 35.2616 83.4547 35.2902C83.2625 35.2902 83.2625 34.9933 83.4547 34.9933C84.1457 34.9505 84.8223 35.141 85.4577 35.3982C85.9406 35.595 86.3393 35.938 86.7602 36.238C87.5862 36.7968 88.4471 37.3096 89.2175 37.9494C90.4279 39.0353 91.678 40.0895 92.7375 41.3262C93.9923 42.6312 95.2059 43.9727 96.2527 45.4524C96.6943 46.0477 97.031 46.7129 97.4345 47.3337C99.3025 50.0818 100.751 53.0792 102.37 55.9749C103.351 57.8514 104.436 59.6708 105.529 61.4854C106.234 62.6253 106.983 63.7351 107.723 64.8527C108.191 65.6052 108.703 66.3292 109.297 66.988C110.128 68.1089 108.638 69.4567 107.597 68.4835L107.6 68.4788Z" fill="#F4D0BC"/>
<path d="M66.7596 0.823888C71.3661 2.09713 74.5302 6.25027 74.5414 11.0273C74.5652 21.3768 63.4208 25.6665 55.3674 29.6307C45.6573 34.149 36.2491 39.5452 25.9561 42.6156C5.71629 49.2533 -2.95812 40.131 0.890641 29.4021C1.9533 26.4396 3.84194 23.8439 6.27224 21.8404C17.863 12.2815 35.6788 6.31695 43.6083 2.85283C49.8206 0.734983 59.6927 -1.13043 66.7596 0.825476V0.823888Z" fill="#EFAC85"/>
<path d="M7.21735 34.6332C7.11728 33.9601 7.5954 33.3139 8.27048 33.2139C8.94397 33.1139 9.59046 33.5918 9.69053 34.2665C9.79061 34.9396 9.31249 35.5858 8.63741 35.6858C7.96391 35.7858 7.31742 35.308 7.21735 34.6332Z" fill="#D28D66"/>
<path d="M10.6353 28.0766C10.5352 27.4035 11.0134 26.7573 11.6884 26.6573C12.3619 26.5573 13.0084 27.0351 13.1085 27.7099C13.2086 28.3846 12.7305 29.0291 12.0554 29.1292C11.3819 29.2292 10.7354 28.7513 10.6353 28.0766Z" fill="#D28D66"/>
<path d="M14.6353 36.2509C14.5352 35.5778 15.0134 34.9316 15.6884 34.8316C16.3635 34.7316 17.0084 35.2094 17.1085 35.8842C17.2086 36.5573 16.7305 37.2035 16.0554 37.3035C15.3819 37.4035 14.7354 36.9256 14.6353 36.2509Z" fill="#D28D66"/>
<path d="M52.2857 9.16692C52.1856 8.49378 52.6638 7.84763 53.3388 7.74762C54.0123 7.6476 54.6588 8.12546 54.7589 8.80019C54.859 9.47333 54.3808 10.1195 53.7058 10.2195C53.0323 10.3195 52.3858 9.84165 52.2857 9.16692Z" fill="#D28D66"/>
<path d="M55.6539 18.7685C55.5538 18.0953 56.0319 17.4492 56.707 17.3492C57.3805 17.2492 58.027 17.727 58.1271 18.4018C58.2271 19.0749 57.749 19.721 57.0739 19.8211C56.4004 19.9211 55.7539 19.4432 55.6539 18.7685Z" fill="#D28D66"/>
<path d="M60.0074 11.4609C59.9073 10.7877 60.3854 10.1416 61.0605 10.0416C61.734 9.94154 62.3805 10.4194 62.4806 11.0941C62.5806 11.7673 62.1025 12.4134 61.4274 12.5134C60.754 12.6135 60.1075 12.1356 60.0074 11.4609Z" fill="#D28D66"/>
<path d="M22.9412 41.6935C21.6482 41.7173 20.4013 40.8489 19.6833 39.8186C18.8653 38.4628 20.2869 36.9561 21.7197 37.5039C21.8182 36.51 23.1334 35.9623 23.8672 36.7021C24.4009 37.1578 24.142 37.823 24.2929 38.4009C24.663 39.6265 24.5947 41.6014 22.9412 41.6935Z" fill="#EC6869"/>
<path d="M66.6998 17.9082C64.3823 16.8048 64.9954 12.2516 67.8212 14.3695C68.6567 13.2677 70.5073 14.3615 69.9434 15.6268C69.3556 16.835 68.3168 18.8576 66.7014 17.9098L66.6998 17.9082Z" fill="#EC6869"/>
<path d="M63.7719 7.98866C60.692 7.08374 60.9159 3.91967 63.6639 5.0802C63.7815 3.69265 65.9513 3.91491 65.7702 5.2977C65.7146 6.54396 65.5748 8.6364 63.7719 7.98866Z" fill="#EC6869"/>
<path d="M15.596 22.4832C14.913 21.7895 13.871 20.9195 14.0838 19.8415C14.5079 18.5825 15.7898 19.0429 16.3823 19.8859C17.1956 18.0253 19.4321 18.7048 18.595 20.4352C17.8293 21.3592 17.1336 23.5342 15.596 22.4848V22.4832Z" fill="#EC6869"/>
<path d="M6.09404 40.7311C2.60743 40.9518 2.21033 37.7448 5.2474 38.2783C5.18863 36.5145 7.65229 36.3462 7.42991 38.1783C7.31395 39.3531 8.01445 40.6597 6.09563 40.7311H6.09404Z" fill="#EC6869"/>
<path d="M40.1946 8.73187C39.2892 8.51913 37.7007 8.10954 37.4529 7.09665C37.3545 5.6964 38.8285 5.70275 39.7244 6.28063C39.9738 4.87879 42.1563 5.34078 41.7957 6.72198C41.6591 7.61103 41.2747 8.73981 40.193 8.73187H40.1946Z" fill="#EC6869"/>
<path d="M38.0057 33.6587C34.1204 33.5682 34.4429 30.1914 37.1495 31.1757C36.7016 28.4483 40.0262 28.3879 39.2574 30.6423C39.2844 31.7377 39.799 33.9096 38.0057 33.6587Z" fill="#EC6869"/>
<path d="M54.1222 29.2245C52.9848 28.8006 52.3701 27.1765 52.6227 26.0493C53.0071 25.0475 54.4335 25.2873 54.7448 26.2239C56.0426 24.2172 58.0345 25.4047 57.0067 26.9177C56.0156 27.6131 55.5454 29.461 54.1222 29.2261V29.2245Z" fill="#EC6869"/>
<path d="M51.0898 16.3251C48.6992 16.1124 49.5394 13.6897 51.5695 13.6548C51.6584 13.569 51.7617 13.4976 51.876 13.4468C51.2137 12.0323 53.2993 11.0622 53.8314 12.5609C54.6145 14.6407 53.2596 16.3568 51.0898 16.3251Z" fill="#EC6869"/>
<path d="M20.3234 31.217C19.7658 31.1503 19.1654 31.3996 18.646 31.1297C17.7771 30.6852 18.0329 29.2627 19.0066 29.1627C19.0097 29.1627 19.0145 29.1627 19.0177 29.1627C19.2829 29.1103 19.5514 29.0706 19.8214 29.0357C19.2734 28.0196 20.3472 26.7654 21.367 27.4894C21.7037 27.7196 21.7641 28.1149 21.861 28.48C22.3343 29.2865 22.5599 30.5613 21.4384 30.9281C21.1779 31.2313 20.7014 31.3615 20.3218 31.2202L20.3234 31.217Z" fill="#EC6869"/>
<path d="M5.22999 29.1769C4.49455 29.2436 3.75593 28.9388 3.09832 28.6403C2.68215 28.4149 2.47248 27.9084 2.59002 27.4544C2.79016 26.605 3.68763 26.6606 4.37542 26.6431C4.17369 25.4651 5.32847 24.3586 6.29424 25.3858C6.79618 26.2478 6.52933 29.069 5.2284 29.1769H5.22999Z" fill="#EC6869"/>
<path d="M51.6139 15.5745C52.5241 17.7161 54.8861 21.104 51.409 23.5854C46.9979 26.7336 42.3867 28.6181 37.6373 31.1566C32.0079 34.4652 27.2204 37.942 25.4525 35.9067C22.4106 32.4045 21.2257 30.293 18.4411 23.4791C16.616 19.0116 41.8276 9.32889 43.0634 9.1479C49.0279 7.41584 48.9882 10.9212 51.6139 15.576V15.5745Z" fill="#FFDCC8"/>
<path d="M20.0277 22.4246C19.1366 21.5451 20.7092 20.7656 21.3429 20.3337C22.8202 19.3907 24.3022 18.4493 25.978 17.8968C28.1795 16.9315 30.335 15.8647 32.5668 14.9645C35.4927 13.4674 38.6346 12.4466 41.7019 11.3067C42.3928 11.0448 43.1092 10.8463 43.7732 10.5161C44.3164 10.2018 45.2742 9.64293 45.5824 10.5161C45.7317 11.0416 45.2774 11.3337 44.8406 11.4671C44.4435 11.6782 44.0511 11.891 43.627 12.0465C41.8766 12.6705 40.1452 13.3372 38.3836 13.9247C33.6437 15.779 29.0786 18.0492 24.3975 20.0369C23.4143 20.6306 22.4263 21.2244 21.4653 21.8547C21.0126 22.142 20.6282 22.8628 20.0277 22.4246Z" fill="#FFEADE"/>
<path d="M20.4778 26.2669C19.8361 25.5588 20.7859 24.965 21.3721 24.6761C22.5793 23.976 23.7706 23.2488 24.9937 22.5805C29.8257 20.1388 34.7196 17.8002 39.7963 15.9158C41.6436 15.3331 43.4322 14.5854 45.2827 14.0154C46.1325 13.8805 48.01 12.5739 48.3674 13.863C48.3928 14.0377 48.3484 14.2202 48.2435 14.3615C48.126 14.5235 47.9481 14.606 47.7543 14.6362C46.8695 14.8473 46.034 15.2188 45.1604 15.4617C43.4814 16.0317 41.8326 16.6778 40.1425 17.2192C36.5384 18.5655 33.0232 20.1245 29.5811 21.8422C27.1651 22.8964 24.8523 24.1554 22.5983 25.5191C22.2378 25.7318 21.8708 25.9335 21.5182 26.1589C21.3069 26.5066 20.7653 26.5637 20.4794 26.2684L20.4778 26.2669Z" fill="#FFEADE"/>
<path d="M22.3723 29.4737C21.9942 28.8085 22.744 28.4243 23.2491 28.1814C24.0735 27.7861 24.8471 27.2972 25.6476 26.8574C28.4735 25.1412 31.6932 23.8934 34.6048 22.4137C36.4172 21.4739 38.1152 20.3197 40.015 19.5513C42.5517 18.4781 45.1011 17.4509 47.695 16.527C48.1033 16.3491 48.5115 16.1602 48.9388 16.03C49.9443 15.8141 50.1142 17.2747 49.0992 17.3938C45.6285 18.7972 42.0561 19.9736 38.7013 21.6596C35.6738 23.4885 32.4509 24.9618 29.2375 26.4224C27.6665 27.2464 26.1289 28.1322 24.5866 29.0102C23.894 29.234 22.9918 30.2977 22.3723 29.4753V29.4737Z" fill="#FFEADE"/>
<path d="M24.2615 33.6142C23.6802 32.7426 24.9541 32.2885 25.5752 32.0123C26.3122 31.6852 27.0365 31.3296 27.7592 30.974C30.6248 29.5833 33.4252 28.0671 36.2971 26.6875C38.6908 25.6302 40.9448 24.3236 43.2178 23.0361C44.6967 22.3391 46.2232 21.7485 47.6988 21.042C48.2357 20.8198 48.7599 20.5705 49.2841 20.3181C49.8273 20.0546 50.658 19.4481 51.0488 20.2308C51.1965 20.5642 51.0424 20.9738 50.7057 21.1182C49.8082 21.5453 48.9267 22.0089 48.0022 22.3756C46.5265 23.0948 44.9842 23.6663 43.5117 24.3934C42.3045 25.0602 41.1529 25.827 39.9155 26.4414C36.3574 28.11 32.8692 29.9135 29.3651 31.6852C28.0833 32.3234 26.7919 32.9458 25.4878 33.538C25.1272 33.8158 24.6126 34.0555 24.2631 33.6142H24.2615Z" fill="#FFEADE"/>
</g>
<defs>
<clipPath id="clip0_1591_49458">
<rect width="114" height="79" fill="white"/>
</clipPath>
</defs>
</svg>
