<svg width="14" height="12" viewBox="0 0 14 12" fill="none" xmlns="http://www.w3.org/2000/svg">
<path d="M13.6127 0H5.66992V1.50884H13.6127V0Z" fill="black"/>
<path d="M13.6127 3.49023H5.66992V4.99908H13.6127V3.49023Z" fill="black"/>
<path d="M13.6127 6.97852H5.66992V8.48736H13.6127V6.97852Z" fill="black"/>
<path d="M13.6127 10.4668H5.66992V11.9756H13.6127V10.4668Z" fill="black"/>
<path d="M2.83573 0H1.82227V5.04519H2.83573V0Z" fill="black"/>
<path d="M2.55624 10.9624L3.47543 9.33565C3.64041 9.07632 3.71112 8.74625 3.71112 8.41619C3.71112 7.56747 3.05118 6.71875 1.94344 6.71875C1.47206 6.71875 1.02425 6.90735 0.717849 7.23741L0.529297 7.44959L1.25994 8.18044L1.47206 7.94468C1.5899 7.80323 1.77846 7.7325 1.96701 7.7325C2.5091 7.7325 2.69765 8.15686 2.69765 8.43977C2.69765 8.62838 2.62694 8.76983 2.5798 8.84056L0.812127 11.9997H4.27677V10.9859H2.55624V10.9624Z" fill="black"/>
</svg>
