<svg width="89" height="85" viewBox="0 0 89 85" fill="none" xmlns="http://www.w3.org/2000/svg">
<path d="M88.994 36.2701C88.994 16.5462 69.0317 0.5 44.497 0.5C19.9623 0.5 0 16.5462 0 36.2701C0 53.9508 15.8315 68.7654 37.2115 71.5625C38.6582 71.8733 40.6335 72.5064 41.1331 73.7381C41.5805 74.8546 41.4236 76.5985 41.2784 77.7208C41.2784 77.7208 40.7556 80.8288 40.6452 81.4964C40.4535 82.6072 39.7504 85.8533 44.497 83.8734C49.2494 81.8935 70.1241 68.9265 79.4604 58.2789C85.9092 51.2746 89 44.1666 89 36.2701H88.994ZM28.799 46.8026C28.799 47.2745 28.4099 47.6601 27.9335 47.6601H15.4657C15.2333 47.6601 15.024 47.5681 14.8671 47.4184C14.8671 47.4184 14.8613 47.4127 14.8555 47.4069C14.8497 47.4069 14.8439 47.3954 14.8439 47.3896C14.6928 47.24 14.5999 47.027 14.5999 46.7968V27.5909C14.5999 27.1132 14.9893 26.7333 15.4657 26.7333H18.5853C19.0617 26.7333 19.4511 27.1132 19.4511 27.5909V42.8428H27.9335C28.4099 42.8428 28.799 43.2284 28.799 43.7004V46.7911V46.8026ZM36.3228 46.8026C36.3228 47.2745 35.9334 47.6601 35.457 47.6601H32.337C31.8606 47.6601 31.4715 47.2745 31.4715 46.8026V27.5966C31.4715 27.1247 31.8606 26.7391 32.337 26.7391H35.457C35.9334 26.7391 36.3228 27.1247 36.3228 27.5966V46.8026ZM57.8073 46.8026C57.8073 47.2745 57.4179 47.6601 56.9415 47.6601H53.8216C53.7461 47.6601 53.6706 47.6486 53.6009 47.6314H53.5893C53.5893 47.6314 53.5485 47.6141 53.5311 47.6083C53.5195 47.6083 53.514 47.6026 53.5081 47.5968C53.4907 47.5911 53.4789 47.5853 53.4673 47.5796C53.4499 47.5738 53.4383 47.5681 53.4267 47.5565C53.4151 47.5565 53.4093 47.5508 53.4035 47.545C53.386 47.5335 53.3687 47.522 53.3513 47.5163C53.3513 47.5163 53.3453 47.5163 53.3453 47.5105C53.264 47.4587 53.1885 47.3839 53.1246 47.2976L44.2298 35.3953V46.8026C44.2298 47.2745 43.8404 47.6601 43.364 47.6601H40.2444C39.768 47.6601 39.3786 47.2745 39.3786 46.8026V27.5966C39.3786 27.1247 39.768 26.7391 40.2444 26.7391H43.364C43.364 26.7391 43.3816 26.7391 43.3932 26.7391C43.4106 26.7391 43.4223 26.7391 43.4397 26.7391C43.4572 26.7391 43.4688 26.7391 43.4863 26.7448C43.4979 26.7448 43.5093 26.7448 43.5209 26.7448C43.5383 26.7448 43.5559 26.7448 43.5734 26.7564C43.585 26.7564 43.5965 26.7621 43.6023 26.7621C43.6197 26.7679 43.6371 26.7736 43.6545 26.7794C43.6661 26.7794 43.6721 26.7794 43.6837 26.7909C43.7011 26.7966 43.7185 26.8024 43.7359 26.8139C43.7475 26.8139 43.7535 26.8254 43.7651 26.8254C43.7826 26.8312 43.7939 26.8427 43.8114 26.8484C43.823 26.8542 43.8288 26.86 43.8346 26.8657C43.8521 26.8772 43.8637 26.883 43.8811 26.8945C43.8928 26.8945 43.8986 26.906 43.9044 26.9118C43.9218 26.9233 43.9335 26.9405 43.9509 26.952C43.9567 26.952 43.9624 26.9636 43.9682 26.9636C43.9857 26.9808 44.0033 26.9981 44.0207 27.0154C44.044 27.0441 44.0671 27.0729 44.0845 27.1017L52.9734 38.9867V27.5794C52.9734 27.1074 53.3628 26.7218 53.8392 26.7218H56.9591C57.4355 26.7218 57.8246 27.1074 57.8246 27.5794V46.7853L57.8073 46.8026ZM75.0449 30.6931C75.0449 31.165 74.6555 31.5506 74.1791 31.5506H65.6971V34.7967H74.1791C74.6555 34.7967 75.0449 35.1823 75.0449 35.6543V38.745C75.0449 39.2227 74.6555 39.6025 74.1791 39.6025H65.6971V42.8486H74.1791C74.6555 42.8486 75.0449 43.2342 75.0449 43.7062V46.7968C75.0449 47.2688 74.6555 47.6544 74.1791 47.6544H61.7113C61.4789 47.6544 61.2699 47.5623 61.1131 47.4127C61.1131 47.4127 61.1014 47.4069 61.1014 47.4011C61.1014 47.4011 61.0898 47.3896 61.0898 47.3839C60.9387 47.2342 60.8458 47.0213 60.8458 46.7911V27.5851C60.8458 27.3549 60.9386 27.1477 61.0838 26.9923C61.0838 26.9923 61.0955 26.9808 61.0955 26.9751C61.0955 26.9751 61.1013 26.9751 61.1071 26.9636C61.264 26.8139 61.4733 26.7218 61.7057 26.7218H74.1734C74.6498 26.7218 75.0389 27.1074 75.0389 27.5794V30.6701L75.0449 30.6931Z" fill="white"/>
</svg>
