<svg width="16" height="12" viewBox="0 0 16 12" fill="none" xmlns="http://www.w3.org/2000/svg">
<path d="M7.90799 0.996675C7.90799 1.15614 7.86812 1.28903 7.78838 1.39535C7.70865 1.47508 7.58905 1.54153 7.42958 1.59468C6.28672 2.04651 5.42294 2.65781 4.83822 3.42857C4.28008 4.17276 4.00101 4.99668 4.00101 5.90033C4.00101 6.16611 4.04088 6.4186 4.12061 6.65781C4.20034 6.89701 4.47941 7.40199 4.95782 8.17276L2.72526 6.37874C3.12393 6.21927 3.53589 6.13953 3.96114 6.13953C4.73191 6.13953 5.36978 6.39203 5.87476 6.89701C6.40632 7.40199 6.67211 8.06644 6.67211 8.89037C6.67211 9.87375 6.35317 10.6445 5.7153 11.2027C5.104 11.7342 4.3731 12 3.5226 12C2.56579 12 1.8349 11.6545 1.32991 10.9635C0.851507 10.2724 0.612305 9.40864 0.612305 8.37209C0.612305 6.99003 0.824929 5.78073 1.25018 4.74419C1.67543 3.68106 2.22028 2.80399 2.88473 2.11296C3.54918 1.42193 4.2535 0.903654 4.99769 0.558139C5.74187 0.186046 6.41961 0 7.03091 0C7.27011 0 7.46945 0.119601 7.62892 0.358803C7.81496 0.571427 7.90799 0.78405 7.90799 0.996675ZM15.3631 0.996675C15.3631 1.15614 15.3233 1.28903 15.2435 1.39535C15.1638 1.47508 15.0442 1.54153 14.8847 1.59468C13.7419 2.04651 12.8781 2.65781 12.2934 3.42857C11.7352 4.17276 11.4562 4.99668 11.4562 5.90033C11.4562 6.16611 11.496 6.4186 11.5758 6.65781C11.6555 6.89701 11.9346 7.40199 12.413 8.17276L10.1804 6.37874C10.5791 6.21927 10.991 6.13953 11.4163 6.13953C12.1871 6.13953 12.8249 6.39203 13.3299 6.89701C13.8615 7.40199 14.1273 8.06644 14.1273 8.89037C14.1273 9.87375 13.8083 10.6445 13.1704 11.2027C12.5591 11.7342 11.8283 12 10.9778 12C10.0209 12 9.29005 11.6545 8.78506 10.9635C8.30666 10.2724 8.06745 9.40864 8.06745 8.37209C8.06745 6.99003 8.28008 5.78073 8.70533 4.74419C9.13058 3.68106 9.67543 2.80399 10.3399 2.11296C11.0043 1.42193 11.7087 0.903654 12.4528 0.558139C13.197 0.186046 13.8748 0 14.4861 0C14.7253 0 14.9246 0.119601 15.0841 0.358803C15.2701 0.571427 15.3631 0.78405 15.3631 0.996675Z" fill="black"/>
</svg>
