<svg width="138" height="120" viewBox="0 0 138 120" fill="none" xmlns="http://www.w3.org/2000/svg">
<g clip-path="url(#clip0_1591_48953)">
<path d="M27.0496 67.9282C20.7912 50.6335 16.6564 31.4587 16.8576 22.2896C16.7553 9.25567 32.9651 2.67965 35.1899 3.49715C39.6856 7.09777 31.09 8.01086 29.1665 9.80779C29.2159 9.77743 29.1845 9.79655 29.2811 9.73695C29.1114 9.84153 28.9416 9.9461 28.7719 10.0507C28.8461 10.0046 28.9203 9.95847 28.9945 9.91237C16.6249 16.6582 21.2409 30.7728 23.4286 41.0045C25.5668 49.8093 27.6331 58.4038 30.7595 66.9184C30.9978 68.9605 27.931 69.7454 27.0485 67.9271L27.0496 67.9282Z" fill="#D1DFE9"/>
<path d="M20.8114 27.4261C20.7237 27.4059 20.7057 27.3305 20.7226 27.2529C20.7383 26.5794 20.7316 25.9047 20.7125 25.2311C20.5663 24.1358 20.5439 23.0316 20.4404 21.933C20.4798 21.0828 20.4326 20.2226 20.581 19.3781C20.7316 18.6978 20.8519 17.9939 21.097 17.3405C21.4241 16.4443 21.7512 15.5222 22.3246 14.7497C22.953 13.831 23.568 12.8898 24.428 12.1679C24.8956 11.708 25.4128 11.3425 25.9097 10.9231C26.5381 10.3856 27.2621 9.95488 28.022 9.6344C28.7809 9.26895 29.5228 8.86413 30.2581 8.46044C30.5616 8.29963 30.8595 8.12534 31.181 8.00614C31.2979 7.96679 31.4261 8.00277 31.4902 8.11409C31.6566 8.46943 31.0697 8.61674 30.8561 8.77979C30.6246 8.91473 30.3952 9.04967 30.167 9.19023C29.6645 9.48485 29.1485 9.75135 28.6617 10.0741C28.3087 10.2686 27.9962 10.3788 27.6814 10.6127C27.1755 10.9523 26.6809 11.3076 26.2379 11.7271C25.4128 12.3984 24.6157 13.1214 23.9614 13.9648C23.505 14.6676 22.9946 15.3412 22.5933 16.0777C21.776 17.6981 21.161 19.431 20.9879 21.2459C20.9171 21.7654 20.898 22.2636 20.9103 22.7819C20.8946 23.3644 20.8137 23.9435 20.8609 24.5272C20.9744 25.3582 20.9474 26.1981 20.9463 27.0359C20.9272 27.1708 21.0048 27.4193 20.8092 27.4227L20.8114 27.4261Z" fill="#BDCEDA"/>
<path d="M44.7539 58.416C41.8726 41.9985 29.7278 7.71051 11.934 9.75709C9.98016 9.92913 7.79359 10.3924 7.2135 8.28176C6.92571 5.33896 10.1049 5.91358 13.0627 5.79213C22.4048 5.48627 29.7548 12.6785 34.282 20.2733C34.2348 20.1991 34.1954 20.1361 34.1516 20.0687C43.8737 34.8647 48.692 54.5096 48.5964 58.8557C48.0197 60.6763 45.0406 60.6481 44.7528 58.416H44.7539Z" fill="#D1DFE9"/>
<path d="M120.661 63.2615C120.518 62.7611 120.588 62.236 120.819 61.7952C121.101 60.5863 121.385 59.3786 121.551 58.1462C121.821 56.4876 122.102 54.2656 124.356 54.7131C126.303 55.2495 125.842 57.2095 125.457 58.6938C125.349 59.3831 125.257 60.0803 125.108 60.7618C124.802 61.7749 124.786 62.9286 124.217 63.8339C123.318 65.1619 121.09 64.8527 120.661 63.2604V63.2615Z" fill="#D1DFE9"/>
<path d="M24.789 61.6062C24.5226 61.2554 25.0004 60.5785 25.1769 60.2501C25.3421 59.8475 25.6918 59.5091 26.1066 59.373C26.5664 59.21 27.0655 59.1414 27.531 59.3348C28.1954 59.5597 28.8362 60.2715 28.3977 60.9754C28.1481 61.3757 27.6366 61.5242 27.2083 61.3364C26.979 61.2397 26.7991 61.0755 26.617 60.9124C26.5214 60.8483 26.4011 60.8742 26.2921 60.8618C25.9009 60.7618 25.504 60.9788 25.2724 61.2948C25.2027 61.3915 25.1971 61.4466 25.16 61.5444C25.0903 61.6928 24.9003 61.7164 24.7879 61.6062H24.789Z" fill="#BDCEDA"/>
<path d="M44.0915 55.2474C44.0365 55.1687 44.0724 55.0619 44.096 54.9776C44.2658 54.0633 44.9122 53.1817 45.852 52.9771C46.766 52.7061 48.2904 53.6169 47.544 54.6335C47.2472 54.9978 46.6749 55.0698 46.3107 54.7605C46.1544 54.6447 46.0162 54.458 45.8138 54.4367C45.2911 54.3737 44.6851 54.6773 44.34 55.0608C44.4434 55.0855 44.4479 55.2632 44.3209 55.28C44.2444 55.2834 44.1455 55.3216 44.0915 55.2474Z" fill="#BDCEDA"/>
<path d="M91.347 102.997C92.7601 102.769 95.5515 102.755 95.4402 101.309C96.2417 92.974 93.6077 84.7843 90.2666 79.2518C88.2363 75.0732 79.2753 71.8886 76.4884 72.6623C67.8636 74.4862 69.868 87.0591 73.724 92.7581C77.8644 98.8955 85.0571 103.54 91.347 102.997ZM78.1972 119.99C78.2545 119.99 78.1995 119.99 78.3962 119.986C64.3673 120.458 51.2659 108.414 46.7725 97.0176C45.6314 93.8454 40.803 86.5003 46.5375 86.2956C48.1867 86.4519 48.7803 88.2983 49.3739 89.9592C59.6861 119.94 87.2852 118.633 92.995 108.012C75.652 110.122 58.9644 88.3388 67.6061 72.9704C73.1035 65.1068 80.9481 66.9274 87.3257 70.2379C90.9018 72.0944 93.8685 74.9619 95.7741 78.5119C99.6289 85.6929 100.957 94.5066 100.691 100.189C115.779 90.5091 119.471 62.245 120.648 60.9608C121.31 59.7115 123.007 59.517 124.119 60.2176C127.088 61.3488 122.82 71.1633 122.807 72.7815C119.01 85.6232 111.568 102.02 100.552 105.784C99.0848 105.917 99.2535 107.506 98.5407 108.6C95.0579 116.893 86.2667 119.971 78.0612 119.991C78.1208 119.991 78.1792 119.989 78.1961 119.989L78.1972 119.99Z" fill="#7895AB"/>
<path d="M46.7499 90.9208C44.8084 90.7904 42.0654 87.9522 40.7838 86.7523C37.5439 84.3403 34.2657 82.5546 31.6609 79.4218C28.3816 75.9988 20.4515 59.9771 26.9921 60.1368C27.9421 60.1064 28.8516 60.5348 29.3957 61.4131C31.1168 66.9613 32.431 72.3476 36.3916 76.5262C42.1666 82.0846 48.3519 82.8638 47.5886 90.2754C47.5054 90.7173 47.2446 90.8972 46.7488 90.9186L46.7499 90.9208Z" fill="#7895AB"/>
<path d="M44.0131 90.1583C41.6287 80.6046 46.0513 77.1648 45.5724 71.6593C44.6876 55.0281 42.5213 55.1495 46.0288 53.6314C51.0528 51.8075 50.7009 66.183 50.928 71.8572C51.0124 73.9577 50.7684 76.0594 50.1816 78.079C49.4879 80.4663 48.6718 82.7861 48.5953 85.4759C48.4132 87.3189 48.982 88.4929 48.9618 90.5057C48.5447 93.0594 44.7933 93.227 44.0131 90.1594V90.1583Z" fill="#7895AB"/>
<path d="M133.981 38.0776C142.383 48.0777 133.524 56.345 127.993 57.1029C123.771 57.4852 116.678 55.4387 115.414 52.9119C106.516 39.6452 123.852 27.1127 133.981 38.0776Z" fill="#EACEC1"/>
<path d="M118.351 54.9124C111.921 50.5044 115.099 40.2345 121.201 36.6878C121.184 36.7047 121.171 36.7182 121.154 36.7339C127.76 31.8514 135.094 37.4502 132.261 38.7187C120.363 32.9635 112.651 45.4285 118.35 54.9124H118.351Z" fill="#DEBCAC"/>
<path d="M137.086 41.4577C139.306 45.7971 137.03 50.1612 135.045 53.3402C130.403 60.5898 120.047 59.6688 116.817 52.2247C111.06 37.4489 130.401 29.3863 137.085 41.4577H137.086Z" fill="#FFD8C5"/>
<path d="M124.53 46.6205C124.552 46.0931 124.793 45.5871 125.186 45.2351C125.58 44.8843 126.068 44.7358 126.587 44.7358C127.663 44.7358 128.516 45.7558 128.473 46.7948C128.45 47.3222 128.209 47.8282 127.816 48.1802C127.423 48.531 126.933 48.6794 126.415 48.6794C125.339 48.6794 124.486 47.6595 124.53 46.6205Z" fill="#90989E"/>
<path d="M122.118 57.4841C121.099 57.1479 120.177 56.6362 119.33 55.9885C118.64 55.5286 117.954 55.0226 117.468 54.34C117.173 53.8711 116.879 53.3943 116.672 52.8782C116.466 52.434 116.159 52.0359 116.017 51.5614C115.613 50.2952 115.363 48.9717 115.386 47.6381C115.483 46.5777 115.531 45.5015 115.803 44.467C116.079 43.2211 116.462 41.974 117.212 40.926C117.437 40.5482 117.657 40.1613 117.958 39.8386C118.236 39.5665 118.549 39.3315 118.835 39.0683C119.329 38.6669 119.75 38.1901 120.228 37.7718C120.496 37.5446 120.82 37.3962 121.122 37.223C121.105 37.2332 121.098 37.2365 121.085 37.2444C121.502 37.0105 121.895 36.7305 122.336 36.5416C122.418 36.5079 122.501 36.4966 122.586 36.5247C122.857 36.6113 122.882 37.006 122.625 37.1286C121.977 37.5109 121.296 37.8516 120.678 38.2789C120.252 38.6421 119.935 39.0503 119.504 39.3989C119.15 39.7228 118.766 40.0174 118.437 40.3682C118.182 40.6988 117.988 41.0677 117.78 41.4275C117.591 41.7401 117.386 42.0437 117.243 42.3811C116.747 43.7788 116.39 45.2451 116.358 46.7328C116.277 47.5965 116.31 48.5129 116.453 49.3563C116.575 50.1119 116.744 50.8642 116.988 51.5895C117.199 52.0225 117.45 52.5318 117.593 52.9704C117.844 53.5911 118.127 54.2085 118.619 54.6774C118.975 55.0822 119.394 55.4218 119.801 55.7715C120.017 55.9717 120.188 56.1426 120.433 56.2854C120.915 56.5474 121.419 56.8004 121.92 56.9938C122.026 57.0377 122.136 57.0725 122.244 57.1085C122.482 57.1895 122.366 57.5651 122.117 57.4819L122.118 57.4841Z" fill="#FFE8DD"/>
<path d="M113.141 44.9515C112.85 44.8683 113.053 44.513 113.057 44.3061C113.083 43.8338 113.225 43.3334 113.346 42.8926C113.439 42.5181 113.516 42.1504 113.648 41.7883C114.142 40.4851 114.634 39.1458 115.578 38.091C115.976 37.5344 116.474 37.0655 116.968 36.5954C117.398 36.194 117.854 35.8297 118.343 35.5024C118.908 35.1887 119.47 34.8626 120.053 34.5781C120.892 34.2205 121.726 33.9383 122.619 33.7718C123.169 33.6504 123.734 33.5998 124.298 33.6178C124.5 33.6245 124.704 33.656 124.883 33.755C125.122 33.8011 125.366 33.8067 125.608 33.7988C125.716 33.7955 125.812 33.8708 125.82 33.981C125.828 34.0856 125.744 34.189 125.638 34.1924C125.364 34.2059 125.092 34.1834 124.82 34.1677C123.883 34.2812 122.961 34.5106 122.044 34.7322C120.929 35.0639 119.874 35.6318 118.877 36.2086C117.693 37.0036 116.614 37.9684 115.696 39.0626C115.379 39.4786 115.154 39.9532 114.867 40.3884C114.623 40.7808 114.346 41.1553 114.147 41.5747C113.974 42.0009 113.851 42.4732 113.749 42.914C113.642 43.3087 113.543 43.6471 113.48 44.0396C113.464 44.2937 113.423 44.5456 113.375 44.7952C113.356 44.9021 113.247 44.9718 113.143 44.9515H113.141Z" fill="#F3D8CB"/>
<path d="M40.4565 0.267409C41.9179 0.680097 43.0657 1.82258 43.5311 3.26867C44.1067 5.05661 43.8718 6.20247 41.8707 7.36744C38.352 9.44438 37.7988 4.51124 36.3891 2.28924C35.6516 0.0402619 38.2362 -0.360057 40.4576 0.267409H40.4565Z" fill="#DEBCAC"/>
<path d="M6.83757 11.1244C6.97135 11.69 6.68018 12.1994 6.23275 12.4895C5.71562 13.2497 4.29126 13.4577 3.30758 13.271C0.906293 12.8516 -0.154952 10.9118 0.0181751 8.68872C0.291356 7.11106 1.60105 5.43557 3.22439 4.99477C3.54816 4.90594 3.84158 4.91381 4.09452 4.9914C4.83987 4.91831 5.65941 5.3726 5.74372 6.45324C5.97194 8.04102 6.43735 9.5737 6.83645 11.1255L6.83757 11.1244Z" fill="#DEBCAC"/>
<path d="M37.2647 9.62436C34.6869 9.4928 34.543 6.49603 33.6336 4.59002C32.4948 2.35003 33.0524 1.22779 34.2406 0.613822C36.0877 -0.341995 38.3563 0.54073 39.1714 2.45461C39.4524 3.11469 39.6975 3.79501 40.0055 4.3595C41.9751 7.63402 40.0359 9.28926 37.2647 9.62549V9.62436Z" fill="#F3D8CB"/>
<path d="M6.39538 13.5964C4.5708 13.4109 4.53033 11.3362 4.18745 9.94185C4.0132 9.27728 3.88504 8.60371 3.78049 7.92451C3.64109 7.10701 3.1397 6.34798 3.25549 5.49786C3.4792 4.26767 4.58767 3.35908 5.62643 2.7766C6.97884 2.01644 8.64265 2.81933 8.83489 4.37C9.11707 5.86782 9.43634 7.35552 9.79496 8.8376C10.13 10.4164 10.4065 12.5934 8.31214 12.9026C7.87595 13.4683 7.08676 13.6617 6.3965 13.5976L6.39538 13.5964Z" fill="#F3D8CB"/>
<path d="M37.1743 30.9978C29.83 18.1224 26.2662 9.20854 12.9062 6.81787C27.1094 7.2418 32.736 20.9089 36.8809 28.5554C37.2204 29.4651 38.4975 30.8325 37.1732 30.9978H37.1743Z" fill="#EEF6FB"/>
<path d="M20.3422 39.2715C19.2922 34.9838 18.2725 30.6568 17.996 26.2387C17.996 26.2488 17.9971 26.2589 17.9982 26.2702C17.9982 26.2702 17.9982 26.2724 17.9982 26.2735C17.8858 24.3979 17.8791 22.5133 18.069 20.6421C18.1545 19.8302 18.3557 18.9936 18.5142 18.2031C18.5727 17.8972 18.6233 17.5902 18.7334 17.2967C18.9324 16.6929 19.2326 16.1059 19.5136 15.5425C19.8532 14.7846 20.1668 14.0132 20.6221 13.316C20.6412 13.2632 20.6986 13.2306 20.7559 13.2452C20.9335 13.3149 20.7727 13.5005 20.7098 13.5994C20.6525 13.6939 20.5962 13.7883 20.5412 13.8828C20.2185 14.4394 19.9847 15.041 19.7295 15.6302C19.4372 16.2746 19.1517 16.9212 19.001 17.6105C18.8661 18.4966 18.7233 19.3827 18.639 20.2755C18.6109 21.933 18.6424 23.6063 18.7638 25.2581C18.7638 25.2559 18.7638 25.2525 18.7638 25.2503C18.7638 25.2503 18.7638 25.2491 18.7638 25.2334C18.9549 28.1458 19.49 31.0301 20.0904 33.883C20.4568 35.5989 20.9054 37.2958 21.282 39.0084C21.4371 39.628 20.5299 39.8866 20.3422 39.2704V39.2715Z" fill="#EEF6FB"/>
<path d="M33.1378 76.6118C32.9523 76.5735 32.8163 76.4532 32.7252 76.2924C32.1496 75.268 31.5684 74.247 30.9883 73.2259C29.5246 70.7329 28.4442 68.0454 27.3751 65.3669C27.0975 64.6337 26.8254 63.8971 26.6039 63.1449C26.5466 62.9312 26.3634 62.5331 26.7085 62.4949C26.8805 62.4409 26.9749 62.6894 26.8119 62.7625C27.7236 65.3893 29.0086 67.8846 30.4105 70.2798C31.2716 71.6854 32.1429 73.0865 33.0051 74.4921C33.2536 74.8947 33.5065 75.295 33.7561 75.6964C33.8415 75.8336 33.8786 75.991 33.8449 76.1507C33.7853 76.4645 33.4514 76.6837 33.14 76.6118H33.1378Z" fill="#91ACC0"/>
<path d="M47.9729 78.1421C47.4772 77.8767 47.1837 77.6574 47.4479 76.85C49.4445 69.9074 48.3698 62.7332 46.6621 55.894C49.3411 61.0993 52.3393 74.9429 47.9729 78.1421Z" fill="#91ACC0"/>
<path d="M84.1069 116.086C84.3958 115.87 84.7713 115.907 85.1086 115.855C85.52 115.804 85.9349 115.773 86.3452 115.716C87.1029 115.538 87.864 115.34 88.5599 114.981C90.0607 114.058 91.5457 113.056 92.743 111.751C93.4816 110.832 94.0089 109.749 94.4889 108.679C95.0431 107.323 95.3556 105.892 95.5973 104.452C95.6963 103.831 95.8121 103.213 95.8604 102.585C95.9436 101.238 95.7727 99.8953 95.7997 98.5493C95.8582 97.3484 95.7772 96.162 95.6108 94.9858C95.5434 94.4224 95.5097 93.8557 95.395 93.2991C95.1836 92.2094 95.1375 91.0939 94.9093 90.0066C94.4113 87.7868 94.01 85.5423 93.485 83.3282C93.2208 82.3758 92.8689 81.4447 92.6463 80.4821C92.5867 80.0537 93.1938 79.8108 93.4344 80.2179C93.6266 80.5125 93.7537 80.851 93.8919 81.1748C94.2809 82.0823 94.6586 82.9976 94.9138 83.9534C95.4861 85.8381 96.065 87.7205 96.626 89.6085C96.9127 90.5452 97.106 91.5055 97.35 92.4535C97.6344 93.407 97.7558 94.391 97.9346 95.367C98.1718 96.7074 98.0964 98.0703 98.0492 99.4219C98.0324 100.738 98.0369 102.062 97.8255 103.364C97.4748 105.056 97.0802 106.764 96.3573 108.338C95.9683 109.278 95.4636 110.164 94.8734 110.992C94.4282 111.646 93.9695 112.305 93.3512 112.81C92.6711 113.359 91.9662 113.875 91.1927 114.284C88.19 115.99 88.1619 115.789 84.8196 116.154C84.6578 116.171 84.4914 116.176 84.3441 116.252C84.28 116.283 84.2272 116.34 84.1552 116.342C84.0316 116.342 83.9697 116.144 84.108 116.086H84.1069Z" fill="#91ACC0"/>
<path d="M117.561 81.2536C117.189 81.1254 117.01 80.661 117.199 80.3158C117.297 80.1223 117.387 79.9267 117.476 79.7288C117.649 79.2936 117.831 78.8618 118.009 78.4277C118.447 77.2943 118.875 76.1574 119.305 75.0205C119.93 73.2585 120.704 71.5481 121.223 69.7489C121.643 68.3725 121.913 66.9579 122.278 65.5669C122.401 65.1036 122.513 64.6359 122.664 64.1804C122.691 64.0995 122.718 63.987 122.804 63.9454C122.957 63.8813 123.131 64.0939 122.962 64.1973C122.575 66.2169 122.316 68.2601 121.941 70.2808C121.771 71.2085 121.487 72.1002 121.17 72.9875C120.786 74.1108 120.408 75.2342 120.015 76.3553C119.706 77.2324 119.404 78.1129 119.087 78.9866C118.862 79.6084 118.626 80.228 118.417 80.8555C118.301 81.2019 117.892 81.3762 117.56 81.2536H117.561Z" fill="#91ACC0"/>
</g>
<defs>
<clipPath id="clip0_1591_48953">
<rect width="138" height="120" fill="white"/>
</clipPath>
</defs>
</svg>
