<svg width="14" height="17" viewBox="0 0 14 17" fill="none" xmlns="http://www.w3.org/2000/svg">
<path d="M3.87195 5.66211H10.128C16.2756 9.08472 15.0079 16.9758 7 16.9758C-1.00795 16.9758 -2.27562 9.08591 3.87195 5.66211ZM5.04542 11.7012C4.84745 11.7012 4.68765 11.861 4.68765 12.0589C4.68765 12.2569 4.84745 12.4167 5.04542 12.4167H6.64224V13.6844C6.64224 13.8823 6.80204 14.0421 7 14.0421C7.19796 14.0421 7.35776 13.8823 7.35776 13.6844V12.4167H8.95458C9.15255 12.4167 9.31235 12.2569 9.31235 12.0589C9.31235 11.861 9.15255 11.7012 8.95458 11.7012H7.35776V11.0858H8.95458C9.15255 11.0858 9.31235 10.926 9.31235 10.728C9.31235 10.5301 9.15255 10.3703 8.95458 10.3703H7.70837L8.87587 8.78777C8.99274 8.62916 8.95935 8.40497 8.80074 8.2881C8.64214 8.17123 8.41794 8.20462 8.30107 8.36323L7.00119 10.1258L5.70132 8.36323C5.58445 8.20462 5.36025 8.17003 5.20164 8.2881C5.04303 8.40497 5.00845 8.62916 5.12651 8.78777L6.29401 10.3703H5.0478C4.84984 10.3703 4.69004 10.5301 4.69004 10.728C4.69004 10.926 4.84984 11.0858 5.0478 11.0858H6.64462V11.7012H5.0478H5.04542Z" fill="#BFE781"/>
<path d="M10.1246 4.94676H3.8745C2.36355 3.95933 1.56096 1.91888 2.62829 1.03043C3.67296 0.163454 5.18749 1.8199 5.18749 1.8199C5.18749 1.8199 5.49279 0.0239258 7.00016 0.0239258C8.50754 0.0239258 8.81283 1.8199 8.81283 1.8199C8.81283 1.8199 10.3274 0.163454 11.372 1.03043C12.4394 1.91888 11.6368 3.95933 10.1258 4.94676H10.1246Z" fill="#BFE781"/>
</svg>
