<svg width="11" height="12" viewBox="0 0 11 12" fill="none" xmlns="http://www.w3.org/2000/svg">
<path d="M0.385742 11.3145H10.7539V12.0002H0.385742V11.3145Z" fill="black"/>
<path d="M3.22642 5.65038C3.22642 6.43667 3.44128 7.05383 3.871 7.50183C4.30072 7.94984 4.87673 8.17384 5.59903 8.17384C6.31218 8.17384 6.87905 7.95441 7.29962 7.51555C7.7202 7.06754 7.93049 6.44582 7.93049 5.65038V0H9.76823V5.65038C9.76823 6.49153 9.59909 7.2184 9.2608 7.83098C8.93165 8.43442 8.45164 8.90071 7.82078 9.22986C7.19905 9.55901 6.45847 9.72358 5.59903 9.72358C4.73044 9.72358 3.98071 9.55901 3.34985 9.22986C2.71898 8.90071 2.2344 8.43442 1.89611 7.83098C1.55782 7.2184 1.38867 6.49153 1.38867 5.65038V0H3.22642V5.65038Z" fill="black"/>
</svg>
