<svg width="11" height="10" viewBox="0 0 11 10" fill="none" xmlns="http://www.w3.org/2000/svg">
<path d="M9.19811 1.50494H8.494C8.31385 1.50494 8.16771 1.35881 8.16771 1.17866C8.16771 0.528749 7.63896 0 6.98905 0H3.85482C3.20491 0 2.67616 0.528749 2.67616 1.17866C2.67616 1.35881 2.52949 1.50494 2.34988 1.50494H1.6463C0.738123 1.50494 0 2.24307 0 3.15071V8.35477C0 9.26188 0.738123 10 1.64576 10H9.19864C10.1058 10 10.8444 9.26188 10.8444 8.35477V3.15071C10.8444 2.24307 10.1058 1.50494 9.19864 1.50494H9.19811ZM2.83558 5.47401C2.83558 4.04825 3.99564 2.88819 5.42194 2.88819C6.84823 2.88819 8.00776 4.04772 8.00776 5.47401C8.00776 6.90031 6.8477 8.05984 5.42194 8.05984C3.99617 8.05984 2.83558 6.90031 2.83558 5.47401Z" fill="#357DC9"/>
<path d="M7.26917 5.47323C7.26917 4.45399 6.44018 3.625 5.42147 3.625C4.40277 3.625 3.57324 4.45399 3.57324 5.47323C3.57324 6.49247 4.40224 7.32146 5.42147 7.32146C6.44071 7.32146 7.26917 6.49247 7.26917 5.47323Z" fill="#357DC9"/>
</svg>
