<svg width="22" height="22" viewBox="0 0 22 22" fill="none" xmlns="http://www.w3.org/2000/svg">
<path d="M20.1667 15.5098V18.2598C20.1677 18.5151 20.1154 18.7678 20.0132 19.0017C19.9109 19.2356 19.7609 19.4456 19.5728 19.6181C19.3846 19.7907 19.1625 19.9221 18.9207 20.0039C18.6789 20.0857 18.4226 20.1161 18.1684 20.0931C15.3476 19.7866 12.6381 18.8227 10.2575 17.2789C8.0427 15.8715 6.16491 13.9938 4.75752 11.7789C3.20833 9.38753 2.24424 6.66484 1.94335 3.83143C1.92045 3.57794 1.95057 3.32246 2.03181 3.08125C2.11305 2.84004 2.24363 2.6184 2.41522 2.43042C2.58682 2.24244 2.79567 2.09225 3.0285 1.98941C3.26132 1.88657 3.513 1.83334 3.76752 1.8331H6.51752C6.96238 1.82872 7.39366 1.98625 7.73097 2.27633C8.06827 2.56642 8.28859 2.96926 8.35085 3.40976C8.46692 4.28982 8.68218 5.15393 8.99252 5.9856C9.11585 6.31369 9.14254 6.67027 9.06943 7.01307C8.99632 7.35587 8.82648 7.67053 8.58002 7.91976L7.41585 9.08393C8.72078 11.3788 10.6209 13.279 12.9159 14.5839L14.08 13.4198C14.3293 13.1733 14.6439 13.0035 14.9867 12.9303C15.3295 12.8572 15.6861 12.8839 16.0142 13.0073C16.8459 13.3176 17.71 13.5329 18.59 13.6489C19.0353 13.7117 19.442 13.936 19.7327 14.2791C20.0234 14.6222 20.1778 15.0602 20.1667 15.5098Z" stroke="#EF788C" stroke-width="1.6" stroke-linecap="round" stroke-linejoin="round"/>
</svg>
