<svg width="199" height="157" viewBox="0 0 199 157" fill="none" xmlns="http://www.w3.org/2000/svg">
<mask id="path-1-outside-1_40000055_6981" maskUnits="userSpaceOnUse" x="-4.06596" y="-4.46347" width="207.388" height="165.104" fill="black">
<rect fill="white" x="-4.06596" y="-4.46347" width="207.388" height="165.104"/>
<path d="M175.136 114.838C175.326 114.726 175.515 114.622 175.696 114.5C176.323 114.092 176.934 113.656 177.515 113.207C177.715 113.047 177.904 112.886 178.104 112.718C178.504 112.391 178.896 112.053 179.259 111.695C179.463 111.511 179.658 111.318 179.843 111.122C180.221 110.742 180.569 110.355 180.909 109.951C181.046 109.788 181.203 109.628 181.341 109.457C181.797 108.885 182.225 108.3 182.614 107.692C182.702 107.56 182.772 107.417 182.861 107.278C183.166 106.785 183.439 106.286 183.696 105.767C183.8 105.548 183.905 105.33 183.999 105.109C184.216 104.632 184.403 104.142 184.581 103.649C184.653 103.433 184.734 103.226 184.807 103.01C185.024 102.303 185.221 101.592 185.36 100.854C187.111 91.5535 181.698 82.2113 172.35 76.4752C174.598 74.0304 176.153 71.1022 176.773 67.8088C178.965 56.1589 168.588 44.428 153.594 41.6064C149.263 40.7915 145.018 40.8143 141.118 41.5347C140.913 30.5925 130.682 20.3352 116.515 17.6692C115.739 17.5232 114.968 17.4028 114.203 17.3082C113.925 17.2722 113.652 17.2619 113.373 17.2259C112.885 17.1752 112.398 17.1245 111.918 17.0917C111.573 17.0679 111.234 17.0699 110.888 17.0541C110.478 17.0426 110.081 17.0172 109.678 17.0235C109.286 17.0238 108.913 17.0438 108.53 17.054C108.179 17.062 107.829 17.07 107.487 17.0879C107.059 17.1141 106.649 17.1601 106.228 17.2042C105.937 17.2317 105.636 17.2572 105.344 17.2926C104.89 17.3468 104.451 17.4286 104.004 17.5006C103.753 17.5437 103.513 17.5808 103.262 17.6239C102.78 17.7139 102.315 17.8236 101.85 17.9333C101.651 17.9781 101.452 18.0229 101.252 18.0756C100.752 18.2033 100.27 18.3508 99.7871 18.4983C99.6306 18.5428 99.4742 18.5873 99.3265 18.6417C98.8089 18.8073 98.3087 18.9925 97.8172 19.1876C97.7031 19.2319 97.589 19.2761 97.4749 19.3204C96.9484 19.5336 96.4407 19.7585 95.9418 19.9933C95.8613 20.0274 95.7808 20.0616 95.7091 20.1056C95.1853 20.3604 94.6789 20.6348 94.1812 20.9191C94.1344 20.9432 94.086 20.9752 94.0392 20.9992C93.5181 21.2956 93.0247 21.6136 92.5298 21.9395C92.5063 21.9515 92.4814 21.9715 92.458 21.9835C91.9601 22.3253 91.4694 22.6849 91.0078 23.0582C91.0078 23.0582 91.0064 23.0661 90.9947 23.0722C89.3009 24.4297 87.8254 25.9762 86.6646 27.7051C86.6559 27.6952 86.6472 27.6854 86.6384 27.6755C86.4727 27.4882 86.2821 27.3209 86.1047 27.1396C85.7427 26.7592 85.3807 26.3789 84.9851 26.0086C84.8047 25.8432 84.6009 25.6898 84.4103 25.5225C83.9927 25.1563 83.5751 24.7901 83.1327 24.4439C82.9493 24.2944 82.741 24.1648 82.5459 24.0213C82.0815 23.6792 81.6084 23.3272 81.1191 23.005C80.9123 22.8675 80.6908 22.7519 80.4825 22.6223C79.9815 22.3062 79.4703 21.9881 78.9429 21.6999C78.7229 21.5763 78.478 21.4727 78.2463 21.3552C77.7057 21.0809 77.1768 20.8006 76.62 20.5561C76.3474 20.4309 76.0485 20.3335 75.7642 20.2143C75.2351 19.9915 74.7059 19.7686 74.1504 19.5737C73.8135 19.4528 73.4503 19.3598 73.112 19.2468C72.5928 19.0834 72.0869 18.906 71.5632 18.7664C70.6778 18.5258 69.7748 18.323 68.8555 18.15C67.9363 17.977 67.0504 17.8514 66.1498 17.7477C65.8492 17.7158 65.5557 17.7016 65.2535 17.6776C64.6609 17.6236 64.0667 17.5775 63.4885 17.5591C63.1308 17.5493 62.7803 17.5573 62.4313 17.5574C61.9129 17.5584 61.3858 17.5496 60.8731 17.5764C60.5007 17.5885 60.134 17.6263 59.7688 17.6562C59.2853 17.6967 58.8033 17.7292 58.327 17.7875C57.9486 17.8313 57.5876 17.8949 57.218 17.9485C56.7606 18.0186 56.312 18.0985 55.8618 18.1864C55.4877 18.2639 55.1339 18.3452 54.7685 18.4325C54.3373 18.5322 53.9148 18.6417 53.5011 18.761C53.1429 18.8662 52.7832 18.9792 52.4337 19.0942C52.0287 19.2234 51.6323 19.3625 51.2433 19.5194C50.8908 19.6502 50.547 19.791 50.2135 19.9336C49.8346 20.0924 49.4747 20.263 49.103 20.4395C48.7665 20.5981 48.4402 20.7585 48.1211 20.9367C47.7684 21.1251 47.4346 21.3252 47.1008 21.5254C46.7905 21.7135 46.4801 21.9016 46.1785 22.0995C45.8636 22.3114 45.5575 22.5332 45.2499 22.7629C44.9555 22.9787 44.6728 23.1884 44.3886 23.4061C44.1014 23.6396 43.8316 23.8929 43.5532 24.1363C43.2864 24.3737 43.0211 24.6031 42.7733 24.8523C42.5123 25.1154 42.2804 25.3922 42.0398 25.6592C41.8109 25.9202 41.5631 26.1693 41.3546 26.4341C41.1198 26.7268 40.914 27.0332 40.6996 27.3298C40.4999 27.6044 40.2914 27.8692 40.1121 28.1477C39.7505 28.7206 39.4282 29.3091 39.1351 29.9113C38.9937 30.2133 38.8799 30.537 38.7471 30.8489C38.6261 31.1548 38.4745 31.455 38.3724 31.7726C38.3798 31.733 38.4092 31.6892 38.4269 31.6514C38.149 32.4537 37.8988 33.2776 37.739 34.1267C37.2791 36.571 37.3784 39.0219 37.9482 41.3887C37.7656 41.4037 37.5917 41.4285 37.4091 41.4434C37.4091 41.4434 37.3887 41.4396 37.3785 41.4377C31.8465 41.8921 26.7682 43.533 22.6336 46.1157C22.6102 46.1277 22.5852 46.1476 22.5618 46.1597C21.9982 46.5137 21.4519 46.8875 20.9246 47.2731C20.8748 47.313 20.8367 47.3469 20.7869 47.3869C20.2932 47.7623 19.8082 48.1476 19.3422 48.5447C19.266 48.6126 19.2 48.6823 19.1238 48.7501C18.7031 49.1311 18.2809 49.52 17.8879 49.9227C17.7837 50.0263 17.6986 50.1418 17.5945 50.2454C17.238 50.6221 16.8918 51.0006 16.5733 51.4008C16.45 51.5502 16.3456 51.7113 16.2326 51.8626C15.9521 52.2289 15.6717 52.5952 15.4087 52.9812C15.275 53.1861 15.1616 53.3948 15.0366 53.6096C14.8234 53.9557 14.6 54.2998 14.4043 54.6656C14.2601 54.9261 14.1436 55.2082 14.0183 55.4804C13.8637 55.7964 13.6988 56.1105 13.5631 56.4383C13.4112 56.7959 13.2972 57.177 13.1642 57.5464C13.0741 57.8006 12.9752 58.045 12.8953 58.3011C12.7028 58.9304 12.5482 59.5833 12.4243 60.242C12.4019 60.3611 12.3999 60.4839 12.3775 60.603C12.3775 60.603 12.3775 60.603 12.379 60.595C10.4552 71.9421 18.9067 83.2859 32.1204 88.2622C32.0831 88.4606 32.0253 88.6552 31.9865 88.8615C31.0471 93.8531 32.0412 98.8553 34.5208 103.381L3.74814 124.106L4.064 124.001L41.4413 111.733C46.2533 115.835 52.5693 118.914 59.7803 120.271C65.9087 121.424 71.8778 121.175 77.2019 119.802C81.4354 118.717 85.244 116.911 88.3892 114.529C88.6353 114.345 88.8799 114.169 89.1055 113.982C92.334 123.126 101.916 130.879 114.306 133.21C117.104 133.737 119.878 133.946 122.555 133.883C122.555 133.883 122.555 133.883 122.545 133.881C122.545 133.881 122.555 133.883 122.565 133.885C123.043 133.876 123.504 133.84 123.976 133.806C124.329 133.782 124.681 133.766 125.036 133.734C125.51 133.692 125.974 133.639 126.43 133.577C126.766 133.534 127.092 133.488 127.43 133.437C127.899 133.361 128.358 133.283 128.818 133.197C129.115 133.137 129.414 133.062 129.712 132.995C131.358 132.623 132.942 132.132 134.45 131.537C134.678 131.448 134.916 131.361 135.136 131.263C135.573 131.074 136.012 130.877 136.432 130.669C136.665 130.557 136.886 130.45 137.108 130.336C137.53 130.119 137.953 129.895 138.367 129.661C138.556 129.557 138.725 129.441 138.916 129.329C140.372 128.444 141.713 127.447 142.915 126.342C142.992 126.267 143.079 126.201 143.157 126.125C143.529 125.776 143.871 125.421 144.205 125.049C144.323 124.931 144.431 124.804 144.538 124.684C144.873 124.312 145.187 123.935 145.482 123.547C145.566 123.439 145.639 123.33 145.724 123.215C146.745 121.837 147.583 120.36 148.219 118.779C148.222 118.763 148.225 118.747 148.239 118.733C148.299 118.58 148.38 118.431 148.442 118.27C149.139 118.442 149.829 118.597 150.544 118.731C154.477 119.471 158.327 119.58 161.968 119.172C161.881 119.18 161.803 119.207 161.716 119.215C161.879 119.196 162.042 119.17 162.204 119.151C162.573 119.105 162.941 119.059 163.3 119.004C163.822 118.929 164.336 118.837 164.842 118.735C165.182 118.668 165.521 118.608 165.863 118.533C166.571 118.37 167.259 118.196 167.942 117.996C168.245 117.905 168.537 117.812 168.831 117.711C169.406 117.523 169.97 117.334 170.519 117.116C170.827 116.994 171.127 116.861 171.426 116.737C171.885 116.544 172.337 116.333 172.779 116.12C173.07 115.978 173.36 115.843 173.632 115.689C174.137 115.423 174.625 115.136 175.103 114.84L175.136 114.838Z"/>
</mask>
<path d="M175.136 114.838C175.326 114.726 175.515 114.622 175.696 114.5C176.323 114.092 176.934 113.656 177.515 113.207C177.715 113.047 177.904 112.886 178.104 112.718C178.504 112.391 178.896 112.053 179.259 111.695C179.463 111.511 179.658 111.318 179.843 111.122C180.221 110.742 180.569 110.355 180.909 109.951C181.046 109.788 181.203 109.628 181.341 109.457C181.797 108.885 182.225 108.3 182.614 107.692C182.702 107.56 182.772 107.417 182.861 107.278C183.166 106.785 183.439 106.286 183.696 105.767C183.8 105.548 183.905 105.33 183.999 105.109C184.216 104.632 184.403 104.142 184.581 103.649C184.653 103.433 184.734 103.226 184.807 103.01C185.024 102.303 185.221 101.592 185.36 100.854C187.111 91.5535 181.698 82.2113 172.35 76.4752C174.598 74.0304 176.153 71.1022 176.773 67.8088C178.965 56.1589 168.588 44.428 153.594 41.6064C149.263 40.7915 145.018 40.8143 141.118 41.5347C140.913 30.5925 130.682 20.3352 116.515 17.6692C115.739 17.5232 114.968 17.4028 114.203 17.3082C113.925 17.2722 113.652 17.2619 113.373 17.2259C112.885 17.1752 112.398 17.1245 111.918 17.0917C111.573 17.0679 111.234 17.0699 110.888 17.0541C110.478 17.0426 110.081 17.0172 109.678 17.0235C109.286 17.0238 108.913 17.0438 108.53 17.054C108.179 17.062 107.829 17.07 107.487 17.0879C107.059 17.1141 106.649 17.1601 106.228 17.2042C105.937 17.2317 105.636 17.2572 105.344 17.2926C104.89 17.3468 104.451 17.4286 104.004 17.5006C103.753 17.5437 103.513 17.5808 103.262 17.6239C102.78 17.7139 102.315 17.8236 101.85 17.9333C101.651 17.9781 101.452 18.0229 101.252 18.0756C100.752 18.2033 100.27 18.3508 99.7871 18.4983C99.6306 18.5428 99.4742 18.5873 99.3265 18.6417C98.8089 18.8073 98.3087 18.9925 97.8172 19.1876C97.7031 19.2319 97.589 19.2761 97.4749 19.3204C96.9484 19.5336 96.4407 19.7585 95.9418 19.9933C95.8613 20.0274 95.7808 20.0616 95.7091 20.1056C95.1853 20.3604 94.6789 20.6348 94.1812 20.9191C94.1344 20.9432 94.086 20.9752 94.0392 20.9992C93.5181 21.2956 93.0247 21.6136 92.5298 21.9395C92.5063 21.9515 92.4814 21.9715 92.458 21.9835C91.9601 22.3253 91.4694 22.6849 91.0078 23.0582C91.0078 23.0582 91.0064 23.0661 90.9947 23.0722C89.3009 24.4297 87.8254 25.9762 86.6646 27.7051C86.6559 27.6952 86.6472 27.6854 86.6384 27.6755C86.4727 27.4882 86.2821 27.3209 86.1047 27.1396C85.7427 26.7592 85.3807 26.3789 84.9851 26.0086C84.8047 25.8432 84.6009 25.6898 84.4103 25.5225C83.9927 25.1563 83.5751 24.7901 83.1327 24.4439C82.9493 24.2944 82.741 24.1648 82.5459 24.0213C82.0815 23.6792 81.6084 23.3272 81.1191 23.005C80.9123 22.8675 80.6908 22.7519 80.4825 22.6223C79.9815 22.3062 79.4703 21.9881 78.9429 21.6999C78.7229 21.5763 78.478 21.4727 78.2463 21.3552C77.7057 21.0809 77.1768 20.8006 76.62 20.5561C76.3474 20.4309 76.0485 20.3335 75.7642 20.2143C75.2351 19.9915 74.7059 19.7686 74.1504 19.5737C73.8135 19.4528 73.4503 19.3598 73.112 19.2468C72.5928 19.0834 72.0869 18.906 71.5632 18.7664C70.6778 18.5258 69.7748 18.323 68.8555 18.15C67.9363 17.977 67.0504 17.8514 66.1498 17.7477C65.8492 17.7158 65.5557 17.7016 65.2535 17.6776C64.6609 17.6236 64.0667 17.5775 63.4885 17.5591C63.1308 17.5493 62.7803 17.5573 62.4313 17.5574C61.9129 17.5584 61.3858 17.5496 60.8731 17.5764C60.5007 17.5885 60.134 17.6263 59.7688 17.6562C59.2853 17.6967 58.8033 17.7292 58.327 17.7875C57.9486 17.8313 57.5876 17.8949 57.218 17.9485C56.7606 18.0186 56.312 18.0985 55.8618 18.1864C55.4877 18.2639 55.1339 18.3452 54.7685 18.4325C54.3373 18.5322 53.9148 18.6417 53.5011 18.761C53.1429 18.8662 52.7832 18.9792 52.4337 19.0942C52.0287 19.2234 51.6323 19.3625 51.2433 19.5194C50.8908 19.6502 50.547 19.791 50.2135 19.9336C49.8346 20.0924 49.4747 20.263 49.103 20.4395C48.7665 20.5981 48.4402 20.7585 48.1211 20.9367C47.7684 21.1251 47.4346 21.3252 47.1008 21.5254C46.7905 21.7135 46.4801 21.9016 46.1785 22.0995C45.8636 22.3114 45.5575 22.5332 45.2499 22.7629C44.9555 22.9787 44.6728 23.1884 44.3886 23.4061C44.1014 23.6396 43.8316 23.8929 43.5532 24.1363C43.2864 24.3737 43.0211 24.6031 42.7733 24.8523C42.5123 25.1154 42.2804 25.3922 42.0398 25.6592C41.8109 25.9202 41.5631 26.1693 41.3546 26.4341C41.1198 26.7268 40.914 27.0332 40.6996 27.3298C40.4999 27.6044 40.2914 27.8692 40.1121 28.1477C39.7505 28.7206 39.4282 29.3091 39.1351 29.9113C38.9937 30.2133 38.8799 30.537 38.7471 30.8489C38.6261 31.1548 38.4745 31.455 38.3724 31.7726C38.3798 31.733 38.4092 31.6892 38.4269 31.6514C38.149 32.4537 37.8988 33.2776 37.739 34.1267C37.2791 36.571 37.3784 39.0219 37.9482 41.3887C37.7656 41.4037 37.5917 41.4285 37.4091 41.4434C37.4091 41.4434 37.3887 41.4396 37.3785 41.4377C31.8465 41.8921 26.7682 43.533 22.6336 46.1157C22.6102 46.1277 22.5852 46.1476 22.5618 46.1597C21.9982 46.5137 21.4519 46.8875 20.9246 47.2731C20.8748 47.313 20.8367 47.3469 20.7869 47.3869C20.2932 47.7623 19.8082 48.1476 19.3422 48.5447C19.266 48.6126 19.2 48.6823 19.1238 48.7501C18.7031 49.1311 18.2809 49.52 17.8879 49.9227C17.7837 50.0263 17.6986 50.1418 17.5945 50.2454C17.238 50.6221 16.8918 51.0006 16.5733 51.4008C16.45 51.5502 16.3456 51.7113 16.2326 51.8626C15.9521 52.2289 15.6717 52.5952 15.4087 52.9812C15.275 53.1861 15.1616 53.3948 15.0366 53.6096C14.8234 53.9557 14.6 54.2998 14.4043 54.6656C14.2601 54.9261 14.1436 55.2082 14.0183 55.4804C13.8637 55.7964 13.6988 56.1105 13.5631 56.4383C13.4112 56.7959 13.2972 57.177 13.1642 57.5464C13.0741 57.8006 12.9752 58.045 12.8953 58.3011C12.7028 58.9304 12.5482 59.5833 12.4243 60.242C12.4019 60.3611 12.3999 60.4839 12.3775 60.603C12.3775 60.603 12.3775 60.603 12.379 60.595C10.4552 71.9421 18.9067 83.2859 32.1204 88.2622C32.0831 88.4606 32.0253 88.6552 31.9865 88.8615C31.0471 93.8531 32.0412 98.8553 34.5208 103.381L3.74814 124.106L4.064 124.001L41.4413 111.733C46.2533 115.835 52.5693 118.914 59.7803 120.271C65.9087 121.424 71.8778 121.175 77.2019 119.802C81.4354 118.717 85.244 116.911 88.3892 114.529C88.6353 114.345 88.8799 114.169 89.1055 113.982C92.334 123.126 101.916 130.879 114.306 133.21C117.104 133.737 119.878 133.946 122.555 133.883C122.555 133.883 122.555 133.883 122.545 133.881C122.545 133.881 122.555 133.883 122.565 133.885C123.043 133.876 123.504 133.84 123.976 133.806C124.329 133.782 124.681 133.766 125.036 133.734C125.51 133.692 125.974 133.639 126.43 133.577C126.766 133.534 127.092 133.488 127.43 133.437C127.899 133.361 128.358 133.283 128.818 133.197C129.115 133.137 129.414 133.062 129.712 132.995C131.358 132.623 132.942 132.132 134.45 131.537C134.678 131.448 134.916 131.361 135.136 131.263C135.573 131.074 136.012 130.877 136.432 130.669C136.665 130.557 136.886 130.45 137.108 130.336C137.53 130.119 137.953 129.895 138.367 129.661C138.556 129.557 138.725 129.441 138.916 129.329C140.372 128.444 141.713 127.447 142.915 126.342C142.992 126.267 143.079 126.201 143.157 126.125C143.529 125.776 143.871 125.421 144.205 125.049C144.323 124.931 144.431 124.804 144.538 124.684C144.873 124.312 145.187 123.935 145.482 123.547C145.566 123.439 145.639 123.33 145.724 123.215C146.745 121.837 147.583 120.36 148.219 118.779C148.222 118.763 148.225 118.747 148.239 118.733C148.299 118.58 148.38 118.431 148.442 118.27C149.139 118.442 149.829 118.597 150.544 118.731C154.477 119.471 158.327 119.58 161.968 119.172C161.881 119.18 161.803 119.207 161.716 119.215C161.879 119.196 162.042 119.17 162.204 119.151C162.573 119.105 162.941 119.059 163.3 119.004C163.822 118.929 164.336 118.837 164.842 118.735C165.182 118.668 165.521 118.608 165.863 118.533C166.571 118.37 167.259 118.196 167.942 117.996C168.245 117.905 168.537 117.812 168.831 117.711C169.406 117.523 169.97 117.334 170.519 117.116C170.827 116.994 171.127 116.861 171.426 116.737C171.885 116.544 172.337 116.333 172.779 116.12C173.07 115.978 173.36 115.843 173.632 115.689C174.137 115.423 174.625 115.136 175.103 114.84L175.136 114.838Z" fill="#FFF600"/>
<path d="M175.136 114.838C175.326 114.726 175.515 114.622 175.696 114.5C176.323 114.092 176.934 113.656 177.515 113.207C177.715 113.047 177.904 112.886 178.104 112.718C178.504 112.391 178.896 112.053 179.259 111.695C179.463 111.511 179.658 111.318 179.843 111.122C180.221 110.742 180.569 110.355 180.909 109.951C181.046 109.788 181.203 109.628 181.341 109.457C181.797 108.885 182.225 108.3 182.614 107.692C182.702 107.56 182.772 107.417 182.861 107.278C183.166 106.785 183.439 106.286 183.696 105.767C183.8 105.548 183.905 105.33 183.999 105.109C184.216 104.632 184.403 104.142 184.581 103.649C184.653 103.433 184.734 103.226 184.807 103.01C185.024 102.303 185.221 101.592 185.36 100.854C187.111 91.5535 181.698 82.2113 172.35 76.4752C174.598 74.0304 176.153 71.1022 176.773 67.8088C178.965 56.1589 168.588 44.428 153.594 41.6064C149.263 40.7915 145.018 40.8143 141.118 41.5347C140.913 30.5925 130.682 20.3352 116.515 17.6692C115.739 17.5232 114.968 17.4028 114.203 17.3082C113.925 17.2722 113.652 17.2619 113.373 17.2259C112.885 17.1752 112.398 17.1245 111.918 17.0917C111.573 17.0679 111.234 17.0699 110.888 17.0541C110.478 17.0426 110.081 17.0172 109.678 17.0235C109.286 17.0238 108.913 17.0438 108.53 17.054C108.179 17.062 107.829 17.07 107.487 17.0879C107.059 17.1141 106.649 17.1601 106.228 17.2042C105.937 17.2317 105.636 17.2572 105.344 17.2926C104.89 17.3468 104.451 17.4286 104.004 17.5006C103.753 17.5437 103.513 17.5808 103.262 17.6239C102.78 17.7139 102.315 17.8236 101.85 17.9333C101.651 17.9781 101.452 18.0229 101.252 18.0756C100.752 18.2033 100.27 18.3508 99.7871 18.4983C99.6306 18.5428 99.4742 18.5873 99.3265 18.6417C98.8089 18.8073 98.3087 18.9925 97.8172 19.1876C97.7031 19.2319 97.589 19.2761 97.4749 19.3204C96.9484 19.5336 96.4407 19.7585 95.9418 19.9933C95.8613 20.0274 95.7808 20.0616 95.7091 20.1056C95.1853 20.3604 94.6789 20.6348 94.1812 20.9191C94.1344 20.9432 94.086 20.9752 94.0392 20.9992C93.5181 21.2956 93.0247 21.6136 92.5298 21.9395C92.5063 21.9515 92.4814 21.9715 92.458 21.9835C91.9601 22.3253 91.4694 22.6849 91.0078 23.0582C91.0078 23.0582 91.0064 23.0661 90.9947 23.0722C89.3009 24.4297 87.8254 25.9762 86.6646 27.7051C86.6559 27.6952 86.6472 27.6854 86.6384 27.6755C86.4727 27.4882 86.2821 27.3209 86.1047 27.1396C85.7427 26.7592 85.3807 26.3789 84.9851 26.0086C84.8047 25.8432 84.6009 25.6898 84.4103 25.5225C83.9927 25.1563 83.5751 24.7901 83.1327 24.4439C82.9493 24.2944 82.741 24.1648 82.5459 24.0213C82.0815 23.6792 81.6084 23.3272 81.1191 23.005C80.9123 22.8675 80.6908 22.7519 80.4825 22.6223C79.9815 22.3062 79.4703 21.9881 78.9429 21.6999C78.7229 21.5763 78.478 21.4727 78.2463 21.3552C77.7057 21.0809 77.1768 20.8006 76.62 20.5561C76.3474 20.4309 76.0485 20.3335 75.7642 20.2143C75.2351 19.9915 74.7059 19.7686 74.1504 19.5737C73.8135 19.4528 73.4503 19.3598 73.112 19.2468C72.5928 19.0834 72.0869 18.906 71.5632 18.7664C70.6778 18.5258 69.7748 18.323 68.8555 18.15C67.9363 17.977 67.0504 17.8514 66.1498 17.7477C65.8492 17.7158 65.5557 17.7016 65.2535 17.6776C64.6609 17.6236 64.0667 17.5775 63.4885 17.5591C63.1308 17.5493 62.7803 17.5573 62.4313 17.5574C61.9129 17.5584 61.3858 17.5496 60.8731 17.5764C60.5007 17.5885 60.134 17.6263 59.7688 17.6562C59.2853 17.6967 58.8033 17.7292 58.327 17.7875C57.9486 17.8313 57.5876 17.8949 57.218 17.9485C56.7606 18.0186 56.312 18.0985 55.8618 18.1864C55.4877 18.2639 55.1339 18.3452 54.7685 18.4325C54.3373 18.5322 53.9148 18.6417 53.5011 18.761C53.1429 18.8662 52.7832 18.9792 52.4337 19.0942C52.0287 19.2234 51.6323 19.3625 51.2433 19.5194C50.8908 19.6502 50.547 19.791 50.2135 19.9336C49.8346 20.0924 49.4747 20.263 49.103 20.4395C48.7665 20.5981 48.4402 20.7585 48.1211 20.9367C47.7684 21.1251 47.4346 21.3252 47.1008 21.5254C46.7905 21.7135 46.4801 21.9016 46.1785 22.0995C45.8636 22.3114 45.5575 22.5332 45.2499 22.7629C44.9555 22.9787 44.6728 23.1884 44.3886 23.4061C44.1014 23.6396 43.8316 23.8929 43.5532 24.1363C43.2864 24.3737 43.0211 24.6031 42.7733 24.8523C42.5123 25.1154 42.2804 25.3922 42.0398 25.6592C41.8109 25.9202 41.5631 26.1693 41.3546 26.4341C41.1198 26.7268 40.914 27.0332 40.6996 27.3298C40.4999 27.6044 40.2914 27.8692 40.1121 28.1477C39.7505 28.7206 39.4282 29.3091 39.1351 29.9113C38.9937 30.2133 38.8799 30.537 38.7471 30.8489C38.6261 31.1548 38.4745 31.455 38.3724 31.7726C38.3798 31.733 38.4092 31.6892 38.4269 31.6514C38.149 32.4537 37.8988 33.2776 37.739 34.1267C37.2791 36.571 37.3784 39.0219 37.9482 41.3887C37.7656 41.4037 37.5917 41.4285 37.4091 41.4434C37.4091 41.4434 37.3887 41.4396 37.3785 41.4377C31.8465 41.8921 26.7682 43.533 22.6336 46.1157C22.6102 46.1277 22.5852 46.1476 22.5618 46.1597C21.9982 46.5137 21.4519 46.8875 20.9246 47.2731C20.8748 47.313 20.8367 47.3469 20.7869 47.3869C20.2932 47.7623 19.8082 48.1476 19.3422 48.5447C19.266 48.6126 19.2 48.6823 19.1238 48.7501C18.7031 49.1311 18.2809 49.52 17.8879 49.9227C17.7837 50.0263 17.6986 50.1418 17.5945 50.2454C17.238 50.6221 16.8918 51.0006 16.5733 51.4008C16.45 51.5502 16.3456 51.7113 16.2326 51.8626C15.9521 52.2289 15.6717 52.5952 15.4087 52.9812C15.275 53.1861 15.1616 53.3948 15.0366 53.6096C14.8234 53.9557 14.6 54.2998 14.4043 54.6656C14.2601 54.9261 14.1436 55.2082 14.0183 55.4804C13.8637 55.7964 13.6988 56.1105 13.5631 56.4383C13.4112 56.7959 13.2972 57.177 13.1642 57.5464C13.0741 57.8006 12.9752 58.045 12.8953 58.3011C12.7028 58.9304 12.5482 59.5833 12.4243 60.242C12.4019 60.3611 12.3999 60.4839 12.3775 60.603C12.3775 60.603 12.3775 60.603 12.379 60.595C10.4552 71.9421 18.9067 83.2859 32.1204 88.2622C32.0831 88.4606 32.0253 88.6552 31.9865 88.8615C31.0471 93.8531 32.0412 98.8553 34.5208 103.381L3.74814 124.106L4.064 124.001L41.4413 111.733C46.2533 115.835 52.5693 118.914 59.7803 120.271C65.9087 121.424 71.8778 121.175 77.2019 119.802C81.4354 118.717 85.244 116.911 88.3892 114.529C88.6353 114.345 88.8799 114.169 89.1055 113.982C92.334 123.126 101.916 130.879 114.306 133.21C117.104 133.737 119.878 133.946 122.555 133.883C122.555 133.883 122.555 133.883 122.545 133.881C122.545 133.881 122.555 133.883 122.565 133.885C123.043 133.876 123.504 133.84 123.976 133.806C124.329 133.782 124.681 133.766 125.036 133.734C125.51 133.692 125.974 133.639 126.43 133.577C126.766 133.534 127.092 133.488 127.43 133.437C127.899 133.361 128.358 133.283 128.818 133.197C129.115 133.137 129.414 133.062 129.712 132.995C131.358 132.623 132.942 132.132 134.45 131.537C134.678 131.448 134.916 131.361 135.136 131.263C135.573 131.074 136.012 130.877 136.432 130.669C136.665 130.557 136.886 130.45 137.108 130.336C137.53 130.119 137.953 129.895 138.367 129.661C138.556 129.557 138.725 129.441 138.916 129.329C140.372 128.444 141.713 127.447 142.915 126.342C142.992 126.267 143.079 126.201 143.157 126.125C143.529 125.776 143.871 125.421 144.205 125.049C144.323 124.931 144.431 124.804 144.538 124.684C144.873 124.312 145.187 123.935 145.482 123.547C145.566 123.439 145.639 123.33 145.724 123.215C146.745 121.837 147.583 120.36 148.219 118.779C148.222 118.763 148.225 118.747 148.239 118.733C148.299 118.58 148.38 118.431 148.442 118.27C149.139 118.442 149.829 118.597 150.544 118.731C154.477 119.471 158.327 119.58 161.968 119.172C161.881 119.18 161.803 119.207 161.716 119.215C161.879 119.196 162.042 119.17 162.204 119.151C162.573 119.105 162.941 119.059 163.3 119.004C163.822 118.929 164.336 118.837 164.842 118.735C165.182 118.668 165.521 118.608 165.863 118.533C166.571 118.37 167.259 118.196 167.942 117.996C168.245 117.905 168.537 117.812 168.831 117.711C169.406 117.523 169.97 117.334 170.519 117.116C170.827 116.994 171.127 116.861 171.426 116.737C171.885 116.544 172.337 116.333 172.779 116.12C173.07 115.978 173.36 115.843 173.632 115.689C174.137 115.423 174.625 115.136 175.103 114.84L175.136 114.838Z" stroke="#06C755" stroke-width="8" mask="url(#path-1-outside-1_40000055_6981)"/>
<path d="M42.4055 75.5122V72.0802C41.2615 73.3282 39.9875 74.5242 38.5575 75.5902C38.2715 75.8242 38.1155 75.9542 37.9595 75.9542C37.8035 75.9542 37.6995 75.7722 37.4655 75.3822C37.0755 74.7842 36.6595 74.3942 36.1135 73.9522C39.0775 72.2102 41.3915 69.9482 43.0295 67.1922H40.1175C37.8035 67.1922 37.0235 67.2442 36.8675 67.2442C36.5815 67.2442 36.5555 67.2182 36.5555 66.9582V65.2682C36.5555 65.0082 36.5815 64.9822 36.8675 64.9822C37.0235 64.9822 37.8035 65.0342 40.1175 65.0342H44.1215C44.3295 64.5662 44.5115 64.0982 44.6935 63.6042H42.0155C39.4935 63.6042 38.6615 63.6562 38.5055 63.6562C38.2455 63.6562 38.2195 63.6302 38.2195 63.3702V61.7582C38.2195 61.4982 38.2455 61.4722 38.5055 61.4722C38.6615 61.4722 39.4935 61.5242 42.0155 61.5242H45.2915C45.3955 61.0822 45.4995 60.6142 45.5775 60.1202C43.7575 60.2242 41.9635 60.3022 40.1175 60.3022C39.4935 60.3022 39.4935 60.3022 39.2595 59.6002C39.0515 59.0282 38.8695 58.6122 38.5055 58.1962C41.4175 58.2482 44.0175 58.1702 46.5915 57.9882C49.1655 57.7802 51.2975 57.4942 53.2215 57.1822C53.8975 57.0782 54.3655 56.9482 54.9115 56.7402C55.5615 57.1822 56.2115 57.7282 56.7575 58.2482C56.9655 58.4822 57.0435 58.5862 57.0435 58.7682C57.0435 59.0022 56.9135 59.0542 56.5755 59.0542C56.1855 59.0542 55.7695 59.1062 55.2235 59.1842C52.9355 59.5222 50.7515 59.7302 48.3075 59.9382C48.2295 60.4842 48.0995 61.0042 47.9695 61.5242H54.2355C56.7315 61.5242 57.5895 61.4722 57.7455 61.4722C58.0055 61.4722 58.0315 61.4982 58.0315 61.7582V63.3702C58.0315 63.6302 58.0055 63.6562 57.7455 63.6562C57.5895 63.6562 56.7315 63.6042 54.2355 63.6042H47.3715C47.2155 64.0982 47.0595 64.5662 46.8515 65.0342H56.0815C58.3955 65.0342 59.1755 64.9822 59.3315 64.9822C59.5915 64.9822 59.6175 65.0082 59.6175 65.2682V66.9582C59.6175 67.2182 59.5915 67.2442 59.3315 67.2442C59.1755 67.2442 58.3955 67.1922 56.0815 67.1922H45.8375C45.5775 67.6602 45.3435 68.1022 45.0575 68.5442H52.6755C54.8855 68.5442 56.0035 68.4922 56.1595 68.4922C56.4195 68.4922 56.4455 68.5182 56.4455 68.7782C56.4455 68.9602 56.3935 69.7662 56.3935 72.4962V75.4602C56.3935 79.2562 56.4455 80.0622 56.4455 80.2182C56.4455 80.4782 56.4195 80.5042 56.1595 80.5042H54.1055C53.8455 80.5042 53.8195 80.4782 53.8195 80.2182V79.4382H44.9535V80.2442C44.9535 80.5042 44.9275 80.5302 44.6675 80.5302H42.6395C42.3795 80.5302 42.3535 80.5042 42.3535 80.2442C42.3535 80.1142 42.4055 79.2562 42.4055 75.5122ZM44.9535 77.4882H53.8195V76.2142H44.9535V77.4882ZM53.8195 70.4942H44.9535V71.7162H53.8195V70.4942ZM44.9535 74.5762H53.8195V73.3542H44.9535V74.5762ZM75.0615 66.8542L74.7495 67.1922C74.4635 67.4782 74.2815 67.6082 74.1255 67.6082C73.9695 67.6082 73.8655 67.4522 73.6835 67.2182C73.3455 66.7502 73.0075 66.3602 72.6695 66.1002C73.8135 65.1122 74.7495 64.0462 75.4515 62.8762C75.7115 62.4342 75.8935 61.9922 76.0235 61.4982C76.8815 61.6542 77.5055 61.8362 77.9475 61.9922C78.2855 62.1222 78.3375 62.1482 78.3375 62.2782C78.3375 62.3822 78.2855 62.4862 78.1295 62.6162C78.0255 62.7202 77.8955 62.8762 77.7655 63.0842H80.6255L80.9635 62.3822C81.0935 62.0702 81.1455 61.8622 81.1975 61.5502C81.9515 61.6802 82.7575 61.8622 83.3555 61.9922C83.5375 62.0442 83.6155 62.1222 83.6155 62.2002C83.6155 62.3562 83.5115 62.4342 83.4335 62.4862C83.3035 62.5902 83.1735 62.7982 83.0955 62.9542L83.0175 63.0842H84.6555C86.7615 63.0842 87.4375 63.0322 87.5935 63.0322C87.8535 63.0322 87.8795 63.0582 87.8795 63.3182V64.3842C87.8795 64.6442 87.8535 64.6702 87.5935 64.6702C87.4375 64.6702 86.7615 64.6182 84.6555 64.6182H82.8355V65.6842H84.0575C85.7475 65.6842 86.6575 65.6322 86.8135 65.6322C87.0995 65.6322 87.1255 65.6582 87.1255 65.9182V66.8282C87.1255 67.0882 87.0995 67.1142 86.8135 67.1142C86.6575 67.1142 85.7475 67.0622 84.0575 67.0622H82.8355V68.1022H84.0575C85.7475 68.1022 86.6835 68.0502 86.8395 68.0502C87.0995 68.0502 87.1255 68.0762 87.1255 68.3622V69.2202C87.1255 69.5062 87.0995 69.5322 86.8395 69.5322C86.6835 69.5322 85.7475 69.4802 84.0835 69.4802H82.8355V70.5462H84.6035C86.9695 70.5462 87.7755 70.4942 87.9315 70.4942C88.1915 70.4942 88.2175 70.5202 88.2175 70.8062V71.8462C88.2175 72.1062 88.1915 72.1322 87.9315 72.1322C87.7755 72.1322 86.9695 72.0802 84.6035 72.0802H78.6235C76.2575 72.0802 75.4515 72.1322 75.2955 72.1322C75.0095 72.1322 75.0095 72.1062 75.0095 71.8462C75.0095 71.6382 75.0615 70.9102 75.0615 69.5842V68.1282C75.0615 67.6602 75.0355 67.2442 75.0615 66.8542ZM77.4015 65.6842H80.5735V64.6182H77.4015V65.6842ZM77.4015 70.5462H80.5735V69.4802H77.4015V70.5462ZM77.4015 68.1022H80.5735V67.0622H77.4015V68.1022ZM77.7395 72.9902H84.1615C84.5255 72.9902 84.7075 72.9642 84.8115 72.9122C84.9415 72.8602 85.0195 72.8082 85.1235 72.8082C85.2535 72.8082 85.4875 72.8862 86.1115 73.4322C86.7615 74.0042 86.8915 74.2122 86.8915 74.3942C86.8915 74.6282 86.8135 74.7322 86.5795 74.8622C86.3715 74.9662 86.1375 75.1222 85.7995 75.4862C85.0715 76.2142 84.3435 76.8382 83.5635 77.4102C84.9935 77.7742 86.7615 78.0082 89.0495 78.1382C88.7375 78.5282 88.5035 79.0742 88.2955 79.6462C88.0095 80.4262 88.0095 80.4262 87.2295 80.3482C84.7335 80.0882 82.7315 79.5942 81.0415 78.8402C79.4035 79.5682 77.4795 80.0882 75.0355 80.4262C74.2295 80.5562 74.2035 80.5562 73.8915 79.7762C73.6835 79.2562 73.4495 78.8662 73.1115 78.4502C75.3475 78.2422 77.1675 77.9302 78.7015 77.4362C77.7395 76.7082 76.9075 75.8502 76.1535 74.8102C75.0615 74.8362 74.5675 74.8622 74.4635 74.8622C74.2035 74.8622 74.1775 74.8362 74.1775 74.5762V73.2502C74.1775 72.9642 74.2035 72.9382 74.4635 72.9382C74.6195 72.9382 75.4255 72.9902 77.7395 72.9902ZM83.5635 74.8102H78.8315C79.5075 75.4862 80.2095 76.0582 81.0675 76.5002C82.0035 76.0322 82.8095 75.4602 83.5635 74.8102ZM72.8255 74.2902V76.0842C72.8255 79.1002 72.8775 79.6722 72.8775 79.8282C72.8775 80.0882 72.8515 80.1142 72.5915 80.1142H70.7975C70.5635 80.1142 70.5375 80.0882 70.5375 79.8282V79.1262H68.2495V80.2962C68.2495 80.5562 68.2235 80.5822 67.9895 80.5822H66.1695C65.8835 80.5822 65.8575 80.5562 65.8575 80.2962C65.8575 80.1402 65.9095 79.5422 65.9095 76.3962V74.7322C65.9095 73.0942 65.8575 72.4702 65.8575 72.2882C65.8575 72.0282 65.8835 72.0022 66.1695 72.0022C66.3255 72.0022 66.8975 72.0542 68.5875 72.0542H70.1475C71.8635 72.0542 72.4095 72.0022 72.5915 72.0022C72.8515 72.0022 72.8775 72.0282 72.8775 72.2882C72.8775 72.4442 72.8255 73.0682 72.8255 74.2902ZM70.5375 74.2122H68.2495V76.9682H70.5375V74.2122ZM77.1675 58.5342V58.3522C77.1675 57.5462 77.1155 57.1302 77.0375 56.6882C77.8435 56.7142 78.5975 56.7662 79.3255 56.8442C79.5335 56.8702 79.6635 56.9742 79.6635 57.0522C79.6635 57.1822 79.6375 57.2342 79.5595 57.3642C79.4555 57.5202 79.3775 57.7802 79.3775 58.1702V58.5342H82.4975V58.3522C82.4975 57.5462 82.4455 57.1302 82.3675 56.6882C83.1735 56.7142 83.9015 56.7662 84.6295 56.8442C84.8375 56.8702 84.9675 56.9482 84.9675 57.0522C84.9675 57.1822 84.9415 57.2342 84.8635 57.3642C84.7595 57.5202 84.7075 57.7802 84.7075 58.1702V58.5342H84.8375C87.3075 58.5342 88.1655 58.4822 88.3215 58.4822C88.5815 58.4822 88.6075 58.5082 88.6075 58.7682V60.2502C88.6075 60.5102 88.5815 60.5362 88.3215 60.5362C88.1655 60.5362 87.3075 60.4842 84.8375 60.4842H84.7075C84.7075 61.0302 84.7595 61.3422 84.7595 61.4462C84.7595 61.7062 84.7335 61.7322 84.4475 61.7322H82.7315C82.4715 61.7322 82.4455 61.7062 82.4455 61.4462C82.4455 61.3162 82.4715 61.0302 82.4975 60.4842H79.3775C79.3775 61.0302 79.4295 61.3422 79.4295 61.4462C79.4295 61.7062 79.4035 61.7322 79.1435 61.7322H77.4015C77.1415 61.7322 77.1155 61.7062 77.1155 61.4462C77.1155 61.3162 77.1415 61.0302 77.1675 60.4842C74.9055 60.4842 74.0995 60.5362 73.9435 60.5362C73.6835 60.5362 73.6575 60.5102 73.6575 60.2502V58.7682C73.6575 58.5082 73.6835 58.4822 73.9435 58.4822C74.0995 58.4822 74.9055 58.5342 77.1675 58.5342ZM68.0675 61.3162H70.4075C72.4355 61.3162 73.1115 61.2642 73.2415 61.2642C73.5015 61.2642 73.5275 61.2902 73.5275 61.5502V63.3962C73.5275 63.6822 73.5015 63.7082 73.2415 63.7082C73.1115 63.7082 72.4355 63.6562 70.4075 63.6562H68.0675C66.0395 63.6562 65.3895 63.7082 65.2335 63.7082C64.9735 63.7082 64.9475 63.6822 64.9475 63.3962V61.5502C64.9475 61.2902 64.9735 61.2642 65.2335 61.2642C65.3895 61.2642 66.0395 61.3162 68.0675 61.3162ZM68.5875 57.7542H70.2515C71.9675 57.7542 72.4875 57.7022 72.6435 57.7022C72.9295 57.7022 72.9555 57.7282 72.9555 57.9882V59.7042C72.9555 59.9642 72.9295 59.9902 72.6435 59.9902C72.4875 59.9902 71.9675 59.9382 70.2515 59.9382H68.5875C66.8715 59.9382 66.3255 59.9902 66.1695 59.9902C65.9095 59.9902 65.8835 59.9642 65.8835 59.7042V57.9882C65.8835 57.7282 65.9095 57.7022 66.1695 57.7022C66.3255 57.7022 66.8715 57.7542 68.5875 57.7542ZM68.6915 65.0082H69.9395C71.5255 65.0082 72.0195 64.9562 72.1755 64.9562C72.4615 64.9562 72.4875 64.9822 72.4875 65.2422V66.9322C72.4875 67.1922 72.4615 67.2182 72.1755 67.2182C72.0195 67.2182 71.5255 67.1662 69.9395 67.1662H68.6915C67.0795 67.1662 66.5855 67.2182 66.4295 67.2182C66.1695 67.2182 66.1435 67.1922 66.1435 66.9322V65.2422C66.1435 64.9822 66.1695 64.9562 66.4295 64.9562C66.5855 64.9562 67.0795 65.0082 68.6915 65.0082ZM68.6915 68.5182H69.9395C71.5255 68.5182 72.0195 68.4662 72.1755 68.4662C72.4615 68.4662 72.4875 68.4922 72.4875 68.7522V70.4162C72.4875 70.6762 72.4615 70.7022 72.1755 70.7022C72.0195 70.7022 71.5255 70.6502 69.9395 70.6502H68.6915C67.0795 70.6502 66.5855 70.7022 66.4295 70.7022C66.1695 70.7022 66.1435 70.6762 66.1435 70.4162V68.7522C66.1435 68.4922 66.1695 68.4662 66.4295 68.4662C66.5855 68.4662 67.0795 68.5182 68.6915 68.5182ZM116.22 66.9842V70.8582C116.22 72.0022 116.298 73.3802 116.298 74.4462C116.298 75.5122 116.194 76.1102 115.83 76.5002C115.414 76.9422 114.53 77.0722 113.464 77.0982C112.632 77.1242 112.632 77.1242 112.58 76.2922C112.554 75.6942 112.424 75.1482 112.164 74.7062C112.554 74.7582 112.996 74.7842 113.256 74.7842C113.594 74.7842 113.672 74.6282 113.672 74.0302V65.5542H111.67V75.9542C111.67 78.7622 111.722 80.1662 111.722 80.2962C111.722 80.5562 111.696 80.5822 111.41 80.5822H109.33C109.07 80.5822 109.044 80.5562 109.044 80.2962C109.044 80.1402 109.096 78.7622 109.096 75.9802V65.5542H107.224V73.6142C107.224 75.6422 107.276 76.6042 107.276 76.7602C107.276 77.0202 107.25 77.0462 106.99 77.0462H104.936C104.676 77.0462 104.65 77.0202 104.65 76.7602C104.65 76.5782 104.702 75.6422 104.702 73.5102V66.7762C104.702 64.6442 104.65 63.6302 104.65 63.4742C104.65 63.2142 104.676 63.1882 104.936 63.1882C105.118 63.1882 105.872 63.2402 108.082 63.2402H109.096V60.3802H107.432C105.066 60.3802 104.26 60.4322 104.104 60.4322C103.844 60.4322 103.818 60.4062 103.818 60.1462V58.1702C103.818 57.9102 103.844 57.8842 104.104 57.8842C104.26 57.8842 105.066 57.9362 107.432 57.9362H113.542C115.934 57.9362 116.766 57.8842 116.922 57.8842C117.182 57.8842 117.208 57.9102 117.208 58.1702V60.1462C117.208 60.4062 117.182 60.4322 116.922 60.4322C116.766 60.4322 115.934 60.3802 113.542 60.3802H111.67V63.2402H112.84C115.05 63.2402 115.804 63.1882 115.986 63.1882C116.246 63.1882 116.272 63.2142 116.272 63.4742C116.272 63.6302 116.22 64.7742 116.22 66.9842ZM99.6055 60.3022H100.464C101.972 60.3022 102.57 60.2502 102.726 60.2502C102.986 60.2502 103.012 60.2762 103.012 60.5362C103.012 60.6922 102.96 61.3942 102.96 62.8502V65.5802C102.96 67.0622 103.012 67.7382 103.012 67.8942C103.012 68.1542 102.986 68.1802 102.726 68.1802C102.57 68.1802 101.972 68.1282 100.464 68.1282H96.9795V70.3122H100.698C102.18 70.3122 102.908 70.2602 103.064 70.2602C103.35 70.2602 103.376 70.2862 103.376 70.5462C103.376 70.7022 103.324 71.4042 103.324 72.9642V76.8642C103.324 78.4242 103.376 79.0742 103.376 79.2302C103.376 79.4902 103.35 79.5162 103.064 79.5162H101.14C100.88 79.5162 100.854 79.4902 100.854 79.2302V78.3722H96.9795V79.7762C96.9795 80.0362 96.9535 80.0622 96.7195 80.0622H94.7435C94.4835 80.0622 94.4575 80.0362 94.4575 79.7762C94.4575 79.5942 94.5095 78.2682 94.5095 75.4082V64.9302C94.5095 62.1222 94.4575 60.7182 94.4575 60.5362C94.4575 60.2762 94.4835 60.2502 94.7435 60.2502C94.8995 60.2502 95.6275 60.3022 97.0055 60.3022C97.3435 59.5482 97.6035 58.8722 97.7855 58.3002C97.9155 57.8322 98.0455 57.3642 98.0975 56.7922C99.0335 56.8702 99.8655 57.0002 100.646 57.1302C100.88 57.1822 100.984 57.2862 100.984 57.4422C100.984 57.6242 100.906 57.6762 100.75 57.8582C100.568 58.0662 100.49 58.2482 100.386 58.5082C100.126 59.1062 99.8915 59.7042 99.6055 60.3022ZM100.854 72.7042H96.9795V75.9542H100.854V72.7042ZM100.49 65.7882V62.6682H96.9795V65.7882H100.49ZM132.26 66.2422H132.18C131.72 69.6422 130.88 72.7622 129.68 74.8622C128.82 76.3622 127.78 77.1622 126.28 77.1622C124.52 77.1622 122.74 75.2822 122.74 72.0222C122.74 70.1022 123.56 68.2622 125 66.8222C126.68 65.1422 128.8 64.2622 131.5 64.2622C136.3 64.2622 139.12 67.2222 139.12 71.2022C139.12 74.9222 137.02 77.2622 132.96 78.4822C132.54 78.6022 132.36 78.5222 132.1 78.1222C131.88 77.7822 131.46 77.3222 130.7 76.8622C134.08 76.0622 136.74 74.6622 136.74 70.8822C136.74 68.5022 134.94 66.2422 132.26 66.2422ZM129.86 66.3622C128.46 66.6422 127.34 67.2022 126.44 68.1822C125.48 69.2622 124.88 70.6022 124.88 71.8822C124.88 73.7222 125.62 74.7422 126.24 74.7422C126.76 74.7422 127.2 74.4822 127.74 73.5222C128.62 71.9022 129.52 69.0222 129.86 66.3622ZM149.9 67.1222H146.8C145.02 67.1222 144.42 67.1622 144.28 67.1622C144.08 67.1622 144.06 67.1422 144.06 66.9222V65.3022C144.06 65.0822 144.08 65.0622 144.28 65.0622C144.42 65.0622 145.02 65.1022 146.8 65.1022H151.7V63.8022C151.7 62.9422 151.66 62.3222 151.56 61.8422C152.28 61.8422 153.06 61.8822 153.74 61.9422C153.94 61.9622 154.06 62.0422 154.06 62.1622C154.06 62.3022 154 62.4222 153.94 62.5822C153.86 62.7422 153.82 63.0022 153.82 63.7422V65.1022H159.08C160.88 65.1022 161.48 65.0622 161.6 65.0622C161.78 65.0622 161.8 65.0822 161.8 65.3022V66.9222C161.8 67.1422 161.78 67.1622 161.6 67.1622C161.48 67.1622 160.88 67.1222 159.08 67.1222H152.16C152.14 68.0022 152.08 68.8222 152 69.5822H156.9C158.58 69.5822 159.14 69.5422 159.26 69.5422C159.46 69.5422 159.5 69.6022 159.5 69.8222C159.46 70.3422 159.44 70.8822 159.42 71.3822C159.26 74.3622 159.02 76.2222 158.76 77.3222C158.32 79.2222 157.54 79.8022 155.54 79.8022C155.18 79.8022 154.62 79.8022 153.96 79.7622C153.4 79.7222 153.4 79.6822 153.32 79.0422C153.24 78.4222 153.08 77.8422 152.88 77.5022C153.92 77.6422 154.82 77.6822 155.34 77.6822C156 77.6822 156.34 77.3622 156.52 76.6822C156.82 75.6822 157.04 73.8422 157.14 71.6022H151.7C150.94 75.3022 149.24 77.6422 145.84 79.6622C145.58 79.8022 145.46 79.8822 145.36 79.8822C145.22 79.8822 145.14 79.7422 144.96 79.4422C144.64 78.9422 144.22 78.5422 143.76 78.2222C148.36 75.9622 149.86 73.2022 149.9 67.1222ZM81.8195 98.0022H90.4995C90.4795 97.6822 90.4395 97.4422 90.3795 97.1022C91.1195 97.1222 91.8795 97.1422 92.4795 97.2422C92.6595 97.2622 92.7595 97.3622 92.7595 97.4622C92.7595 97.5622 92.7195 97.6422 92.6595 97.7622C92.6195 97.8422 92.5995 97.9022 92.5795 98.0022H94.2395C96.0195 98.0022 96.6195 97.9622 96.7395 97.9622C96.9395 97.9622 96.9395 97.9822 96.9395 98.1822V99.5022C96.9395 99.7222 96.9395 99.7422 96.7395 99.7422C96.6195 99.7422 96.0195 99.7022 94.2395 99.7022H92.5795V99.9822C92.5795 100.782 92.5995 101.402 92.5995 102.102C92.5995 102.862 92.3595 103.322 91.8595 103.582C91.4395 103.802 90.7995 103.942 89.1595 103.942C88.5595 103.942 88.5395 103.942 88.4195 103.482C88.2795 102.842 88.0595 102.282 87.8595 101.982C88.5795 102.042 89.2795 102.062 89.6795 102.062C90.2595 102.062 90.4995 101.882 90.4995 101.422V99.7022H81.8195C80.0395 99.7022 79.4395 99.7422 79.3195 99.7422C79.1195 99.7422 79.1195 99.7222 79.1195 99.5022V98.1822C79.1195 97.9822 79.1195 97.9622 79.3195 97.9622C79.4395 97.9622 80.0395 98.0022 81.8195 98.0022ZM91.5395 96.7822H84.4995C82.5395 96.7822 81.8395 96.8222 81.7195 96.8222C81.4995 96.8222 81.4795 96.8022 81.4795 96.6022C81.4795 96.4622 81.5195 95.9622 81.5195 94.8022V92.1622C81.5195 90.9422 81.4795 90.4422 81.4795 90.3022C81.4795 90.1022 81.4995 90.0822 81.7195 90.0822C81.8395 90.0822 82.5395 90.1222 84.4995 90.1222H86.8595V89.0822H82.1195C80.3195 89.0822 79.6995 89.1222 79.5795 89.1222C79.3795 89.1222 79.3595 89.1022 79.3595 88.9022V87.6022C79.3595 87.3822 79.3795 87.3622 79.5795 87.3622C79.6995 87.3622 80.3195 87.4022 82.1195 87.4022H86.8595C86.8395 86.6822 86.8195 86.2022 86.7395 85.7022C87.4395 85.7222 88.1195 85.7622 88.7995 85.8422C88.9795 85.8622 89.0595 85.9222 89.0595 86.0422C89.0595 86.2022 88.9995 86.3022 88.9595 86.4422C88.8995 86.5822 88.8595 86.8222 88.8595 87.4022H93.9395C95.7595 87.4022 96.3795 87.3622 96.4995 87.3622C96.6995 87.3622 96.7195 87.3822 96.7195 87.6022V88.9022C96.7195 89.1022 96.6995 89.1222 96.4995 89.1222C96.3795 89.1222 95.7595 89.0822 93.9395 89.0822H88.8595V90.1222H91.5395C93.4995 90.1222 94.1995 90.0822 94.3395 90.0822C94.5395 90.0822 94.5595 90.1022 94.5595 90.3022C94.5595 90.4222 94.5195 90.9422 94.5195 92.1022V94.8022C94.5195 95.9622 94.5595 96.4822 94.5595 96.6022C94.5595 96.8022 94.5395 96.8222 94.3395 96.8222C94.1995 96.8222 93.4995 96.7822 91.5395 96.7822ZM92.5395 95.3422V94.1422H88.8595V95.3422H92.5395ZM92.5395 91.5822H88.8595V92.7422H92.5395V91.5822ZM83.4795 95.3422H86.8595V94.1422H83.4795V95.3422ZM83.4795 92.7422H86.8595V91.5822H83.4795V92.7422ZM83.0995 100.562L84.4395 99.9222C84.6795 99.8022 84.7195 99.8222 84.8795 99.9622C85.5395 100.602 86.2195 101.382 86.7395 102.162C86.8595 102.342 86.8195 102.402 86.5795 102.522L85.1795 103.262C84.9395 103.402 84.8995 103.422 84.7795 103.222C84.2595 102.342 83.6395 101.562 82.9995 100.922C82.8395 100.742 82.8795 100.682 83.0995 100.562ZM117.92 90.1422V99.0022C117.92 99.9222 117.96 100.942 117.96 101.762C117.96 102.502 117.76 103.002 117.3 103.382C116.92 103.722 116.32 103.902 114.66 103.902C114.04 103.902 114.04 103.902 113.92 103.322C113.78 102.682 113.6 102.222 113.36 101.802C114.18 101.862 114.56 101.882 115.22 101.882C115.68 101.882 115.86 101.682 115.86 101.222V97.9022H111.16V100.282C111.16 102.222 111.2 103.122 111.2 103.242C111.2 103.442 111.18 103.462 110.98 103.462H109.26C109.06 103.462 109.04 103.442 109.04 103.242C109.04 103.102 109.08 102.222 109.08 100.282V97.9022H104.52C104.24 100.382 103.7 101.922 102.78 103.442C102.62 103.722 102.52 103.842 102.42 103.842C102.32 103.842 102.22 103.742 102 103.522C101.52 103.042 101.06 102.742 100.58 102.502C102.04 100.622 102.64 98.2422 102.64 93.4222V90.1422C102.64 88.0622 102.6 86.9822 102.6 86.8622C102.6 86.6422 102.62 86.6222 102.84 86.6222C102.96 86.6222 103.66 86.6622 105.58 86.6622H114.98C116.92 86.6622 117.6 86.6222 117.74 86.6222C117.94 86.6222 117.96 86.6422 117.96 86.8622C117.96 86.9822 117.92 88.0622 117.92 90.1422ZM111.16 96.0422H115.86V93.2222H111.16V96.0422ZM115.86 88.5822H111.16V91.3622H115.86V88.5822ZM104.66 96.0422H109.08V93.2222H104.72V93.4422C104.72 94.4022 104.7 95.2622 104.66 96.0422ZM104.72 91.3622H109.08V88.5822H104.72V91.3622Z" fill="#06C755"/>
</svg>
