<svg width="37" height="37" viewBox="0 0 37 37" fill="none" xmlns="http://www.w3.org/2000/svg">
<g clip-path="url(#clip0_1591_49070)">
<path d="M29.8952 34.8508L26.5679 25.6008C26.3645 25.034 25.8971 24.6666 25.3792 24.6666H21.8265C24.0649 21.027 26.1194 16.5514 26.1194 12.3333C26.1194 5.53287 21.477 0 15.771 0C10.065 0 5.42257 5.53287 5.42257 12.3334C5.42257 16.5514 7.47707 21.0271 9.71541 24.6667H6.16281C5.64486 24.6667 5.17749 25.034 4.97412 25.6009L1.64677 34.8509C1.47499 35.3274 1.51665 35.8747 1.75543 36.3068C1.99542 36.7396 2.40095 37.0001 2.83552 37.0001H28.7066C29.1412 37.0001 29.5466 36.7396 29.7867 36.3068C30.0253 35.8746 30.067 35.3273 29.8952 34.8508ZM15.771 6.16664C18.6246 6.16664 20.9451 8.93304 20.9451 12.3333C20.9451 15.7336 18.6246 18.5 15.771 18.5C12.9173 18.5 10.5968 15.7336 10.5968 12.3334C10.5968 8.93312 12.9173 6.16664 15.771 6.16664ZM4.79724 33.9166L7.01546 27.75H11.7728C13.6124 30.2967 15.179 32.0054 15.3377 32.1763C15.4615 32.3087 15.6156 32.375 15.771 32.375C15.9264 32.375 16.0805 32.3087 16.2043 32.1763C16.363 32.0054 17.9295 30.2967 19.7692 27.75H24.5265L26.7447 33.9166H4.79724Z" fill="#98D936"/>
</g>
<defs>
<clipPath id="clip0_1591_49070">
<rect width="37" height="37" fill="white"/>
</clipPath>
</defs>
</svg>
