<svg width="16" height="17" viewBox="0 0 16 17" fill="none" xmlns="http://www.w3.org/2000/svg">
<path d="M2.14645 3.35355C1.95118 3.15829 1.95118 2.84171 2.14645 2.64645C2.34171 2.45118 2.65829 2.45118 2.85355 2.64645L8 7.79289L13.1464 2.64645C13.3417 2.45118 13.6583 2.45118 13.8536 2.64645C14.0488 2.84171 14.0488 3.15829 13.8536 3.35355L8.70711 8.5L13.8536 13.6464C14.0488 13.8417 14.0488 14.1583 13.8536 14.3536C13.6583 14.5488 13.3417 14.5488 13.1464 14.3536L8 9.20711L2.85355 14.3536C2.65829 14.5488 2.34171 14.5488 2.14645 14.3536C1.95119 14.1583 1.95119 13.8417 2.14645 13.6464L7.29289 8.5L2.14645 3.35355Z" fill="black"/>
</svg>
