<svg width="52" height="53" viewBox="0 0 52 53" fill="none" xmlns="http://www.w3.org/2000/svg">
<g clip-path="url(#clip0_1591_56180)">
<path d="M47.6846 32.6953C48.4098 31.8859 48.8516 30.8174 48.8516 29.6484C48.8516 27.1287 46.801 25.0781 44.2812 25.0781H35.4108C36.2893 22.4121 36.6641 18.8747 36.6641 17.3584V15.8359C36.6641 12.4762 33.93 9.74219 30.5703 9.74219H29.0469C28.3481 9.74219 27.7388 10.2175 27.5691 10.8959L26.7394 14.216C25.5765 18.8655 21.8847 23.9955 18.0639 24.9278C17.3946 23.2338 15.7422 22.0312 13.8125 22.0312H4.67188C3.83094 22.0312 3.14844 22.7137 3.14844 23.5547V50.9766C3.14844 51.8175 3.83094 52.5 4.67188 52.5H13.8125C15.6295 52.5 17.2016 51.4346 17.938 49.8949L23.1725 51.6398C24.8838 52.2105 26.6673 52.5 28.472 52.5H41.2344C43.7541 52.5 45.8047 50.4495 45.8047 47.9297C45.8047 47.3355 45.6909 46.7668 45.4837 46.2458C47.4216 45.7166 48.8516 43.9403 48.8516 41.8359C48.8516 40.667 48.4098 39.5985 47.6846 38.7891C48.4098 37.9796 48.8516 36.9112 48.8516 35.7422C48.8516 34.5732 48.4098 33.5048 47.6846 32.6953ZM15.3359 47.9297C15.3359 48.7696 14.6524 49.4531 13.8125 49.4531H6.19531V25.0781H13.8125C14.6524 25.0781 15.3359 25.7616 15.3359 26.6016V47.9297ZM41.2344 34.2188H44.2812C45.1212 34.2188 45.8047 34.9023 45.8047 35.7422C45.8047 36.5821 45.1212 37.2656 44.2812 37.2656H41.2344C40.3934 37.2656 39.7109 37.9481 39.7109 38.7891C39.7109 39.63 40.3934 40.3125 41.2344 40.3125H44.2812C45.1212 40.3125 45.8047 40.996 45.8047 41.8359C45.8047 42.6759 45.1212 43.3594 44.2812 43.3594H41.2344C40.3934 43.3594 39.7109 44.0419 39.7109 44.8828C39.7109 45.7238 40.3934 46.4062 41.2344 46.4062C42.0743 46.4062 42.7578 47.0898 42.7578 47.9297C42.7578 48.7696 42.0743 49.4531 41.2344 49.4531H28.472C26.9953 49.4531 25.5359 49.2165 24.1353 48.7493L18.3828 46.8318V27.9808C20.7726 27.5268 23.1116 26.0135 25.223 23.5364C27.2848 21.1172 28.9565 17.9098 29.6948 14.9554L30.2362 12.7891H30.5703C32.2502 12.7891 33.6172 14.1561 33.6172 15.8359V17.3584C33.6172 19.4038 32.9773 23.3272 32.1588 25.0781H29.0469C28.2059 25.0781 27.5234 25.7606 27.5234 26.6016C27.5234 27.4425 28.2059 28.125 29.0469 28.125H44.2812C45.1212 28.125 45.8047 28.8085 45.8047 29.6484C45.8047 30.4884 45.1212 31.1719 44.2812 31.1719H41.2344C40.3934 31.1719 39.7109 31.8544 39.7109 32.6953C39.7109 33.5362 40.3934 34.2188 41.2344 34.2188Z" fill="#BFE781"/>
<path d="M10.7656 46.4062C11.607 46.4062 12.2891 45.7242 12.2891 44.8828C12.2891 44.0414 11.607 43.3594 10.7656 43.3594C9.92425 43.3594 9.24219 44.0414 9.24219 44.8828C9.24219 45.7242 9.92425 46.4062 10.7656 46.4062Z" fill="#BFE781"/>
<path d="M32.0938 0.5C31.2524 0.5 30.5703 1.18209 30.5703 2.02344V5.17188C30.5703 6.01322 31.2524 6.69531 32.0938 6.69531C32.9351 6.69531 33.6172 6.01322 33.6172 5.17188V2.02344C33.6172 1.18209 32.9351 0.5 32.0938 0.5Z" fill="#BFE781"/>
<path d="M25.6303 7.21785L23.4759 5.0634C22.8811 4.46845 21.9164 4.46845 21.3215 5.0634C20.7265 5.65836 20.7265 6.62289 21.3215 7.21785L23.4759 9.37229C24.0708 9.96714 25.0355 9.96725 25.6303 9.37229C26.2253 8.77734 26.2253 7.8128 25.6303 7.21785Z" fill="#BFE781"/>
<path d="M42.8661 5.0634C42.2712 4.46845 41.3066 4.46845 40.7116 5.0634L38.5572 7.21775C37.9622 7.8127 37.9622 8.77724 38.5572 9.37219C39.152 9.96714 40.1167 9.96725 40.7116 9.37229L42.8661 7.21785C43.461 6.62289 43.461 5.65836 42.8661 5.0634Z" fill="#BFE781"/>
</g>
<defs>
<clipPath id="clip0_1591_56180">
<rect width="52" height="52" fill="white" transform="translate(0 0.5)"/>
</clipPath>
</defs>
</svg>
