<svg width="271" height="243" viewBox="0 0 271 243" fill="none" xmlns="http://www.w3.org/2000/svg">
<g opacity="0.6">
<path d="M266.164 40.7233L232.66 24.9886L215.563 3H204.839L199.864 33.0358H187.819V67.7941H200.27V52.9175H209.284L228.256 71.1137L266.164 40.7233Z" fill="#BFE781" stroke="white" stroke-width="5"/>
<path d="M10.78 226.334H4.29492V240.409H10.78V226.334Z" fill="#FFC58C" stroke="white" stroke-width="5"/>
<path d="M43.3881 104.414H36.9717V111.9H43.3881V104.414Z" fill="#FFE224" stroke="white" stroke-width="5"/>
<path d="M0.835938 139.772H55.8331L84.3759 116.397V67.8887" stroke="#C2C2C2"/>
<path d="M75.0344 192.848L56.2832 199.646V218.567H76.7713L80.7332 213.834H86.5451L90.2244 218.567H101.638V192.848H75.0344Z" fill="#FCD8DE" stroke="white" stroke-width="5"/>
<path d="M216.91 84.5988V74.3984H208.02V84.5988H197.84V74.3984H187.84V112.25L187.819 112.266V146.88H221.719V96.9728L216.91 84.5988Z" fill="#9BF3CE" stroke="white" stroke-width="5"/>
<path d="M105.528 198.204H110.996V193.281H105.528V198.204Z" fill="#DCAFFF" stroke="white" stroke-width="5"/>
<path d="M96.6777 163.221V188.596H115.461V218.565H137.131V187.121H139.634V163.221H96.6777Z" fill="#DCAFFF" stroke="white" stroke-width="5"/>
<path d="M172.876 117.568H163.678L157.357 122.491H166.556L172.876 117.568Z" fill="#A1CEFF" stroke="white" stroke-width="5"/>
<path d="M64.8494 163.221L56.2832 173.55V188.596H96.6771V163.221H64.8494Z" fill="#FFB3E9" stroke="white" stroke-width="5"/>
<path d="M221.719 146.879H178.878V167.531H187.516V184.998H203.225V176.797H209.69V196.724L221.719 187.315V146.879Z" fill="#7598FF" stroke="white" stroke-width="5"/>
<path d="M49.4077 174.006H30.5229H16.9824V189.479H23.5086V183.862H27.1211V239.047L37.4448 234.442V228.168L42.4242 226.246V231.282L49.4077 226.858V174.006Z" fill="#FFC58C" stroke="white" stroke-width="5"/>
<path fill-rule="evenodd" clip-rule="evenodd" d="M150.61 141.788L187.82 112.266V146.88H178.878V167.533H187.516V184.999H192.84V198.478H181.139V190.749H172.234L167.383 198.478H144.217V187.122H139.634V163.221V163.221H114.906L132.409 148.144V133.514H142.969V141.788H150.61Z" fill="#A1CEFF"/>
<path d="M187.82 112.266H190.32V107.091L186.266 110.307L187.82 112.266ZM150.61 141.788V144.288H151.481L152.164 143.746L150.61 141.788ZM187.82 146.88V149.38H190.32V146.88H187.82ZM178.878 146.88V144.38H176.378V146.88H178.878ZM178.878 167.533H176.378V170.033H178.878V167.533ZM187.516 167.533H190.016V165.033H187.516V167.533ZM187.516 184.999H185.016V187.499H187.516V184.999ZM192.84 184.999H195.34V182.499H192.84V184.999ZM192.84 198.478V200.978H195.34V198.478H192.84ZM181.139 198.478H178.639V200.978H181.139V198.478ZM181.139 190.749H183.639V188.249H181.139V190.749ZM172.234 190.749V188.249H170.851L170.116 189.42L172.234 190.749ZM167.383 198.478V200.978H168.765L169.5 199.807L167.383 198.478ZM144.217 198.478H141.717V200.978H144.217V198.478ZM144.217 187.122H146.717V184.622H144.217V187.122ZM139.634 187.122H137.134V189.622H139.634V187.122ZM139.634 163.221H142.134V160.721H139.634V163.221ZM114.906 163.221L113.275 161.327L108.174 165.721H114.906V163.221ZM132.409 148.144L134.04 150.038L134.909 149.29V148.144H132.409ZM132.409 133.514V131.014H129.909V133.514H132.409ZM142.969 133.514H145.469V131.014H142.969V133.514ZM142.969 141.788H140.469V144.288H142.969V141.788ZM186.266 110.307L149.056 139.829L152.164 143.746L189.373 114.224L186.266 110.307ZM190.32 146.88V112.266H185.32V146.88H190.32ZM178.878 149.38H187.82V144.38H178.878V149.38ZM181.378 167.533V146.88H176.378V167.533H181.378ZM187.516 165.033H178.878V170.033H187.516V165.033ZM190.016 184.999V167.533H185.016V184.999H190.016ZM192.84 182.499H187.516V187.499H192.84V182.499ZM195.34 198.478V184.999H190.34V198.478H195.34ZM181.139 200.978H192.84V195.978H181.139V200.978ZM178.639 190.749V198.478H183.639V190.749H178.639ZM172.234 193.249H181.139V188.249H172.234V193.249ZM169.5 199.807L174.351 192.079L170.116 189.42L165.265 197.149L169.5 199.807ZM144.217 200.978H167.383V195.978H144.217V200.978ZM141.717 187.122V198.478H146.717V187.122H141.717ZM139.634 189.622H144.217V184.622H139.634V189.622ZM137.134 163.221V187.122H142.134V163.221H137.134ZM137.134 163.221V163.221H142.134V163.221H137.134ZM114.906 165.721H139.634V160.721H114.906V165.721ZM130.777 146.25L113.275 161.327L116.538 165.115L134.04 150.038L130.777 146.25ZM129.909 133.514V148.144H134.909V133.514H129.909ZM142.969 131.014H132.409V136.014H142.969V131.014ZM145.469 141.788V133.514H140.469V141.788H145.469ZM150.61 139.288H142.969V144.288H150.61V139.288Z" fill="white"/>
</g>
</svg>
