<svg width="213" height="79" viewBox="0 0 213 79" fill="none" xmlns="http://www.w3.org/2000/svg">
<mask id="path-1-outside-1_5900_45099" maskUnits="userSpaceOnUse" x="0" y="0" width="213" height="79" fill="black">
<rect fill="white" width="213" height="79"/>
<path d="M90.4316 4.0166V19.0459H93.2881V21.873H90.4316V27.0586H86.9746V21.873H78.2441V19.2217L85.6855 4.0166H90.4316ZM86.9746 19.0459V14.0068C86.9746 12.4053 87.0332 10.0664 87.1504 6.99023H86.7402C86.0566 8.78711 85.207 10.7842 84.1914 12.9814L81.3643 19.0459H86.9746ZM106.015 3.78223C108.554 3.78223 110.409 4.8125 111.581 6.87305C112.665 8.79687 113.207 11.6875 113.207 15.5449C113.207 19.959 112.499 23.1328 111.083 25.0664C109.901 26.6777 108.188 27.4834 105.941 27.4834C103.373 27.4834 101.513 26.4336 100.36 24.334C99.3057 22.4004 98.7783 19.4902 98.7783 15.6035C98.7783 11.209 99.4912 8.05469 100.917 6.14062C102.089 4.56836 103.788 3.78223 106.015 3.78223ZM106.015 6.74121C104.726 6.74121 103.837 7.45898 103.349 8.89453C102.88 10.2422 102.646 12.4639 102.646 15.5596C102.646 19.1045 102.938 21.5312 103.524 22.8398C104.013 23.9531 104.818 24.5098 105.941 24.5098C107.26 24.5098 108.168 23.7627 108.666 22.2686C109.115 20.9111 109.34 18.6748 109.34 15.5596C109.34 12.0342 109.047 9.63672 108.461 8.36719C107.973 7.2832 107.157 6.74121 106.015 6.74121ZM130.826 4.0166V19.0459H133.683V21.873H130.826V27.0586H127.369V21.873H118.639V19.2217L126.08 4.0166H130.826ZM127.369 19.0459V14.0068C127.369 12.4053 127.428 10.0664 127.545 6.99023H127.135C126.451 8.78711 125.602 10.7842 124.586 12.9814L121.759 19.0459H127.369ZM21.6953 51.7822V75.0586H16.7441L11.1045 63.0615C9.90332 60.4736 8.79004 57.9102 7.76465 55.3711H7.35449C7.49121 57.9492 7.55957 60.752 7.55957 63.7793V75.0586H3.83887V51.7822H9.93262L14.7666 62.0947C15.958 64.7314 16.9883 67.3926 17.8574 70.0781H18.2676C18.0723 66.9141 17.9746 64.0723 17.9746 61.5527V51.7822H21.6953ZM38.9775 51.3867C42.2295 51.3867 44.749 52.5684 46.5361 54.9316C48.1377 57.0508 48.9385 59.8779 48.9385 63.4131C48.9385 67.4658 47.8984 70.5762 45.8184 72.7441C44.0605 74.5898 41.7705 75.5127 38.9482 75.5127C35.6963 75.5127 33.1768 74.3262 31.3896 71.9531C29.7881 69.834 28.9873 67.0117 28.9873 63.4863C28.9873 59.4336 30.0322 56.3184 32.1221 54.1406C33.8799 52.3047 36.165 51.3867 38.9775 51.3867ZM38.9775 54.5068C37.0928 54.5068 35.6523 55.3516 34.6562 57.041C33.7383 58.5938 33.2793 60.7324 33.2793 63.457C33.2793 66.5527 33.8701 68.8818 35.0518 70.4443C36.0381 71.7432 37.3467 72.3926 38.9775 72.3926C40.8525 72.3926 42.2881 71.543 43.2842 69.8438C44.1924 68.291 44.6465 66.1621 44.6465 63.457C44.6465 60.3418 44.0605 58.0078 42.8887 56.4551C41.9121 55.1562 40.6084 54.5068 38.9775 54.5068ZM71.9775 51.7822V55.0488H65.0488V75.0586H60.9619V55.0488H54.0918V51.7822H71.9775ZM105.59 51.7822V54.9902H94.3398V61.2598H102.851V64.4678H94.3398V75.0586H90.2529V51.7822H105.59ZM120.704 51.3867C123.956 51.3867 126.476 52.5684 128.263 54.9316C129.864 57.0508 130.665 59.8779 130.665 63.4131C130.665 67.4658 129.625 70.5762 127.545 72.7441C125.787 74.5898 123.497 75.5127 120.675 75.5127C117.423 75.5127 114.903 74.3262 113.116 71.9531C111.515 69.834 110.714 67.0117 110.714 63.4863C110.714 59.4336 111.759 56.3184 113.849 54.1406C115.606 52.3047 117.892 51.3867 120.704 51.3867ZM120.704 54.5068C118.819 54.5068 117.379 55.3516 116.383 57.041C115.465 58.5938 115.006 60.7324 115.006 63.457C115.006 66.5527 115.597 68.8818 116.778 70.4443C117.765 71.7432 119.073 72.3926 120.704 72.3926C122.579 72.3926 124.015 71.543 125.011 69.8438C125.919 68.291 126.373 66.1621 126.373 63.457C126.373 60.3418 125.787 58.0078 124.615 56.4551C123.639 55.1562 122.335 54.5068 120.704 54.5068ZM155.579 51.7822V67.0166C155.579 69.9463 154.681 72.1484 152.884 73.623C151.37 74.8633 149.339 75.4834 146.79 75.4834C143.831 75.4834 141.575 74.6826 140.022 73.0811C138.616 71.626 137.913 69.6045 137.913 67.0166V51.7822H141.956V66.958C141.956 70.5811 143.597 72.3926 146.878 72.3926C150.159 72.3926 151.8 70.5811 151.8 66.958V51.7822H155.579ZM181.973 51.7822V75.0586H177.021L171.382 63.0615C170.181 60.4736 169.067 57.9102 168.042 55.3711H167.632C167.769 57.9492 167.837 60.752 167.837 63.7793V75.0586H164.116V51.7822H170.21L175.044 62.0947C176.235 64.7314 177.266 67.3926 178.135 70.0781H178.545C178.35 66.9141 178.252 64.0723 178.252 61.5527V51.7822H181.973ZM190.554 51.7822H198.347C202.136 51.7822 204.973 52.8467 206.857 54.9756C208.566 56.9189 209.421 59.6826 209.421 63.2666C209.421 67.3486 208.22 70.4199 205.817 72.4805C203.815 74.1992 201.145 75.0586 197.805 75.0586H190.554V51.7822ZM194.567 54.9023V71.9385H197.717C200.236 71.9385 202.121 71.1572 203.371 69.5947C204.543 68.1396 205.129 66.04 205.129 63.2959C205.129 57.7002 202.727 54.9023 197.922 54.9023H194.567Z"/>
</mask>
<path d="M90.4316 4.0166V19.0459H93.2881V21.873H90.4316V27.0586H86.9746V21.873H78.2441V19.2217L85.6855 4.0166H90.4316ZM86.9746 19.0459V14.0068C86.9746 12.4053 87.0332 10.0664 87.1504 6.99023H86.7402C86.0566 8.78711 85.207 10.7842 84.1914 12.9814L81.3643 19.0459H86.9746ZM106.015 3.78223C108.554 3.78223 110.409 4.8125 111.581 6.87305C112.665 8.79687 113.207 11.6875 113.207 15.5449C113.207 19.959 112.499 23.1328 111.083 25.0664C109.901 26.6777 108.188 27.4834 105.941 27.4834C103.373 27.4834 101.513 26.4336 100.36 24.334C99.3057 22.4004 98.7783 19.4902 98.7783 15.6035C98.7783 11.209 99.4912 8.05469 100.917 6.14062C102.089 4.56836 103.788 3.78223 106.015 3.78223ZM106.015 6.74121C104.726 6.74121 103.837 7.45898 103.349 8.89453C102.88 10.2422 102.646 12.4639 102.646 15.5596C102.646 19.1045 102.938 21.5312 103.524 22.8398C104.013 23.9531 104.818 24.5098 105.941 24.5098C107.26 24.5098 108.168 23.7627 108.666 22.2686C109.115 20.9111 109.34 18.6748 109.34 15.5596C109.34 12.0342 109.047 9.63672 108.461 8.36719C107.973 7.2832 107.157 6.74121 106.015 6.74121ZM130.826 4.0166V19.0459H133.683V21.873H130.826V27.0586H127.369V21.873H118.639V19.2217L126.08 4.0166H130.826ZM127.369 19.0459V14.0068C127.369 12.4053 127.428 10.0664 127.545 6.99023H127.135C126.451 8.78711 125.602 10.7842 124.586 12.9814L121.759 19.0459H127.369ZM21.6953 51.7822V75.0586H16.7441L11.1045 63.0615C9.90332 60.4736 8.79004 57.9102 7.76465 55.3711H7.35449C7.49121 57.9492 7.55957 60.752 7.55957 63.7793V75.0586H3.83887V51.7822H9.93262L14.7666 62.0947C15.958 64.7314 16.9883 67.3926 17.8574 70.0781H18.2676C18.0723 66.9141 17.9746 64.0723 17.9746 61.5527V51.7822H21.6953ZM38.9775 51.3867C42.2295 51.3867 44.749 52.5684 46.5361 54.9316C48.1377 57.0508 48.9385 59.8779 48.9385 63.4131C48.9385 67.4658 47.8984 70.5762 45.8184 72.7441C44.0605 74.5898 41.7705 75.5127 38.9482 75.5127C35.6963 75.5127 33.1768 74.3262 31.3896 71.9531C29.7881 69.834 28.9873 67.0117 28.9873 63.4863C28.9873 59.4336 30.0322 56.3184 32.1221 54.1406C33.8799 52.3047 36.165 51.3867 38.9775 51.3867ZM38.9775 54.5068C37.0928 54.5068 35.6523 55.3516 34.6562 57.041C33.7383 58.5938 33.2793 60.7324 33.2793 63.457C33.2793 66.5527 33.8701 68.8818 35.0518 70.4443C36.0381 71.7432 37.3467 72.3926 38.9775 72.3926C40.8525 72.3926 42.2881 71.543 43.2842 69.8438C44.1924 68.291 44.6465 66.1621 44.6465 63.457C44.6465 60.3418 44.0605 58.0078 42.8887 56.4551C41.9121 55.1562 40.6084 54.5068 38.9775 54.5068ZM71.9775 51.7822V55.0488H65.0488V75.0586H60.9619V55.0488H54.0918V51.7822H71.9775ZM105.59 51.7822V54.9902H94.3398V61.2598H102.851V64.4678H94.3398V75.0586H90.2529V51.7822H105.59ZM120.704 51.3867C123.956 51.3867 126.476 52.5684 128.263 54.9316C129.864 57.0508 130.665 59.8779 130.665 63.4131C130.665 67.4658 129.625 70.5762 127.545 72.7441C125.787 74.5898 123.497 75.5127 120.675 75.5127C117.423 75.5127 114.903 74.3262 113.116 71.9531C111.515 69.834 110.714 67.0117 110.714 63.4863C110.714 59.4336 111.759 56.3184 113.849 54.1406C115.606 52.3047 117.892 51.3867 120.704 51.3867ZM120.704 54.5068C118.819 54.5068 117.379 55.3516 116.383 57.041C115.465 58.5938 115.006 60.7324 115.006 63.457C115.006 66.5527 115.597 68.8818 116.778 70.4443C117.765 71.7432 119.073 72.3926 120.704 72.3926C122.579 72.3926 124.015 71.543 125.011 69.8438C125.919 68.291 126.373 66.1621 126.373 63.457C126.373 60.3418 125.787 58.0078 124.615 56.4551C123.639 55.1562 122.335 54.5068 120.704 54.5068ZM155.579 51.7822V67.0166C155.579 69.9463 154.681 72.1484 152.884 73.623C151.37 74.8633 149.339 75.4834 146.79 75.4834C143.831 75.4834 141.575 74.6826 140.022 73.0811C138.616 71.626 137.913 69.6045 137.913 67.0166V51.7822H141.956V66.958C141.956 70.5811 143.597 72.3926 146.878 72.3926C150.159 72.3926 151.8 70.5811 151.8 66.958V51.7822H155.579ZM181.973 51.7822V75.0586H177.021L171.382 63.0615C170.181 60.4736 169.067 57.9102 168.042 55.3711H167.632C167.769 57.9492 167.837 60.752 167.837 63.7793V75.0586H164.116V51.7822H170.21L175.044 62.0947C176.235 64.7314 177.266 67.3926 178.135 70.0781H178.545C178.35 66.9141 178.252 64.0723 178.252 61.5527V51.7822H181.973ZM190.554 51.7822H198.347C202.136 51.7822 204.973 52.8467 206.857 54.9756C208.566 56.9189 209.421 59.6826 209.421 63.2666C209.421 67.3486 208.22 70.4199 205.817 72.4805C203.815 74.1992 201.145 75.0586 197.805 75.0586H190.554V51.7822ZM194.567 54.9023V71.9385H197.717C200.236 71.9385 202.121 71.1572 203.371 69.5947C204.543 68.1396 205.129 66.04 205.129 63.2959C205.129 57.7002 202.727 54.9023 197.922 54.9023H194.567Z" fill="white"/>
<path d="M90.4316 4.0166H93.4316C93.4316 2.35975 92.0885 1.0166 90.4316 1.0166V4.0166ZM90.4316 19.0459H87.4316C87.4316 20.7028 88.7748 22.0459 90.4316 22.0459V19.0459ZM93.2881 19.0459H96.2881C96.2881 17.389 94.9449 16.0459 93.2881 16.0459V19.0459ZM93.2881 21.873V24.873C94.9449 24.873 96.2881 23.5299 96.2881 21.873H93.2881ZM90.4316 21.873V18.873C88.7748 18.873 87.4316 20.2162 87.4316 21.873H90.4316ZM90.4316 27.0586V30.0586C92.0885 30.0586 93.4316 28.7154 93.4316 27.0586H90.4316ZM86.9746 27.0586H83.9746C83.9746 28.7154 85.3178 30.0586 86.9746 30.0586V27.0586ZM86.9746 21.873H89.9746C89.9746 20.2162 88.6315 18.873 86.9746 18.873V21.873ZM78.2441 21.873H75.2441C75.2441 23.5299 76.5873 24.873 78.2441 24.873V21.873ZM78.2441 19.2217L75.5495 17.9029C75.3486 18.3135 75.2441 18.7646 75.2441 19.2217H78.2441ZM85.6855 4.0166V1.0166C84.54 1.0166 83.4945 1.66894 82.9909 2.69785L85.6855 4.0166ZM86.9746 19.0459V22.0459C88.6315 22.0459 89.9746 20.7028 89.9746 19.0459H86.9746ZM87.1504 6.99023L90.1482 7.10444C90.1793 6.28957 89.8772 5.49717 89.3117 4.90968C88.7462 4.32219 87.9659 3.99023 87.1504 3.99023V6.99023ZM86.7402 6.99023V3.99023C85.4949 3.99023 84.3791 4.75958 83.9363 5.92352L86.7402 6.99023ZM84.1914 12.9814L86.9105 14.249L86.9146 14.2402L84.1914 12.9814ZM81.3643 19.0459L78.6452 17.7783C78.2121 18.7074 78.2833 19.7934 78.8342 20.6579C79.385 21.5225 80.3391 22.0459 81.3643 22.0459V19.0459ZM87.4316 4.0166V19.0459H93.4316V4.0166H87.4316ZM90.4316 22.0459H93.2881V16.0459H90.4316V22.0459ZM90.2881 19.0459V21.873H96.2881V19.0459H90.2881ZM93.2881 18.873H90.4316V24.873H93.2881V18.873ZM87.4316 21.873V27.0586H93.4316V21.873H87.4316ZM90.4316 24.0586H86.9746V30.0586H90.4316V24.0586ZM89.9746 27.0586V21.873H83.9746V27.0586H89.9746ZM86.9746 18.873H78.2441V24.873H86.9746V18.873ZM81.2441 21.873V19.2217H75.2441V21.873H81.2441ZM80.9387 20.5404L88.3801 5.33535L82.9909 2.69785L75.5495 17.9029L80.9387 20.5404ZM85.6855 7.0166H90.4316V1.0166H85.6855V7.0166ZM89.9746 19.0459V14.0068H83.9746V19.0459H89.9746ZM89.9746 14.0068C89.9746 12.4636 90.0314 10.1704 90.1482 7.10444L84.1526 6.87603C84.035 9.96244 83.9746 12.347 83.9746 14.0068H89.9746ZM87.1504 3.99023H86.7402V9.99023H87.1504V3.99023ZM83.9363 5.92352C83.2827 7.64143 82.4618 9.57321 81.4682 11.7227L86.9146 14.2402C87.9523 11.9951 88.8305 9.93279 89.5442 8.05695L83.9363 5.92352ZM81.4724 11.7139L78.6452 17.7783L84.0833 20.3135L86.9105 14.249L81.4724 11.7139ZM81.3643 22.0459H86.9746V16.0459H81.3643V22.0459ZM111.581 6.87305L114.195 5.40036L114.189 5.38996L111.581 6.87305ZM111.083 25.0664L113.502 26.8405L113.503 26.8389L111.083 25.0664ZM100.36 24.334L97.7267 25.7705L97.7304 25.7774L100.36 24.334ZM100.917 6.14062L98.5116 4.3478L98.5111 4.34849L100.917 6.14062ZM103.349 8.89453L106.182 9.88009C106.184 9.8736 106.187 9.8671 106.189 9.86059L103.349 8.89453ZM103.524 22.8398L106.272 21.6349C106.269 21.6278 106.266 21.6208 106.262 21.6138L103.524 22.8398ZM108.666 22.2686L111.512 23.2172L111.514 23.2111L108.666 22.2686ZM108.461 8.36719L105.726 9.59931C105.729 9.60768 105.733 9.61603 105.737 9.62436L108.461 8.36719ZM106.015 6.78223C107.569 6.78223 108.38 7.31226 108.973 8.35614L114.189 5.38996C112.439 2.31274 109.538 0.782227 106.015 0.782227V6.78223ZM108.967 8.34572C109.673 9.59852 110.207 11.8693 110.207 15.5449H116.207C116.207 11.5057 115.657 7.99523 114.195 5.40037L108.967 8.34572ZM110.207 15.5449C110.207 19.7873 109.498 22.1535 108.663 23.2939L113.503 26.8389C115.5 24.1121 116.207 20.1307 116.207 15.5449H110.207ZM108.664 23.2923C108.123 24.0291 107.368 24.4834 105.941 24.4834V30.4834C109.007 30.4834 111.679 29.3263 113.502 26.8405L108.664 23.2923ZM105.941 24.4834C105.069 24.4834 104.492 24.3076 104.094 24.0833C103.708 23.8653 103.331 23.5117 102.99 22.8906L97.7304 25.7774C98.5419 27.2559 99.6715 28.477 101.146 29.3088C102.609 30.1343 104.245 30.4834 105.941 30.4834V24.4834ZM102.994 22.8974C102.3 21.6242 101.778 19.3188 101.778 15.6035H95.7783C95.7783 19.6617 96.3118 23.1765 97.7267 25.7705L102.994 22.8974ZM101.778 15.6035C101.778 11.3823 102.492 9.04758 103.323 7.93276L98.5111 4.34849C96.49 7.0618 95.7783 11.0357 95.7783 15.6035H101.778ZM103.322 7.93345C103.846 7.23137 104.589 6.78223 106.015 6.78223V0.782227C102.988 0.782227 100.332 1.90535 98.5116 4.3478L103.322 7.93345ZM106.015 3.74121C104.777 3.74121 103.543 4.10065 102.496 4.94572C101.488 5.76001 100.877 6.84531 100.508 7.92848L106.189 9.86059C106.247 9.68911 106.297 9.60089 106.317 9.56864C106.336 9.53974 106.324 9.5672 106.266 9.61337C106.239 9.63568 106.206 9.65832 106.168 9.67883C106.13 9.69932 106.094 9.71448 106.062 9.72502C105.996 9.74674 105.972 9.74121 106.015 9.74121V3.74121ZM100.515 7.90897C99.8685 9.76799 99.6455 12.4273 99.6455 15.5596H105.646C105.646 12.5004 105.891 10.7164 106.182 9.88009L100.515 7.90897ZM99.6455 15.5596C99.6455 19.0799 99.9088 22.106 100.786 24.0658L106.262 21.6138C105.968 20.9565 105.646 19.1291 105.646 15.5596H99.6455ZM100.777 24.0448C101.191 24.9885 101.83 25.8976 102.79 26.5605C103.765 27.2342 104.863 27.5098 105.941 27.5098V21.5098C105.909 21.5098 105.931 21.5059 105.991 21.523C106.053 21.5411 106.128 21.5743 106.2 21.6241C106.354 21.7304 106.346 21.8045 106.272 21.6349L100.777 24.0448ZM105.941 27.5098C107.206 27.5098 108.461 27.1352 109.517 26.2663C110.532 25.4319 111.143 24.323 111.512 23.2172L105.82 21.3199C105.757 21.5083 105.702 21.6108 105.674 21.6546C105.649 21.6951 105.654 21.6747 105.706 21.6326C105.73 21.6122 105.761 21.5907 105.797 21.5708C105.833 21.5509 105.868 21.536 105.899 21.5255C105.963 21.5039 105.986 21.5098 105.941 21.5098V27.5098ZM111.514 23.2111C112.126 21.3626 112.34 18.7086 112.34 15.5596H106.34C106.34 18.641 106.105 20.4596 105.818 21.326L111.514 23.2111ZM112.34 15.5596C112.34 13.7251 112.264 12.114 112.098 10.7535C111.937 9.43581 111.67 8.16056 111.185 7.11001L105.737 9.62436C105.838 9.84334 106.01 10.4016 106.142 11.4813C106.269 12.5183 106.34 13.8687 106.34 15.5596H112.34ZM111.196 7.13507C110.77 6.1891 110.114 5.29391 109.144 4.64925C108.166 3.99946 107.076 3.74121 106.015 3.74121V9.74121C106.063 9.74121 106.056 9.74685 106.01 9.73411C105.96 9.72043 105.893 9.69279 105.823 9.64615C105.753 9.59996 105.711 9.55475 105.693 9.53248C105.677 9.51296 105.693 9.5272 105.726 9.59931L111.196 7.13507ZM130.826 4.0166H133.826C133.826 2.35975 132.483 1.0166 130.826 1.0166V4.0166ZM130.826 19.0459H127.826C127.826 20.7028 129.169 22.0459 130.826 22.0459V19.0459ZM133.683 19.0459H136.683C136.683 17.389 135.339 16.0459 133.683 16.0459V19.0459ZM133.683 21.873V24.873C135.339 24.873 136.683 23.5299 136.683 21.873H133.683ZM130.826 21.873V18.873C129.169 18.873 127.826 20.2162 127.826 21.873H130.826ZM130.826 27.0586V30.0586C132.483 30.0586 133.826 28.7154 133.826 27.0586H130.826ZM127.369 27.0586H124.369C124.369 28.7154 125.712 30.0586 127.369 30.0586V27.0586ZM127.369 21.873H130.369C130.369 20.2162 129.026 18.873 127.369 18.873V21.873ZM118.639 21.873H115.639C115.639 23.5299 116.982 24.873 118.639 24.873V21.873ZM118.639 19.2217L115.944 17.9029C115.743 18.3135 115.639 18.7646 115.639 19.2217H118.639ZM126.08 4.0166V1.0166C124.935 1.0166 123.889 1.66894 123.385 2.69785L126.08 4.0166ZM127.369 19.0459V22.0459C129.026 22.0459 130.369 20.7028 130.369 19.0459H127.369ZM127.545 6.99023L130.543 7.10444C130.574 6.28957 130.272 5.49717 129.706 4.90968C129.141 4.32219 128.36 3.99023 127.545 3.99023V6.99023ZM127.135 6.99023V3.99023C125.889 3.99023 124.774 4.75958 124.331 5.92352L127.135 6.99023ZM124.586 12.9814L127.305 14.249L127.309 14.2402L124.586 12.9814ZM121.759 19.0459L119.04 17.7783C118.607 18.7074 118.678 19.7934 119.229 20.6579C119.78 21.5225 120.734 22.0459 121.759 22.0459V19.0459ZM127.826 4.0166V19.0459H133.826V4.0166H127.826ZM130.826 22.0459H133.683V16.0459H130.826V22.0459ZM130.683 19.0459V21.873H136.683V19.0459H130.683ZM133.683 18.873H130.826V24.873H133.683V18.873ZM127.826 21.873V27.0586H133.826V21.873H127.826ZM130.826 24.0586H127.369V30.0586H130.826V24.0586ZM130.369 27.0586V21.873H124.369V27.0586H130.369ZM127.369 18.873H118.639V24.873H127.369V18.873ZM121.639 21.873V19.2217H115.639V21.873H121.639ZM121.333 20.5404L128.775 5.33535L123.385 2.69785L115.944 17.9029L121.333 20.5404ZM126.08 7.0166H130.826V1.0166H126.08V7.0166ZM130.369 19.0459V14.0068H124.369V19.0459H130.369ZM130.369 14.0068C130.369 12.4636 130.426 10.1704 130.543 7.10444L124.547 6.87603C124.43 9.96244 124.369 12.347 124.369 14.0068H130.369ZM127.545 3.99023H127.135V9.99023H127.545V3.99023ZM124.331 5.92352C123.677 7.64143 122.856 9.57321 121.863 11.7227L127.309 14.2402C128.347 11.9951 129.225 9.93279 129.939 8.05695L124.331 5.92352ZM121.867 11.7139L119.04 17.7783L124.478 20.3135L127.305 14.249L121.867 11.7139ZM121.759 22.0459H127.369V16.0459H121.759V22.0459ZM21.6953 51.7822H24.6953C24.6953 50.1254 23.3522 48.7822 21.6953 48.7822V51.7822ZM21.6953 75.0586V78.0586C23.3522 78.0586 24.6953 76.7154 24.6953 75.0586H21.6953ZM16.7441 75.0586L14.0292 76.3349C14.5237 77.387 15.5816 78.0586 16.7441 78.0586V75.0586ZM11.1045 63.0615L8.38333 64.3246C8.38538 64.329 8.38744 64.3334 8.38951 64.3378L11.1045 63.0615ZM7.76465 55.3711L10.5464 54.2477C10.0884 53.1136 8.98774 52.3711 7.76465 52.3711V55.3711ZM7.35449 55.3711V52.3711C6.53127 52.3711 5.74421 52.7094 5.17773 53.3067C4.61124 53.904 4.31511 54.7079 4.3587 55.53L7.35449 55.3711ZM7.55957 75.0586V78.0586C9.21642 78.0586 10.5596 76.7154 10.5596 75.0586H7.55957ZM3.83887 75.0586H0.838867C0.838867 76.7154 2.18201 78.0586 3.83887 78.0586V75.0586ZM3.83887 51.7822V48.7822C2.18201 48.7822 0.838867 50.1254 0.838867 51.7822H3.83887ZM9.93262 51.7822L12.649 50.5089C12.1551 49.4552 11.0963 48.7822 9.93262 48.7822V51.7822ZM14.7666 62.0947L17.5005 60.8594C17.4947 60.8467 17.4889 60.8341 17.483 60.8214L14.7666 62.0947ZM17.8574 70.0781L15.0032 71.0019C15.4038 72.2396 16.5565 73.0781 17.8574 73.0781V70.0781ZM18.2676 70.0781V73.0781C19.0953 73.0781 19.8863 72.7361 20.4533 72.1331C21.0203 71.53 21.3129 70.7195 21.2619 69.8933L18.2676 70.0781ZM17.9746 51.7822V48.7822C16.3178 48.7822 14.9746 50.1254 14.9746 51.7822H17.9746ZM18.6953 51.7822V75.0586H24.6953V51.7822H18.6953ZM21.6953 72.0586H16.7441V78.0586H21.6953V72.0586ZM19.4591 73.7823L13.8195 61.7852L8.38951 64.3378L14.0292 76.3349L19.4591 73.7823ZM13.8257 61.7985C12.645 59.2547 11.552 56.7378 10.5464 54.2477L4.98292 56.4945C6.02809 59.0825 7.16168 61.6926 8.38333 64.3246L13.8257 61.7985ZM7.76465 52.3711H7.35449V58.3711H7.76465V52.3711ZM4.3587 55.53C4.49219 58.0471 4.55957 60.7962 4.55957 63.7793H10.5596C10.5596 60.7077 10.4902 57.8513 10.3503 55.2122L4.3587 55.53ZM4.55957 63.7793V75.0586H10.5596V63.7793H4.55957ZM7.55957 72.0586H3.83887V78.0586H7.55957V72.0586ZM6.83887 75.0586V51.7822H0.838867V75.0586H6.83887ZM3.83887 54.7822H9.93262V48.7822H3.83887V54.7822ZM7.21624 53.0555L12.0502 63.368L17.483 60.8214L12.649 50.5089L7.21624 53.0555ZM12.0327 63.33C13.1794 65.8677 14.1692 68.4249 15.0032 71.0019L20.7117 69.1544C19.8074 66.3602 18.7366 63.5951 17.5005 60.8594L12.0327 63.33ZM17.8574 73.0781H18.2676V67.0781H17.8574V73.0781ZM21.2619 69.8933C21.0694 66.7759 20.9746 63.9973 20.9746 61.5527H14.9746C14.9746 64.1472 15.0751 67.0522 15.2733 70.263L21.2619 69.8933ZM20.9746 61.5527V51.7822H14.9746V61.5527H20.9746ZM17.9746 54.7822H21.6953V48.7822H17.9746V54.7822ZM46.5361 54.9316L48.9295 53.1228L48.929 53.1222L46.5361 54.9316ZM45.8184 72.7441L43.6536 70.6671L43.6459 70.6752L45.8184 72.7441ZM31.3896 71.9531L33.7861 70.1484L33.783 70.1443L31.3896 71.9531ZM32.1221 54.1406L34.2866 56.2178L34.289 56.2153L32.1221 54.1406ZM34.6562 57.041L37.2387 58.5677L37.2405 58.5647L34.6562 57.041ZM35.0518 70.4443L32.659 72.2539L32.6626 72.2587L35.0518 70.4443ZM43.2842 69.8438L45.8723 71.3609L45.8737 71.3584L43.2842 69.8438ZM42.8887 56.4551L40.4908 58.258L40.4941 58.2623L42.8887 56.4551ZM38.9775 54.3867C41.3951 54.3867 42.9841 55.2082 44.1433 56.7411L48.929 53.1222C46.514 49.9285 43.0638 48.3867 38.9775 48.3867V54.3867ZM44.1428 56.7405C45.2383 58.19 45.9385 60.316 45.9385 63.4131H51.9385C51.9385 59.4399 51.0371 55.9115 48.9295 53.1228L44.1428 56.7405ZM45.9385 63.4131C45.9385 66.9678 45.0329 69.2295 43.6536 70.6672L47.9831 74.8211C50.7639 71.9228 51.9385 67.9638 51.9385 63.4131H45.9385ZM43.6459 70.6752C42.5182 71.8593 41.0468 72.5127 38.9482 72.5127V78.5127C42.4942 78.5127 45.6029 77.3203 47.9908 74.8131L43.6459 70.6752ZM38.9482 72.5127C36.5355 72.5127 34.9472 71.6902 33.7861 70.1484L28.9932 73.7579C31.4063 76.9622 34.8571 78.5127 38.9482 78.5127V72.5127ZM33.783 70.1443C32.6865 68.6934 31.9873 66.5715 31.9873 63.4863H25.9873C25.9873 67.4519 26.8897 70.9745 28.9963 73.7619L33.783 70.1443ZM31.9873 63.4863C31.9873 59.9361 32.8954 57.6675 34.2866 56.2178L29.9575 52.0634C27.169 54.9692 25.9873 58.9311 25.9873 63.4863H31.9873ZM34.289 56.2153C35.4176 55.0365 36.887 54.3867 38.9775 54.3867V48.3867C35.443 48.3867 32.3421 49.5728 29.9551 52.0659L34.289 56.2153ZM38.9775 51.5068C35.979 51.5068 33.5806 52.9586 32.072 55.5173L37.2405 58.5647C37.7241 57.7446 38.2066 57.5068 38.9775 57.5068V51.5068ZM32.0738 55.5143C30.7772 57.7075 30.2793 60.449 30.2793 63.457H36.2793C36.2793 61.0159 36.6994 59.48 37.2387 58.5677L32.0738 55.5143ZM30.2793 63.457C30.2793 66.8528 30.9133 69.9456 32.659 72.2539L37.4446 68.6348C36.8269 67.8181 36.2793 66.2526 36.2793 63.457H30.2793ZM32.6626 72.2587C34.2161 74.3045 36.4087 75.3926 38.9775 75.3926V69.3926C38.2847 69.3926 37.86 69.1819 37.4409 68.63L32.6626 72.2587ZM38.9775 75.3926C41.9815 75.3926 44.371 73.9219 45.8723 71.3609L40.6961 68.3266C40.2051 69.1641 39.7236 69.3926 38.9775 69.3926V75.3926ZM45.8737 71.3584C47.1532 69.171 47.6465 66.4462 47.6465 63.457H41.6465C41.6465 65.8781 41.2316 67.4111 40.6946 68.3291L45.8737 71.3584ZM47.6465 63.457C47.6465 60.0529 47.0216 56.9512 45.2832 54.6479L40.4941 58.2623C41.0995 59.0645 41.6465 60.6307 41.6465 63.457H47.6465ZM45.2865 54.6522C43.7408 52.5964 41.5474 51.5068 38.9775 51.5068V57.5068C39.6694 57.5068 40.0834 57.7161 40.4908 58.258L45.2865 54.6522ZM71.9775 51.7822H74.9775C74.9775 50.1254 73.6344 48.7822 71.9775 48.7822V51.7822ZM71.9775 55.0488V58.0488C73.6344 58.0488 74.9775 56.7057 74.9775 55.0488H71.9775ZM65.0488 55.0488V52.0488C63.392 52.0488 62.0488 53.392 62.0488 55.0488H65.0488ZM65.0488 75.0586V78.0586C66.7057 78.0586 68.0488 76.7154 68.0488 75.0586H65.0488ZM60.9619 75.0586H57.9619C57.9619 76.7154 59.3051 78.0586 60.9619 78.0586V75.0586ZM60.9619 55.0488H63.9619C63.9619 53.392 62.6188 52.0488 60.9619 52.0488V55.0488ZM54.0918 55.0488H51.0918C51.0918 56.7057 52.4349 58.0488 54.0918 58.0488V55.0488ZM54.0918 51.7822V48.7822C52.4349 48.7822 51.0918 50.1254 51.0918 51.7822H54.0918ZM68.9775 51.7822V55.0488H74.9775V51.7822H68.9775ZM71.9775 52.0488H65.0488V58.0488H71.9775V52.0488ZM62.0488 55.0488V75.0586H68.0488V55.0488H62.0488ZM65.0488 72.0586H60.9619V78.0586H65.0488V72.0586ZM63.9619 75.0586V55.0488H57.9619V75.0586H63.9619ZM60.9619 52.0488H54.0918V58.0488H60.9619V52.0488ZM57.0918 55.0488V51.7822H51.0918V55.0488H57.0918ZM54.0918 54.7822H71.9775V48.7822H54.0918V54.7822ZM105.59 51.7822H108.59C108.59 50.1254 107.247 48.7822 105.59 48.7822V51.7822ZM105.59 54.9902V57.9902C107.247 57.9902 108.59 56.6471 108.59 54.9902H105.59ZM94.3398 54.9902V51.9902C92.683 51.9902 91.3398 53.3334 91.3398 54.9902H94.3398ZM94.3398 61.2598H91.3398C91.3398 62.9166 92.683 64.2598 94.3398 64.2598V61.2598ZM102.851 61.2598H105.851C105.851 59.6029 104.507 58.2598 102.851 58.2598V61.2598ZM102.851 64.4678V67.4678C104.507 67.4678 105.851 66.1246 105.851 64.4678H102.851ZM94.3398 64.4678V61.4678C92.683 61.4678 91.3398 62.8109 91.3398 64.4678H94.3398ZM94.3398 75.0586V78.0586C95.9967 78.0586 97.3398 76.7154 97.3398 75.0586H94.3398ZM90.2529 75.0586H87.2529C87.2529 76.7154 88.5961 78.0586 90.2529 78.0586V75.0586ZM90.2529 51.7822V48.7822C88.5961 48.7822 87.2529 50.1254 87.2529 51.7822H90.2529ZM102.59 51.7822V54.9902H108.59V51.7822H102.59ZM105.59 51.9902H94.3398V57.9902H105.59V51.9902ZM91.3398 54.9902V61.2598H97.3398V54.9902H91.3398ZM94.3398 64.2598H102.851V58.2598H94.3398V64.2598ZM99.8506 61.2598V64.4678H105.851V61.2598H99.8506ZM102.851 61.4678H94.3398V67.4678H102.851V61.4678ZM91.3398 64.4678V75.0586H97.3398V64.4678H91.3398ZM94.3398 72.0586H90.2529V78.0586H94.3398V72.0586ZM93.2529 75.0586V51.7822H87.2529V75.0586H93.2529ZM90.2529 54.7822H105.59V48.7822H90.2529V54.7822ZM128.263 54.9316L130.656 53.1228L130.656 53.1222L128.263 54.9316ZM127.545 72.7441L125.38 70.6671L125.373 70.6752L127.545 72.7441ZM113.116 71.9531L115.513 70.1484L115.51 70.1443L113.116 71.9531ZM113.849 54.1406L116.013 56.2178L116.016 56.2153L113.849 54.1406ZM116.383 57.041L118.965 58.5677L118.967 58.5647L116.383 57.041ZM116.778 70.4443L114.386 72.2539L114.389 72.2587L116.778 70.4443ZM125.011 69.8438L127.599 71.3609L127.6 71.3584L125.011 69.8438ZM124.615 56.4551L122.217 58.258L122.221 58.2623L124.615 56.4551ZM120.704 54.3867C123.122 54.3867 124.711 55.2082 125.87 56.7411L130.656 53.1222C128.241 49.9285 124.79 48.3867 120.704 48.3867V54.3867ZM125.869 56.7405C126.965 58.19 127.665 60.316 127.665 63.4131H133.665C133.665 59.4399 132.764 55.9115 130.656 53.1228L125.869 56.7405ZM127.665 63.4131C127.665 66.9678 126.759 69.2295 125.38 70.6672L129.71 74.8211C132.49 71.9228 133.665 67.9638 133.665 63.4131H127.665ZM125.373 70.6752C124.245 71.8593 122.773 72.5127 120.675 72.5127V78.5127C124.221 78.5127 127.329 77.3203 129.717 74.8131L125.373 70.6752ZM120.675 72.5127C118.262 72.5127 116.674 71.6902 115.513 70.1484L110.72 73.7579C113.133 76.9622 116.584 78.5127 120.675 78.5127V72.5127ZM115.51 70.1443C114.413 68.6934 113.714 66.5715 113.714 63.4863H107.714C107.714 67.4519 108.616 70.9745 110.723 73.7619L115.51 70.1443ZM113.714 63.4863C113.714 59.9361 114.622 57.6675 116.013 56.2178L111.684 52.0634C108.896 54.9692 107.714 58.9311 107.714 63.4863H113.714ZM116.016 56.2153C117.144 55.0365 118.614 54.3867 120.704 54.3867V48.3867C117.17 48.3867 114.069 49.5728 111.682 52.0659L116.016 56.2153ZM120.704 51.5068C117.706 51.5068 115.307 52.9586 113.799 55.5173L118.967 58.5647C119.451 57.7446 119.933 57.5068 120.704 57.5068V51.5068ZM113.8 55.5143C112.504 57.7075 112.006 60.449 112.006 63.457H118.006C118.006 61.0159 118.426 59.48 118.965 58.5677L113.8 55.5143ZM112.006 63.457C112.006 66.8528 112.64 69.9456 114.386 72.2539L119.171 68.6348C118.553 67.8181 118.006 66.2526 118.006 63.457H112.006ZM114.389 72.2587C115.943 74.3045 118.135 75.3926 120.704 75.3926V69.3926C120.011 69.3926 119.587 69.1819 119.167 68.63L114.389 72.2587ZM120.704 75.3926C123.708 75.3926 126.098 73.9219 127.599 71.3609L122.423 68.3266C121.932 69.1641 121.45 69.3926 120.704 69.3926V75.3926ZM127.6 71.3584C128.88 69.171 129.373 66.4462 129.373 63.457H123.373C123.373 65.8781 122.958 67.4111 122.421 68.3291L127.6 71.3584ZM129.373 63.457C129.373 60.0529 128.748 56.9512 127.01 54.6479L122.221 58.2623C122.826 59.0645 123.373 60.6307 123.373 63.457H129.373ZM127.013 54.6522C125.467 52.5964 123.274 51.5068 120.704 51.5068V57.5068C121.396 57.5068 121.81 57.7161 122.217 58.258L127.013 54.6522ZM155.579 51.7822H158.579C158.579 50.1254 157.236 48.7822 155.579 48.7822V51.7822ZM152.884 73.623L154.785 75.9436L154.787 75.9421L152.884 73.623ZM140.022 73.0811L137.865 75.1659L137.869 75.1693L140.022 73.0811ZM137.913 51.7822V48.7822C136.256 48.7822 134.913 50.1254 134.913 51.7822H137.913ZM141.956 51.7822H144.956C144.956 50.1254 143.613 48.7822 141.956 48.7822V51.7822ZM151.8 51.7822V48.7822C150.143 48.7822 148.8 50.1254 148.8 51.7822H151.8ZM152.579 51.7822V67.0166H158.579V51.7822H152.579ZM152.579 67.0166C152.579 69.3026 151.908 70.5431 150.981 71.304L154.787 75.9421C157.454 73.7538 158.579 70.59 158.579 67.0166H152.579ZM150.982 71.3025C150.149 71.9854 148.858 72.4834 146.79 72.4834V78.4834C149.82 78.4834 152.591 77.7411 154.785 75.9436L150.982 71.3025ZM146.79 72.4834C144.367 72.4834 142.997 71.8396 142.176 70.9928L137.869 75.1693C140.153 77.5256 143.295 78.4834 146.79 78.4834V72.4834ZM142.18 70.9962C141.453 70.2445 140.913 69.0528 140.913 67.0166H134.913C134.913 70.1562 135.779 73.0075 137.865 75.1659L142.18 70.9962ZM140.913 67.0166V51.7822H134.913V67.0166H140.913ZM137.913 54.7822H141.956V48.7822H137.913V54.7822ZM138.956 51.7822V66.958H144.956V51.7822H138.956ZM138.956 66.958C138.956 69.1625 139.449 71.3759 140.963 73.0478C142.528 74.7761 144.694 75.3926 146.878 75.3926V69.3926C145.781 69.3926 145.486 69.1033 145.41 69.0201C145.284 68.8804 144.956 68.3765 144.956 66.958H138.956ZM146.878 75.3926C149.062 75.3926 151.228 74.7761 152.793 73.0478C154.307 71.3759 154.8 69.1625 154.8 66.958H148.8C148.8 68.3765 148.472 68.8804 148.346 69.0201C148.27 69.1033 147.975 69.3926 146.878 69.3926V75.3926ZM154.8 66.958V51.7822H148.8V66.958H154.8ZM151.8 54.7822H155.579V48.7822H151.8V54.7822ZM181.973 51.7822H184.973C184.973 50.1254 183.63 48.7822 181.973 48.7822V51.7822ZM181.973 75.0586V78.0586C183.63 78.0586 184.973 76.7154 184.973 75.0586H181.973ZM177.021 75.0586L174.307 76.3349C174.801 77.387 175.859 78.0586 177.021 78.0586V75.0586ZM171.382 63.0615L168.661 64.3246C168.663 64.329 168.665 64.3334 168.667 64.3378L171.382 63.0615ZM168.042 55.3711L170.824 54.2477C170.366 53.1136 169.265 52.3711 168.042 52.3711V55.3711ZM167.632 55.3711V52.3711C166.809 52.3711 166.022 52.7094 165.455 53.3067C164.889 53.904 164.592 54.7079 164.636 55.53L167.632 55.3711ZM167.837 75.0586V78.0586C169.494 78.0586 170.837 76.7154 170.837 75.0586H167.837ZM164.116 75.0586H161.116C161.116 76.7154 162.459 78.0586 164.116 78.0586V75.0586ZM164.116 51.7822V48.7822C162.459 48.7822 161.116 50.1254 161.116 51.7822H164.116ZM170.21 51.7822L172.926 50.5089C172.432 49.4552 171.374 48.7822 170.21 48.7822V51.7822ZM175.044 62.0947L177.778 60.8594C177.772 60.8467 177.766 60.8341 177.76 60.8214L175.044 62.0947ZM178.135 70.0781L175.281 71.0019C175.681 72.2396 176.834 73.0781 178.135 73.0781V70.0781ZM178.545 70.0781V73.0781C179.373 73.0781 180.164 72.7361 180.731 72.1331C181.298 71.53 181.59 70.7195 181.539 69.8933L178.545 70.0781ZM178.252 51.7822V48.7822C176.595 48.7822 175.252 50.1254 175.252 51.7822H178.252ZM178.973 51.7822V75.0586H184.973V51.7822H178.973ZM181.973 72.0586H177.021V78.0586H181.973V72.0586ZM179.736 73.7823L174.097 61.7852L168.667 64.3378L174.307 76.3349L179.736 73.7823ZM174.103 61.7985C172.922 59.2547 171.829 56.7378 170.824 54.2477L165.26 56.4945C166.305 59.0825 167.439 61.6926 168.661 64.3246L174.103 61.7985ZM168.042 52.3711H167.632V58.3711H168.042V52.3711ZM164.636 55.53C164.77 58.0471 164.837 60.7962 164.837 63.7793H170.837C170.837 60.7077 170.768 57.8513 170.628 55.2122L164.636 55.53ZM164.837 63.7793V75.0586H170.837V63.7793H164.837ZM167.837 72.0586H164.116V78.0586H167.837V72.0586ZM167.116 75.0586V51.7822H161.116V75.0586H167.116ZM164.116 54.7822H170.21V48.7822H164.116V54.7822ZM167.494 53.0555L172.328 63.368L177.76 60.8214L172.926 50.5089L167.494 53.0555ZM172.31 63.33C173.457 65.8677 174.447 68.4249 175.281 71.0019L180.989 69.1544C180.085 66.3602 179.014 63.5951 177.778 60.8594L172.31 63.33ZM178.135 73.0781H178.545V67.0781H178.135V73.0781ZM181.539 69.8933C181.347 66.7759 181.252 63.9973 181.252 61.5527H175.252C175.252 64.1472 175.352 67.0522 175.551 70.263L181.539 69.8933ZM181.252 61.5527V51.7822H175.252V61.5527H181.252ZM178.252 54.7822H181.973V48.7822H178.252V54.7822ZM190.554 51.7822V48.7822C188.897 48.7822 187.554 50.1254 187.554 51.7822H190.554ZM206.857 54.9756L209.11 52.9945L209.104 52.987L206.857 54.9756ZM205.817 72.4805L203.864 70.2034L203.863 70.2043L205.817 72.4805ZM190.554 75.0586H187.554C187.554 76.7154 188.897 78.0586 190.554 78.0586V75.0586ZM194.567 54.9023V51.9023C192.911 51.9023 191.567 53.2455 191.567 54.9023H194.567ZM194.567 71.9385H191.567C191.567 73.5953 192.911 74.9385 194.567 74.9385V71.9385ZM203.371 69.5947L201.035 67.713L201.028 67.7206L203.371 69.5947ZM190.554 54.7822H198.347V48.7822H190.554V54.7822ZM198.347 54.7822C201.578 54.7822 203.469 55.6739 204.611 56.9642L209.104 52.987C206.476 50.0194 202.694 48.7822 198.347 48.7822V54.7822ZM204.605 56.9567C205.674 58.1731 206.421 60.1312 206.421 63.2666H212.421C212.421 59.2341 211.458 55.6648 209.11 52.9945L204.605 56.9567ZM206.421 63.2666C206.421 66.7451 205.42 68.8687 203.864 70.2034L207.771 74.7576C211.019 71.9712 212.421 67.9522 212.421 63.2666H206.421ZM203.863 70.2043C202.537 71.3424 200.624 72.0586 197.805 72.0586V78.0586C201.665 78.0586 205.093 77.056 207.772 74.7567L203.863 70.2043ZM197.805 72.0586H190.554V78.0586H197.805V72.0586ZM193.554 75.0586V51.7822H187.554V75.0586H193.554ZM191.567 54.9023V71.9385H197.567V54.9023H191.567ZM194.567 74.9385H197.717V68.9385H194.567V74.9385ZM197.717 74.9385C200.889 74.9385 203.751 73.9228 205.714 71.4688L201.028 67.7206C200.492 68.3917 199.583 68.9385 197.717 68.9385V74.9385ZM205.708 71.4764C207.47 69.2885 208.129 66.4144 208.129 63.2959H202.129C202.129 65.6657 201.616 66.9908 201.035 67.713L205.708 71.4764ZM208.129 63.2959C208.129 60.1381 207.461 57.2098 205.603 55.0464C203.671 52.7955 200.916 51.9023 197.922 51.9023V57.9023C199.732 57.9023 200.581 58.4081 201.051 58.9551C201.596 59.5895 202.129 60.858 202.129 63.2959H208.129ZM197.922 51.9023H194.567V57.9023H197.922V51.9023Z" fill="#EF788C" mask="url(#path-1-outside-1_5900_45099)"/>
</svg>
