<svg width="272" height="45" viewBox="0 0 272 45" fill="none" xmlns="http://www.w3.org/2000/svg">
<path d="M28.5 40.5L1.5 4.5" stroke="#7598FF" stroke-width="3"/>
<mask id="path-2-outside-1_1591_55647" maskUnits="userSpaceOnUse" x="39.5" y="5" width="195" height="35" fill="black">
<rect fill="white" x="39.5" y="5" width="195" height="35"/>
<path d="M54.64 16.96C57.13 16.75 59.44 16.3 61.48 15.61C61.66 15.55 61.78 15.61 61.84 15.79C62.08 16.51 62.41 17.53 62.56 18.34C62.62 18.67 62.5 18.73 62.32 18.79C59.8 19.48 57.25 19.9 54.73 20.14C54.79 22.57 54.94 24.22 55.24 27.07C58.36 27.97 61.12 29.23 63.94 30.94C64.15 31.06 64.18 31.21 64.06 31.45C63.61 32.38 63.01 33.31 62.47 33.97C62.29 34.15 62.2 34.24 61.96 34.06C59.74 32.41 57.88 31.33 55.3 30.28C55.3 30.46 55.3 30.73 55.27 30.97C55.15 33.55 53.23 35.47 49.21 35.47C45.52 35.47 42.82 33.82 42.82 31.06C42.82 28.36 45.67 26.47 49.39 26.47C50.35 26.47 51.25 26.47 51.91 26.56C51.55 22.63 51.46 19.78 51.4 16.93C51.37 15.85 51.34 14.32 51.31 12.79C51.28 11.8 51.19 10.9 50.89 10.06C52.18 10.15 53.47 10.33 54.73 10.6C55.06 10.69 55.21 10.87 55.21 11.11C55.21 11.26 55.15 11.41 55.06 11.56C54.82 11.98 54.76 12.43 54.7 13.18C54.64 14.08 54.64 15.4 54.64 16.96ZM52 29.89L51.97 29.47C50.89 29.26 50.05 29.17 49.21 29.17C47.11 29.17 45.76 29.86 45.76 30.94C45.76 31.96 46.96 32.47 48.85 32.47C51.1 32.47 52.09 31.15 52 29.89ZM88.87 9.64C90.19 10.42 91.33 11.2 92.17 11.92C92.32 12.04 92.41 12.28 92.41 12.4C92.41 12.67 92.26 12.85 91.99 12.97C91.63 13.15 91.18 13.42 90.55 14.02C87.97 16.33 84.67 19.42 82.36 21.82C82.09 22.15 81.97 22.33 81.97 22.48C81.97 22.66 82.09 22.81 82.36 23.02C86.26 25.84 90.31 29.11 93.52 32.47C93.64 32.62 93.73 32.74 93.73 32.86C93.73 32.98 93.67 33.07 93.52 33.22C92.83 33.97 91.96 34.84 91.45 35.29C91.27 35.44 91.15 35.53 91.03 35.53C90.91 35.53 90.82 35.44 90.67 35.26C87.19 31.36 83.83 28.24 79.75 25.12C78.61 24.25 78.16 23.59 78.16 22.6C78.16 21.61 78.7 20.95 79.63 19.96C82.18 17.2 84.67 14.71 87.25 11.89C88.06 11.02 88.51 10.39 88.87 9.64ZM115.12 9.61C116.86 9.82 117.88 10.03 118.63 10.3C118.99 10.42 119.17 10.6 119.17 10.84C119.17 11.05 119.14 11.17 119.02 11.32C118.75 11.65 118.66 12.07 118.6 12.4C118.51 12.94 118.45 13.39 118.36 13.9C121.12 13.63 123.25 13.3 126.16 12.64C126.52 12.55 126.61 12.67 126.67 12.94C126.82 13.57 126.97 14.32 126.97 14.98C126.97 15.37 126.67 15.52 126.34 15.58C122.38 16.39 120.55 16.6 117.82 16.84C117.7 18.1 117.64 18.82 117.61 19.87C118.78 19.48 120.73 19.24 122.2 19.21C122.38 18.73 122.68 17.86 122.71 17.02C123.79 17.35 124.96 17.83 125.38 18.13C125.74 18.37 125.92 18.61 125.92 18.79C125.92 18.91 125.86 19.03 125.74 19.15C125.59 19.3 125.5 19.48 125.35 19.75C129.22 20.77 131.5 23.32 131.5 27.07C131.5 31.42 127.93 34.24 123.16 35.53C122.5 35.71 122.17 35.62 121.84 34.96C121.63 34.54 121.03 33.91 120.07 33.1C122.23 32.65 124.54 31.69 125.65 30.91C127.09 29.86 128.05 28.57 128.05 26.41C128.05 24.01 126.34 22.57 124.33 22.06C122.59 25.36 120.82 27.73 118.66 29.92C118.81 30.46 118.99 30.79 119.2 31.27C119.38 31.66 119.26 31.81 118.96 32.02C118.27 32.53 117.58 32.89 117.16 33.07C116.86 33.22 116.74 33.22 116.56 32.92C116.35 32.56 116.2 32.2 116.05 31.75C113.92 33.22 112.36 33.91 110.83 33.91C108.79 33.91 107.5 32.53 107.5 30.19C107.5 26.35 110.83 22.69 114.52 20.86C114.55 19.57 114.61 18.25 114.67 17.11C112.9 17.17 112.09 17.14 111.58 17.14C110.71 17.14 110.23 17.14 109.87 17.08C109.54 17.05 109.36 16.9 109.33 16.39C109.24 15.73 109.24 14.95 109.18 14.11C111.1 14.32 112.75 14.26 115 14.23C115.12 13.15 115.24 11.8 115.24 10.96C115.24 10.51 115.21 10.09 115.12 9.61ZM117.82 26.95C119.05 25.54 120.46 23.44 121.3 21.76C120.22 21.79 118.84 22 117.46 22.45C117.49 24.01 117.58 25.42 117.82 26.95ZM114.52 23.8C112.21 25.45 110.65 27.61 110.65 29.56C110.65 30.28 111.1 30.7 111.64 30.7C112.48 30.7 113.59 30.16 115.12 28.96C114.82 27.16 114.58 25.54 114.52 23.8ZM150.61 21.34L150.64 21.43C152.32 20.47 153.73 20.08 155.41 20.08C159.79 20.08 162.85 22.96 162.85 27.28C162.85 32.29 158.8 35.5 152.38 35.5C148.6 35.5 146.32 33.88 146.32 31.09C146.32 29.08 148.21 27.43 150.55 27.43C153.37 27.43 155.44 28.93 156.19 31.81C158.29 30.85 159.25 29.53 159.25 27.25C159.25 24.52 157.33 22.72 154.54 22.72C152.05 22.72 149.29 23.83 146.86 25.9C145.99 26.68 145.15 27.55 144.25 28.45C144.04 28.66 143.89 28.78 143.74 28.78C143.62 28.78 143.47 28.69 143.29 28.51C142.66 27.97 142 27.19 141.52 26.56C141.34 26.32 141.43 26.11 141.67 25.87C144.01 23.98 146.08 22.06 148.78 19.24C150.64 17.32 152.05 15.82 153.43 14.11C151.63 14.44 149.5 14.86 147.64 15.25C147.25 15.34 146.86 15.43 146.38 15.61C146.23 15.67 145.93 15.76 145.78 15.76C145.48 15.76 145.27 15.61 145.12 15.25C144.76 14.56 144.49 13.72 144.07 12.01C144.97 12.13 145.96 12.13 146.86 12.07C148.69 11.89 151.33 11.5 153.67 11.05C154.42 10.9 155.02 10.75 155.32 10.6C155.47 10.51 155.74 10.36 155.89 10.36C156.19 10.36 156.37 10.45 156.58 10.6C157.48 11.29 158.08 11.89 158.59 12.52C158.83 12.79 158.92 13 158.92 13.24C158.92 13.54 158.74 13.81 158.41 13.96C157.9 14.2 157.66 14.41 157.09 14.92C154.9 17.05 152.89 19.15 150.61 21.34ZM153.22 32.56C152.83 30.91 151.93 29.98 150.67 29.98C149.8 29.98 149.23 30.49 149.23 31.12C149.23 32.05 150.04 32.68 151.84 32.68C152.38 32.68 152.77 32.65 153.22 32.56ZM182.11 18.97H186.4C186.25 18.91 186.13 18.82 185.95 18.64C185.41 18.16 184.75 17.8 184.09 17.5C185.89 15.94 186.37 14.68 186.37 12.34C186.37 11.26 186.37 10.33 186.25 9.7C187.3 9.82 188.05 9.97 188.95 10.18C190.84 10.03 192.91 9.7 194.32 9.37C194.83 9.22 195.28 9.07 195.73 8.86C196.36 9.4 196.75 9.88 197.32 10.6C197.47 10.78 197.59 10.96 197.59 11.17C197.59 11.32 197.5 11.47 197.23 11.47C196.9 11.47 196.54 11.44 196.03 11.53C194.05 11.95 191.92 12.19 189.16 12.37V13.39C189.16 13.51 189.13 13.63 189.13 13.75H194.44C197.35 13.75 198.37 13.69 198.55 13.69C198.82 13.69 198.85 13.72 198.85 14.05V15.76C198.85 16.06 198.82 16.09 198.55 16.09C198.37 16.09 197.35 16.03 194.44 16.03H194.32V17.47C194.32 18.13 194.32 18.61 194.35 18.94C194.74 18.94 194.98 18.91 195.07 18.91C195.37 18.91 195.4 18.94 195.4 19.24C195.4 19.45 195.34 20.32 195.34 22.3V28.27C195.34 30.25 195.4 31.12 195.4 31.3C195.4 31.63 195.37 31.66 195.07 31.66C194.86 31.66 193.81 31.6 190.9 31.6H190.39C192.79 32.92 195.67 33.64 199.06 33.97C198.64 34.51 198.25 35.14 197.95 35.77C197.68 36.34 197.56 36.55 197.26 36.55C197.11 36.55 196.9 36.52 196.57 36.46C193.54 35.92 190.39 34.84 188.17 33.46C187.87 33.28 187.9 33.25 188.26 33.01L190 31.6H180.67C181.3 31.96 181.9 32.29 182.47 32.74C182.77 32.95 182.86 33.07 182.86 33.19C182.86 33.4 182.74 33.55 182.41 33.61C182.08 33.7 181.75 33.88 181.24 34.12C179.59 34.96 177.19 35.89 174.43 36.4C174.13 36.46 173.92 36.49 173.77 36.49C173.44 36.49 173.35 36.34 173.05 35.74C172.78 35.17 172.39 34.6 171.88 34.03C174.58 33.73 177.43 33.04 179.17 32.23C179.53 32.05 179.86 31.87 180.22 31.6C177.31 31.6 176.29 31.66 176.11 31.66C175.78 31.66 175.75 31.63 175.75 31.3C175.75 31.12 175.81 30.25 175.81 28.27V22.3C175.81 20.32 175.75 19.45 175.75 19.24C175.75 18.94 175.78 18.91 176.11 18.91C176.26 18.91 177.1 18.97 179.2 18.97C179.2 18.64 179.23 18.16 179.23 17.5V16.03H176.56C176.26 17.38 175.69 18.7 174.67 20.05C174.4 20.44 174.28 20.65 174.1 20.65C173.95 20.65 173.77 20.47 173.44 20.14C172.84 19.54 172.24 19.09 171.58 18.73C173.65 16.93 174.04 14.77 174.04 12.19C174.04 11.26 174.01 10.42 173.89 9.76C174.88 9.88 175.72 10 176.59 10.18C178.51 10.03 180.22 9.73 181.63 9.37C182.14 9.28 182.65 9.1 183.04 8.86C183.67 9.37 184.09 9.88 184.66 10.6C184.81 10.78 184.96 10.96 184.96 11.17C184.96 11.32 184.81 11.5 184.51 11.5C184.24 11.5 183.88 11.47 183.37 11.59C181.33 12.01 179.53 12.22 176.83 12.4V13.75H181.12C183.73 13.75 184.57 13.69 184.75 13.69C185.05 13.69 185.08 13.72 185.08 14.05V15.76C185.08 16.06 185.05 16.09 184.75 16.09C184.6 16.09 183.88 16.06 182.08 16.03V17.5C182.08 18.16 182.08 18.64 182.11 18.97ZM192.31 29.41V27.88H178.81V29.41H192.31ZM178.81 25.96H192.31V24.52H178.81V25.96ZM192.31 21.19H178.81V22.6H192.31V21.19ZM191.47 16.03H188.71C188.41 16.87 187.96 17.71 187.3 18.46C187.09 18.73 186.91 18.91 186.76 18.97H191.44C191.44 18.64 191.47 18.16 191.47 17.47V16.03ZM230.95 14.14V26.44C230.95 28.54 231.07 30.94 231.07 32.41C231.07 33.85 230.89 34.54 230.2 35.17C229.54 35.77 228.7 35.98 226.03 35.98C225.07 35.98 225.07 36.01 224.89 35.05C224.74 34.18 224.5 33.46 224.2 32.83C225.1 32.95 225.85 32.98 226.63 32.98C227.62 32.98 227.86 32.71 227.86 31.81V20.23H223.06C220.72 20.23 219.94 20.29 219.76 20.29C219.43 20.29 219.4 20.26 219.4 19.96C219.4 19.75 219.46 19.06 219.46 17.26V12.88C219.46 11.08 219.4 10.36 219.4 10.15C219.4 9.85 219.43 9.82 219.76 9.82C219.94 9.82 220.72 9.88 223.06 9.88H227.38C229.69 9.88 230.5 9.82 230.68 9.82C230.98 9.82 231.01 9.85 231.01 10.15C231.01 10.33 230.95 11.59 230.95 14.14ZM222.4 18.04H227.86V16H222.4V18.04ZM227.86 12.16H222.4V13.93H227.86V12.16ZM209.95 9.88H214.06C216.01 9.88 216.88 9.82 217.06 9.82C217.33 9.82 217.36 9.85 217.36 10.15C217.36 10.33 217.3 11.23 217.3 13.12V17.02C217.3 18.88 217.36 19.78 217.36 19.96C217.36 20.26 217.33 20.29 217.06 20.29C216.88 20.29 216.01 20.23 214.06 20.23H209.26V29.59C209.26 33.73 209.32 35.77 209.32 35.98C209.32 36.28 209.29 36.31 208.99 36.31H206.44C206.14 36.31 206.11 36.28 206.11 35.98C206.11 35.77 206.17 33.73 206.17 29.59V16.6C206.17 12.46 206.11 10.36 206.11 10.15C206.11 9.85 206.14 9.82 206.44 9.82C206.65 9.82 207.76 9.88 209.95 9.88ZM214.36 18.04V16H209.26V18.04H214.36ZM214.36 12.16H209.26V13.93H214.36V12.16ZM215.47 33.46H213.28C212.98 33.46 212.95 33.46 212.95 33.16C212.95 32.98 213.01 32.23 213.01 28.27V26.11C213.01 23.92 212.95 23.14 212.95 22.93C212.95 22.63 212.98 22.6 213.28 22.6C213.49 22.6 214.21 22.66 216.46 22.66H220.39C222.64 22.66 223.36 22.6 223.57 22.6C223.87 22.6 223.9 22.63 223.9 22.93C223.9 23.11 223.84 23.89 223.84 25.54V27.85C223.84 31.63 223.9 32.35 223.9 32.53C223.9 32.86 223.87 32.89 223.57 32.89H221.38C221.05 32.89 221.02 32.86 221.02 32.53V31.54H215.83V33.16C215.83 33.46 215.8 33.46 215.47 33.46ZM215.83 25.21V28.99H221.02V25.21H215.83Z"/>
</mask>
<path d="M54.64 16.96C57.13 16.75 59.44 16.3 61.48 15.61C61.66 15.55 61.78 15.61 61.84 15.79C62.08 16.51 62.41 17.53 62.56 18.34C62.62 18.67 62.5 18.73 62.32 18.79C59.8 19.48 57.25 19.9 54.73 20.14C54.79 22.57 54.94 24.22 55.24 27.07C58.36 27.97 61.12 29.23 63.94 30.94C64.15 31.06 64.18 31.21 64.06 31.45C63.61 32.38 63.01 33.31 62.47 33.97C62.29 34.15 62.2 34.24 61.96 34.06C59.74 32.41 57.88 31.33 55.3 30.28C55.3 30.46 55.3 30.73 55.27 30.97C55.15 33.55 53.23 35.47 49.21 35.47C45.52 35.47 42.82 33.82 42.82 31.06C42.82 28.36 45.67 26.47 49.39 26.47C50.35 26.47 51.25 26.47 51.91 26.56C51.55 22.63 51.46 19.78 51.4 16.93C51.37 15.85 51.34 14.32 51.31 12.79C51.28 11.8 51.19 10.9 50.89 10.06C52.18 10.15 53.47 10.33 54.73 10.6C55.06 10.69 55.21 10.87 55.21 11.11C55.21 11.26 55.15 11.41 55.06 11.56C54.82 11.98 54.76 12.43 54.7 13.18C54.64 14.08 54.64 15.4 54.64 16.96ZM52 29.89L51.97 29.47C50.89 29.26 50.05 29.17 49.21 29.17C47.11 29.17 45.76 29.86 45.76 30.94C45.76 31.96 46.96 32.47 48.85 32.47C51.1 32.47 52.09 31.15 52 29.89ZM88.87 9.64C90.19 10.42 91.33 11.2 92.17 11.92C92.32 12.04 92.41 12.28 92.41 12.4C92.41 12.67 92.26 12.85 91.99 12.97C91.63 13.15 91.18 13.42 90.55 14.02C87.97 16.33 84.67 19.42 82.36 21.82C82.09 22.15 81.97 22.33 81.97 22.48C81.97 22.66 82.09 22.81 82.36 23.02C86.26 25.84 90.31 29.11 93.52 32.47C93.64 32.62 93.73 32.74 93.73 32.86C93.73 32.98 93.67 33.07 93.52 33.22C92.83 33.97 91.96 34.84 91.45 35.29C91.27 35.44 91.15 35.53 91.03 35.53C90.91 35.53 90.82 35.44 90.67 35.26C87.19 31.36 83.83 28.24 79.75 25.12C78.61 24.25 78.16 23.59 78.16 22.6C78.16 21.61 78.7 20.95 79.63 19.96C82.18 17.2 84.67 14.71 87.25 11.89C88.06 11.02 88.51 10.39 88.87 9.64ZM115.12 9.61C116.86 9.82 117.88 10.03 118.63 10.3C118.99 10.42 119.17 10.6 119.17 10.84C119.17 11.05 119.14 11.17 119.02 11.32C118.75 11.65 118.66 12.07 118.6 12.4C118.51 12.94 118.45 13.39 118.36 13.9C121.12 13.63 123.25 13.3 126.16 12.64C126.52 12.55 126.61 12.67 126.67 12.94C126.82 13.57 126.97 14.32 126.97 14.98C126.97 15.37 126.67 15.52 126.34 15.58C122.38 16.39 120.55 16.6 117.82 16.84C117.7 18.1 117.64 18.82 117.61 19.87C118.78 19.48 120.73 19.24 122.2 19.21C122.38 18.73 122.68 17.86 122.71 17.02C123.79 17.35 124.96 17.83 125.38 18.13C125.74 18.37 125.92 18.61 125.92 18.79C125.92 18.91 125.86 19.03 125.74 19.15C125.59 19.3 125.5 19.48 125.35 19.75C129.22 20.77 131.5 23.32 131.5 27.07C131.5 31.42 127.93 34.24 123.16 35.53C122.5 35.71 122.17 35.62 121.84 34.96C121.63 34.54 121.03 33.91 120.07 33.1C122.23 32.65 124.54 31.69 125.65 30.91C127.09 29.86 128.05 28.57 128.05 26.41C128.05 24.01 126.34 22.57 124.33 22.06C122.59 25.36 120.82 27.73 118.66 29.92C118.81 30.46 118.99 30.79 119.2 31.27C119.38 31.66 119.26 31.81 118.96 32.02C118.27 32.53 117.58 32.89 117.16 33.07C116.86 33.22 116.74 33.22 116.56 32.92C116.35 32.56 116.2 32.2 116.05 31.75C113.92 33.22 112.36 33.91 110.83 33.91C108.79 33.91 107.5 32.53 107.5 30.19C107.5 26.35 110.83 22.69 114.52 20.86C114.55 19.57 114.61 18.25 114.67 17.11C112.9 17.17 112.09 17.14 111.58 17.14C110.71 17.14 110.23 17.14 109.87 17.08C109.54 17.05 109.36 16.9 109.33 16.39C109.24 15.73 109.24 14.95 109.18 14.11C111.1 14.32 112.75 14.26 115 14.23C115.12 13.15 115.24 11.8 115.24 10.96C115.24 10.51 115.21 10.09 115.12 9.61ZM117.82 26.95C119.05 25.54 120.46 23.44 121.3 21.76C120.22 21.79 118.84 22 117.46 22.45C117.49 24.01 117.58 25.42 117.82 26.95ZM114.52 23.8C112.21 25.45 110.65 27.61 110.65 29.56C110.65 30.28 111.1 30.7 111.64 30.7C112.48 30.7 113.59 30.16 115.12 28.96C114.82 27.16 114.58 25.54 114.52 23.8ZM150.61 21.34L150.64 21.43C152.32 20.47 153.73 20.08 155.41 20.08C159.79 20.08 162.85 22.96 162.85 27.28C162.85 32.29 158.8 35.5 152.38 35.5C148.6 35.5 146.32 33.88 146.32 31.09C146.32 29.08 148.21 27.43 150.55 27.43C153.37 27.43 155.44 28.93 156.19 31.81C158.29 30.85 159.25 29.53 159.25 27.25C159.25 24.52 157.33 22.72 154.54 22.72C152.05 22.72 149.29 23.83 146.86 25.9C145.99 26.68 145.15 27.55 144.25 28.45C144.04 28.66 143.89 28.78 143.74 28.78C143.62 28.78 143.47 28.69 143.29 28.51C142.66 27.97 142 27.19 141.52 26.56C141.34 26.32 141.43 26.11 141.67 25.87C144.01 23.98 146.08 22.06 148.78 19.24C150.64 17.32 152.05 15.82 153.43 14.11C151.63 14.44 149.5 14.86 147.64 15.25C147.25 15.34 146.86 15.43 146.38 15.61C146.23 15.67 145.93 15.76 145.78 15.76C145.48 15.76 145.27 15.61 145.12 15.25C144.76 14.56 144.49 13.72 144.07 12.01C144.97 12.13 145.96 12.13 146.86 12.07C148.69 11.89 151.33 11.5 153.67 11.05C154.42 10.9 155.02 10.75 155.32 10.6C155.47 10.51 155.74 10.36 155.89 10.36C156.19 10.36 156.37 10.45 156.58 10.6C157.48 11.29 158.08 11.89 158.59 12.52C158.83 12.79 158.92 13 158.92 13.24C158.92 13.54 158.74 13.81 158.41 13.96C157.9 14.2 157.66 14.41 157.09 14.92C154.9 17.05 152.89 19.15 150.61 21.34ZM153.22 32.56C152.83 30.91 151.93 29.98 150.67 29.98C149.8 29.98 149.23 30.49 149.23 31.12C149.23 32.05 150.04 32.68 151.84 32.68C152.38 32.68 152.77 32.65 153.22 32.56ZM182.11 18.97H186.4C186.25 18.91 186.13 18.82 185.95 18.64C185.41 18.16 184.75 17.8 184.09 17.5C185.89 15.94 186.37 14.68 186.37 12.34C186.37 11.26 186.37 10.33 186.25 9.7C187.3 9.82 188.05 9.97 188.95 10.18C190.84 10.03 192.91 9.7 194.32 9.37C194.83 9.22 195.28 9.07 195.73 8.86C196.36 9.4 196.75 9.88 197.32 10.6C197.47 10.78 197.59 10.96 197.59 11.17C197.59 11.32 197.5 11.47 197.23 11.47C196.9 11.47 196.54 11.44 196.03 11.53C194.05 11.95 191.92 12.19 189.16 12.37V13.39C189.16 13.51 189.13 13.63 189.13 13.75H194.44C197.35 13.75 198.37 13.69 198.55 13.69C198.82 13.69 198.85 13.72 198.85 14.05V15.76C198.85 16.06 198.82 16.09 198.55 16.09C198.37 16.09 197.35 16.03 194.44 16.03H194.32V17.47C194.32 18.13 194.32 18.61 194.35 18.94C194.74 18.94 194.98 18.91 195.07 18.91C195.37 18.91 195.4 18.94 195.4 19.24C195.4 19.45 195.34 20.32 195.34 22.3V28.27C195.34 30.25 195.4 31.12 195.4 31.3C195.4 31.63 195.37 31.66 195.07 31.66C194.86 31.66 193.81 31.6 190.9 31.6H190.39C192.79 32.92 195.67 33.64 199.06 33.97C198.64 34.51 198.25 35.14 197.95 35.77C197.68 36.34 197.56 36.55 197.26 36.55C197.11 36.55 196.9 36.52 196.57 36.46C193.54 35.92 190.39 34.84 188.17 33.46C187.87 33.28 187.9 33.25 188.26 33.01L190 31.6H180.67C181.3 31.96 181.9 32.29 182.47 32.74C182.77 32.95 182.86 33.07 182.86 33.19C182.86 33.4 182.74 33.55 182.41 33.61C182.08 33.7 181.75 33.88 181.24 34.12C179.59 34.96 177.19 35.89 174.43 36.4C174.13 36.46 173.92 36.49 173.77 36.49C173.44 36.49 173.35 36.34 173.05 35.74C172.78 35.17 172.39 34.6 171.88 34.03C174.58 33.73 177.43 33.04 179.17 32.23C179.53 32.05 179.86 31.87 180.22 31.6C177.31 31.6 176.29 31.66 176.11 31.66C175.78 31.66 175.75 31.63 175.75 31.3C175.75 31.12 175.81 30.25 175.81 28.27V22.3C175.81 20.32 175.75 19.45 175.75 19.24C175.75 18.94 175.78 18.91 176.11 18.91C176.26 18.91 177.1 18.97 179.2 18.97C179.2 18.64 179.23 18.16 179.23 17.5V16.03H176.56C176.26 17.38 175.69 18.7 174.67 20.05C174.4 20.44 174.28 20.65 174.1 20.65C173.95 20.65 173.77 20.47 173.44 20.14C172.84 19.54 172.24 19.09 171.58 18.73C173.65 16.93 174.04 14.77 174.04 12.19C174.04 11.26 174.01 10.42 173.89 9.76C174.88 9.88 175.72 10 176.59 10.18C178.51 10.03 180.22 9.73 181.63 9.37C182.14 9.28 182.65 9.1 183.04 8.86C183.67 9.37 184.09 9.88 184.66 10.6C184.81 10.78 184.96 10.96 184.96 11.17C184.96 11.32 184.81 11.5 184.51 11.5C184.24 11.5 183.88 11.47 183.37 11.59C181.33 12.01 179.53 12.22 176.83 12.4V13.75H181.12C183.73 13.75 184.57 13.69 184.75 13.69C185.05 13.69 185.08 13.72 185.08 14.05V15.76C185.08 16.06 185.05 16.09 184.75 16.09C184.6 16.09 183.88 16.06 182.08 16.03V17.5C182.08 18.16 182.08 18.64 182.11 18.97ZM192.31 29.41V27.88H178.81V29.41H192.31ZM178.81 25.96H192.31V24.52H178.81V25.96ZM192.31 21.19H178.81V22.6H192.31V21.19ZM191.47 16.03H188.71C188.41 16.87 187.96 17.71 187.3 18.46C187.09 18.73 186.91 18.91 186.76 18.97H191.44C191.44 18.64 191.47 18.16 191.47 17.47V16.03ZM230.95 14.14V26.44C230.95 28.54 231.07 30.94 231.07 32.41C231.07 33.85 230.89 34.54 230.2 35.17C229.54 35.77 228.7 35.98 226.03 35.98C225.07 35.98 225.07 36.01 224.89 35.05C224.74 34.18 224.5 33.46 224.2 32.83C225.1 32.95 225.85 32.98 226.63 32.98C227.62 32.98 227.86 32.71 227.86 31.81V20.23H223.06C220.72 20.23 219.94 20.29 219.76 20.29C219.43 20.29 219.4 20.26 219.4 19.96C219.4 19.75 219.46 19.06 219.46 17.26V12.88C219.46 11.08 219.4 10.36 219.4 10.15C219.4 9.85 219.43 9.82 219.76 9.82C219.94 9.82 220.72 9.88 223.06 9.88H227.38C229.69 9.88 230.5 9.82 230.68 9.82C230.98 9.82 231.01 9.85 231.01 10.15C231.01 10.33 230.95 11.59 230.95 14.14ZM222.4 18.04H227.86V16H222.4V18.04ZM227.86 12.16H222.4V13.93H227.86V12.16ZM209.95 9.88H214.06C216.01 9.88 216.88 9.82 217.06 9.82C217.33 9.82 217.36 9.85 217.36 10.15C217.36 10.33 217.3 11.23 217.3 13.12V17.02C217.3 18.88 217.36 19.78 217.36 19.96C217.36 20.26 217.33 20.29 217.06 20.29C216.88 20.29 216.01 20.23 214.06 20.23H209.26V29.59C209.26 33.73 209.32 35.77 209.32 35.98C209.32 36.28 209.29 36.31 208.99 36.31H206.44C206.14 36.31 206.11 36.28 206.11 35.98C206.11 35.77 206.17 33.73 206.17 29.59V16.6C206.17 12.46 206.11 10.36 206.11 10.15C206.11 9.85 206.14 9.82 206.44 9.82C206.65 9.82 207.76 9.88 209.95 9.88ZM214.36 18.04V16H209.26V18.04H214.36ZM214.36 12.16H209.26V13.93H214.36V12.16ZM215.47 33.46H213.28C212.98 33.46 212.95 33.46 212.95 33.16C212.95 32.98 213.01 32.23 213.01 28.27V26.11C213.01 23.92 212.95 23.14 212.95 22.93C212.95 22.63 212.98 22.6 213.28 22.6C213.49 22.6 214.21 22.66 216.46 22.66H220.39C222.64 22.66 223.36 22.6 223.57 22.6C223.87 22.6 223.9 22.63 223.9 22.93C223.9 23.11 223.84 23.89 223.84 25.54V27.85C223.84 31.63 223.9 32.35 223.9 32.53C223.9 32.86 223.87 32.89 223.57 32.89H221.38C221.05 32.89 221.02 32.86 221.02 32.53V31.54H215.83V33.16C215.83 33.46 215.8 33.46 215.47 33.46ZM215.83 25.21V28.99H221.02V25.21H215.83Z" fill="white"/>
<path d="M54.64 16.96H51.64C51.64 17.7995 51.9917 18.6005 52.6098 19.1687C53.2278 19.7368 54.0556 20.0199 54.8921 19.9494L54.64 16.96ZM61.48 15.61L60.5313 12.7639L60.5188 12.7682L61.48 15.61ZM61.84 15.79L64.6861 14.8413L64.686 14.8413L61.84 15.79ZM62.56 18.34L65.5116 17.8033L65.5098 17.7937L62.56 18.34ZM62.32 18.79L63.1123 21.6835C63.1648 21.6691 63.217 21.6533 63.2687 21.6361L62.32 18.79ZM54.73 20.14L54.4456 17.1535C52.8775 17.3028 51.692 18.6394 51.7309 20.2141L54.73 20.14ZM55.24 27.07L52.2565 27.3841C52.3843 28.5984 53.2353 29.6141 54.4085 29.9525L55.24 27.07ZM63.94 30.94L62.3845 33.5052C62.4067 33.5187 62.429 33.5318 62.4516 33.5447L63.94 30.94ZM64.06 31.45L61.3767 30.1084C61.3709 30.12 61.3652 30.1316 61.3595 30.1433L64.06 31.45ZM62.47 33.97L64.5913 36.0913C64.6618 36.0208 64.7287 35.9469 64.7919 35.8697L62.47 33.97ZM61.96 34.06L63.76 31.66L63.7496 31.6522L61.96 34.06ZM55.3 30.28L56.4309 27.5013C55.5059 27.1249 54.4542 27.2334 53.6256 27.7908C52.7969 28.3482 52.3 29.2813 52.3 30.28H55.3ZM55.27 30.97L52.2932 30.5979C52.2835 30.6752 52.2769 30.7528 52.2732 30.8306L55.27 30.97ZM51.91 26.56L51.5047 29.5325C52.4106 29.656 53.3233 29.3597 53.9839 28.7277C54.6446 28.0956 54.9809 27.1968 54.8975 26.2863L51.91 26.56ZM51.4 16.93L54.3993 16.8669C54.3992 16.8601 54.399 16.8534 54.3988 16.8467L51.4 16.93ZM51.31 12.79L54.3094 12.7312C54.3092 12.7205 54.3089 12.7098 54.3086 12.6991L51.31 12.79ZM50.89 10.06L51.0988 7.06727C50.0887 6.9968 49.1112 7.44063 48.4994 8.24751C47.8877 9.05439 47.7242 10.1154 48.0648 11.069L50.89 10.06ZM54.73 10.6L55.5194 7.70571C55.4661 7.69119 55.4125 7.67815 55.3586 7.66659L54.73 10.6ZM55.06 11.56L52.4875 10.0165C52.4766 10.0348 52.4658 10.0531 52.4553 10.0716L55.06 11.56ZM54.7 13.18L51.7096 12.9408C51.7085 12.954 51.7075 12.9672 51.7066 12.9804L54.7 13.18ZM52 29.89L49.0076 30.1037V30.1037L52 29.89ZM51.97 29.47L54.9624 29.2563C54.8658 27.9036 53.8738 26.784 52.5426 26.5252L51.97 29.47ZM54.8921 19.9494C57.5778 19.7229 60.1319 19.2329 62.4412 18.4518L60.5188 12.7682C58.7481 13.3671 56.6822 13.7771 54.3879 13.9706L54.8921 19.9494ZM62.4287 18.4561C62.08 18.5723 61.266 18.7446 60.3634 18.2933C59.4607 17.842 59.1102 17.0874 58.994 16.7387L64.686 14.8413C64.5098 14.3126 64.0693 13.438 63.0466 12.9267C62.024 12.4154 61.06 12.5877 60.5313 12.7639L62.4287 18.4561ZM58.9939 16.7387C59.243 17.4859 59.504 18.3131 59.6102 18.8863L65.5098 17.7937C65.316 16.7469 64.917 15.5341 64.6861 14.8413L58.9939 16.7387ZM59.6084 18.8766C59.5923 18.7881 59.4183 17.8724 60.0791 16.9362C60.3966 16.4864 60.7731 16.2323 61.0175 16.1005C61.1351 16.037 61.2316 15.9967 61.2855 15.9755C61.3138 15.9644 61.3361 15.9563 61.3496 15.9515C61.3566 15.949 61.362 15.9471 61.3655 15.9459C61.369 15.9447 61.3711 15.944 61.3713 15.9439L63.2687 21.6361C63.3273 21.6165 63.5835 21.5336 63.8662 21.3811C64.1819 21.2108 64.6184 20.9099 64.9809 20.3963C65.7317 19.3326 65.5877 18.2219 65.5116 17.8033L59.6084 18.8766ZM61.5277 15.8965C59.2046 16.5326 56.8287 16.9266 54.4456 17.1535L55.0144 23.1265C57.6713 22.8734 60.3954 22.4274 63.1123 21.6835L61.5277 15.8965ZM51.7309 20.2141C51.7939 22.765 51.9539 24.5092 52.2565 27.3841L58.2235 26.7559C57.9261 23.9308 57.7861 22.375 57.7291 20.0659L51.7309 20.2141ZM54.4085 29.9525C57.2444 30.7705 59.7626 31.9154 62.3845 33.5052L65.4955 28.3748C62.4774 26.5446 59.4756 25.1695 56.0715 24.1875L54.4085 29.9525ZM62.4516 33.5447C62.1721 33.385 61.4386 32.8721 61.1984 31.8149C60.9868 30.8842 61.3271 30.2075 61.3767 30.1084L66.7433 32.7916C66.9129 32.4525 67.2982 31.5808 67.0491 30.4851C66.7714 29.2629 65.9179 28.615 65.4284 28.3353L62.4516 33.5447ZM61.3595 30.1433C61.0074 30.871 60.5326 31.6004 60.1481 32.0703L64.7919 35.8697C65.4874 35.0196 66.2126 33.889 66.7605 32.7567L61.3595 30.1433ZM60.3487 31.8487C60.2731 31.9242 60.3428 31.8505 60.439 31.7712C60.5448 31.6839 60.868 31.4288 61.3755 31.2765C62.6873 30.883 63.6287 31.5615 63.76 31.66L60.16 36.46C60.5313 36.7385 61.6377 37.462 63.0995 37.0235C63.682 36.8487 64.0764 36.5486 64.2573 36.3994C64.4284 36.2582 64.5769 36.1058 64.5913 36.0913L60.3487 31.8487ZM63.7496 31.6522C61.3449 29.8649 59.2655 28.6549 56.4309 27.5013L54.1691 33.0587C56.4945 34.0051 58.1351 34.9551 60.1704 36.4678L63.7496 31.6522ZM52.3 30.28C52.3 30.373 52.2998 30.4417 52.2977 30.5088C52.2955 30.5787 52.2923 30.6049 52.2932 30.5979L58.2468 31.3421C58.3038 30.8862 58.3 30.4296 58.3 30.28H52.3ZM52.2732 30.8306C52.2482 31.3683 52.0709 31.6498 51.822 31.85C51.5166 32.0958 50.7727 32.47 49.21 32.47V38.47C51.6673 38.47 53.8934 37.8842 55.583 36.525C57.3291 35.1202 58.1718 33.1517 58.2668 31.1094L52.2732 30.8306ZM49.21 32.47C47.764 32.47 46.7994 32.1399 46.2954 31.8038C45.8829 31.5289 45.82 31.3107 45.82 31.06H39.82C39.82 33.5693 41.1071 35.5561 42.9671 36.7962C44.7356 37.9751 46.966 38.47 49.21 38.47V32.47ZM45.82 31.06C45.82 30.8905 45.8734 30.5934 46.4103 30.2242C46.9874 29.8271 48.0031 29.47 49.39 29.47V23.47C47.0569 23.47 44.7876 24.0579 43.0097 25.2808C41.1916 26.5316 39.82 28.5295 39.82 31.06H45.82ZM49.39 29.47C50.4313 29.47 51.0933 29.4764 51.5047 29.5325L52.3153 23.5875C51.4067 23.4636 50.2687 23.47 49.39 23.47V29.47ZM54.8975 26.2863C54.5465 22.4551 54.4586 19.683 54.3993 16.8669L48.4007 16.9931C48.4614 19.877 48.5535 22.8049 48.9225 26.8337L54.8975 26.2863ZM54.3988 16.8467C54.3693 15.7818 54.3395 14.2663 54.3094 12.7312L48.3106 12.8488C48.3405 14.3737 48.3707 15.9182 48.4012 17.0133L54.3988 16.8467ZM54.3086 12.6991C54.2758 11.6148 54.1751 10.3388 53.7152 9.05099L48.0648 11.069C48.2049 11.4612 48.2842 11.9852 48.3114 12.8809L54.3086 12.6991ZM50.6812 13.0527C51.8338 13.1331 52.9834 13.2938 54.1014 13.5334L55.3586 7.66659C53.9566 7.36616 52.5262 7.16686 51.0988 7.06727L50.6812 13.0527ZM53.9406 13.4943C53.7539 13.4434 53.3002 13.2837 52.8783 12.8216C52.4066 12.3049 52.21 11.6677 52.21 11.11H58.21C58.21 10.3123 57.9384 9.46511 57.3092 8.77594C56.7298 8.14132 56.0361 7.84663 55.5194 7.70571L53.9406 13.4943ZM52.21 11.11C52.21 10.4737 52.4566 10.068 52.4875 10.0165L57.6325 13.1035C57.8434 12.752 58.21 12.0463 58.21 11.11H52.21ZM52.4553 10.0716C51.8397 11.1488 51.7651 12.2463 51.7096 12.9408L57.6904 13.4192C57.7045 13.243 57.7163 13.1154 57.728 13.0137C57.7396 12.9132 57.7485 12.8628 57.7526 12.8428C57.756 12.826 57.7526 12.8479 57.7364 12.8931C57.7192 12.9414 57.6949 12.9957 57.6647 13.0484L52.4553 10.0716ZM51.7066 12.9804C51.6383 14.005 51.64 15.4474 51.64 16.96H57.64C57.64 15.3526 57.6417 14.155 57.6934 13.3796L51.7066 12.9804ZM54.9924 29.6763L54.9624 29.2563L48.9776 29.6837L49.0076 30.1037L54.9924 29.6763ZM52.5426 26.5252C51.3237 26.2882 50.287 26.17 49.21 26.17V32.17C49.813 32.17 50.4563 32.2318 51.3974 32.4148L52.5426 26.5252ZM49.21 26.17C47.8906 26.17 46.5045 26.3779 45.3292 26.9802C44.1103 27.6049 42.76 28.9008 42.76 30.94H48.76C48.76 31.3371 48.6233 31.7097 48.42 31.986C48.2388 32.2321 48.0694 32.318 48.0658 32.3198C48.059 32.3232 48.1428 32.2811 48.3545 32.2401C48.5601 32.2004 48.8446 32.17 49.21 32.17V26.17ZM42.76 30.94C42.76 32.9425 44.0668 34.2066 45.3079 34.7968C46.4254 35.3282 47.7121 35.47 48.85 35.47V29.47C48.5063 29.47 48.2481 29.4464 48.0684 29.4161C47.8809 29.3845 47.8363 29.3553 47.8846 29.3782C47.9328 29.4012 48.1615 29.5191 48.3855 29.8207C48.6355 30.1574 48.76 30.5641 48.76 30.94H42.76ZM48.85 35.47C50.561 35.47 52.1678 34.9589 53.3596 33.8362C54.5525 32.7124 55.0997 31.1785 54.9924 29.6763L49.0076 30.1037C48.9996 29.9911 49.0154 29.8697 49.0608 29.7513C49.1074 29.6296 49.1767 29.5335 49.2454 29.4688C49.4023 29.3211 49.3891 29.47 48.85 29.47V35.47ZM88.87 9.64L90.3962 7.05722C89.6725 6.62961 88.8027 6.5252 87.9984 6.7694C87.1941 7.01361 86.5292 7.58403 86.1654 8.3418L88.87 9.64ZM92.17 11.92L90.2176 14.1978C90.2434 14.2198 90.2695 14.2414 90.2959 14.2626L92.17 11.92ZM91.99 12.97L90.7716 10.2286C90.7301 10.247 90.689 10.2664 90.6484 10.2867L91.99 12.97ZM90.55 14.02L92.5511 16.255C92.5741 16.2345 92.5967 16.2136 92.619 16.1924L90.55 14.02ZM82.36 21.82L80.1985 19.7396C80.1427 19.7976 80.0891 19.8579 80.0381 19.9203L82.36 21.82ZM82.36 23.02L80.5182 25.3881C80.5458 25.4095 80.5738 25.4305 80.6022 25.451L82.36 23.02ZM93.52 32.47L95.8626 30.5959C95.8077 30.5273 95.7499 30.4612 95.6892 30.3977L93.52 32.47ZM93.52 33.22L91.3987 31.0987C91.3692 31.1281 91.3404 31.1582 91.3122 31.1888L93.52 33.22ZM91.45 35.29L93.3706 37.5947C93.3923 37.5766 93.4137 37.5582 93.4349 37.5395L91.45 35.29ZM90.67 35.26L92.9747 33.3394C92.953 33.3135 92.9309 33.2879 92.9084 33.2626L90.67 35.26ZM79.75 25.12L81.5723 22.7369L81.57 22.7351L79.75 25.12ZM79.63 19.96L81.8165 22.014C81.8222 22.008 81.8279 22.0019 81.8335 21.9958L79.63 19.96ZM87.25 11.89L85.0543 9.84574C85.0484 9.85212 85.0425 9.85853 85.0366 9.86496L87.25 11.89ZM87.3438 12.2228C88.5806 12.9536 89.5591 13.6333 90.2176 14.1978L94.1224 9.64223C93.1009 8.76667 91.7994 7.88638 90.3962 7.05722L87.3438 12.2228ZM90.2959 14.2626C89.8834 13.9326 89.6955 13.5768 89.6191 13.41C89.5705 13.304 89.5264 13.1849 89.4911 13.0499C89.4611 12.9352 89.41 12.7061 89.41 12.4H95.41C95.41 11.7573 95.2184 11.2264 95.0734 10.91C94.9145 10.5632 94.6066 10.0274 94.0441 9.57739L90.2959 14.2626ZM89.41 12.4C89.41 11.9359 89.5544 11.3975 89.9128 10.926C90.2377 10.4985 90.6039 10.3031 90.7716 10.2286L93.2084 15.7114C93.6462 15.5169 94.2223 15.1715 94.6897 14.5565C95.1906 13.8975 95.41 13.1341 95.41 12.4H89.41ZM90.6484 10.2867C90.0316 10.5951 89.3345 11.0347 88.481 11.8476L92.619 16.1924C92.8372 15.9846 92.9907 15.8657 93.089 15.797C93.1814 15.7325 93.2531 15.6925 93.3316 15.6533L90.6484 10.2867ZM88.5489 11.785C85.9428 14.1183 82.5815 17.2638 80.1985 19.7396L84.5215 23.9004C86.7585 21.5762 89.9972 18.5417 92.5511 16.255L88.5489 11.785ZM80.0381 19.9203C79.899 20.0903 79.6823 20.3594 79.4994 20.6606C79.3246 20.9485 78.97 21.5969 78.97 22.48H84.97C84.97 23.2131 84.6754 23.6965 84.6281 23.7744C84.5727 23.8656 84.551 23.8797 84.6819 23.7197L80.0381 19.9203ZM78.97 22.48C78.97 24.2403 80.2705 25.1954 80.5182 25.3881L84.2018 20.6519C84.1299 20.596 84.2925 20.707 84.4763 20.9556C84.7166 21.2807 84.97 21.8089 84.97 22.48H78.97ZM80.6022 25.451C84.4293 28.2183 88.3176 31.3674 91.3508 34.5423L95.6892 30.3977C92.3024 26.8526 88.0907 23.4617 84.1178 20.5889L80.6022 25.451ZM91.1774 34.3441C91.2521 34.4375 91.1716 34.3459 91.0842 34.1973C90.9917 34.0401 90.73 33.5577 90.73 32.86H96.73C96.73 32.0423 96.4233 31.4399 96.2558 31.1552C96.0934 30.8791 95.9079 30.6525 95.8626 30.5959L91.1774 34.3441ZM90.73 32.86C90.73 32.6308 90.7599 32.3777 90.8356 32.1152C90.9101 31.8565 91.0127 31.6454 91.1088 31.4853C91.2735 31.2108 91.4404 31.057 91.3987 31.0987L95.6413 35.3413C95.8228 35.1598 96.73 34.2991 96.73 32.86H90.73ZM91.3122 31.1888C90.6617 31.8959 89.869 32.6841 89.4651 33.0405L93.4349 37.5395C94.051 36.9959 94.9983 36.0441 95.7278 35.2512L91.3122 31.1888ZM89.5294 32.9853C89.4252 33.0722 89.5075 32.9954 89.6532 32.9064C89.8169 32.8064 90.312 32.53 91.03 32.53V38.53C91.868 38.53 92.4831 38.2086 92.7819 38.0261C93.0625 37.8546 93.2948 37.6578 93.3706 37.5947L89.5294 32.9853ZM91.03 32.53C91.3951 32.53 91.7503 32.6023 92.0746 32.7342C92.3817 32.8592 92.6025 33.0136 92.7353 33.1199C92.9478 33.2899 93.0658 33.4488 92.9747 33.3394L88.3653 37.1806C88.4242 37.2512 88.6622 37.5451 88.9872 37.8051C89.402 38.137 90.0958 38.53 91.03 38.53V32.53ZM92.9084 33.2626C89.3045 29.2237 85.8056 25.9741 81.5723 22.7369L77.9277 27.5031C81.8544 30.5059 85.0755 33.4963 88.4316 37.2574L92.9084 33.2626ZM81.57 22.7351C81.3497 22.567 81.2121 22.4462 81.1271 22.3623C81.0441 22.2805 81.0339 22.2561 81.0526 22.2851C81.0765 22.3224 81.1124 22.392 81.1374 22.4816C81.1614 22.5673 81.16 22.6165 81.16 22.6H75.16C75.16 23.6153 75.4094 24.6005 76.0024 25.5249C76.5366 26.3575 77.2572 26.9914 77.93 27.5049L81.57 22.7351ZM81.16 22.6C81.16 22.6347 81.1539 22.6997 81.1317 22.7734C81.111 22.8423 81.0911 22.8689 81.1084 22.8406C81.1301 22.8049 81.1848 22.7241 81.3077 22.5774C81.4322 22.4288 81.5924 22.2527 81.8165 22.014L77.4435 17.906C76.5965 18.8076 75.16 20.2755 75.16 22.6H81.16ZM81.8335 21.9958C83.0867 20.6395 84.3265 19.3479 85.5957 18.0221C86.859 16.7027 88.1479 15.3529 89.4634 13.915L85.0366 9.86496C83.7721 11.2471 82.526 12.5523 81.2618 13.8729C80.0035 15.1871 78.7233 16.5205 77.4265 17.9242L81.8335 21.9958ZM89.4457 13.9343C90.3887 12.9214 91.044 12.0436 91.5746 10.9382L86.1654 8.3418C85.976 8.73642 85.7313 9.11864 85.0543 9.84574L89.4457 13.9343ZM115.12 9.61L115.479 6.63161C114.531 6.5171 113.584 6.86152 112.931 7.55899C112.277 8.25647 111.995 9.22352 112.171 10.1629L115.12 9.61ZM118.63 10.3L117.614 13.1227C117.636 13.1307 117.659 13.1385 117.681 13.146L118.63 10.3ZM119.02 11.32L121.342 13.2197C121.349 13.2112 121.356 13.2027 121.363 13.1941L119.02 11.32ZM118.6 12.4L115.648 11.8633C115.646 11.8778 115.643 11.8923 115.641 11.9068L118.6 12.4ZM118.36 13.9L115.406 13.3786C115.243 14.3025 115.521 15.2495 116.158 15.9379C116.796 16.6264 117.718 16.9771 118.652 16.8857L118.36 13.9ZM126.16 12.64L126.824 15.5657C126.845 15.5608 126.866 15.5557 126.888 15.5504L126.16 12.64ZM126.67 12.94L123.741 13.5908C123.745 13.6055 123.748 13.6202 123.752 13.6349L126.67 12.94ZM126.34 15.58L125.803 12.6284C125.782 12.6323 125.76 12.6365 125.739 12.6409L126.34 15.58ZM117.82 16.84L117.557 13.8515C116.116 13.9782 114.971 15.1154 114.834 16.5556L117.82 16.84ZM117.61 19.87L114.611 19.7843C114.583 20.7634 115.035 21.6944 115.821 22.2784C116.608 22.8624 117.629 23.0258 118.559 22.716L117.61 19.87ZM122.2 19.21L122.261 22.2094C123.489 22.1843 124.578 21.4133 125.009 20.2634L122.2 19.21ZM122.71 17.02L123.587 14.1509C122.695 13.8785 121.728 14.036 120.969 14.5771C120.21 15.1182 119.745 15.9813 119.712 16.9129L122.71 17.02ZM125.38 18.13L123.636 20.5712C123.663 20.5899 123.689 20.6083 123.716 20.6261L125.38 18.13ZM125.74 19.15L123.619 17.0287L123.619 17.0287L125.74 19.15ZM125.35 19.75L122.728 18.2931C122.278 19.1027 122.227 20.0746 122.59 20.9265C122.954 21.7785 123.69 22.4149 124.585 22.6509L125.35 19.75ZM123.16 35.53L122.377 32.634L122.371 32.6357L123.16 35.53ZM121.84 34.96L119.157 36.3016L119.157 36.3016L121.84 34.96ZM120.07 33.1L119.458 30.1631C118.335 30.3971 117.443 31.2517 117.162 32.3644C116.88 33.477 117.258 34.6528 118.135 35.3929L120.07 33.1ZM125.65 30.91L127.375 33.3646C127.389 33.3545 127.403 33.3443 127.418 33.334L125.65 30.91ZM124.33 22.06L125.068 19.1521C123.725 18.8113 122.323 19.4349 121.676 20.6608L124.33 22.06ZM118.66 29.92L116.524 27.8134C115.77 28.5782 115.482 29.6879 115.769 30.7229L118.66 29.92ZM119.2 31.27L116.452 32.4725C116.46 32.4908 116.468 32.509 116.476 32.5272L119.2 31.27ZM118.96 32.02L117.24 29.5623C117.218 29.5771 117.198 29.5921 117.177 29.6075L118.96 32.02ZM117.16 33.07L115.978 30.3126C115.924 30.3357 115.871 30.3604 115.818 30.3867L117.16 33.07ZM116.56 32.92L113.969 34.4316C113.975 34.4423 113.981 34.4529 113.988 34.4635L116.56 32.92ZM116.05 31.75L118.896 30.8013C118.598 29.9062 117.896 29.2037 117.001 28.9046C116.106 28.6056 115.123 28.745 114.346 29.2809L116.05 31.75ZM114.52 20.86L115.853 23.5476C116.852 23.0524 117.493 22.0442 117.519 20.9297L114.52 20.86ZM114.67 17.11L117.666 17.2677C117.71 16.4281 117.4 15.6086 116.811 15.0086C116.222 14.4086 115.409 14.0832 114.568 14.1117L114.67 17.11ZM109.87 17.08L110.363 14.1208C110.29 14.1086 110.216 14.0991 110.142 14.0923L109.87 17.08ZM109.33 16.39L112.325 16.2138C112.32 16.1372 112.313 16.0607 112.302 15.9847L109.33 16.39ZM109.18 14.11L109.506 11.1278C108.622 11.031 107.74 11.3319 107.099 11.9491C106.458 12.5664 106.124 13.4362 106.188 14.3237L109.18 14.11ZM115 14.23L115.04 17.2297C116.553 17.2096 117.815 16.0654 117.982 14.5613L115 14.23ZM117.82 26.95L114.856 27.4149C115.037 28.5666 115.868 29.5093 116.988 29.8324C118.109 30.1556 119.314 29.8006 120.081 28.9221L117.82 26.95ZM121.3 21.76L123.983 23.1016C124.455 22.1584 124.397 21.0368 123.83 20.1475C123.263 19.2582 122.271 18.7319 121.217 18.7612L121.3 21.76ZM117.46 22.45L116.53 19.5978C115.275 20.007 114.435 21.1881 114.461 22.5077L117.46 22.45ZM114.52 23.8L117.518 23.6966C117.48 22.5921 116.838 21.5979 115.847 21.1092C114.855 20.6205 113.676 20.7164 112.776 21.3588L114.52 23.8ZM115.12 28.96L116.971 31.3206C117.835 30.6434 118.26 29.5491 118.079 28.4668L115.12 28.96ZM114.761 12.5884C116.447 12.7919 117.193 12.971 117.614 13.1227L119.646 7.47734C118.567 7.08896 117.273 6.84808 115.479 6.63161L114.761 12.5884ZM117.681 13.146C117.618 13.1251 117.275 13.0074 116.914 12.6463C116.479 12.2116 116.17 11.5677 116.17 10.84H122.17C122.17 8.60723 120.331 7.7046 119.579 7.45395L117.681 13.146ZM116.17 10.84C116.17 10.8238 116.167 10.5716 116.267 10.2405C116.379 9.86704 116.556 9.59801 116.677 9.44591L121.363 13.1941C121.604 12.892 121.856 12.488 122.013 11.9645C122.158 11.4834 122.17 11.0662 122.17 10.84H116.17ZM116.698 9.42028C115.888 10.411 115.706 11.5459 115.648 11.8633L121.552 12.9367C121.564 12.8711 121.57 12.8378 121.575 12.8163C121.58 12.7962 121.58 12.8023 121.572 12.8257C121.557 12.8676 121.498 13.029 121.342 13.2197L116.698 9.42028ZM115.641 11.9068C115.52 12.629 115.504 12.8228 115.406 13.3786L121.314 14.4214C121.396 13.9572 121.5 13.251 121.559 12.8932L115.641 11.9068ZM118.652 16.8857C121.531 16.6041 123.785 16.2548 126.824 15.5657L125.496 9.7143C122.715 10.3452 120.709 10.6559 118.068 10.9143L118.652 16.8857ZM126.888 15.5504C126.823 15.5665 126.583 15.6236 126.243 15.6076C125.863 15.5899 125.329 15.4783 124.807 15.1127C124.298 14.756 124.03 14.3188 123.901 14.0439C123.784 13.795 123.744 13.6019 123.741 13.5908L129.599 12.2892C129.571 12.1664 129.36 10.9759 128.248 10.1973C127.046 9.35564 125.791 9.64001 125.432 9.72957L126.888 15.5504ZM123.752 13.6349C123.895 14.2367 123.97 14.6955 123.97 14.98H129.97C129.97 13.9445 129.745 12.9033 129.588 12.2451L123.752 13.6349ZM123.97 14.98C123.97 14.6837 124.029 14.3176 124.21 13.9393C124.39 13.5603 124.643 13.272 124.895 13.0685C125.347 12.7047 125.762 12.6359 125.803 12.6284L126.877 18.5316C127.248 18.4641 127.978 18.2903 128.662 17.739C129.489 17.0719 129.97 16.0761 129.97 14.98H123.97ZM125.739 12.6409C121.904 13.4252 120.189 13.6202 117.557 13.8515L118.083 19.8285C120.911 19.5798 122.856 19.3548 126.941 18.5191L125.739 12.6409ZM114.834 16.5556C114.712 17.8352 114.644 18.6336 114.611 19.7843L120.609 19.9557C120.636 19.0064 120.688 18.3648 120.806 17.1244L114.834 16.5556ZM118.559 22.716C119.325 22.4605 120.939 22.2364 122.261 22.2094L122.139 16.2106C120.521 16.2436 118.235 16.4995 116.661 17.024L118.559 22.716ZM125.009 20.2634C125.199 19.7576 125.659 18.4927 125.708 17.1271L119.712 16.9129C119.708 17.0337 119.679 17.227 119.611 17.4823C119.546 17.7269 119.465 17.9594 119.391 18.1566L125.009 20.2634ZM121.833 19.8891C122.283 20.0265 122.755 20.1967 123.145 20.358C123.339 20.4385 123.493 20.5085 123.601 20.5624C123.733 20.6278 123.721 20.6319 123.636 20.5712L127.124 15.6888C126.61 15.3221 125.932 15.0179 125.44 14.8145C124.87 14.5783 124.217 14.3435 123.587 14.1509L121.833 19.8891ZM123.716 20.6261C123.712 20.6232 123.684 20.6047 123.641 20.5668C123.599 20.5302 123.527 20.4618 123.442 20.3566C123.324 20.208 122.92 19.6618 122.92 18.79H128.92C128.92 17.7382 128.426 16.982 128.128 16.6084C127.791 16.187 127.397 15.8691 127.044 15.6339L123.716 20.6261ZM122.92 18.79C122.92 17.8337 123.412 17.2357 123.619 17.0287L127.861 21.2713C128.308 20.8243 128.92 19.9863 128.92 18.79H122.92ZM123.619 17.0287C123.093 17.5544 122.765 18.2256 122.728 18.2931L127.972 21.2069C127.994 21.1677 128.015 21.1306 128.031 21.1005C128.049 21.0686 128.062 21.0452 128.074 21.024C128.098 20.98 128.104 20.9713 128.1 20.9773C128.095 20.9858 128.071 21.024 128.03 21.0776C127.988 21.1336 127.932 21.2007 127.861 21.2713L123.619 17.0287ZM124.585 22.6509C126.074 23.0433 127.025 23.6672 127.595 24.3346C128.141 24.9735 128.5 25.8383 128.5 27.07H134.5C134.5 24.5517 133.719 22.2665 132.157 20.4379C130.62 18.6378 128.496 17.4767 126.115 16.8491L124.585 22.6509ZM128.5 27.07C128.5 29.3493 126.69 31.4676 122.377 32.634L123.943 38.426C129.17 37.0124 134.5 33.4907 134.5 27.07H128.5ZM122.371 32.6357C122.161 32.693 122.737 32.4731 123.49 32.7746C124.309 33.1021 124.575 33.7209 124.523 33.6184L119.157 36.3016C119.435 36.8591 120.031 37.8529 121.262 38.3454C122.428 38.8119 123.499 38.547 123.949 38.4243L122.371 32.6357ZM124.523 33.6184C124.217 33.0055 123.769 32.4855 123.409 32.1079C123.012 31.6908 122.534 31.2539 122.005 30.8071L118.135 35.3929C118.566 35.7561 118.868 36.0392 119.063 36.2446C119.16 36.346 119.212 36.4094 119.234 36.4373C119.261 36.4725 119.218 36.4238 119.157 36.3016L124.523 33.6184ZM120.682 36.0369C123.117 35.5296 125.84 34.443 127.375 33.3646L123.925 28.4554C123.24 28.937 121.343 29.7704 119.458 30.1631L120.682 36.0369ZM127.418 33.334C128.347 32.6565 129.289 31.781 129.985 30.582C130.697 29.3548 131.05 27.9629 131.05 26.41H125.05C125.05 27.0171 124.923 27.3502 124.795 27.5705C124.651 27.819 124.393 28.1135 123.882 28.486L127.418 33.334ZM131.05 26.41C131.05 22.1985 127.929 19.8782 125.068 19.1521L123.592 24.9679C124.165 25.1133 124.547 25.3567 124.755 25.5784C124.922 25.7556 125.05 25.9852 125.05 26.41H131.05ZM121.676 20.6608C120.067 23.712 118.469 25.8413 116.524 27.8134L120.796 32.0266C123.171 29.6187 125.113 27.008 126.984 23.4592L121.676 20.6608ZM115.769 30.7229C115.995 31.5344 116.332 32.1984 116.452 32.4725L121.948 30.0675C121.885 29.922 121.824 29.7889 121.778 29.6875C121.728 29.5788 121.695 29.5049 121.665 29.4357C121.614 29.3168 121.581 29.2282 121.551 29.1171L115.769 30.7229ZM116.476 32.5272C116.431 32.4299 116.067 31.6177 116.475 30.5983C116.653 30.153 116.906 29.8675 117.048 29.728C117.177 29.6013 117.276 29.5371 117.24 29.5623L120.68 34.4777C120.795 34.3972 121.631 33.8616 122.045 32.8267C122.543 31.5823 122.149 30.5001 121.924 30.0128L116.476 32.5272ZM117.177 29.6075C116.691 29.9669 116.206 30.215 115.978 30.3126L118.342 35.8274C118.954 35.565 119.849 35.0931 120.743 34.4325L117.177 29.6075ZM115.818 30.3867C115.785 30.4036 115.915 30.3332 116.125 30.272C116.355 30.2049 116.831 30.1028 117.427 30.2268C118.056 30.3578 118.503 30.6739 118.772 30.9333C119.003 31.157 119.119 31.3549 119.132 31.3765L113.988 34.4635C114.114 34.6747 114.764 35.8009 116.203 36.1007C117.451 36.3606 118.461 35.7735 118.502 35.7533L115.818 30.3867ZM119.151 31.4084C119.078 31.2829 119.005 31.1285 118.896 30.8013L113.204 32.6987C113.395 33.2715 113.622 33.8371 113.969 34.4316L119.151 31.4084ZM114.346 29.2809C112.336 30.6681 111.412 30.91 110.83 30.91V36.91C113.308 36.91 115.504 35.7719 117.754 34.2191L114.346 29.2809ZM110.83 30.91C110.658 30.91 110.586 30.8814 110.58 30.879C110.576 30.8775 110.582 30.8798 110.594 30.888C110.606 30.8963 110.616 30.9057 110.623 30.9134C110.671 30.9658 110.5 30.8257 110.5 30.19H104.5C104.5 31.8943 104.974 33.6142 106.177 34.9416C107.411 36.3037 109.103 36.91 110.83 36.91V30.91ZM110.5 30.19C110.5 29.1422 110.964 27.9069 111.973 26.6407C112.973 25.3849 114.373 24.2817 115.853 23.5476L113.187 18.1724C110.977 19.2683 108.867 20.9101 107.28 22.9018C105.701 24.8831 104.5 27.3978 104.5 30.19H110.5ZM117.519 20.9297C117.548 19.6813 117.607 18.3939 117.666 17.2677L111.674 16.9523C111.613 18.1061 111.552 19.4587 111.521 20.7903L117.519 20.9297ZM114.568 14.1117C112.866 14.1694 112.158 14.14 111.58 14.14V20.14C112.022 20.14 112.934 20.1706 114.772 20.1083L114.568 14.1117ZM111.58 14.14C111.129 14.14 110.839 14.1397 110.616 14.1336C110.392 14.1275 110.342 14.1173 110.363 14.1208L109.377 20.0392C110.045 20.1506 110.84 20.14 111.58 20.14V14.14ZM110.142 14.0923C110.347 14.111 111.132 14.2233 111.765 14.9626C112.046 15.2899 112.184 15.6157 112.251 15.8353C112.314 16.0435 112.323 16.1879 112.325 16.2138L106.335 16.5662C106.364 17.0556 106.483 18.0191 107.21 18.8674C108.023 19.8167 109.063 20.019 109.598 20.0677L110.142 14.0923ZM112.302 15.9847C112.226 15.4212 112.256 15.0735 112.172 13.8963L106.188 14.3237C106.224 14.8265 106.254 16.0388 106.358 16.7953L112.302 15.9847ZM108.854 17.0922C111.002 17.3272 112.879 17.2585 115.04 17.2297L114.96 11.2303C112.621 11.2614 111.198 11.3128 109.506 11.1278L108.854 17.0922ZM117.982 14.5613C118.102 13.4787 118.24 11.9824 118.24 10.96H112.24C112.24 11.6176 112.138 12.8213 112.018 13.8987L117.982 14.5613ZM118.24 10.96C118.24 10.3586 118.199 9.75013 118.069 9.05713L112.171 10.1629C112.221 10.4299 112.24 10.6614 112.24 10.96H118.24ZM120.081 28.9221C121.477 27.3218 123.029 25.0101 123.983 23.1016L118.617 20.4184C117.891 21.8699 116.623 23.7582 115.559 24.9779L120.081 28.9221ZM121.217 18.7612C119.852 18.7991 118.187 19.0576 116.53 19.5978L118.39 25.3022C119.493 24.9424 120.588 24.7809 121.383 24.7588L121.217 18.7612ZM114.461 22.5077C114.492 24.1545 114.589 25.7087 114.856 27.4149L120.784 26.4851C120.571 25.1313 120.488 23.8655 120.459 22.3923L114.461 22.5077ZM112.776 21.3588C110.193 23.2039 107.65 26.146 107.65 29.56H113.65C113.65 29.074 114.227 27.696 116.264 26.2412L112.776 21.3588ZM107.65 29.56C107.65 30.5535 107.97 31.603 108.738 32.4348C109.509 33.2699 110.567 33.7 111.64 33.7V27.7C112.173 27.7 112.736 27.9201 113.147 28.3652C113.555 28.807 113.65 29.2865 113.65 29.56H107.65ZM111.64 33.7C113.593 33.7 115.419 32.5379 116.971 31.3206L113.269 26.5994C112.593 27.1289 112.111 27.4319 111.787 27.5932C111.449 27.7607 111.432 27.7 111.64 27.7V33.7ZM118.079 28.4668C117.782 26.6864 117.571 25.2288 117.518 23.6966L111.522 23.9034C111.589 25.8512 111.858 27.6336 112.161 29.4532L118.079 28.4668ZM150.61 21.34L148.532 19.1764C147.697 19.9787 147.398 21.19 147.764 22.2887L150.61 21.34ZM150.64 21.43L147.794 22.3787C148.078 23.2314 148.73 23.9117 149.569 24.2324C150.409 24.5532 151.348 24.4806 152.128 24.0347L150.64 21.43ZM156.19 31.81L153.287 32.566C153.51 33.4239 154.102 34.1391 154.902 34.5196C155.703 34.9001 156.631 34.907 157.437 34.5384L156.19 31.81ZM146.86 25.9L144.915 23.6163C144.895 23.6327 144.876 23.6494 144.857 23.6663L146.86 25.9ZM144.25 28.45L142.129 26.3287V26.3287L144.25 28.45ZM143.29 28.51L145.411 26.3887C145.357 26.3344 145.301 26.2822 145.242 26.2322L143.29 28.51ZM141.52 26.56L139.12 28.36C139.125 28.3661 139.129 28.3721 139.134 28.3781L141.52 26.56ZM141.67 25.87L139.785 23.5362C139.703 23.6028 139.624 23.6737 139.549 23.7487L141.67 25.87ZM148.78 19.24L146.625 17.1526C146.621 17.1568 146.617 17.161 146.613 17.1653L148.78 19.24ZM153.43 14.11L155.765 15.9941C156.552 15.0179 156.65 13.6546 156.008 12.5765C155.367 11.4983 154.123 10.933 152.889 11.1592L153.43 14.11ZM147.64 15.25L147.024 12.3138C147.005 12.318 146.985 12.3223 146.965 12.3268L147.64 15.25ZM146.38 15.61L145.327 12.801C145.306 12.8086 145.286 12.8165 145.266 12.8246L146.38 15.61ZM145.12 15.25L147.889 14.0962C147.856 14.0167 147.82 13.9386 147.78 13.8623L145.12 15.25ZM144.07 12.01L144.466 9.03631C143.483 8.90525 142.499 9.26843 141.837 10.0066C141.175 10.7448 140.92 11.7625 141.157 12.7256L144.07 12.01ZM146.86 12.07L147.06 15.0634C147.091 15.0613 147.122 15.0587 147.154 15.0556L146.86 12.07ZM153.67 11.05L154.237 13.996C154.244 13.9946 154.251 13.9932 154.258 13.9917L153.67 11.05ZM155.32 10.6L156.662 13.2833C156.73 13.2489 156.798 13.212 156.863 13.1725L155.32 10.6ZM156.58 10.6L158.405 8.21918C158.378 8.19859 158.351 8.17846 158.324 8.15879L156.58 10.6ZM158.59 12.52L156.258 14.4076C156.287 14.4434 156.317 14.4786 156.348 14.5131L158.59 12.52ZM158.41 13.96L157.169 11.2289C157.157 11.2344 157.145 11.2399 157.133 11.2455L158.41 13.96ZM157.09 14.92L155.09 12.6843C155.059 12.712 155.028 12.7404 154.998 12.7694L157.09 14.92ZM153.22 32.56L153.808 35.5017C154.606 35.3422 155.305 34.8653 155.745 34.1805C156.184 33.4958 156.327 32.6618 156.14 31.8699L153.22 32.56ZM147.764 22.2887L147.794 22.3787L153.486 20.4813L153.456 20.3913L147.764 22.2887ZM152.128 24.0347C153.41 23.3024 154.312 23.08 155.41 23.08V17.08C153.148 17.08 151.23 17.6376 149.152 18.8253L152.128 24.0347ZM155.41 23.08C156.936 23.08 158.016 23.5721 158.695 24.2242C159.362 24.8649 159.85 25.8562 159.85 27.28H165.85C165.85 24.3838 164.808 21.7751 162.85 19.8958C160.904 18.0279 158.264 17.08 155.41 17.08V23.08ZM159.85 27.28C159.85 28.8948 159.237 30.0695 158.167 30.9115C157.023 31.8116 155.124 32.5 152.38 32.5V38.5C156.056 38.5 159.392 37.5834 161.878 35.626C164.438 33.6105 165.85 30.6752 165.85 27.28H159.85ZM152.38 32.5C150.863 32.5 150.046 32.1671 149.69 31.9101C149.456 31.7406 149.32 31.5571 149.32 31.09H143.32C143.32 33.4129 144.324 35.4344 146.175 36.7724C147.904 38.0229 150.117 38.5 152.38 38.5V32.5ZM149.32 31.09C149.32 31.0677 149.325 30.9448 149.524 30.7722C149.727 30.5959 150.081 30.43 150.55 30.43V24.43C146.967 24.43 143.32 27.0374 143.32 31.09H149.32ZM150.55 30.43C151.42 30.43 151.972 30.6551 152.327 30.9254C152.676 31.1919 153.053 31.6689 153.287 32.566L159.093 31.054C158.577 29.0711 157.544 27.3581 155.965 26.1546C154.393 24.9549 152.5 24.43 150.55 24.43V30.43ZM157.437 34.5384C158.789 33.9206 160.072 33.0526 160.984 31.7181C161.913 30.3593 162.25 28.8225 162.25 27.25H156.25C156.25 27.9575 156.107 28.2207 156.031 28.3319C155.938 28.4674 155.691 28.7394 154.943 29.0816L157.437 34.5384ZM162.25 27.25C162.25 25.1535 161.495 23.2069 160.013 21.7914C158.544 20.3888 156.585 19.72 154.54 19.72V25.72C155.285 25.72 155.681 25.9512 155.87 26.1311C156.045 26.2981 156.25 26.6165 156.25 27.25H162.25ZM154.54 19.72C151.187 19.72 147.761 21.1916 144.915 23.6163L148.805 28.1837C150.819 26.4684 152.913 25.72 154.54 25.72V19.72ZM144.857 23.6663C143.907 24.5181 142.975 25.482 142.129 26.3287L146.371 30.5713C147.325 29.618 148.073 28.8419 148.863 28.1337L144.857 23.6663ZM142.129 26.3287C142.042 26.4158 142.118 26.3274 142.282 26.2151C142.461 26.0931 142.978 25.78 143.74 25.78V31.78C144.652 31.78 145.319 31.4069 145.663 31.1724C145.992 30.9476 146.248 30.6942 146.371 30.5713L142.129 26.3287ZM143.74 25.78C144.418 25.78 144.89 26.0255 145.081 26.14C145.288 26.2641 145.399 26.3763 145.411 26.3887L141.169 30.6313C141.361 30.8237 141.637 31.0709 141.994 31.285C142.335 31.4895 142.942 31.78 143.74 31.78V25.78ZM145.242 26.2322C144.85 25.8958 144.34 25.3105 143.906 24.7419L139.134 28.3781C139.66 29.0695 140.47 30.0442 141.338 30.7878L145.242 26.2322ZM143.92 24.76C144.073 24.9633 144.259 25.2823 144.358 25.7136C144.461 26.1619 144.439 26.602 144.336 26.988C144.24 27.3493 144.088 27.6051 143.991 27.7466C143.894 27.8874 143.812 27.9708 143.791 27.9913L139.549 23.7487C139.324 23.9731 138.777 24.5474 138.539 25.442C138.234 26.5848 138.572 27.6299 139.12 28.36L143.92 24.76ZM143.555 28.2038C146.014 26.2178 148.178 24.2069 150.947 21.3147L146.613 17.1653C143.982 19.9131 142.006 21.7422 139.785 23.5362L143.555 28.2038ZM150.935 21.3274C152.804 19.3975 154.294 17.8161 155.765 15.9941L151.095 12.2259C149.806 13.8239 148.476 15.2425 146.625 17.1526L150.935 21.3274ZM152.889 11.1592C151.062 11.4941 148.907 11.919 147.024 12.3138L148.256 18.1862C150.093 17.801 152.198 17.3859 153.971 17.0608L152.889 11.1592ZM146.965 12.3268C146.571 12.4178 146.01 12.5448 145.327 12.801L147.433 18.419C147.71 18.3152 147.929 18.2622 148.315 18.1732L146.965 12.3268ZM145.266 12.8246C145.301 12.8105 145.317 12.8057 145.311 12.8076C145.308 12.8085 145.305 12.8092 145.307 12.8088C145.308 12.8084 145.314 12.8069 145.324 12.8046C145.334 12.8023 145.353 12.7982 145.379 12.7934C145.405 12.7888 145.448 12.7815 145.506 12.7749C145.561 12.7688 145.656 12.76 145.78 12.76V18.76C146.278 18.76 146.718 18.6422 146.853 18.6062C147.064 18.5499 147.293 18.4761 147.494 18.3954L145.266 12.8246ZM145.78 12.76C146.166 12.76 146.707 12.8705 147.207 13.2499C147.658 13.5923 147.839 13.976 147.889 14.0962L142.351 16.4038C142.551 16.884 142.912 17.5227 143.581 18.0301C144.298 18.5745 145.094 18.76 145.78 18.76V12.76ZM147.78 13.8623C147.603 13.5226 147.401 12.9959 146.983 11.2944L141.157 12.7256C141.579 14.444 141.917 15.5974 142.46 16.6377L147.78 13.8623ZM143.674 14.9837C144.833 15.1383 146.035 15.1316 147.06 15.0634L146.66 9.07664C145.885 9.12836 145.107 9.12166 144.466 9.03631L143.674 14.9837ZM147.154 15.0556C149.091 14.8651 151.823 14.4601 154.237 13.996L153.103 8.10398C150.837 8.53985 148.289 8.91494 146.566 9.08441L147.154 15.0556ZM154.258 13.9917C154.921 13.8592 155.937 13.6457 156.662 13.2833L153.978 7.91672C154.067 7.8722 154.111 7.86001 154.074 7.87255C154.046 7.88227 153.987 7.90061 153.891 7.92629C153.696 7.97831 153.427 8.03922 153.082 8.10826L154.258 13.9917ZM156.863 13.1725C156.901 13.1497 156.903 13.1512 156.868 13.1673C156.851 13.1754 156.779 13.2086 156.666 13.2443C156.607 13.263 156.516 13.2891 156.4 13.3116C156.289 13.3333 156.112 13.36 155.89 13.36V7.36C155.086 7.36 154.441 7.67918 154.342 7.72522C154.097 7.83878 153.889 7.9603 153.777 8.02753L156.863 13.1725ZM155.89 13.36C155.718 13.36 155.473 13.3305 155.205 13.2287C154.965 13.1376 154.821 13.0299 154.836 13.0412L158.324 8.15879C157.799 7.78376 157.017 7.36 155.89 7.36V13.36ZM154.755 12.9808C155.481 13.5377 155.908 13.9747 156.258 14.4076L160.922 10.6324C160.252 9.80532 159.479 9.04227 158.405 8.21918L154.755 12.9808ZM156.348 14.5131C156.344 14.5089 156.223 14.3753 156.111 14.126C155.982 13.8402 155.92 13.5302 155.92 13.24H161.92C161.92 12.0258 161.374 11.1359 160.832 10.5269L156.348 14.5131ZM155.92 13.24C155.92 12.7715 156.066 12.3162 156.328 11.9409C156.584 11.5726 156.902 11.3501 157.169 11.2289L159.651 16.6911C160.889 16.1284 161.92 14.8856 161.92 13.24H155.92ZM157.133 11.2455C156.188 11.6899 155.664 12.1702 155.09 12.6843L159.09 17.1557C159.236 17.0253 159.337 16.9359 159.421 16.863C159.503 16.7925 159.548 16.7575 159.573 16.7387C159.593 16.7236 159.6 16.7193 159.604 16.7172C159.609 16.7139 159.632 16.7007 159.687 16.6745L157.133 11.2455ZM154.998 12.7694C152.597 15.1048 150.916 16.8863 148.532 19.1764L152.688 23.5036C154.864 21.4137 157.203 18.9952 159.182 17.0706L154.998 12.7694ZM156.14 31.8699C155.862 30.6966 155.341 29.4943 154.411 28.5483C153.423 27.5431 152.115 26.98 150.67 26.98V32.98C150.609 32.98 150.502 32.967 150.379 32.915C150.256 32.8633 150.174 32.7968 150.132 32.7542C150.094 32.7161 150.108 32.7171 150.149 32.7977C150.189 32.8791 150.247 33.0239 150.3 33.2501L156.14 31.8699ZM150.67 26.98C148.724 26.98 146.23 28.3066 146.23 31.12H152.23C152.23 31.7685 151.918 32.3118 151.527 32.6325C151.157 32.9361 150.811 32.98 150.67 32.98V26.98ZM146.23 31.12C146.23 32.6113 146.957 33.9519 148.242 34.7752C149.355 35.4875 150.666 35.68 151.84 35.68V29.68C151.558 29.68 151.396 29.6546 151.328 29.6394C151.257 29.6236 151.332 29.6291 151.478 29.7223C151.637 29.8241 151.851 30.0137 152.015 30.3141C152.18 30.6144 152.23 30.9064 152.23 31.12H146.23ZM151.84 35.68C152.517 35.68 153.113 35.6408 153.808 35.5017L152.632 29.6183C152.427 29.6592 152.243 29.68 151.84 29.68V35.68ZM182.11 18.97L179.122 19.2416C179.263 20.7868 180.558 21.97 182.11 21.97V18.97ZM186.4 18.97V21.97C187.838 21.97 189.074 20.9495 189.346 19.5373C189.618 18.1252 188.849 16.7187 187.514 16.1846L186.4 18.97ZM185.95 18.64L188.071 16.5187C188.03 16.4771 187.987 16.4368 187.943 16.3978L185.95 18.64ZM184.09 17.5L182.125 15.2329C181.353 15.9022 180.975 16.9184 181.121 17.9297C181.267 18.941 181.918 19.8083 182.849 20.2311L184.09 17.5ZM186.25 9.7L186.591 6.7194C185.643 6.61109 184.7 6.95994 184.051 7.65907C183.402 8.35821 183.124 9.32429 183.303 10.2613L186.25 9.7ZM188.95 10.18L188.268 13.1015C188.569 13.1717 188.879 13.195 189.187 13.1706L188.95 10.18ZM194.32 9.37L195.004 12.2911C195.058 12.2783 195.113 12.2639 195.167 12.2481L194.32 9.37ZM195.73 8.86L197.682 6.58223C196.788 5.81585 195.528 5.64346 194.461 6.14145L195.73 8.86ZM197.32 10.6L194.968 12.4621C194.983 12.4818 194.999 12.5013 195.015 12.5206L197.32 10.6ZM196.03 11.53L195.509 8.57565C195.475 8.58162 195.441 8.58817 195.407 8.5953L196.03 11.53ZM189.16 12.37L188.965 9.37636C187.387 9.47925 186.16 10.7889 186.16 12.37H189.16ZM189.13 13.75H186.13C186.13 15.4069 187.473 16.75 189.13 16.75V13.75ZM194.32 16.03V13.03C192.663 13.03 191.32 14.3731 191.32 16.03H194.32ZM194.35 18.94L191.362 19.2116C191.503 20.7568 192.798 21.94 194.35 21.94V18.94ZM190.39 31.6V28.6C189.021 28.6 187.825 29.5273 187.484 30.8537C187.144 32.18 187.744 33.5687 188.944 34.2286L190.39 31.6ZM199.06 33.97L201.428 35.8118C202.099 34.9487 202.248 33.7886 201.816 32.7842C201.383 31.7798 200.439 31.0901 199.351 30.9841L199.06 33.97ZM197.95 35.77L195.241 34.4802L195.239 34.4857L197.95 35.77ZM196.57 36.46L197.107 33.5084L197.096 33.5065L196.57 36.46ZM188.17 33.46L189.754 30.9121C189.74 30.9038 189.727 30.8956 189.713 30.8875L188.17 33.46ZM188.26 33.01L189.924 35.5061C190.002 35.4545 190.076 35.3994 190.149 35.3408L188.26 33.01ZM190 31.6L191.889 33.9308C192.876 33.1308 193.252 31.7958 192.828 30.5981C192.403 29.4004 191.271 28.6 190 28.6V31.6ZM180.67 31.6V28.6C179.31 28.6 178.12 29.5153 177.771 30.83C177.421 32.1447 178.001 33.5298 179.182 34.2047L180.67 31.6ZM182.47 32.74L180.611 35.0946C180.656 35.1303 180.702 35.1647 180.75 35.1977L182.47 32.74ZM182.41 33.61L181.873 30.6584C181.788 30.6738 181.704 30.693 181.621 30.7157L182.41 33.61ZM181.24 34.12L179.963 31.4055C179.935 31.4188 179.907 31.4324 179.879 31.4465L181.24 34.12ZM174.43 36.4L173.885 33.4499C173.87 33.4526 173.856 33.4554 173.842 33.4583L174.43 36.4ZM173.05 35.74L170.339 37.0243C170.348 37.0435 170.357 37.0626 170.367 37.0816L173.05 35.74ZM171.88 34.03L171.549 31.0483C170.432 31.1724 169.479 31.9096 169.078 32.9588C168.677 34.008 168.895 35.1933 169.644 36.0304L171.88 34.03ZM179.17 32.23L180.436 34.9497C180.461 34.9379 180.487 34.9258 180.512 34.9133L179.17 32.23ZM180.22 31.6L182.02 34C183.053 33.2252 183.474 31.8763 183.066 30.6513C182.658 29.4263 181.511 28.6 180.22 28.6V31.6ZM179.2 18.97V21.97C180.857 21.97 182.2 20.6269 182.2 18.97H179.2ZM179.23 16.03H182.23C182.23 14.3731 180.887 13.03 179.23 13.03V16.03ZM176.56 16.03V13.03C175.154 13.03 173.936 14.0066 173.631 15.3792L176.56 16.03ZM174.67 20.05L172.276 18.2415C172.251 18.2746 172.227 18.3082 172.203 18.3424L174.67 20.05ZM173.44 20.14L171.319 22.2613V22.2613L173.44 20.14ZM171.58 18.73L169.611 16.4662C168.87 17.1108 168.491 18.0774 168.598 19.054C168.704 20.0305 169.281 20.8933 170.143 21.3637L171.58 18.73ZM173.89 9.76L174.251 6.7818C173.305 6.66711 172.36 7.00883 171.707 7.70242C171.053 8.39601 170.768 9.35895 170.938 10.2967L173.89 9.76ZM176.59 10.18L175.982 13.1178C176.259 13.175 176.542 13.1929 176.824 13.1709L176.59 10.18ZM181.63 9.37L181.109 6.41565C181.034 6.42874 180.961 6.44461 180.888 6.46325L181.63 9.37ZM183.04 8.86L184.928 6.52826C183.938 5.72749 182.552 5.63801 181.468 6.30503L183.04 8.86ZM184.66 10.6L182.308 12.4621C182.323 12.4818 182.339 12.5013 182.355 12.5206L184.66 10.6ZM183.37 11.59L183.975 14.5284C184.002 14.5227 184.03 14.5167 184.057 14.5103L183.37 11.59ZM176.83 12.4L176.63 9.40664C175.055 9.5117 173.83 10.8206 173.83 12.4H176.83ZM176.83 13.75H173.83C173.83 15.4069 175.173 16.75 176.83 16.75V13.75ZM182.08 16.03L182.13 13.0304C181.326 13.017 180.55 13.3271 179.976 13.8911C179.403 14.4551 179.08 15.2257 179.08 16.03H182.08ZM192.31 29.41V32.41C193.967 32.41 195.31 31.0669 195.31 29.41H192.31ZM192.31 27.88H195.31C195.31 26.2231 193.967 24.88 192.31 24.88V27.88ZM178.81 27.88V24.88C177.153 24.88 175.81 26.2231 175.81 27.88H178.81ZM178.81 29.41H175.81C175.81 31.0669 177.153 32.41 178.81 32.41V29.41ZM178.81 25.96H175.81C175.81 27.6169 177.153 28.96 178.81 28.96V25.96ZM192.31 25.96V28.96C193.967 28.96 195.31 27.6169 195.31 25.96H192.31ZM192.31 24.52H195.31C195.31 22.8631 193.967 21.52 192.31 21.52V24.52ZM178.81 24.52V21.52C177.153 21.52 175.81 22.8631 175.81 24.52H178.81ZM192.31 21.19H195.31C195.31 19.5331 193.967 18.19 192.31 18.19V21.19ZM178.81 21.19V18.19C177.153 18.19 175.81 19.5331 175.81 21.19H178.81ZM178.81 22.6H175.81C175.81 24.2569 177.153 25.6 178.81 25.6V22.6ZM192.31 22.6V25.6C193.967 25.6 195.31 24.2569 195.31 22.6H192.31ZM191.47 16.03H194.47C194.47 14.3731 193.127 13.03 191.47 13.03V16.03ZM188.71 16.03V13.03C187.442 13.03 186.311 13.827 185.885 15.021L188.71 16.03ZM187.3 18.46L185.048 16.4781C185.008 16.5236 184.969 16.5703 184.932 16.6182L187.3 18.46ZM186.76 18.97L185.646 16.1846C184.311 16.7187 183.542 18.1252 183.814 19.5373C184.086 20.9495 185.322 21.97 186.76 21.97V18.97ZM191.44 18.97V21.97C193.097 21.97 194.44 20.6269 194.44 18.97H191.44ZM182.11 21.97H186.4V15.97H182.11V21.97ZM187.514 16.1846C187.686 16.2533 187.841 16.3427 187.966 16.4348C188.067 16.5091 188.112 16.5592 188.071 16.5187L183.829 20.7613C184.127 21.0592 184.586 21.4756 185.286 21.7554L187.514 16.1846ZM187.943 16.3978C187.074 15.6254 186.1 15.1181 185.331 14.7689L182.849 20.2311C183.4 20.4819 183.746 20.6946 183.957 20.8822L187.943 16.3978ZM186.055 19.7671C187.156 18.8124 188.076 17.7581 188.661 16.3974C189.237 15.0582 189.37 13.6927 189.37 12.34H183.37C183.37 13.3273 183.263 13.7618 183.149 14.0276C183.044 14.2719 182.824 14.6276 182.125 15.2329L186.055 19.7671ZM189.37 12.34C189.37 11.3925 189.383 10.1158 189.197 9.13866L183.303 10.2613C183.357 10.5442 183.37 11.1275 183.37 12.34H189.37ZM185.909 12.6806C186.811 12.7837 187.442 12.9088 188.268 13.1015L189.632 7.25848C188.658 7.03118 187.789 6.85633 186.591 6.7194L185.909 12.6806ZM189.187 13.1706C191.217 13.0095 193.437 12.6577 195.004 12.2911L193.636 6.44893C192.383 6.74232 190.463 7.05052 188.713 7.1894L189.187 13.1706ZM195.167 12.2481C195.732 12.0817 196.348 11.8821 196.999 11.5785L194.461 6.14145C194.212 6.25787 193.928 6.35826 193.474 6.4919L195.167 12.2481ZM193.778 11.1378C194.169 11.4732 194.405 11.7517 194.968 12.4621L199.672 8.73789C199.095 8.00827 198.551 7.32677 197.682 6.58223L193.778 11.1378ZM195.015 12.5206C195.044 12.5553 194.95 12.4504 194.85 12.2578C194.736 12.0392 194.59 11.6617 194.59 11.17H200.59C200.59 9.8001 199.8 8.88927 199.625 8.67944L195.015 12.5206ZM194.59 11.17C194.59 10.665 194.748 9.89734 195.39 9.25492C196.048 8.59709 196.813 8.47 197.23 8.47V14.47C197.917 14.47 198.862 14.2679 199.633 13.4976C200.387 12.7427 200.59 11.825 200.59 11.17H194.59ZM197.23 8.47C197.105 8.47 196.355 8.42626 195.509 8.57565L196.551 14.4844C196.725 14.4537 196.695 14.47 197.23 14.47V8.47ZM195.407 8.5953C193.629 8.97254 191.66 9.20056 188.965 9.37636L189.355 15.3636C192.18 15.1794 194.471 14.9275 196.653 14.4647L195.407 8.5953ZM186.16 12.37V13.39H192.16V12.37H186.16ZM186.16 13.39C186.16 13.2976 186.166 13.2289 186.168 13.2C186.171 13.1761 186.173 13.1601 186.168 13.1979C186.165 13.2201 186.156 13.2961 186.148 13.38C186.139 13.4689 186.13 13.5976 186.13 13.75H192.13C192.13 13.8424 192.124 13.9111 192.122 13.94C192.119 13.9639 192.117 13.9799 192.122 13.9421C192.125 13.9199 192.134 13.8439 192.142 13.76C192.151 13.6711 192.16 13.5424 192.16 13.39H186.16ZM189.13 16.75H194.44V10.75H189.13V16.75ZM194.44 16.75C195.916 16.75 196.922 16.7348 197.589 16.7192C197.923 16.7114 198.169 16.7035 198.342 16.6977C198.565 16.6902 198.572 16.69 198.55 16.69V10.69C198.438 10.69 198.25 10.6973 198.14 10.7011C197.98 10.7065 197.756 10.7136 197.449 10.7208C196.833 10.7352 195.874 10.75 194.44 10.75V16.75ZM198.55 16.69C198.627 16.69 198.413 16.6984 198.135 16.6442C197.789 16.5765 197.087 16.3643 196.511 15.6841C195.996 15.0754 195.896 14.4491 195.871 14.2788C195.845 14.095 195.85 13.9673 195.85 14.05H201.85C201.85 13.9677 201.851 13.7125 201.811 13.4303C201.773 13.1616 201.648 12.4658 201.091 11.8084C200.475 11.0794 199.714 10.8391 199.286 10.7555C198.927 10.6854 198.608 10.69 198.55 10.69V16.69ZM195.85 14.05V15.76H201.85V14.05H195.85ZM195.85 15.76C195.85 15.8341 195.844 15.6837 195.877 15.475C195.91 15.2634 196.034 14.6166 196.59 14.0103C197.179 13.368 197.865 13.1858 198.168 13.1301C198.426 13.0827 198.621 13.09 198.55 13.09V19.09C198.614 19.09 198.914 19.0935 199.253 19.0311C199.638 18.9604 200.383 18.752 201.013 18.0647C201.61 17.4134 201.758 16.7028 201.805 16.4013C201.852 16.1026 201.85 15.8359 201.85 15.76H195.85ZM198.55 13.09C198.572 13.09 198.565 13.0898 198.342 13.0823C198.169 13.0765 197.923 13.0686 197.589 13.0608C196.922 13.0452 195.916 13.03 194.44 13.03V19.03C195.874 19.03 196.833 19.0448 197.449 19.0592C197.756 19.0664 197.98 19.0735 198.14 19.0789C198.25 19.0827 198.438 19.09 198.55 19.09V13.09ZM194.44 13.03H194.32V19.03H194.44V13.03ZM191.32 16.03V17.47H197.32V16.03H191.32ZM191.32 17.47C191.32 18.0612 191.317 18.7113 191.362 19.2116L197.338 18.6684C197.323 18.5087 197.32 18.1988 197.32 17.47H191.32ZM194.35 21.94C194.624 21.94 194.847 21.9293 195.01 21.9192C195.08 21.9148 195.16 21.909 195.178 21.9077C195.195 21.9066 195.193 21.9068 195.183 21.9073C195.178 21.9076 195.133 21.91 195.07 21.91V15.91C194.984 15.91 194.913 15.9133 194.875 15.9153C194.833 15.9174 194.795 15.9199 194.77 15.9216C194.707 15.926 194.685 15.9277 194.635 15.9308C194.558 15.9356 194.466 15.94 194.35 15.94V21.94ZM195.07 21.91C195.15 21.91 194.982 21.9164 194.755 21.8786C194.507 21.8372 193.832 21.6894 193.226 21.0838C192.621 20.4783 192.473 19.8035 192.431 19.5551C192.394 19.3279 192.4 19.1601 192.4 19.24H198.4C198.4 19.1699 198.403 18.8859 198.35 18.5687C198.293 18.2303 198.119 17.4917 197.469 16.8412C196.818 16.1906 196.08 16.0166 195.741 15.9602C195.424 15.9073 195.14 15.91 195.07 15.91V21.91ZM192.4 19.24C192.4 19.2161 192.4 19.2275 192.393 19.4096C192.387 19.5535 192.379 19.7549 192.371 20.0147C192.355 20.5356 192.34 21.2786 192.34 22.3H198.34C198.34 21.3414 198.355 20.6594 198.369 20.1978C198.376 19.9663 198.383 19.7872 198.388 19.647C198.392 19.545 198.4 19.3689 198.4 19.24H192.4ZM192.34 22.3V28.27H198.34V22.3H192.34ZM192.34 28.27C192.34 29.2912 192.355 30.0345 192.371 30.5523C192.379 30.8108 192.387 31.0098 192.393 31.1514C192.401 31.3385 192.4 31.3348 192.4 31.3H198.4C198.4 31.1752 198.392 30.9952 198.388 30.9067C198.383 30.7727 198.376 30.5967 198.369 30.3677C198.355 29.9105 198.34 29.2288 198.34 28.27H192.34ZM192.4 31.3C192.4 31.388 192.394 31.2445 192.425 31.0435C192.456 30.841 192.576 30.183 193.143 29.5689C193.742 28.9204 194.438 28.7469 194.725 28.6961C194.971 28.6526 195.156 28.66 195.07 28.66V34.66C195.134 34.66 195.436 34.6636 195.771 34.6042C196.148 34.5374 196.908 34.3359 197.552 33.6386C198.164 32.9758 198.311 32.2483 198.356 31.9474C198.402 31.648 198.4 31.377 198.4 31.3H192.4ZM195.07 28.66C195.082 28.66 195.057 28.6593 194.836 28.6522C194.657 28.6464 194.405 28.6386 194.066 28.6308C193.389 28.6152 192.376 28.6 190.9 28.6V34.6C192.334 34.6 193.301 34.6148 193.929 34.6292C194.444 34.6411 194.935 34.66 195.07 34.66V28.66ZM190.9 28.6H190.39V34.6H190.9V28.6ZM188.944 34.2286C191.826 35.8136 195.145 36.6031 198.769 36.9559L199.351 30.9841C196.195 30.6769 193.754 30.0264 191.836 28.9714L188.944 34.2286ZM196.692 32.1282C196.14 32.8384 195.635 33.6533 195.241 34.4802L200.659 37.0598C200.865 36.6267 201.14 36.1816 201.428 35.8118L196.692 32.1282ZM195.239 34.4857C195.171 34.6283 195.143 34.6841 195.131 34.7071C195.114 34.7372 195.17 34.6265 195.294 34.474C195.434 34.303 195.701 34.0302 196.124 33.8206C196.559 33.6048 196.969 33.55 197.26 33.55V39.55C197.701 39.55 198.239 39.4689 198.789 39.1959C199.327 38.9292 199.697 38.5682 199.938 38.2735C200.32 37.8068 200.574 37.2375 200.661 37.0543L195.239 34.4857ZM197.26 33.55C197.321 33.55 197.363 33.553 197.379 33.5543C197.396 33.5557 197.398 33.5563 197.379 33.5538C197.361 33.5514 197.33 33.5469 197.283 33.5391C197.236 33.5314 197.178 33.5214 197.107 33.5084L196.033 39.4116C196.332 39.466 196.799 39.55 197.26 39.55V33.55ZM197.096 33.5065C194.327 33.013 191.564 32.0376 189.754 30.9121L186.586 36.0079C189.216 37.6424 192.753 38.827 196.044 39.4135L197.096 33.5065ZM189.713 30.8875C189.608 30.8244 189.829 30.9422 190.067 31.1665C190.321 31.4063 191.266 32.4322 190.878 33.9851C190.731 34.5744 190.439 34.965 190.286 35.1468C190.127 35.3348 189.984 35.4522 189.937 35.4901C189.857 35.5546 189.8 35.5886 189.924 35.5061L186.596 30.5139C186.54 30.5514 186.344 30.6791 186.167 30.8224C186.135 30.8485 185.332 31.4314 185.057 32.5299C184.654 34.1428 185.626 35.2249 185.947 35.5285C186.252 35.8165 186.582 36.0056 186.627 36.0325L189.713 30.8875ZM190.149 35.3408L191.889 33.9308L188.111 29.2692L186.371 30.6792L190.149 35.3408ZM190 28.6H180.67V34.6H190V28.6ZM179.182 34.2047C179.881 34.6045 180.256 34.8144 180.611 35.0946L184.329 30.3854C183.544 29.7656 182.719 29.3155 182.158 28.9953L179.182 34.2047ZM180.75 35.1977C180.841 35.2619 180.68 35.1651 180.483 34.9312C180.368 34.7949 180.205 34.5704 180.073 34.2554C179.934 33.9211 179.86 33.558 179.86 33.19H185.86C185.86 32.2398 185.454 31.5196 185.072 31.0663C184.755 30.6899 184.399 30.4281 184.19 30.2823L180.75 35.1977ZM179.86 33.19C179.86 32.6795 180.03 31.942 180.637 31.3349C181.163 30.809 181.719 30.6864 181.873 30.6584L182.947 36.5616C183.431 36.4736 184.212 36.246 184.88 35.5776C185.63 34.828 185.86 33.9105 185.86 33.19H179.86ZM181.621 30.7157C180.957 30.8968 180.219 31.2848 179.963 31.4055L182.517 36.8345C182.661 36.7669 182.792 36.7037 182.895 36.6535C183.006 36.6002 183.081 36.5641 183.146 36.5342C183.281 36.4724 183.271 36.4848 183.199 36.5043L181.621 30.7157ZM179.879 31.4465C178.454 32.1717 176.328 32.9985 173.885 33.4499L174.975 39.3501C178.052 38.7815 180.726 37.7483 182.601 36.7935L179.879 31.4465ZM173.842 33.4583C173.785 33.4696 173.74 33.4781 173.704 33.4844C173.668 33.4907 173.645 33.4941 173.634 33.4956C173.622 33.4973 173.628 33.4962 173.648 33.4945C173.667 33.4929 173.709 33.49 173.77 33.49V39.49C174.242 39.49 174.705 39.4044 175.018 39.3417L173.842 33.4583ZM173.77 33.49C173.901 33.49 174.244 33.5023 174.659 33.6657C175.109 33.8428 175.428 34.1106 175.629 34.3331C175.793 34.5162 175.869 34.6607 175.853 34.6313C175.841 34.6107 175.812 34.5565 175.733 34.3984L170.367 37.0816C170.443 37.2335 170.732 37.8619 171.169 38.3469C171.47 38.6819 171.893 39.0247 172.461 39.2486C172.996 39.459 173.474 39.49 173.77 39.49V33.49ZM175.761 34.4557C175.345 33.5771 174.778 32.7703 174.116 32.0296L169.644 36.0304C170.002 36.4297 170.215 36.7629 170.339 37.0243L175.761 34.4557ZM172.211 37.0117C175.092 36.6916 178.294 35.9471 180.436 34.9497L177.904 29.5103C176.566 30.1329 174.068 30.7684 171.549 31.0483L172.211 37.0117ZM180.512 34.9133C180.94 34.6989 181.452 34.426 182.02 34L178.42 29.2C178.268 29.314 178.12 29.4011 177.828 29.5467L180.512 34.9133ZM180.22 28.6C178.744 28.6 177.738 28.6152 177.071 28.6308C176.737 28.6386 176.491 28.6465 176.318 28.6523C176.095 28.6598 176.088 28.66 176.11 28.66V34.66C176.222 34.66 176.41 34.6527 176.52 34.6489C176.68 34.6435 176.904 34.6364 177.211 34.6292C177.827 34.6148 178.786 34.6 180.22 34.6V28.6ZM176.11 28.66C176.017 28.66 176.176 28.6534 176.394 28.6887C176.631 28.7271 177.315 28.8694 177.928 29.4824C178.541 30.0954 178.683 30.7792 178.721 31.016C178.757 31.2339 178.75 31.3933 178.75 31.3H172.75C172.75 31.3717 172.747 31.6586 172.798 31.9749C172.853 32.3101 173.023 33.0633 173.685 33.7251C174.347 34.3868 175.1 34.5573 175.435 34.6116C175.751 34.6628 176.038 34.66 176.11 34.66V28.66ZM178.75 31.3C178.75 31.3348 178.749 31.3385 178.757 31.1514C178.763 31.0098 178.771 30.8108 178.779 30.5523C178.795 30.0345 178.81 29.2913 178.81 28.27H172.81C172.81 29.2288 172.795 29.9105 172.781 30.3677C172.774 30.5967 172.767 30.7726 172.762 30.9067C172.758 30.9952 172.75 31.1752 172.75 31.3H178.75ZM178.81 28.27V22.3H172.81V28.27H178.81ZM178.81 22.3C178.81 21.2786 178.795 20.5356 178.779 20.0147C178.771 19.7549 178.763 19.5535 178.757 19.4096C178.75 19.2275 178.75 19.2161 178.75 19.24H172.75C172.75 19.3689 172.758 19.545 172.762 19.647C172.767 19.7872 172.774 19.9663 172.781 20.1978C172.795 20.6594 172.81 21.3414 172.81 22.3H178.81ZM178.75 19.24C178.75 19.1544 178.757 19.3394 178.714 19.585C178.663 19.872 178.49 20.5683 177.841 21.1669C177.227 21.7337 176.569 21.8543 176.366 21.8851C176.165 21.9158 176.022 21.91 176.11 21.91V15.91C176.033 15.91 175.762 15.908 175.463 15.9536C175.162 15.9995 174.434 16.1463 173.771 16.7581C173.074 17.4017 172.873 18.1618 172.806 18.5388C172.746 18.8743 172.75 19.1756 172.75 19.24H178.75ZM176.11 21.91C176.063 21.91 176.038 21.9084 176.234 21.9167C176.373 21.9226 176.571 21.9306 176.832 21.9386C177.355 21.9546 178.121 21.97 179.2 21.97V15.97C178.179 15.97 177.475 15.9554 177.015 15.9414C176.786 15.9344 176.614 15.9274 176.488 15.9221C176.418 15.9191 176.232 15.91 176.11 15.91V21.91ZM182.2 18.97C182.2 18.8653 182.205 18.7326 182.214 18.451C182.221 18.1961 182.23 17.8755 182.23 17.5H176.23C176.23 17.7845 176.224 18.0339 176.216 18.2665C176.21 18.4724 176.2 18.7447 176.2 18.97H182.2ZM182.23 17.5V16.03H176.23V17.5H182.23ZM179.23 13.03H176.56V19.03H179.23V13.03ZM173.631 15.3792C173.424 16.3141 173.034 17.2384 172.276 18.2415L177.064 21.8585C178.346 20.1616 179.096 18.4459 179.489 16.6808L173.631 15.3792ZM172.203 18.3424C172.09 18.5063 172.097 18.4985 172.032 18.591C171.991 18.6511 172.012 18.6155 172.068 18.5508C172.116 18.4937 172.302 18.2787 172.624 18.0753C172.998 17.8391 173.505 17.65 174.1 17.65V23.65C175.563 23.65 176.405 22.7111 176.635 22.4416C176.851 22.1885 177.098 21.8133 177.137 21.7576L172.203 18.3424ZM174.1 17.65C174.675 17.65 175.108 17.8244 175.345 17.9452C175.571 18.0608 175.712 18.1762 175.742 18.2006C175.78 18.2318 175.788 18.2418 175.744 18.1994C175.702 18.1589 175.649 18.1068 175.561 18.0187L171.319 22.2613C171.439 22.3813 171.688 22.6351 171.933 22.8369C172.079 22.9564 172.884 23.65 174.1 23.65V17.65ZM175.561 18.0187C174.773 17.2307 173.946 16.6031 173.017 16.0963L170.143 21.3637C170.534 21.5769 170.907 21.8493 171.319 22.2613L175.561 18.0187ZM173.549 20.9938C176.596 18.3436 177.04 15.0923 177.04 12.19H171.04C171.04 14.4477 170.704 15.5164 169.611 16.4662L173.549 20.9938ZM177.04 12.19C177.04 11.2475 177.014 10.1717 176.842 9.22334L170.938 10.2967C171.006 10.6683 171.04 11.2725 171.04 12.19H177.04ZM173.529 12.7382C174.485 12.8541 175.231 12.9624 175.982 13.1178L177.198 7.24222C176.209 7.03761 175.275 6.90587 174.251 6.7818L173.529 12.7382ZM176.824 13.1709C178.911 13.0078 180.792 12.6803 182.372 12.2768L180.888 6.46325C179.648 6.77969 178.109 7.05221 176.356 7.18911L176.824 13.1709ZM182.151 12.3243C182.957 12.1821 183.84 11.89 184.612 11.415L181.468 6.30503C181.477 6.29907 181.445 6.31941 181.365 6.34802C181.289 6.37547 181.199 6.39966 181.109 6.41565L182.151 12.3243ZM181.152 11.1917C181.501 11.4743 181.745 11.7512 182.308 12.4621L187.012 8.73789C186.435 8.00876 185.839 7.26568 184.928 6.52826L181.152 11.1917ZM182.355 12.5206C182.463 12.6499 182.379 12.5588 182.294 12.4172C182.191 12.2452 181.96 11.8027 181.96 11.17H187.96C187.96 10.3273 187.654 9.68984 187.439 9.33026C187.241 9.00115 187.007 8.7301 186.965 8.67944L182.355 12.5206ZM181.96 11.17C181.96 9.22448 183.629 8.5 184.51 8.5V14.5C185.991 14.5 187.96 13.4155 187.96 11.17H181.96ZM184.51 8.5C184.412 8.5 183.618 8.44981 182.683 8.66975L184.057 14.5103C184.096 14.5011 184.12 14.4988 184.15 14.4976C184.171 14.4968 184.2 14.4963 184.254 14.497C184.286 14.4973 184.31 14.4978 184.356 14.4986C184.396 14.4992 184.451 14.5 184.51 14.5V8.5ZM182.765 8.65163C180.905 9.03451 179.252 9.23189 176.63 9.40664L177.03 15.3934C179.808 15.2081 181.755 14.9855 183.975 14.5284L182.765 8.65163ZM173.83 12.4V13.75H179.83V12.4H173.83ZM176.83 16.75H181.12V10.75H176.83V16.75ZM181.12 16.75C182.448 16.75 183.338 16.7347 183.927 16.7189C184.222 16.711 184.438 16.703 184.59 16.6971C184.793 16.6893 184.782 16.69 184.75 16.69V10.69C184.628 10.69 184.445 10.6982 184.357 10.7016C184.22 10.707 184.029 10.714 183.766 10.7211C183.237 10.7353 182.402 10.75 181.12 10.75V16.75ZM184.75 16.69C184.836 16.69 184.651 16.6974 184.405 16.6539C184.118 16.6031 183.422 16.4296 182.823 15.7811C182.256 15.167 182.136 14.509 182.105 14.3065C182.074 14.1055 182.08 13.962 182.08 14.05H188.08C188.08 13.973 188.082 13.702 188.036 13.4026C187.991 13.1016 187.844 12.3742 187.232 11.7114C186.588 11.0141 185.828 10.8126 185.451 10.7458C185.116 10.6864 184.814 10.69 184.75 10.69V16.69ZM182.08 14.05V15.76H188.08V14.05H182.08ZM182.08 15.76C182.08 15.8399 182.074 15.6721 182.111 15.4449C182.153 15.1965 182.301 14.5217 182.906 13.9162C183.512 13.3106 184.187 13.1628 184.435 13.1214C184.662 13.0836 184.83 13.09 184.75 13.09V19.09C184.82 19.09 185.104 19.0927 185.421 19.0398C185.76 18.9834 186.498 18.8094 187.149 18.1588C187.799 17.5083 187.973 16.7697 188.03 16.4313C188.083 16.1141 188.08 15.8301 188.08 15.76H182.08ZM184.75 13.09C184.766 13.09 184.745 13.0899 184.607 13.086C184.494 13.0828 184.328 13.078 184.113 13.0723C183.68 13.0608 183.041 13.0456 182.13 13.0304L182.03 19.0296C182.919 19.0444 183.54 19.0592 183.954 19.0702C184.312 19.0797 184.622 19.09 184.75 19.09V13.09ZM179.08 16.03V17.5H185.08V16.03H179.08ZM179.08 17.5C179.08 18.0912 179.077 18.7413 179.122 19.2416L185.098 18.6984C185.083 18.5387 185.08 18.2288 185.08 17.5H179.08ZM195.31 29.41V27.88H189.31V29.41H195.31ZM192.31 24.88H178.81V30.88H192.31V24.88ZM175.81 27.88V29.41H181.81V27.88H175.81ZM178.81 32.41H192.31V26.41H178.81V32.41ZM178.81 28.96H192.31V22.96H178.81V28.96ZM195.31 25.96V24.52H189.31V25.96H195.31ZM192.31 21.52H178.81V27.52H192.31V21.52ZM175.81 24.52V25.96H181.81V24.52H175.81ZM192.31 18.19H178.81V24.19H192.31V18.19ZM175.81 21.19V22.6H181.81V21.19H175.81ZM178.81 25.6H192.31V19.6H178.81V25.6ZM195.31 22.6V21.19H189.31V22.6H195.31ZM191.47 13.03H188.71V19.03H191.47V13.03ZM185.885 15.021C185.691 15.5638 185.418 16.0578 185.048 16.4781L189.552 20.4419C190.502 19.3622 191.129 18.1762 191.535 17.039L185.885 15.021ZM184.932 16.6182C184.874 16.6929 184.876 16.6811 184.932 16.6278C184.962 16.5984 185.03 16.5368 185.132 16.4636C185.231 16.3928 185.404 16.2814 185.646 16.1846L187.874 21.7554C188.468 21.5177 188.878 21.1567 189.083 20.9597C189.319 20.7339 189.516 20.4971 189.668 20.3018L184.932 16.6182ZM186.76 21.97H191.44V15.97H186.76V21.97ZM194.44 18.97C194.44 18.8646 194.445 18.7327 194.454 18.4459C194.462 18.186 194.47 17.8591 194.47 17.47H188.47C188.47 17.7709 188.464 18.029 188.456 18.2641C188.45 18.4723 188.44 18.7454 188.44 18.97H194.44ZM194.47 17.47V16.03H188.47V17.47H194.47ZM230.2 35.17L232.218 37.3898L232.223 37.3855L230.2 35.17ZM224.89 35.05L221.934 35.5597C221.936 35.5741 221.939 35.5885 221.941 35.6029L224.89 35.05ZM224.2 32.83L224.596 29.8563C223.506 29.7109 222.423 30.1743 221.775 31.0639C221.127 31.9534 221.018 33.1262 221.491 34.1198L224.2 32.83ZM227.86 20.23H230.86C230.86 18.5731 229.517 17.23 227.86 17.23V20.23ZM222.4 18.04H219.4C219.4 19.6969 220.743 21.04 222.4 21.04V18.04ZM227.86 18.04V21.04C229.517 21.04 230.86 19.6969 230.86 18.04H227.86ZM227.86 16H230.86C230.86 14.3431 229.517 13 227.86 13V16ZM222.4 16V13C220.743 13 219.4 14.3431 219.4 16H222.4ZM227.86 12.16H230.86C230.86 10.5031 229.517 9.16 227.86 9.16V12.16ZM222.4 12.16V9.16C220.743 9.16 219.4 10.5031 219.4 12.16H222.4ZM222.4 13.93H219.4C219.4 15.5869 220.743 16.93 222.4 16.93V13.93ZM227.86 13.93V16.93C229.517 16.93 230.86 15.5869 230.86 13.93H227.86ZM209.26 20.23V17.23C207.603 17.23 206.26 18.5731 206.26 20.23H209.26ZM214.36 18.04V21.04C216.017 21.04 217.36 19.6969 217.36 18.04H214.36ZM214.36 16H217.36C217.36 14.3431 216.017 13 214.36 13V16ZM209.26 16V13C207.603 13 206.26 14.3431 206.26 16H209.26ZM209.26 18.04H206.26C206.26 19.6969 207.603 21.04 209.26 21.04V18.04ZM214.36 12.16H217.36C217.36 10.5031 216.017 9.16 214.36 9.16V12.16ZM209.26 12.16V9.16C207.603 9.16 206.26 10.5031 206.26 12.16H209.26ZM209.26 13.93H206.26C206.26 15.5869 207.603 16.93 209.26 16.93V13.93ZM214.36 13.93V16.93C216.017 16.93 217.36 15.5869 217.36 13.93H214.36ZM221.02 31.54H224.02C224.02 29.8831 222.677 28.54 221.02 28.54V31.54ZM215.83 31.54V28.54C214.173 28.54 212.83 29.8831 212.83 31.54H215.83ZM215.83 25.21V22.21C214.173 22.21 212.83 23.5531 212.83 25.21H215.83ZM215.83 28.99H212.83C212.83 30.6469 214.173 31.99 215.83 31.99V28.99ZM221.02 28.99V31.99C222.677 31.99 224.02 30.6469 224.02 28.99H221.02ZM221.02 25.21H224.02C224.02 23.5531 222.677 22.21 221.02 22.21V25.21ZM227.95 14.14V26.44H233.95V14.14H227.95ZM227.95 26.44C227.95 27.5385 227.981 28.7035 228.011 29.7472C228.042 30.818 228.07 31.7296 228.07 32.41H234.07C234.07 31.6204 234.038 30.597 234.009 29.5753C233.979 28.5265 233.95 27.4415 233.95 26.44H227.95ZM228.07 32.41C228.07 32.7149 228.06 32.9202 228.046 33.0621C228.032 33.2014 228.018 33.2404 228.024 33.2203C228.033 33.1892 228.059 33.1211 228.109 33.044C228.157 32.9704 228.193 32.9398 228.177 32.9545L232.223 37.3855C232.929 36.7411 233.462 35.9597 233.764 34.9672C234.029 34.0966 234.07 33.1995 234.07 32.41H228.07ZM228.182 32.9502C228.199 32.9344 228.256 32.8897 228.33 32.8535C228.392 32.823 228.393 32.8352 228.27 32.8603C227.962 32.923 227.345 32.98 226.03 32.98V38.98C228.573 38.98 230.591 38.8692 232.218 37.3898L228.182 32.9502ZM226.03 32.98C225.699 32.98 225.704 32.9785 225.736 32.9813C225.778 32.985 226.401 33.0266 227.026 33.5204C227.669 34.0278 227.854 34.6446 227.879 34.7252C227.898 34.789 227.896 34.8026 227.839 34.4971L221.941 35.6029C221.974 35.7774 222.039 36.1472 222.14 36.4754C222.245 36.8204 222.523 37.6097 223.309 38.2296C224.077 38.8359 224.891 38.93 225.208 38.958C225.516 38.9852 225.881 38.98 226.03 38.98V32.98ZM227.846 34.5403C227.651 33.405 227.329 32.4221 226.909 31.5402L221.491 34.1198C221.671 34.4979 221.829 34.955 221.934 35.5597L227.846 34.5403ZM223.804 35.8037C224.871 35.946 225.759 35.98 226.63 35.98V29.98C225.941 29.98 225.329 29.954 224.596 29.8563L223.804 35.8037ZM226.63 35.98C227.153 35.98 228.597 35.9711 229.716 34.8756C230.861 33.7532 230.86 32.2852 230.86 31.81H224.86C224.86 31.9348 224.848 31.8395 224.897 31.6449C224.955 31.4123 225.113 30.9846 225.517 30.5894C225.914 30.2 226.33 30.0576 226.53 30.0089C226.702 29.9671 226.771 29.98 226.63 29.98V35.98ZM230.86 31.81V20.23H224.86V31.81H230.86ZM227.86 17.23H223.06V23.23H227.86V17.23ZM223.06 17.23C221.864 17.23 221.054 17.2453 220.512 17.2613C220.24 17.2693 220.039 17.2773 219.898 17.2832C219.707 17.2912 219.723 17.29 219.76 17.29V23.29C219.887 23.29 220.068 23.2813 220.147 23.278C220.276 23.2727 220.45 23.2657 220.688 23.2587C221.166 23.2447 221.916 23.23 223.06 23.23V17.23ZM219.76 17.29C219.672 17.29 219.815 17.2842 220.016 17.3149C220.219 17.3457 220.877 17.4663 221.491 18.0331C222.14 18.6317 222.313 19.328 222.364 19.615C222.407 19.8606 222.4 20.0456 222.4 19.96H216.4C216.4 20.0244 216.396 20.3257 216.456 20.6612C216.523 21.0382 216.724 21.7983 217.421 22.4419C218.084 23.0537 218.812 23.2005 219.113 23.2464C219.412 23.292 219.683 23.29 219.76 23.29V17.29ZM222.4 19.96C222.4 19.9947 222.399 20.0006 222.406 19.8404C222.412 19.7171 222.42 19.5413 222.428 19.3124C222.444 18.8526 222.46 18.1947 222.46 17.26H216.46C216.46 18.1253 216.446 18.7124 216.432 19.1001C216.425 19.2949 216.418 19.4435 216.413 19.5649C216.409 19.6494 216.4 19.8203 216.4 19.96H222.4ZM222.46 17.26V12.88H216.46V17.26H222.46ZM222.46 12.88C222.46 11.9453 222.444 11.2805 222.428 10.8145C222.42 10.5824 222.412 10.4034 222.406 10.2773C222.399 10.1143 222.4 10.1171 222.4 10.15H216.4C216.4 10.2879 216.408 10.4594 216.412 10.5467C216.418 10.671 216.425 10.8238 216.432 11.023C216.446 11.4195 216.46 12.0147 216.46 12.88H222.46ZM222.4 10.15C222.4 10.0644 222.407 10.2494 222.364 10.495C222.313 10.7819 222.14 11.4783 221.491 12.0769C220.877 12.6437 220.219 12.7643 220.016 12.7951C219.815 12.8258 219.672 12.82 219.76 12.82V6.82C219.683 6.82 219.412 6.81799 219.113 6.86361C218.812 6.90947 218.084 7.05627 217.421 7.66809C216.724 8.31173 216.523 9.0718 216.456 9.44877C216.396 9.78434 216.4 10.0856 216.4 10.15H222.4ZM219.76 12.82C219.723 12.82 219.707 12.8188 219.898 12.8268C220.039 12.8327 220.24 12.8407 220.512 12.8487C221.054 12.8647 221.864 12.88 223.06 12.88V6.88C221.916 6.88 221.166 6.86534 220.688 6.8513C220.45 6.84429 220.276 6.83731 220.147 6.83197C220.068 6.82866 219.887 6.82 219.76 6.82V12.82ZM223.06 12.88H227.38V6.88H223.06V12.88ZM227.38 12.88C228.561 12.88 229.371 12.8646 229.916 12.8487C230.189 12.8408 230.392 12.8327 230.536 12.8269C230.728 12.819 230.716 12.82 230.68 12.82V6.82C230.554 6.82 230.373 6.8285 230.291 6.83189C230.16 6.83725 229.982 6.84425 229.741 6.85128C229.259 6.86535 228.508 6.88 227.38 6.88V12.88ZM230.68 12.82C230.76 12.82 230.592 12.8264 230.365 12.7886C230.117 12.7472 229.442 12.5994 228.836 11.9938C228.231 11.3883 228.083 10.7135 228.041 10.4651C228.004 10.2379 228.01 10.0701 228.01 10.15H234.01C234.01 10.0799 234.013 9.79589 233.96 9.47868C233.903 9.14029 233.729 8.40174 233.079 7.75118C232.428 7.10062 231.69 6.92659 231.351 6.87019C231.034 6.81732 230.75 6.82 230.68 6.82V12.82ZM228.01 10.15C228.01 10.134 228.009 10.1676 228.002 10.3988C227.996 10.5863 227.989 10.8488 227.981 11.1877C227.965 11.8656 227.95 12.8409 227.95 14.14H233.95C233.95 12.889 233.965 11.9594 233.979 11.3248C233.992 10.7876 234.01 10.275 234.01 10.15H228.01ZM222.4 21.04H227.86V15.04H222.4V21.04ZM230.86 18.04V16H224.86V18.04H230.86ZM227.86 13H222.4V19H227.86V13ZM219.4 16V18.04H225.4V16H219.4ZM227.86 9.16H222.4V15.16H227.86V9.16ZM219.4 12.16V13.93H225.4V12.16H219.4ZM222.4 16.93H227.86V10.93H222.4V16.93ZM230.86 13.93V12.16H224.86V13.93H230.86ZM209.95 12.88H214.06V6.88H209.95V12.88ZM214.06 12.88C215.067 12.88 215.803 12.8645 216.317 12.8486C216.573 12.8406 216.771 12.8326 216.912 12.8269C217.099 12.8192 217.095 12.82 217.06 12.82V6.82C216.935 6.82 216.755 6.82826 216.667 6.83189C216.533 6.83737 216.358 6.8444 216.131 6.85144C215.677 6.8655 215.003 6.88 214.06 6.88V12.88ZM217.06 12.82C217.131 12.82 216.936 12.8273 216.678 12.7799C216.375 12.7242 215.689 12.542 215.1 11.8997C214.544 11.2934 214.42 10.6466 214.387 10.435C214.354 10.2263 214.36 10.0759 214.36 10.15H220.36C220.36 10.0741 220.362 9.80741 220.315 9.50875C220.268 9.20718 220.12 8.49659 219.523 7.84533C218.893 7.15799 218.148 6.94956 217.763 6.87885C217.424 6.81649 217.124 6.82 217.06 6.82V12.82ZM214.36 10.15C214.36 10.1161 214.361 10.1162 214.353 10.3031C214.347 10.4453 214.339 10.6448 214.331 10.9008C214.316 11.4137 214.3 12.1423 214.3 13.12H220.3C220.3 12.2077 220.314 11.5413 220.329 11.0867C220.336 10.859 220.343 10.6816 220.348 10.5453C220.352 10.4538 220.36 10.2739 220.36 10.15H214.36ZM214.3 13.12V17.02H220.3V13.12H214.3ZM214.3 17.02C214.3 17.9832 214.316 18.7045 214.331 19.2137C214.339 19.4678 214.347 19.6663 214.353 19.8078C214.361 19.9939 214.36 19.9941 214.36 19.96H220.36C220.36 19.8359 220.352 19.6561 220.348 19.5647C220.343 19.4287 220.336 19.2522 220.329 19.0263C220.314 18.5755 220.3 17.9168 220.3 17.02H214.3ZM214.36 19.96C214.36 20.0341 214.354 19.8837 214.387 19.675C214.42 19.4634 214.544 18.8166 215.1 18.2103C215.689 17.568 216.375 17.3858 216.678 17.3301C216.936 17.2827 217.131 17.29 217.06 17.29V23.29C217.124 23.29 217.424 23.2935 217.763 23.2311C218.148 23.1604 218.893 22.952 219.523 22.2647C220.12 21.6134 220.268 20.9028 220.315 20.6013C220.362 20.3026 220.36 20.0359 220.36 19.96H214.36ZM217.06 17.29C217.095 17.29 217.099 17.2908 216.912 17.2831C216.771 17.2774 216.573 17.2694 216.317 17.2614C215.803 17.2455 215.067 17.23 214.06 17.23V23.23C215.003 23.23 215.677 23.2445 216.131 23.2586C216.358 23.2656 216.533 23.2726 216.667 23.2781C216.755 23.2817 216.935 23.29 217.06 23.29V17.29ZM214.06 17.23H209.26V23.23H214.06V17.23ZM206.26 20.23V29.59H212.26V20.23H206.26ZM206.26 29.59C206.26 31.6747 206.275 33.234 206.29 34.3014C206.298 34.8352 206.306 35.245 206.311 35.5343C206.314 35.6867 206.316 35.7843 206.318 35.8736C206.32 35.9708 206.32 35.9902 206.32 35.98H212.32C212.32 35.8549 212.304 35.1892 212.29 34.216C212.275 33.176 212.26 31.6453 212.26 29.59H206.26ZM206.32 35.98C206.32 36.0599 206.314 35.8921 206.351 35.6649C206.393 35.4165 206.541 34.7417 207.146 34.1362C207.752 33.5306 208.427 33.3828 208.675 33.3414C208.902 33.3036 209.07 33.31 208.99 33.31V39.31C209.06 39.31 209.344 39.3127 209.661 39.2598C210 39.2034 210.738 39.0294 211.389 38.3788C212.039 37.7283 212.213 36.9897 212.27 36.6513C212.323 36.3341 212.32 36.0501 212.32 35.98H206.32ZM208.99 33.31H206.44V39.31H208.99V33.31ZM206.44 33.31C206.36 33.31 206.528 33.3036 206.755 33.3414C207.003 33.3828 207.678 33.5306 208.284 34.1362C208.889 34.7417 209.037 35.4165 209.079 35.6649C209.116 35.8921 209.11 36.0599 209.11 35.98H203.11C203.11 36.0501 203.107 36.3341 203.16 36.6513C203.217 36.9897 203.391 37.7283 204.041 38.3788C204.692 39.0294 205.43 39.2034 205.769 39.2598C206.086 39.3127 206.37 39.31 206.44 39.31V33.31ZM209.11 35.98C209.11 35.9902 209.11 35.9708 209.112 35.8735C209.114 35.7843 209.116 35.6867 209.119 35.5343C209.124 35.245 209.132 34.8352 209.14 34.3014C209.155 33.234 209.17 31.6747 209.17 29.59H203.17C203.17 31.6453 203.155 33.176 203.14 34.216C203.126 35.1892 203.11 35.8549 203.11 35.98H209.11ZM209.17 29.59V16.6H203.17V29.59H209.17ZM209.17 16.6C209.17 14.5153 209.155 12.9412 209.14 11.8591C209.132 11.3181 209.125 10.901 209.119 10.6063C209.116 10.4514 209.114 10.3508 209.112 10.2602C209.11 10.1612 209.11 10.1404 209.11 10.15H203.11C203.11 10.2751 203.126 10.9529 203.14 11.9433C203.155 12.9988 203.17 14.5447 203.17 16.6H209.17ZM209.11 10.15C209.11 10.0701 209.116 10.2379 209.079 10.4651C209.037 10.7135 208.889 11.3883 208.284 11.9938C207.678 12.5994 207.003 12.7472 206.755 12.7886C206.528 12.8264 206.36 12.82 206.44 12.82V6.82C206.37 6.82 206.086 6.81732 205.769 6.87019C205.43 6.92659 204.692 7.10062 204.041 7.75118C203.391 8.40174 203.217 9.14029 203.16 9.47868C203.107 9.79589 203.11 10.0799 203.11 10.15H209.11ZM206.44 12.82C206.427 12.82 206.461 12.8207 206.669 12.8277C206.839 12.8334 207.074 12.8412 207.375 12.849C207.976 12.8646 208.827 12.88 209.95 12.88V6.88C208.883 6.88 208.084 6.8654 207.53 6.85101C207.074 6.83915 206.588 6.82 206.44 6.82V12.82ZM217.36 18.04V16H211.36V18.04H217.36ZM214.36 13H209.26V19H214.36V13ZM206.26 16V18.04H212.26V16H206.26ZM209.26 21.04H214.36V15.04H209.26V21.04ZM214.36 9.16H209.26V15.16H214.36V9.16ZM206.26 12.16V13.93H212.26V12.16H206.26ZM209.26 16.93H214.36V10.93H209.26V16.93ZM217.36 13.93V12.16H211.36V13.93H217.36ZM215.47 30.46H213.28V36.46H215.47V30.46ZM213.28 30.46C213.141 30.46 213.266 30.4562 213.413 30.4715C213.54 30.4847 214.246 30.5538 214.923 31.1178C215.673 31.7427 215.861 32.5181 215.913 32.8083C215.958 33.0596 215.95 33.2503 215.95 33.16H209.95C209.95 33.2197 209.946 33.5229 210.006 33.8585C210.072 34.2331 210.287 35.0648 211.082 35.7272C211.804 36.3287 212.574 36.4165 212.791 36.4392C213.028 36.4638 213.269 36.46 213.28 36.46V30.46ZM215.95 33.16C215.95 33.1864 215.949 33.2158 215.957 32.9839C215.964 32.813 215.971 32.5642 215.979 32.1963C215.995 31.4638 216.01 30.2639 216.01 28.27H210.01C210.01 30.2361 209.995 31.3912 209.981 32.0687C209.974 32.4058 209.966 32.6257 209.961 32.7698C209.958 32.853 209.95 33.0436 209.95 33.16H215.95ZM216.01 28.27V26.11H210.01V28.27H216.01ZM216.01 26.11C216.01 24.9868 215.995 24.2139 215.979 23.6866C215.971 23.4231 215.963 23.225 215.957 23.0843C215.949 22.9042 215.95 22.903 215.95 22.93H209.95C209.95 23.062 209.958 23.237 209.962 23.3307C209.967 23.4637 209.974 23.6369 209.981 23.8684C209.995 24.3311 210.01 25.0432 210.01 26.11H216.01ZM215.95 22.93C215.95 22.8501 215.956 23.0179 215.919 23.2451C215.877 23.4935 215.729 24.1683 215.124 24.7738C214.518 25.3794 213.843 25.5272 213.595 25.5686C213.368 25.6064 213.2 25.6 213.28 25.6V19.6C213.21 19.6 212.926 19.5973 212.609 19.6502C212.27 19.7066 211.532 19.8806 210.881 20.5312C210.231 21.1817 210.057 21.9203 210 22.2587C209.947 22.5759 209.95 22.8599 209.95 22.93H215.95ZM213.28 25.6C213.25 25.6 213.245 25.5991 213.422 25.6067C213.558 25.6125 213.752 25.6206 214.013 25.6286C214.534 25.6446 215.308 25.66 216.46 25.66V19.66C215.362 19.66 214.651 19.6454 214.197 19.6314C213.971 19.6244 213.804 19.6175 213.677 19.6121C213.589 19.6084 213.415 19.6 213.28 19.6V25.6ZM216.46 25.66H220.39V19.66H216.46V25.66ZM220.39 25.66C221.542 25.66 222.316 25.6446 222.837 25.6286C223.098 25.6206 223.292 25.6125 223.428 25.6067C223.605 25.5991 223.6 25.6 223.57 25.6V19.6C223.435 19.6 223.261 19.6084 223.173 19.6121C223.046 19.6175 222.879 19.6244 222.653 19.6314C222.199 19.6454 221.488 19.66 220.39 19.66V25.66ZM223.57 25.6C223.65 25.6 223.482 25.6064 223.255 25.5686C223.007 25.5272 222.332 25.3794 221.726 24.7738C221.121 24.1683 220.973 23.4935 220.931 23.2451C220.894 23.0179 220.9 22.8501 220.9 22.93H226.9C226.9 22.8599 226.903 22.5759 226.85 22.2587C226.793 21.9203 226.619 21.1817 225.969 20.5312C225.318 19.8806 224.58 19.7066 224.241 19.6502C223.924 19.5973 223.64 19.6 223.57 19.6V25.6ZM220.9 22.93C220.9 22.8877 220.901 22.8762 220.894 23.046C220.888 23.1718 220.88 23.3501 220.872 23.5776C220.856 24.0344 220.84 24.6774 220.84 25.54H226.84C226.84 24.7526 226.854 24.1806 226.868 23.7899C226.875 23.5937 226.882 23.4401 226.888 23.3174C226.891 23.2388 226.9 23.0623 226.9 22.93H220.9ZM220.84 25.54V27.85H226.84V25.54H220.84ZM220.84 27.85C220.84 29.7546 220.855 30.9029 220.871 31.6066C220.879 31.9602 220.887 32.2 220.893 32.3654C220.901 32.5913 220.9 32.559 220.9 32.53H226.9C226.9 32.411 226.891 32.2212 226.889 32.1433C226.883 32.005 226.876 31.7948 226.869 31.4734C226.855 30.8271 226.84 29.7254 226.84 27.85H220.84ZM220.9 32.53C220.9 32.618 220.894 32.4745 220.925 32.2735C220.956 32.071 221.076 31.413 221.643 30.7989C222.242 30.1504 222.938 29.9769 223.225 29.9261C223.471 29.8826 223.656 29.89 223.57 29.89V35.89C223.634 35.89 223.936 35.8936 224.271 35.8342C224.648 35.7674 225.408 35.5659 226.052 34.8686C226.664 34.2058 226.811 33.4783 226.856 33.1774C226.902 32.878 226.9 32.607 226.9 32.53H220.9ZM223.57 29.89H221.38V35.89H223.57V29.89ZM221.38 29.89C221.287 29.89 221.446 29.8834 221.664 29.9187C221.901 29.9571 222.585 30.0994 223.198 30.7124C223.811 31.3254 223.953 32.0093 223.991 32.246C224.027 32.4639 224.02 32.6233 224.02 32.53H218.02C218.02 32.6017 218.017 32.8886 218.068 33.2049C218.123 33.5401 218.293 34.2933 218.955 34.9551C219.617 35.6168 220.37 35.7873 220.705 35.8416C221.021 35.8928 221.308 35.89 221.38 35.89V29.89ZM224.02 32.53V31.54H218.02V32.53H224.02ZM221.02 28.54H215.83V34.54H221.02V28.54ZM212.83 31.54V33.16H218.83V31.54H212.83ZM212.83 33.16C212.83 33.2569 212.821 33.0474 212.872 32.7766C212.936 32.4389 213.157 31.6503 213.945 31.0446C214.614 30.5296 215.29 30.4775 215.381 30.4688C215.507 30.4568 215.612 30.46 215.47 30.46V36.46C215.493 36.46 215.725 36.4632 215.95 36.4418C216.139 36.4238 216.885 36.3529 217.603 35.8004C218.439 35.1572 218.688 34.3124 218.768 33.8903C218.835 33.5351 218.83 33.2132 218.83 33.16H212.83ZM212.83 25.21V28.99H218.83V25.21H212.83ZM215.83 31.99H221.02V25.99H215.83V31.99ZM224.02 28.99V25.21H218.02V28.99H224.02ZM221.02 22.21H215.83V28.21H221.02V22.21Z" fill="#7598FF" mask="url(#path-2-outside-1_1591_55647)"/>
<path d="M243.5 40.5L270.5 4.5" stroke="#7598FF" stroke-width="3"/>
</svg>
