<svg width="256" height="25" viewBox="0 0 256 25" fill="none" xmlns="http://www.w3.org/2000/svg">
<g opacity="0.6">
<mask id="path-1-outside-1_1591_58053" maskUnits="userSpaceOnUse" x="0" y="-0.367188" width="256" height="25" fill="black">
<rect fill="white" y="-0.367188" width="256" height="25"/>
<path d="M5.912 23.6328H0.952V1.23281H6.744L13.368 17.2008L20.024 1.23281H25.784V23.6328H20.824V10.0008L15.352 23.6328H11.384L5.912 10.0008V23.6328ZM34.502 1.23281H39.462V23.6328H34.502V1.23281ZM63.1202 1.23281H68.7522L60.3042 16.0168V23.6328H55.3442V16.0488L46.8962 1.23281H52.5282L57.8402 11.0568L63.1202 1.23281ZM87.0133 5.36081H85.8933L79.4933 23.6328H74.4053L82.5013 1.23281H90.5013L98.5653 23.6328H93.4773L87.0133 5.36081ZM79.8133 14.6728H92.8693V18.8008H79.8133V14.6728ZM105.496 1.23281H110.456V10.1928H111.896L119.288 1.23281H125.208L116.248 12.2408L125.496 23.6328H119.288L111.896 14.3528H110.456V23.6328H105.496V1.23281ZM143.074 23.8568C141.474 23.8568 139.98 23.5795 138.594 23.0248C137.207 22.4701 135.991 21.6915 134.946 20.6888C133.9 19.6648 133.079 18.4595 132.482 17.0728C131.884 15.6648 131.586 14.1181 131.586 12.4328C131.586 10.7475 131.884 9.21148 132.482 7.82481C133.079 6.41681 133.9 5.21148 134.946 4.20881C135.991 3.18481 137.207 2.39548 138.594 1.84081C139.98 1.28614 141.474 1.00881 143.074 1.00881C144.652 1.00881 146.135 1.28614 147.522 1.84081C148.93 2.39548 150.146 3.18481 151.17 4.20881C152.215 5.21148 153.036 6.41681 153.634 7.82481C154.231 9.21148 154.53 10.7475 154.53 12.4328C154.53 14.1181 154.231 15.6648 153.634 17.0728C153.036 18.4595 152.215 19.6648 151.17 20.6888C150.124 21.6915 148.908 22.4701 147.522 23.0248C146.135 23.5795 144.652 23.8568 143.074 23.8568ZM143.074 19.6328C144.332 19.6328 145.442 19.3341 146.402 18.7368C147.383 18.1181 148.14 17.2648 148.674 16.1768C149.228 15.0888 149.506 13.8408 149.506 12.4328C149.506 11.0035 149.228 9.75548 148.674 8.68881C148.14 7.60081 147.383 6.75815 146.402 6.16081C145.442 5.54214 144.332 5.23281 143.074 5.23281C141.772 5.23281 140.642 5.54214 139.682 6.16081C138.722 6.75815 137.964 7.60081 137.41 8.68881C136.876 9.75548 136.61 11.0035 136.61 12.4328C136.61 13.8408 136.876 15.0888 137.41 16.1768C137.964 17.2648 138.722 18.1181 139.682 18.7368C140.642 19.3341 141.772 19.6328 143.074 19.6328ZM171.052 1.23281H175.98V16.6568C175.98 18.1928 175.671 19.4941 175.052 20.5608C174.433 21.6275 173.58 22.4488 172.492 23.0248C171.404 23.5795 170.145 23.8568 168.716 23.8568C166.86 23.8568 165.313 23.4088 164.076 22.5128C162.839 21.6168 162.017 20.3155 161.612 18.6088L166.028 17.5848C166.135 18.0328 166.305 18.4168 166.54 18.7368C166.796 19.0568 167.095 19.3021 167.436 19.4728C167.777 19.6435 168.161 19.7288 168.588 19.7288C169.079 19.7288 169.505 19.6115 169.868 19.3768C170.252 19.1421 170.54 18.8115 170.732 18.3848C170.945 17.9581 171.052 17.4675 171.052 16.9128V1.23281ZM184.615 1.23281H189.575V23.6328H184.615V1.23281ZM203.281 23.6328H198.321V1.23281H204.113L210.737 17.2008L217.393 1.23281H223.153V23.6328H218.193V10.0008L212.721 23.6328H208.753L203.281 10.0008V23.6328ZM242.751 5.36081H241.631L235.231 23.6328H230.143L238.239 1.23281H246.239L254.303 23.6328H249.215L242.751 5.36081ZM235.551 14.6728H248.607V18.8008H235.551V14.6728Z"/>
</mask>
<path d="M5.912 23.6328V24.1328H6.412V23.6328H5.912ZM0.952 23.6328H0.452V24.1328H0.952V23.6328ZM0.952 1.23281V0.732811H0.452V1.23281H0.952ZM6.744 1.23281L7.20584 1.04123L7.0779 0.732811H6.744V1.23281ZM13.368 17.2008L12.9062 17.3924L13.3669 18.503L13.8295 17.3932L13.368 17.2008ZM20.024 1.23281V0.732811H19.6907L19.5625 1.04044L20.024 1.23281ZM25.784 1.23281H26.284V0.732811H25.784V1.23281ZM25.784 23.6328V24.1328H26.284V23.6328H25.784ZM20.824 23.6328H20.324V24.1328H20.824V23.6328ZM20.824 10.0008H21.324L20.36 9.81455L20.824 10.0008ZM15.352 23.6328V24.1328H15.6901L15.816 23.8191L15.352 23.6328ZM11.384 23.6328L10.92 23.8191L11.0459 24.1328H11.384V23.6328ZM5.912 10.0008L6.37601 9.81455L5.412 10.0008H5.912ZM5.912 23.1328H0.952V24.1328H5.912V23.1328ZM1.452 23.6328V1.23281H0.452V23.6328H1.452ZM0.952 1.73281H6.744V0.732811H0.952V1.73281ZM6.28216 1.4244L12.9062 17.3924L13.8298 17.0092L7.20584 1.04123L6.28216 1.4244ZM13.8295 17.3932L20.4855 1.42518L19.5625 1.04044L12.9065 17.0084L13.8295 17.3932ZM20.024 1.73281H25.784V0.732811H20.024V1.73281ZM25.284 1.23281V23.6328H26.284V1.23281H25.284ZM25.784 23.1328H20.824V24.1328H25.784V23.1328ZM21.324 23.6328V10.0008H20.324V23.6328H21.324ZM20.36 9.81455L14.888 23.4466L15.816 23.8191L21.288 10.1871L20.36 9.81455ZM15.352 23.1328H11.384V24.1328H15.352V23.1328ZM11.848 23.4466L6.37601 9.81455L5.44799 10.1871L10.92 23.8191L11.848 23.4466ZM5.412 10.0008V23.6328H6.412V10.0008H5.412ZM34.502 1.23281V0.732811H34.002V1.23281H34.502ZM39.462 1.23281H39.962V0.732811H39.462V1.23281ZM39.462 23.6328V24.1328H39.962V23.6328H39.462ZM34.502 23.6328H34.002V24.1328H34.502V23.6328ZM34.502 1.73281H39.462V0.732811H34.502V1.73281ZM38.962 1.23281V23.6328H39.962V1.23281H38.962ZM39.462 23.1328H34.502V24.1328H39.462V23.1328ZM35.002 23.6328V1.23281H34.002V23.6328H35.002ZM63.1202 1.23281V0.732811H62.8213L62.6798 0.996103L63.1202 1.23281ZM68.7523 1.23281L69.1864 1.48088L69.6138 0.732811H68.7523V1.23281ZM60.3042 16.0168L59.8701 15.7687L59.8042 15.884V16.0168H60.3042ZM60.3042 23.6328V24.1328H60.8042V23.6328H60.3042ZM55.3442 23.6328H54.8442V24.1328H55.3442V23.6328ZM55.3442 16.0488H55.8442V15.9163L55.7786 15.8011L55.3442 16.0488ZM46.8962 1.23281V0.732811H46.0356L46.4619 1.48048L46.8962 1.23281ZM52.5282 1.23281L52.9681 0.994993L52.8263 0.732811H52.5282V1.23281ZM57.8402 11.0568L57.4004 11.2946L57.8416 12.1105L58.2807 11.2935L57.8402 11.0568ZM63.1202 1.73281H68.7523V0.732811H63.1202V1.73281ZM68.3181 0.984742L59.8701 15.7687L60.7384 16.2649L69.1864 1.48088L68.3181 0.984742ZM59.8042 16.0168V23.6328H60.8042V16.0168H59.8042ZM60.3042 23.1328H55.3442V24.1328H60.3042V23.1328ZM55.8442 23.6328V16.0488H54.8442V23.6328H55.8442ZM55.7786 15.8011L47.3306 0.985146L46.4619 1.48048L54.9099 16.2965L55.7786 15.8011ZM46.8962 1.73281H52.5282V0.732811H46.8962V1.73281ZM52.0884 1.47063L57.4004 11.2946L58.2801 10.819L52.9681 0.994993L52.0884 1.47063ZM58.2807 11.2935L63.5607 1.46952L62.6798 0.996103L57.3998 10.8201L58.2807 11.2935ZM87.0133 5.36081L87.4846 5.19406L87.3667 4.86081H87.0133V5.36081ZM85.8932 5.36081V4.86081H85.5386L85.4214 5.19553L85.8932 5.36081ZM79.4933 23.6328V24.1328H79.8479L79.9651 23.7981L79.4933 23.6328ZM74.4053 23.6328L73.935 23.4629L73.6929 24.1328H74.4053V23.6328ZM82.5013 1.23281V0.732811H82.1503L82.031 1.06286L82.5013 1.23281ZM90.5013 1.23281L90.9717 1.06345L90.8527 0.732811H90.5013V1.23281ZM98.5653 23.6328V24.1328H99.2767L99.0357 23.4635L98.5653 23.6328ZM93.4772 23.6328L93.0059 23.7996L93.1238 24.1328H93.4772V23.6328ZM79.8133 14.6728V14.1728H79.3133V14.6728H79.8133ZM92.8693 14.6728H93.3693V14.1728H92.8693V14.6728ZM92.8693 18.8008V19.3008H93.3693V18.8008H92.8693ZM79.8133 18.8008H79.3133V19.3008H79.8133V18.8008ZM87.0133 4.86081H85.8932V5.86081H87.0133V4.86081ZM85.4214 5.19553L79.0214 23.4675L79.9651 23.7981L86.3651 5.5261L85.4214 5.19553ZM79.4933 23.1328H74.4053V24.1328H79.4933V23.1328ZM74.8755 23.8028L82.9715 1.40277L82.031 1.06286L73.935 23.4629L74.8755 23.8028ZM82.5013 1.73281H90.5013V0.732811H82.5013V1.73281ZM90.0308 1.40217L98.0948 23.8022L99.0357 23.4635L90.9717 1.06345L90.0308 1.40217ZM98.5653 23.1328H93.4772V24.1328H98.5653V23.1328ZM93.9486 23.4661L87.4846 5.19406L86.5419 5.52757L93.0059 23.7996L93.9486 23.4661ZM79.8133 15.1728H92.8693V14.1728H79.8133V15.1728ZM92.3693 14.6728V18.8008H93.3693V14.6728H92.3693ZM92.8693 18.3008H79.8133V19.3008H92.8693V18.3008ZM80.3133 18.8008V14.6728H79.3133V18.8008H80.3133ZM105.496 1.23281V0.732811H104.996V1.23281H105.496ZM110.456 1.23281H110.956V0.732811H110.456V1.23281ZM110.456 10.1928H109.956V10.6928H110.456V10.1928ZM111.896 10.1928V10.6928H112.131L112.281 10.511L111.896 10.1928ZM119.288 1.23281V0.732811H119.052L118.902 0.914619L119.288 1.23281ZM125.208 1.23281L125.596 1.54845L126.259 0.732811H125.208V1.23281ZM116.248 12.2408L115.86 11.9252L115.603 12.2404L115.86 12.5559L116.248 12.2408ZM125.496 23.6328V24.1328H126.546L125.884 23.3177L125.496 23.6328ZM119.288 23.6328L118.897 23.9443L119.047 24.1328H119.288V23.6328ZM111.896 14.3528L112.287 14.0413L112.137 13.8528H111.896V14.3528ZM110.456 14.3528V13.8528H109.956V14.3528H110.456ZM110.456 23.6328V24.1328H110.956V23.6328H110.456ZM105.496 23.6328H104.996V24.1328H105.496V23.6328ZM105.496 1.73281H110.456V0.732811H105.496V1.73281ZM109.956 1.23281V10.1928H110.956V1.23281H109.956ZM110.456 10.6928H111.896V9.69281H110.456V10.6928ZM112.281 10.511L119.673 1.551L118.902 0.914619L111.51 9.87462L112.281 10.511ZM119.288 1.73281H125.208V0.732811H119.288V1.73281ZM124.82 0.917175L115.86 11.9252L116.636 12.5564L125.596 1.54845L124.82 0.917175ZM115.86 12.5559L125.108 23.9479L125.884 23.3177L116.636 11.9257L115.86 12.5559ZM125.496 23.1328H119.288V24.1328H125.496V23.1328ZM119.679 23.3213L112.287 14.0413L111.505 14.6643L118.897 23.9443L119.679 23.3213ZM111.896 13.8528H110.456V14.8528H111.896V13.8528ZM109.956 14.3528V23.6328H110.956V14.3528H109.956ZM110.456 23.1328H105.496V24.1328H110.456V23.1328ZM105.996 23.6328V1.23281H104.996V23.6328H105.996ZM138.594 23.0248L138.408 23.489L138.594 23.0248ZM134.946 20.6888L134.596 21.046L134.6 21.0497L134.946 20.6888ZM132.482 17.0728L132.021 17.2681L132.023 17.2706L132.482 17.0728ZM132.482 7.82481L132.941 8.02263L132.942 8.02009L132.482 7.82481ZM134.946 4.20881L135.292 4.56967L135.296 4.56599L134.946 4.20881ZM138.594 1.84081L138.408 1.37657V1.37657L138.594 1.84081ZM147.522 1.84081L147.336 2.30506L147.338 2.30602L147.522 1.84081ZM151.17 4.20881L150.816 4.56244L150.824 4.56965L151.17 4.20881ZM153.634 7.82481L153.173 8.02009L153.175 8.02262L153.634 7.82481ZM153.634 17.0728L154.093 17.2706L154.094 17.2681L153.634 17.0728ZM151.17 20.6888L151.516 21.0497L151.52 21.046L151.17 20.6888ZM147.522 23.0248L147.707 23.489L147.522 23.0248ZM146.402 18.7368L146.666 19.1613L146.668 19.1598L146.402 18.7368ZM148.674 16.1768L148.228 15.9497L148.225 15.9567L148.674 16.1768ZM148.674 8.68881L148.225 8.90895L148.23 8.91949L148.674 8.68881ZM146.402 6.16081L146.131 6.58124L146.142 6.58791L146.402 6.16081ZM139.682 6.16081L139.946 6.58539L139.953 6.5811L139.682 6.16081ZM137.41 8.68881L136.964 8.46171L136.963 8.46521L137.41 8.68881ZM137.41 16.1768L136.961 16.3969L136.964 16.4039L137.41 16.1768ZM139.682 18.7368L139.411 19.1572L139.418 19.1613L139.682 18.7368ZM143.074 23.3568C141.533 23.3568 140.103 23.09 138.779 22.5606L138.408 23.489C139.858 24.069 141.415 24.3568 143.074 24.3568V23.3568ZM138.779 22.5606C137.451 22.029 136.289 21.2848 135.292 20.328L134.6 21.0497C135.693 22.0982 136.964 22.9113 138.408 23.489L138.779 22.5606ZM135.296 20.3316C134.298 19.3546 133.513 18.2039 132.941 16.875L132.023 17.2706C132.645 18.7151 133.503 19.975 134.596 21.046L135.296 20.3316ZM132.942 16.8775C132.373 15.5373 132.086 14.0579 132.086 12.4328H131.086C131.086 14.1784 131.395 15.7923 132.021 17.2681L132.942 16.8775ZM132.086 12.4328C132.086 10.8076 132.374 9.33993 132.941 8.02262L132.023 7.627C131.395 9.08303 131.086 10.6874 131.086 12.4328H132.086ZM132.942 8.02009C133.514 6.67089 134.298 5.52284 135.292 4.56965L134.6 3.84797C133.503 4.90012 132.644 6.16273 132.021 7.62954L132.942 8.02009ZM135.296 4.56599C136.293 3.58913 137.453 2.83573 138.779 2.30505L138.408 1.37657C136.961 1.95523 135.689 2.7805 134.596 3.85163L135.296 4.56599ZM138.779 2.30505C140.103 1.77565 141.533 1.50881 143.074 1.50881V0.508812C141.415 0.508812 139.858 0.796639 138.408 1.37657L138.779 2.30505ZM143.074 1.50881C144.592 1.50881 146.012 1.77534 147.336 2.30505L147.707 1.37657C146.258 0.796955 144.712 0.508812 143.074 0.508812V1.50881ZM147.338 2.30602C148.686 2.83669 149.843 3.58905 150.816 4.56236L151.523 3.85526C150.449 2.78057 149.174 1.95426 147.705 1.37561L147.338 2.30602ZM150.824 4.56965C151.817 5.52284 152.601 6.67089 153.173 8.02009L154.094 7.62954C153.472 6.16273 152.613 4.90012 151.516 3.84797L150.824 4.56965ZM153.175 8.02262C153.742 9.33993 154.03 10.8076 154.03 12.4328H155.03C155.03 10.6874 154.72 9.08303 154.093 7.627L153.175 8.02262ZM154.03 12.4328C154.03 14.0579 153.742 15.5373 153.173 16.8775L154.094 17.2681C154.72 15.7923 155.03 14.1784 155.03 12.4328H154.03ZM153.175 16.875C152.602 18.2039 151.817 19.3546 150.82 20.3316L151.52 21.046C152.613 19.975 153.471 18.7151 154.093 17.2706L153.175 16.875ZM150.824 20.328C149.826 21.2848 148.665 22.029 147.336 22.5606L147.707 23.489C149.152 22.9113 150.423 22.0982 151.516 21.0497L150.824 20.328ZM147.336 22.5606C146.012 23.0903 144.592 23.3568 143.074 23.3568V24.3568C144.712 24.3568 146.258 24.0687 147.707 23.489L147.336 22.5606ZM143.074 20.1328C144.415 20.1328 145.618 19.8135 146.666 19.1613L146.138 18.3123C145.266 18.8548 144.25 19.1328 143.074 19.1328V20.1328ZM146.668 19.1598C147.732 18.4894 148.55 17.5642 149.123 16.3969L148.225 15.9567C147.73 16.9654 147.034 17.7469 146.135 18.3138L146.668 19.1598ZM149.119 16.4039C149.715 15.2355 150.006 13.9076 150.006 12.4328H149.006C149.006 13.774 148.742 14.9421 148.228 15.9497L149.119 16.4039ZM150.006 12.4328C150.006 10.9383 149.715 9.60834 149.117 8.45814L148.23 8.91949C148.741 9.90262 149.006 11.0687 149.006 12.4328H150.006ZM149.123 8.46873C148.55 7.30003 147.729 6.38339 146.662 5.73371L146.142 6.58791C147.037 7.1329 147.731 7.90159 148.225 8.90889L149.123 8.46873ZM146.673 5.74053C145.624 5.06457 144.418 4.73281 143.074 4.73281V5.73281C144.247 5.73281 145.26 6.01972 146.131 6.5811L146.673 5.74053ZM143.074 4.73281C141.69 4.73281 140.462 5.06284 139.411 5.74053L139.953 6.5811C140.821 6.02145 141.855 5.73281 143.074 5.73281V4.73281ZM139.418 5.73628C138.374 6.38554 137.557 7.29936 136.964 8.46172L137.855 8.91591C138.372 7.90226 139.069 7.13075 139.946 6.58534L139.418 5.73628ZM136.963 8.46521C136.388 9.61377 136.11 10.9411 136.11 12.4328H137.11C137.11 11.0658 137.365 9.89719 137.857 8.91242L136.963 8.46521ZM136.11 12.4328C136.11 13.9048 136.389 15.2301 136.961 16.3969L137.859 15.9567C137.364 14.9475 137.11 13.7769 137.11 12.4328H136.11ZM136.964 16.4039C137.556 17.5649 138.372 18.4873 139.411 19.1571L139.953 18.3165C139.072 17.749 138.373 16.9647 137.855 15.9497L136.964 16.4039ZM139.418 19.1613C140.468 19.8151 141.693 20.1328 143.074 20.1328V19.1328C141.851 19.1328 140.815 18.8532 139.946 18.3123L139.418 19.1613ZM171.052 1.23281V0.732811H170.552V1.23281H171.052ZM175.98 1.23281H176.48V0.732811H175.98V1.23281ZM175.052 20.5608L175.485 20.8117L175.052 20.5608ZM172.492 23.0248L172.719 23.4703L172.726 23.4667L172.492 23.0248ZM164.076 22.5128L163.783 22.9178L164.076 22.5128ZM161.612 18.6088L161.499 18.1217L161.009 18.2353L161.126 18.7243L161.612 18.6088ZM166.028 17.5848L166.514 17.469L166.399 16.9855L165.915 17.0977L166.028 17.5848ZM166.54 18.7368L166.137 19.0325L166.143 19.041L166.15 19.0492L166.54 18.7368ZM167.436 19.4728L167.212 19.92L167.436 19.4728ZM169.868 19.3768L169.607 18.95L169.596 18.957L169.868 19.3768ZM170.732 18.3848L170.285 18.1612L170.28 18.1703L170.276 18.1796L170.732 18.3848ZM171.052 1.73281H175.98V0.732811H171.052V1.73281ZM175.48 1.23281V16.6568H176.48V1.23281H175.48ZM175.48 16.6568C175.48 18.1261 175.184 19.3361 174.619 20.31L175.485 20.8117C176.157 19.6522 176.48 18.2595 176.48 16.6568H175.48ZM174.619 20.31C174.048 21.2957 173.263 22.0508 172.258 22.5829L172.726 23.4667C173.897 22.8468 174.819 21.9592 175.485 20.8117L174.619 20.31ZM172.265 22.5794C171.258 23.0925 170.08 23.3568 168.716 23.3568V24.3568C170.211 24.3568 171.55 24.0664 172.719 23.4703L172.265 22.5794ZM168.716 23.3568C166.942 23.3568 165.504 22.9298 164.369 22.1078L163.783 22.9178C165.122 23.8878 166.778 24.3568 168.716 24.3568V23.3568ZM164.369 22.1078C163.243 21.2924 162.48 20.1018 162.098 18.4933L161.126 18.7243C161.554 20.5292 162.434 21.9412 163.783 22.9178L164.369 22.1078ZM161.725 19.0959L166.141 18.0719L165.915 17.0977L161.499 18.1217L161.725 19.0959ZM165.542 17.7006C165.661 18.2032 165.857 18.6508 166.137 19.0325L166.943 18.4411C166.754 18.1829 166.608 17.8624 166.514 17.469L165.542 17.7006ZM166.15 19.0492C166.447 19.4214 166.802 19.7147 167.212 19.92L167.66 19.0256C167.388 18.8896 167.145 18.6922 166.93 18.4245L166.15 19.0492ZM167.212 19.92C167.631 20.1293 168.093 20.2288 168.588 20.2288V19.2288C168.23 19.2288 167.924 19.1576 167.66 19.0256L167.212 19.92ZM168.588 20.2288C169.162 20.2288 169.685 20.0905 170.14 19.7966L169.596 18.957C169.325 19.1325 168.996 19.2288 168.588 19.2288V20.2288ZM170.129 19.8035C170.602 19.5141 170.956 19.1046 171.188 18.59L170.276 18.1796C170.124 18.5184 169.902 18.7702 169.607 18.9502L170.129 19.8035ZM171.179 18.6084C171.432 18.1019 171.552 17.5325 171.552 16.9128H170.552C170.552 17.4025 170.458 17.8144 170.285 18.1612L171.179 18.6084ZM171.552 16.9128V1.23281H170.552V16.9128H171.552ZM184.615 1.23281V0.732811H184.115V1.23281H184.615ZM189.575 1.23281H190.075V0.732811H189.575V1.23281ZM189.575 23.6328V24.1328H190.075V23.6328H189.575ZM184.615 23.6328H184.115V24.1328H184.615V23.6328ZM184.615 1.73281H189.575V0.732811H184.615V1.73281ZM189.075 1.23281V23.6328H190.075V1.23281H189.075ZM189.575 23.1328H184.615V24.1328H189.575V23.1328ZM185.115 23.6328V1.23281H184.115V23.6328H185.115ZM203.281 23.6328V24.1328H203.781V23.6328H203.281ZM198.321 23.6328H197.821V24.1328H198.321V23.6328ZM198.321 1.23281V0.732811H197.821V1.23281H198.321ZM204.113 1.23281L204.575 1.04123L204.447 0.732811H204.113V1.23281ZM210.737 17.2008L210.275 17.3924L210.736 18.503L211.198 17.3932L210.737 17.2008ZM217.393 1.23281V0.732811H217.059L216.931 1.04044L217.393 1.23281ZM223.153 1.23281H223.653V0.732811H223.153V1.23281ZM223.153 23.6328V24.1328H223.653V23.6328H223.153ZM218.193 23.6328H217.693V24.1328H218.193V23.6328ZM218.193 10.0008H218.693L217.729 9.81455L218.193 10.0008ZM212.721 23.6328V24.1328H213.059L213.185 23.8191L212.721 23.6328ZM208.753 23.6328L208.289 23.8191L208.415 24.1328H208.753V23.6328ZM203.281 10.0008L203.745 9.81455L202.781 10.0008H203.281ZM203.281 23.1328H198.321V24.1328H203.281V23.1328ZM198.821 23.6328V1.23281H197.821V23.6328H198.821ZM198.321 1.73281H204.113V0.732811H198.321V1.73281ZM203.651 1.4244L210.275 17.3924L211.199 17.0092L204.575 1.04123L203.651 1.4244ZM211.198 17.3932L217.854 1.42518L216.931 1.04044L210.275 17.0084L211.198 17.3932ZM217.393 1.73281H223.153V0.732811H217.393V1.73281ZM222.653 1.23281V23.6328H223.653V1.23281H222.653ZM223.153 23.1328H218.193V24.1328H223.153V23.1328ZM218.693 23.6328V10.0008H217.693V23.6328H218.693ZM217.729 9.81455L212.257 23.4466L213.185 23.8191L218.657 10.1871L217.729 9.81455ZM212.721 23.1328H208.753V24.1328H212.721V23.1328ZM209.217 23.4466L203.745 9.81455L202.817 10.1871L208.289 23.8191L209.217 23.4466ZM202.781 10.0008V23.6328H203.781V10.0008H202.781ZM242.751 5.36081L243.222 5.19406L243.104 4.86081H242.751V5.36081ZM241.631 5.36081V4.86081H241.276L241.159 5.19553L241.631 5.36081ZM235.231 23.6328V24.1328H235.585L235.703 23.7981L235.231 23.6328ZM230.143 23.6328L229.673 23.4629L229.43 24.1328H230.143V23.6328ZM238.239 1.23281V0.732811H237.888L237.769 1.06286L238.239 1.23281ZM246.239 1.23281L246.709 1.06345L246.59 0.732811H246.239V1.23281ZM254.303 23.6328V24.1328H255.014L254.773 23.4635L254.303 23.6328ZM249.215 23.6328L248.743 23.7996L248.861 24.1328H249.215V23.6328ZM235.551 14.6728V14.1728H235.051V14.6728H235.551ZM248.607 14.6728H249.107V14.1728H248.607V14.6728ZM248.607 18.8008V19.3008H249.107V18.8008H248.607ZM235.551 18.8008H235.051V19.3008H235.551V18.8008ZM242.751 4.86081H241.631V5.86081H242.751V4.86081ZM241.159 5.19553L234.759 23.4675L235.703 23.7981L242.103 5.5261L241.159 5.19553ZM235.231 23.1328H230.143V24.1328H235.231V23.1328ZM230.613 23.8028L238.709 1.40277L237.769 1.06286L229.673 23.4629L230.613 23.8028ZM238.239 1.73281H246.239V0.732811H238.239V1.73281ZM245.768 1.40217L253.832 23.8022L254.773 23.4635L246.709 1.06345L245.768 1.40217ZM254.303 23.1328H249.215V24.1328H254.303V23.1328ZM249.686 23.4661L243.222 5.19406L242.279 5.52757L248.743 23.7996L249.686 23.4661ZM235.551 15.1728H248.607V14.1728H235.551V15.1728ZM248.107 14.6728V18.8008H249.107V14.6728H248.107ZM248.607 18.3008H235.551V19.3008H248.607V18.3008ZM236.051 18.8008V14.6728H235.051V18.8008H236.051Z" fill="#7598FF" mask="url(#path-1-outside-1_1591_58053)"/>
</g>
</svg>
