<svg width="207" height="25" viewBox="0 0 207 25" fill="none" xmlns="http://www.w3.org/2000/svg">
<g opacity="0.6">
<mask id="path-1-outside-1_1591_58015" maskUnits="userSpaceOnUse" x="0" y="0" width="207" height="25" fill="black">
<rect fill="white" width="207" height="25"/>
<path d="M0.952 1.6H5.912V10.56H15.096V1.6H20.056V24H15.096V14.72H5.912V24H0.952V1.6ZM39.28 24.224C37.68 24.224 36.1867 23.9467 34.8 23.392C33.4133 22.8373 32.1973 22.0587 31.152 21.056C30.1067 20.032 29.2853 18.8267 28.688 17.44C28.0907 16.032 27.792 14.4853 27.792 12.8C27.792 11.1147 28.0907 9.57867 28.688 8.192C29.2853 6.784 30.1067 5.57867 31.152 4.576C32.1973 3.552 33.4133 2.76267 34.8 2.208C36.1867 1.65333 37.68 1.376 39.28 1.376C40.8587 1.376 42.3413 1.65333 43.728 2.208C45.136 2.76267 46.352 3.552 47.376 4.576C48.4213 5.57867 49.2427 6.784 49.84 8.192C50.4373 9.57867 50.736 11.1147 50.736 12.8C50.736 14.4853 50.4373 16.032 49.84 17.44C49.2427 18.8267 48.4213 20.032 47.376 21.056C46.3307 22.0587 45.1147 22.8373 43.728 23.392C42.3413 23.9467 40.8587 24.224 39.28 24.224ZM39.28 20C40.5387 20 41.648 19.7013 42.608 19.104C43.5893 18.4853 44.3467 17.632 44.88 16.544C45.4347 15.456 45.712 14.208 45.712 12.8C45.712 11.3707 45.4347 10.1227 44.88 9.056C44.3467 7.968 43.5893 7.12533 42.608 6.528C41.648 5.90933 40.5387 5.6 39.28 5.6C37.9787 5.6 36.848 5.90933 35.888 6.528C34.928 7.12533 34.1707 7.968 33.616 9.056C33.0827 10.1227 32.816 11.3707 32.816 12.8C32.816 14.208 33.0827 15.456 33.616 16.544C34.1707 17.632 34.928 18.4853 35.888 19.104C36.848 19.7013 37.9787 20 39.28 20ZM58.4582 1.6H63.4182V10.56H64.8582L72.2502 1.6H78.1702L69.2102 12.608L78.4583 24H72.2502L64.8582 14.72H63.4182V24H58.4582V1.6ZM85.5083 1.6H90.4683V10.56H91.9083L99.3003 1.6H105.22L96.2603 12.608L105.508 24H99.3003L91.9083 14.72H90.4683V24H85.5083V1.6ZM123.438 5.728H122.318L115.918 24H110.83L118.926 1.6H126.926L134.99 24H129.902L123.438 5.728ZM116.238 15.04H129.294V19.168H116.238V15.04ZM141.921 1.6H146.881V24H141.921V1.6ZM164.395 1.6C166.806 1.6 168.886 2.06933 170.635 3.008C172.406 3.92533 173.771 5.23733 174.731 6.944C175.712 8.62933 176.203 10.592 176.203 12.832C176.203 15.072 175.712 17.0347 174.731 18.72C173.771 20.384 172.406 21.6853 170.635 22.624C168.886 23.5413 166.806 24 164.395 24H155.627V1.6H164.395ZM164.139 19.872C166.358 19.872 168.086 19.2427 169.323 17.984C170.56 16.7253 171.179 15.008 171.179 12.832C171.179 10.6347 170.56 8.90667 169.323 7.648C168.086 6.368 166.358 5.728 164.139 5.728H160.587V19.872H164.139ZM194.486 24.224C192.886 24.224 191.393 23.9467 190.006 23.392C188.62 22.8373 187.404 22.0587 186.358 21.056C185.313 20.032 184.492 18.8267 183.894 17.44C183.297 16.032 182.998 14.4853 182.998 12.8C182.998 11.1147 183.297 9.57867 183.894 8.192C184.492 6.784 185.313 5.57867 186.358 4.576C187.404 3.552 188.62 2.76267 190.006 2.208C191.393 1.65333 192.886 1.376 194.486 1.376C196.065 1.376 197.548 1.65333 198.934 2.208C200.342 2.76267 201.558 3.552 202.582 4.576C203.628 5.57867 204.449 6.784 205.046 8.192C205.644 9.57867 205.942 11.1147 205.942 12.8C205.942 14.4853 205.644 16.032 205.046 17.44C204.449 18.8267 203.628 20.032 202.582 21.056C201.537 22.0587 200.321 22.8373 198.934 23.392C197.548 23.9467 196.065 24.224 194.486 24.224ZM194.486 20C195.745 20 196.854 19.7013 197.814 19.104C198.796 18.4853 199.553 17.632 200.086 16.544C200.641 15.456 200.918 14.208 200.918 12.8C200.918 11.3707 200.641 10.1227 200.086 9.056C199.553 7.968 198.796 7.12533 197.814 6.528C196.854 5.90933 195.745 5.6 194.486 5.6C193.185 5.6 192.054 5.90933 191.094 6.528C190.134 7.12533 189.377 7.968 188.822 9.056C188.289 10.1227 188.022 11.3707 188.022 12.8C188.022 14.208 188.289 15.456 188.822 16.544C189.377 17.632 190.134 18.4853 191.094 19.104C192.054 19.7013 193.185 20 194.486 20Z"/>
</mask>
<path d="M0.952 1.6V1.1H0.452V1.6H0.952ZM5.912 1.6H6.412V1.1H5.912V1.6ZM5.912 10.56H5.412V11.06H5.912V10.56ZM15.096 10.56V11.06H15.596V10.56H15.096ZM15.096 1.6V1.1H14.596V1.6H15.096ZM20.056 1.6H20.556V1.1H20.056V1.6ZM20.056 24V24.5H20.556V24H20.056ZM15.096 24H14.596V24.5H15.096V24ZM15.096 14.72H15.596V14.22H15.096V14.72ZM5.912 14.72V14.22H5.412V14.72H5.912ZM5.912 24V24.5H6.412V24H5.912ZM0.952 24H0.452V24.5H0.952V24ZM0.952 2.1H5.912V1.1H0.952V2.1ZM5.412 1.6V10.56H6.412V1.6H5.412ZM5.912 11.06H15.096V10.06H5.912V11.06ZM15.596 10.56V1.6H14.596V10.56H15.596ZM15.096 2.1H20.056V1.1H15.096V2.1ZM19.556 1.6V24H20.556V1.6H19.556ZM20.056 23.5H15.096V24.5H20.056V23.5ZM15.596 24V14.72H14.596V24H15.596ZM15.096 14.22H5.912V15.22H15.096V14.22ZM5.412 14.72V24H6.412V14.72H5.412ZM5.912 23.5H0.952V24.5H5.912V23.5ZM1.452 24V1.6H0.452V24H1.452ZM34.8 23.392L34.6143 23.8562L34.8 23.392ZM31.152 21.056L30.8021 21.4132L30.8059 21.4168L31.152 21.056ZM28.688 17.44L28.2277 17.6353L28.2288 17.6378L28.688 17.44ZM28.688 8.192L29.1472 8.38981L29.1483 8.38727L28.688 8.192ZM31.152 4.576L31.4981 4.93686L31.5019 4.93318L31.152 4.576ZM34.8 2.208L34.6143 1.74376V1.74376L34.8 2.208ZM43.728 2.208L43.5423 2.67224L43.5447 2.6732L43.728 2.208ZM47.376 4.576L47.0224 4.92963L47.0299 4.93684L47.376 4.576ZM49.84 8.192L49.3797 8.38728L49.3808 8.38981L49.84 8.192ZM49.84 17.44L50.2992 17.6378L50.3003 17.6353L49.84 17.44ZM47.376 21.056L47.7221 21.4169L47.7259 21.4132L47.376 21.056ZM43.728 23.392L43.9137 23.8562L43.728 23.392ZM42.608 19.104L42.8722 19.5285L42.8746 19.527L42.608 19.104ZM44.88 16.544L44.4345 16.3169L44.431 16.3239L44.88 16.544ZM44.88 9.056L44.4309 9.27614L44.4364 9.28668L44.88 9.056ZM42.608 6.528L42.3371 6.94842L42.348 6.9551L42.608 6.528ZM35.888 6.528L36.1522 6.95258L36.1589 6.94829L35.888 6.528ZM33.616 9.056L33.1705 8.8289L33.1688 8.83239L33.616 9.056ZM33.616 16.544L33.167 16.7641L33.1705 16.7711L33.616 16.544ZM35.888 19.104L35.6171 19.5243L35.6238 19.5285L35.888 19.104ZM39.28 23.724C37.739 23.724 36.3092 23.4572 34.9857 22.9278L34.6143 23.8562C36.0641 24.4362 37.621 24.724 39.28 24.724V23.724ZM34.9857 22.9278C33.6568 22.3962 32.4957 21.652 31.4981 20.6952L30.8059 21.4168C31.899 22.4653 33.1699 23.2785 34.6143 23.8562L34.9857 22.9278ZM31.5019 20.6988C30.5045 19.7218 29.7196 18.5711 29.1472 17.2422L28.2288 17.6378C28.851 19.0823 29.7088 20.3422 30.8021 21.4132L31.5019 20.6988ZM29.1483 17.2447C28.5797 15.9045 28.292 14.4251 28.292 12.8H27.292C27.292 14.5456 27.6016 16.1595 28.2277 17.6353L29.1483 17.2447ZM28.292 12.8C28.292 11.1748 28.5798 9.70712 29.1472 8.38981L28.2288 7.99419C27.6016 9.45022 27.292 11.0546 27.292 12.8H28.292ZM29.1483 8.38727C29.7207 7.03808 30.5044 5.89003 31.4981 4.93684L30.8059 4.21516C29.709 5.26731 28.85 6.52992 28.2277 7.99672L29.1483 8.38727ZM31.5019 4.93318C32.4991 3.95631 33.659 3.20292 34.9857 2.67224L34.6143 1.74376C33.1677 2.32241 31.8956 3.14768 30.8021 4.21882L31.5019 4.93318ZM34.9857 2.67224C36.3092 2.14284 37.739 1.876 39.28 1.876V0.875999C37.621 0.875999 36.0641 1.16383 34.6143 1.74376L34.9857 2.67224ZM39.28 1.876C40.7987 1.876 42.218 2.14252 43.5423 2.67224L43.9137 1.74376C42.4646 1.16414 40.9186 0.875999 39.28 0.875999V1.876ZM43.5447 2.6732C44.8918 3.20388 46.0491 3.95623 47.0224 4.92955L47.7296 4.22244C46.6549 3.14776 45.3802 2.32145 43.9113 1.74279L43.5447 2.6732ZM47.0299 4.93684C48.0236 5.89003 48.8073 7.03808 49.3797 8.38727L50.3003 7.99672C49.678 6.52992 48.819 5.26731 47.7221 4.21516L47.0299 4.93684ZM49.3808 8.38981C49.9482 9.70712 50.236 11.1748 50.236 12.8H51.236C51.236 11.0546 50.9264 9.45022 50.2992 7.99419L49.3808 8.38981ZM50.236 12.8C50.236 14.4251 49.9483 15.9045 49.3797 17.2447L50.3003 17.6353C50.9264 16.1595 51.236 14.5456 51.236 12.8H50.236ZM49.3808 17.2422C48.8084 18.5711 48.0235 19.7218 47.0261 20.6988L47.7259 21.4132C48.8192 20.3422 49.677 19.0823 50.2992 17.6378L49.3808 17.2422ZM47.0299 20.6952C46.0323 21.652 44.8712 22.3962 43.5423 22.9278L43.9137 23.8562C45.3581 23.2785 46.629 22.4653 47.7221 21.4168L47.0299 20.6952ZM43.5423 22.9278C42.218 23.4575 40.7987 23.724 39.28 23.724V24.724C40.9186 24.724 42.4646 24.4359 43.9137 23.8562L43.5423 22.9278ZM39.28 20.5C40.6211 20.5 41.8241 20.1806 42.8722 19.5285L42.3438 18.6795C41.4719 19.222 40.4562 19.5 39.28 19.5V20.5ZM42.8746 19.527C43.938 18.8566 44.7567 17.9314 45.329 16.7641L44.431 16.3239C43.9366 17.3326 43.2407 18.114 42.3414 18.681L42.8746 19.527ZM45.3255 16.7711C45.9211 15.6027 46.212 14.2748 46.212 12.8H45.212C45.212 14.1412 44.9482 15.3093 44.4345 16.3169L45.3255 16.7711ZM46.212 12.8C46.212 11.3055 45.9217 9.97552 45.3236 8.82532L44.4364 9.28668C44.9476 10.2698 45.212 11.4359 45.212 12.8H46.212ZM45.329 8.83592C44.7561 7.66722 43.9353 6.75058 42.868 6.1009L42.348 6.9551C43.2434 7.50009 43.9373 8.26878 44.431 9.27608L45.329 8.83592ZM42.8788 6.10771C41.83 5.43176 40.6246 5.1 39.28 5.1V6.1C40.4528 6.1 41.466 6.38691 42.3372 6.94829L42.8788 6.10771ZM39.28 5.1C37.8964 5.1 36.6687 5.43002 35.6171 6.10771L36.1589 6.94829C37.0273 6.38864 38.061 6.1 39.28 6.1V5.1ZM35.6238 6.10347C34.5804 6.75273 33.7631 7.66655 33.1705 8.82891L34.0615 9.28309C34.5782 8.26945 35.2756 7.49794 36.1521 6.95253L35.6238 6.10347ZM33.1688 8.83239C32.5945 9.98096 32.316 11.3083 32.316 12.8H33.316C33.316 11.433 33.5708 10.2644 34.0632 9.27961L33.1688 8.83239ZM32.316 12.8C32.316 14.272 32.5951 15.5973 33.167 16.7641L34.065 16.3239C33.5702 15.3147 33.316 14.144 33.316 12.8H32.316ZM33.1705 16.7711C33.7624 17.9321 34.5778 18.8545 35.6171 19.5243L36.1589 18.6837C35.2782 18.1162 34.5789 17.3319 34.0615 16.3169L33.1705 16.7711ZM35.6238 19.5285C36.6745 20.1823 37.8997 20.5 39.28 20.5V19.5C38.0577 19.5 37.0215 19.2204 36.1521 18.6795L35.6238 19.5285ZM58.4582 1.6V1.1H57.9582V1.6H58.4582ZM63.4183 1.6H63.9183V1.1H63.4183V1.6ZM63.4183 10.56H62.9182V11.06H63.4183V10.56ZM64.8582 10.56V11.06H65.0939L65.2439 10.8782L64.8582 10.56ZM72.2503 1.6V1.1H72.0146L71.8646 1.28181L72.2503 1.6ZM78.1702 1.6L78.558 1.91563L79.2219 1.1H78.1702V1.6ZM69.2103 12.608L68.8225 12.2924L68.5659 12.6076L68.8221 12.9231L69.2103 12.608ZM78.4583 24V24.5H79.5082L78.8464 23.6849L78.4583 24ZM72.2503 24L71.8592 24.3115L72.0093 24.5H72.2503V24ZM64.8582 14.72L65.2493 14.4085L65.0992 14.22H64.8582V14.72ZM63.4183 14.72V14.22H62.9182V14.72H63.4183ZM63.4183 24V24.5H63.9183V24H63.4183ZM58.4582 24H57.9582V24.5H58.4582V24ZM58.4582 2.1H63.4183V1.1H58.4582V2.1ZM62.9182 1.6V10.56H63.9183V1.6H62.9182ZM63.4183 11.06H64.8582V10.06H63.4183V11.06ZM65.2439 10.8782L72.6359 1.91819L71.8646 1.28181L64.4726 10.2418L65.2439 10.8782ZM72.2503 2.1H78.1702V1.1H72.2503V2.1ZM77.7825 1.28436L68.8225 12.2924L69.598 12.9236L78.558 1.91563L77.7825 1.28436ZM68.8221 12.9231L78.0701 24.3151L78.8464 23.6849L69.5984 12.2929L68.8221 12.9231ZM78.4583 23.5H72.2503V24.5H78.4583V23.5ZM72.6413 23.6885L65.2493 14.4085L64.4672 15.0315L71.8592 24.3115L72.6413 23.6885ZM64.8582 14.22H63.4183V15.22H64.8582V14.22ZM62.9182 14.72V24H63.9183V14.72H62.9182ZM63.4183 23.5H58.4582V24.5H63.4183V23.5ZM58.9582 24V1.6H57.9582V24H58.9582ZM85.5083 1.6V1.1H85.0083V1.6H85.5083ZM90.4683 1.6H90.9683V1.1H90.4683V1.6ZM90.4683 10.56H89.9683V11.06H90.4683V10.56ZM91.9082 10.56V11.06H92.1439L92.2939 10.8782L91.9082 10.56ZM99.3003 1.6V1.1H99.0646L98.9146 1.28181L99.3003 1.6ZM105.22 1.6L105.608 1.91563L106.272 1.1H105.22V1.6ZM96.2603 12.608L95.8725 12.2924L95.6159 12.6076L95.8721 12.9231L96.2603 12.608ZM105.508 24V24.5H106.558L105.896 23.6849L105.508 24ZM99.3003 24L98.9092 24.3115L99.0593 24.5H99.3003V24ZM91.9082 14.72L92.2993 14.4085L92.1492 14.22H91.9082V14.72ZM90.4683 14.72V14.22H89.9683V14.72H90.4683ZM90.4683 24V24.5H90.9683V24H90.4683ZM85.5083 24H85.0083V24.5H85.5083V24ZM85.5083 2.1H90.4683V1.1H85.5083V2.1ZM89.9683 1.6V10.56H90.9683V1.6H89.9683ZM90.4683 11.06H91.9082V10.06H90.4683V11.06ZM92.2939 10.8782L99.6859 1.91819L98.9146 1.28181L91.5226 10.2418L92.2939 10.8782ZM99.3003 2.1H105.22V1.1H99.3003V2.1ZM104.832 1.28436L95.8725 12.2924L96.648 12.9236L105.608 1.91563L104.832 1.28436ZM95.8721 12.9231L105.12 24.3151L105.896 23.6849L96.6484 12.2929L95.8721 12.9231ZM105.508 23.5H99.3003V24.5H105.508V23.5ZM99.6913 23.6885L92.2993 14.4085L91.5172 15.0315L98.9092 24.3115L99.6913 23.6885ZM91.9082 14.22H90.4683V15.22H91.9082V14.22ZM89.9683 14.72V24H90.9683V14.72H89.9683ZM90.4683 23.5H85.5083V24.5H90.4683V23.5ZM86.0083 24V1.6H85.0083V24H86.0083ZM123.438 5.728L123.91 5.56124L123.792 5.228H123.438V5.728ZM122.318 5.728V5.228H121.964L121.846 5.56271L122.318 5.728ZM115.918 24V24.5H116.273L116.39 24.1653L115.918 24ZM110.83 24L110.36 23.83L110.118 24.5H110.83V24ZM118.926 1.6V1.1H118.575L118.456 1.43004L118.926 1.6ZM126.926 1.6L127.397 1.43064L127.278 1.1H126.926V1.6ZM134.99 24V24.5H135.702L135.461 23.8306L134.99 24ZM129.902 24L129.431 24.1668L129.549 24.5H129.902V24ZM116.238 15.04V14.54H115.738V15.04H116.238ZM129.294 15.04H129.794V14.54H129.294V15.04ZM129.294 19.168V19.668H129.794V19.168H129.294ZM116.238 19.168H115.738V19.668H116.238V19.168ZM123.438 5.228H122.318V6.228H123.438V5.228ZM121.846 5.56271L115.446 23.8347L116.39 24.1653L122.79 5.89328L121.846 5.56271ZM115.918 23.5H110.83V24.5H115.918V23.5ZM111.3 24.17L119.396 1.76995L118.456 1.43004L110.36 23.83L111.3 24.17ZM118.926 2.1H126.926V1.1H118.926V2.1ZM126.456 1.76936L134.52 24.1694L135.461 23.8306L127.397 1.43064L126.456 1.76936ZM134.99 23.5H129.902V24.5H134.99V23.5ZM130.374 23.8332L123.91 5.56124L122.967 5.89475L129.431 24.1668L130.374 23.8332ZM116.238 15.54H129.294V14.54H116.238V15.54ZM128.794 15.04V19.168H129.794V15.04H128.794ZM129.294 18.668H116.238V19.668H129.294V18.668ZM116.738 19.168V15.04H115.738V19.168H116.738ZM141.921 1.6V1.1H141.421V1.6H141.921ZM146.881 1.6H147.381V1.1H146.881V1.6ZM146.881 24V24.5H147.381V24H146.881ZM141.921 24H141.421V24.5H141.921V24ZM141.921 2.1H146.881V1.1H141.921V2.1ZM146.381 1.6V24H147.381V1.6H146.381ZM146.881 23.5H141.921V24.5H146.881V23.5ZM142.421 24V1.6H141.421V24H142.421ZM170.635 3.008L170.399 3.44863L170.405 3.45196L170.635 3.008ZM174.731 6.944L174.295 7.18916L174.299 7.19559L174.731 6.944ZM174.731 18.72L174.299 18.4684L174.298 18.4701L174.731 18.72ZM170.635 22.624L170.867 23.0668L170.869 23.0658L170.635 22.624ZM155.627 24H155.127V24.5H155.627V24ZM155.627 1.6V1.1H155.127V1.6H155.627ZM169.323 17.984L168.966 17.6335L169.323 17.984ZM169.323 7.648L168.964 7.99552L168.966 7.99852L169.323 7.648ZM160.587 5.728V5.228H160.087V5.728H160.587ZM160.587 19.872H160.087V20.372H160.587V19.872ZM164.395 2.1C166.741 2.1 168.736 2.55644 170.399 3.44858L170.871 2.56742C169.035 1.58222 166.871 1.1 164.395 1.1V2.1ZM170.405 3.45196C172.091 4.32535 173.384 5.56901 174.295 7.18913L175.167 6.69887C174.158 4.90565 172.72 3.52531 170.865 2.56404L170.405 3.45196ZM174.299 7.19559C175.23 8.79379 175.703 10.6671 175.703 12.832H176.703C176.703 10.5169 176.195 8.46488 175.163 6.6924L174.299 7.19559ZM175.703 12.832C175.703 14.9969 175.23 16.8702 174.299 18.4684L175.163 18.9716C176.195 17.1991 176.703 15.1471 176.703 12.832H175.703ZM174.298 18.4701C173.387 20.0491 172.092 21.2856 170.401 22.1822L170.869 23.0658C172.719 22.0851 174.155 20.7189 175.164 18.9699L174.298 18.4701ZM170.403 22.1812C168.739 23.0536 166.742 23.5 164.395 23.5V24.5C166.869 24.5 169.032 24.0291 170.867 23.0668L170.403 22.1812ZM164.395 23.5H155.627V24.5H164.395V23.5ZM156.127 24V1.6H155.127V24H156.127ZM155.627 2.1H164.395V1.1H155.627V2.1ZM164.139 20.372C166.455 20.372 168.325 19.712 169.68 18.3345L168.966 17.6335C167.846 18.7733 166.26 19.372 164.139 19.372V20.372ZM169.68 18.3345C171.029 16.9616 171.679 15.1068 171.679 12.832H170.679C170.679 14.9092 170.091 16.4891 168.966 17.6335L169.68 18.3345ZM171.679 12.832C171.679 10.5374 171.03 8.67132 169.68 7.29748L168.966 7.99852C170.091 9.14201 170.679 10.7319 170.679 12.832H171.679ZM169.682 7.30049C168.329 5.90017 166.458 5.228 164.139 5.228V6.228C166.258 6.228 167.842 6.83583 168.964 7.99551L169.682 7.30049ZM164.139 5.228H160.587V6.228H164.139V5.228ZM160.087 5.728V19.872H161.087V5.728H160.087ZM160.587 20.372H164.139V19.372H160.587V20.372ZM190.006 23.392L189.821 23.8562L190.006 23.392ZM186.358 21.056L186.008 21.4132L186.012 21.4168L186.358 21.056ZM183.894 17.44L183.434 17.6353L183.435 17.6378L183.894 17.44ZM183.894 8.192L184.353 8.38981L184.355 8.38727L183.894 8.192ZM186.358 4.576L186.704 4.93686L186.708 4.93318L186.358 4.576ZM190.006 2.208L189.821 1.74376V1.74376L190.006 2.208ZM198.934 2.208L198.749 2.67224L198.751 2.6732L198.934 2.208ZM202.582 4.576L202.229 4.92963L202.236 4.93684L202.582 4.576ZM205.046 8.192L204.586 8.38728L204.587 8.38981L205.046 8.192ZM205.046 17.44L205.505 17.6378L205.507 17.6353L205.046 17.44ZM202.582 21.056L202.928 21.4169L202.932 21.4132L202.582 21.056ZM198.934 23.392L199.12 23.8562L198.934 23.392ZM197.814 19.104L198.078 19.5285L198.081 19.527L197.814 19.104ZM200.086 16.544L199.641 16.3169L199.637 16.3239L200.086 16.544ZM200.086 9.056L199.637 9.27614L199.643 9.28668L200.086 9.056ZM197.814 6.528L197.543 6.94842L197.554 6.9551L197.814 6.528ZM191.094 6.528L191.358 6.95258L191.365 6.94829L191.094 6.528ZM188.822 9.056L188.377 8.8289L188.375 8.83239L188.822 9.056ZM188.822 16.544L188.373 16.7641L188.377 16.7711L188.822 16.544ZM191.094 19.104L190.823 19.5243L190.83 19.5285L191.094 19.104ZM194.486 23.724C192.945 23.724 191.515 23.4572 190.192 22.9278L189.821 23.8562C191.27 24.4362 192.827 24.724 194.486 24.724V23.724ZM190.192 22.9278C188.863 22.3962 187.702 21.652 186.704 20.6952L186.012 21.4168C187.105 22.4653 188.376 23.2785 189.821 23.8562L190.192 22.9278ZM186.708 20.6988C185.711 19.7218 184.926 18.5711 184.353 17.2422L183.435 17.6378C184.057 19.0823 184.915 20.3422 186.008 21.4132L186.708 20.6988ZM184.355 17.2447C183.786 15.9045 183.498 14.4251 183.498 12.8H182.498C182.498 14.5456 182.808 16.1595 183.434 17.6353L184.355 17.2447ZM183.498 12.8C183.498 11.1748 183.786 9.70712 184.353 8.38981L183.435 7.99419C182.808 9.45022 182.498 11.0546 182.498 12.8H183.498ZM184.355 8.38727C184.927 7.03808 185.711 5.89003 186.704 4.93684L186.012 4.21516C184.915 5.26731 184.056 6.52992 183.434 7.99672L184.355 8.38727ZM186.708 4.93318C187.705 3.95631 188.865 3.20292 190.192 2.67224L189.821 1.74376C188.374 2.32241 187.102 3.14768 186.008 4.21882L186.708 4.93318ZM190.192 2.67224C191.515 2.14284 192.945 1.876 194.486 1.876V0.875999C192.827 0.875999 191.27 1.16383 189.821 1.74376L190.192 2.67224ZM194.486 1.876C196.005 1.876 197.424 2.14252 198.749 2.67224L199.12 1.74376C197.671 1.16414 196.125 0.875999 194.486 0.875999V1.876ZM198.751 2.6732C200.098 3.20388 201.255 3.95623 202.229 4.92955L202.936 4.22244C201.861 3.14776 200.586 2.32145 199.118 1.74279L198.751 2.6732ZM202.236 4.93684C203.23 5.89003 204.014 7.03808 204.586 8.38727L205.507 7.99672C204.884 6.52992 204.025 5.26731 202.928 4.21516L202.236 4.93684ZM204.587 8.38981C205.155 9.70712 205.442 11.1748 205.442 12.8H206.442C206.442 11.0546 206.133 9.45022 205.505 7.99419L204.587 8.38981ZM205.442 12.8C205.442 14.4251 205.155 15.9045 204.586 17.2447L205.507 17.6353C206.133 16.1595 206.442 14.5456 206.442 12.8H205.442ZM204.587 17.2422C204.015 18.5711 203.23 19.7218 202.232 20.6988L202.932 21.4132C204.025 20.3422 204.883 19.0823 205.505 17.6378L204.587 17.2422ZM202.236 20.6952C201.239 21.652 200.077 22.3962 198.749 22.9278L199.12 23.8562C200.564 23.2785 201.835 22.4653 202.928 21.4168L202.236 20.6952ZM198.749 22.9278C197.424 23.4575 196.005 23.724 194.486 23.724V24.724C196.125 24.724 197.671 24.4359 199.12 23.8562L198.749 22.9278ZM194.486 20.5C195.827 20.5 197.03 20.1806 198.078 19.5285L197.55 18.6795C196.678 19.222 195.662 19.5 194.486 19.5V20.5ZM198.081 19.527C199.144 18.8566 199.963 17.9314 200.535 16.7641L199.637 16.3239C199.143 17.3326 198.447 18.114 197.548 18.681L198.081 19.527ZM200.532 16.7711C201.127 15.6027 201.418 14.2748 201.418 12.8H200.418C200.418 14.1412 200.154 15.3093 199.641 16.3169L200.532 16.7711ZM201.418 12.8C201.418 11.3055 201.128 9.97552 200.53 8.82532L199.643 9.28668C200.154 10.2698 200.418 11.4359 200.418 12.8H201.418ZM200.535 8.83592C199.962 7.66722 199.142 6.75058 198.074 6.1009L197.554 6.9551C198.45 7.50009 199.144 8.26878 199.637 9.27608L200.535 8.83592ZM198.085 6.10771C197.036 5.43176 195.831 5.1 194.486 5.1V6.1C195.659 6.1 196.672 6.38691 197.543 6.94829L198.085 6.10771ZM194.486 5.1C193.103 5.1 191.875 5.43002 190.823 6.10771L191.365 6.94829C192.234 6.38864 193.267 6.1 194.486 6.1V5.1ZM190.83 6.10347C189.787 6.75273 188.969 7.66655 188.377 8.82891L189.268 9.28309C189.784 8.26945 190.482 7.49794 191.358 6.95253L190.83 6.10347ZM188.375 8.83239C187.801 9.98096 187.522 11.3083 187.522 12.8H188.522C188.522 11.433 188.777 10.2644 189.269 9.27961L188.375 8.83239ZM187.522 12.8C187.522 14.272 187.801 15.5973 188.373 16.7641L189.271 16.3239C188.777 15.3147 188.522 14.144 188.522 12.8H187.522ZM188.377 16.7711C188.969 17.9321 189.784 18.8545 190.823 19.5243L191.365 18.6837C190.484 18.1162 189.785 17.3319 189.268 16.3169L188.377 16.7711ZM190.83 19.5285C191.881 20.1823 193.106 20.5 194.486 20.5V19.5C193.264 19.5 192.228 19.2204 191.358 18.6795L190.83 19.5285Z" fill="#98D936" mask="url(#path-1-outside-1_1591_58015)"/>
</g>
</svg>
