<svg width="302" height="91" viewBox="0 0 302 91" fill="none" xmlns="http://www.w3.org/2000/svg">
<mask id="path-1-outside-1_1591_49448" maskUnits="userSpaceOnUse" x="-1.5" y="18.4062" width="306" height="57" fill="black">
<rect fill="white" x="-1.5" y="18.4062" width="306" height="57"/>
<path d="M22.0027 44.8462V44.6062C21.8827 44.5262 21.8027 44.4062 21.6827 44.2862C20.9627 43.6862 20.2427 43.2062 19.5227 42.9662C21.4427 40.8862 22.4827 39.2062 23.4427 36.8462C23.6827 36.2862 23.9227 35.4462 24.0827 34.6862C25.3627 34.8862 26.5227 35.1662 27.5227 35.4062C27.9627 35.5262 28.1627 35.6462 28.1627 35.9262C28.1627 36.2462 28.0027 36.4062 27.6827 36.6062C27.4427 36.7662 27.3627 37.0462 27.1227 37.6862L27.0027 38.0062H33.0027C36.8027 38.0062 38.1227 37.9262 38.3227 37.9262C38.7227 37.9262 38.7627 37.9662 38.7627 38.3662V40.7662C38.7627 41.1662 38.7227 41.2062 38.3227 41.2062C38.1227 41.2062 36.8027 41.1262 33.0027 41.1262H31.6427C32.1227 41.8062 32.4827 42.4462 32.9227 43.2462C33.1227 43.6062 33.0027 43.6862 32.5227 43.8062L30.0827 44.4462H31.7627C34.7227 44.4462 35.7227 44.3662 35.9627 44.3662C36.3627 44.3662 36.4027 44.4062 36.4027 44.8462C36.4027 45.0862 36.3227 46.3663 36.3227 49.1262V59.8062C36.3227 62.4062 36.4827 65.2862 36.4827 67.0863C36.4827 68.8463 36.2027 69.6863 35.3627 70.4463C34.6427 71.0863 33.4427 71.4063 30.3227 71.4063C29.0827 71.4063 29.0827 71.4063 28.8427 70.2063C28.6427 69.1663 28.3227 68.2062 27.9627 67.4862C29.1227 67.6462 30.0827 67.6862 30.8427 67.6862C32.1227 67.6862 32.4427 67.3662 32.4427 66.2062V54.8062H26.6027C23.6827 54.8062 22.6827 54.8862 22.4427 54.8862C22.0427 54.8862 22.0027 54.8462 22.0027 54.4462C22.0027 54.1662 22.0827 53.4462 22.0827 51.4062V47.8062C22.0827 45.8462 22.0027 45.0862 22.0027 44.8462ZM26.6027 44.4462H29.4427C29.3627 44.4062 29.3227 44.2462 29.2827 44.0862C28.8027 42.9262 28.3627 42.0462 27.8027 41.1262H25.5627C25.0027 42.1662 24.3227 43.1662 23.4427 44.2062L23.2827 44.4062C23.9227 44.4462 24.9627 44.4462 26.6027 44.4462ZM32.4427 47.0062H25.7227V48.4462H32.4427V47.0062ZM25.7227 52.2862H32.4427V50.8462H25.7227V52.2862ZM5.40273 65.4062V50.6862C5.40273 48.2462 5.36273 46.6462 5.36273 45.7662C5.12273 45.7662 4.88273 45.5262 4.40273 45.0862C3.56273 44.3262 2.72273 43.7662 2.12273 43.4462C4.36273 41.4862 6.16273 39.3262 7.40273 36.7262C7.76273 35.9662 8.00273 35.4062 8.16273 34.6062C9.60273 34.8062 10.6827 35.0062 11.8827 35.2462C12.3227 35.3662 12.4827 35.4862 12.4827 35.8062C12.4827 36.1262 12.2827 36.2862 12.0027 36.4862C11.7627 36.6462 11.6427 36.8462 11.4027 37.4462L11.1627 38.0062H15.3627C18.7627 38.0062 19.9227 37.9262 20.1627 37.9262C20.5627 37.9262 20.6027 37.9662 20.6027 38.3662V40.7662C20.6027 41.1662 20.5627 41.2062 20.1627 41.2062C19.9227 41.2062 18.7627 41.1262 15.3627 41.1262H15.2027C15.6427 41.8062 15.9627 42.4462 16.3627 43.1662C16.5627 43.5662 16.5227 43.6462 15.9627 43.7662L13.3627 44.3662C12.7627 44.4862 12.6827 44.4462 12.5627 44.0062C12.2427 42.9662 11.8827 42.0462 11.4027 41.1262H9.40273C8.64273 42.2862 7.80273 43.3662 6.84273 44.4062C7.56273 44.4462 8.68273 44.4462 10.2427 44.4462H15.1227C17.6027 44.4462 18.6027 44.3662 18.8427 44.3662C19.2827 44.3662 19.3227 44.4062 19.3227 44.8462C19.3227 45.0862 19.2427 46.0062 19.2427 48.0862V51.1262C19.2427 53.2462 19.3227 54.2062 19.3227 54.4462C19.3227 54.8462 19.2827 54.8862 18.8427 54.8862C18.6027 54.8862 17.6027 54.8062 15.1227 54.8062H9.32273V65.4062C9.32273 69.1663 9.40273 70.8863 9.40273 71.1263C9.40273 71.5263 9.36274 71.5663 8.92273 71.5663H5.76273C5.36273 71.5663 5.32273 71.5263 5.32273 71.1263C5.32273 70.8863 5.40273 69.1663 5.40273 65.4062ZM15.6027 47.0062H9.32273V48.4462H15.6027V47.0062ZM15.6027 52.2862V50.8462H9.32273V52.2862H15.6027ZM17.0027 70.1263H14.2427C13.8427 70.1263 13.8027 70.0863 13.8027 69.6863C13.8027 69.4063 13.8827 68.4863 13.8827 63.4462V60.8062C13.8827 58.1662 13.8027 57.1262 13.8027 56.8862C13.8027 56.4862 13.8427 56.4462 14.2427 56.4462C14.5227 56.4462 15.4027 56.5262 18.3227 56.5262H23.2427C26.1627 56.5262 27.0827 56.4462 27.3227 56.4462C27.7227 56.4462 27.7627 56.4862 27.7627 56.8862C27.7627 57.1262 27.6827 58.1662 27.6827 60.2062V63.1662C27.6827 68.0462 27.7627 69.0063 27.7627 69.2463C27.7627 69.6463 27.7227 69.6863 27.3227 69.6863H24.6027C24.2027 69.6863 24.1627 69.6463 24.1627 69.2463V68.2862H17.4427V69.6863C17.4427 70.0863 17.4027 70.1263 17.0027 70.1263ZM17.4427 65.6062H24.1627V63.6062H17.4427V65.6062ZM17.4427 59.2462V61.1662H24.1627V59.2462H17.4427ZM62.5227 65.2462H52.3627C48.8027 65.2462 47.6027 65.3262 47.3627 65.3262C46.9627 65.3262 46.9627 65.2862 46.9627 64.8862V61.8862C46.9627 61.4862 46.9627 61.4462 47.3627 61.4462C47.6027 61.4462 48.8027 61.5262 52.3627 61.5262H62.5227V58.8062H57.4027C53.4827 58.8062 52.0827 58.8862 51.8027 58.8862C51.4027 58.8862 51.3627 58.8462 51.3627 58.4462C51.3627 58.2062 51.4427 57.0862 51.4427 54.4862V47.4462C51.4427 44.8462 51.3627 43.7662 51.3627 43.4862C51.3627 43.1262 51.4027 43.0862 51.8027 43.0862C52.0827 43.0862 53.4827 43.1662 57.4027 43.1662H72.1627C76.0827 43.1662 77.4827 43.0862 77.7227 43.0862C78.1227 43.0862 78.1627 43.1262 78.1627 43.4862C78.1627 43.7262 78.0827 44.8462 78.0827 47.4462V54.4862C78.0827 57.0862 78.1627 58.2062 78.1627 58.4462C78.1627 58.8462 78.1227 58.8862 77.7227 58.8862C77.4827 58.8862 76.0827 58.8062 72.1627 58.8062H66.6027V61.5262H77.2427C80.8027 61.5262 82.0027 61.4462 82.2427 61.4462C82.6427 61.4462 82.6427 61.4862 82.6427 61.8862V64.8862C82.6427 65.2862 82.6427 65.3262 82.2427 65.3262C82.0027 65.3262 80.8027 65.2462 77.2427 65.2462H66.6027V66.1262C66.6027 69.4063 66.6827 70.9263 66.6827 71.1263C66.6827 71.5263 66.6427 71.5663 66.2427 71.5663H62.8427C62.4827 71.5663 62.4427 71.5263 62.4427 71.1263C62.4427 70.8863 62.5227 69.4063 62.5227 66.1262V65.2462ZM74.0427 55.4862V52.4862H66.6027V55.4862H74.0427ZM74.0427 46.4462H66.6027V49.3262H74.0427V46.4462ZM55.4827 55.4862H62.5227V52.4862H55.4827V55.4862ZM55.4827 49.3262H62.5227V46.4462H55.4827V49.3262ZM70.9627 41.5662C72.0827 40.2462 72.9227 38.9662 73.7227 37.5662C74.1227 36.8462 74.4827 36.1262 74.7627 35.1262C76.0427 35.5262 77.4427 36.0462 78.5627 36.5262C78.8427 36.6862 79.0427 36.8862 79.0427 37.1262C79.0427 37.4062 78.7627 37.6462 78.6027 37.8062C78.3227 38.0062 78.0027 38.4062 77.8027 38.7262C77.1227 39.8062 76.2827 41.0462 75.4827 42.1262C75.2027 42.4862 75.0027 42.6462 74.6827 42.6462C74.4427 42.6462 74.1627 42.5662 73.7227 42.4062C72.9627 42.1262 71.7227 41.7262 70.9627 41.5662ZM50.4827 36.6062L53.3227 35.5262C53.7627 35.3662 53.8827 35.3662 54.1627 35.6862C55.3627 37.2062 56.3627 38.8062 57.2827 40.5262C57.4427 40.8462 57.4027 40.9262 56.9627 41.1262L54.0427 42.3662C53.5227 42.5662 53.4027 42.5662 53.2027 42.1662C52.4427 40.4862 51.3227 38.7262 50.2027 37.2462C49.9227 36.9262 50.0027 36.8062 50.4827 36.6062ZM61.2427 35.8462L63.8827 34.9662C64.4027 34.8062 64.4827 34.8062 64.7227 35.1662C65.8027 36.7662 66.7227 38.5262 67.3227 40.3662C67.4827 40.7662 67.4427 40.8062 66.9627 41.0062L64.1627 42.0862C63.5627 42.3262 63.5227 42.2862 63.3627 41.8462C62.7627 39.9262 61.8427 38.0062 60.8827 36.4862C60.6427 36.1262 60.7227 36.0062 61.2427 35.8462ZM99.1227 34.0862L91.7427 31.8662C93.4827 25.3862 98.6427 21.9662 105.603 21.9662C113.943 21.9662 119.343 26.8262 119.343 33.4862C119.343 38.8862 116.103 42.8462 110.583 43.8062V44.2262C116.763 45.5462 120.243 49.6862 120.243 55.7462C120.243 63.8462 114.363 69.3663 105.603 69.3663C98.0427 69.3663 93.0627 66.3062 91.0227 59.2262L98.4027 57.0662C99.4227 61.6862 101.583 63.5462 105.543 63.5462C109.863 63.5462 112.563 60.6662 112.563 55.8062C112.563 50.5862 110.103 47.5262 103.683 47.5262H100.203V41.4062H103.383C109.383 41.4062 111.783 38.8262 111.783 34.2062C111.783 30.0062 109.323 27.7862 105.483 27.7862C102.303 27.7862 99.7227 29.7662 99.1227 34.0862ZM143.037 40.6062H154.037C155.477 40.6062 156.197 40.5662 156.797 40.2462C156.957 40.1262 157.077 40.0862 157.237 40.0862C157.477 40.0862 157.677 40.2462 157.917 40.4062C158.837 41.1262 159.757 42.1662 160.517 43.2062C160.637 43.4062 160.717 43.5662 160.717 43.7262C160.717 43.9662 160.557 44.2462 160.197 44.5262C159.677 44.9662 159.157 45.5662 158.717 46.2862C157.077 49.0862 155.517 51.3262 153.597 53.7662C157.437 56.6062 160.997 59.7262 164.677 63.4462C164.877 63.6462 164.997 63.8462 164.997 64.0062C164.997 64.1662 164.917 64.3662 164.717 64.6062C163.957 65.5262 163.037 66.4862 162.037 67.3262C161.877 67.4862 161.717 67.5662 161.557 67.5662C161.357 67.5662 161.197 67.4462 160.997 67.2462C157.637 63.3262 154.197 60.1662 150.597 57.3262C146.077 62.0462 141.517 65.4462 137.157 67.8862C136.797 68.0462 136.517 68.2062 136.237 68.2062C135.997 68.2062 135.757 68.0862 135.557 67.8462C134.677 66.7662 133.517 65.9662 132.197 65.2462C138.437 62.0862 142.157 59.2462 146.277 55.0462C149.157 52.0462 151.357 49.2062 153.797 45.0062L143.477 45.0462C141.397 45.0462 139.317 45.1262 137.157 45.2862C136.837 45.3262 136.717 45.0462 136.637 44.6062C136.437 43.7662 136.277 41.8462 136.277 40.4462C138.437 40.6062 140.437 40.6062 143.037 40.6062ZM201.477 52.0462H196.117C195.877 56.5262 195.317 59.2062 193.757 62.2462C192.157 65.3662 189.277 68.2862 186.717 69.8063C186.277 70.0863 185.877 70.2863 185.517 70.2863C185.237 70.2863 184.957 70.1663 184.677 69.8863C183.877 69.0863 182.517 68.2862 181.117 67.7662C185.037 65.6462 187.397 63.6862 189.077 60.6462C190.557 58.0062 190.957 55.8462 191.117 52.0462H183.517C181.517 52.0462 179.557 52.1662 177.517 52.2862C177.157 52.3262 177.037 52.0462 176.997 51.5262C176.797 50.4062 176.677 48.8862 176.677 47.6862C178.917 47.8862 181.157 47.8862 183.477 47.8862H201.437C204.557 47.8862 206.877 47.8062 209.237 47.6462C209.637 47.6462 209.677 47.8862 209.677 48.4462C209.717 48.9662 209.717 51.0062 209.677 51.5262C209.677 52.0462 209.437 52.2062 209.077 52.2062C206.997 52.1262 204.237 52.0462 201.477 52.0462ZM197.157 42.7662H188.197C186.357 42.7662 184.757 42.8462 182.517 42.9262C181.997 42.9262 181.877 42.7262 181.837 42.2462C181.717 41.2862 181.677 39.8462 181.557 38.4062C184.357 38.5662 186.397 38.6062 188.197 38.6062H197.157C199.397 38.6062 201.917 38.5662 203.917 38.4462C204.317 38.4462 204.397 38.6862 204.397 39.2062C204.477 40.1662 204.477 41.1662 204.397 42.1262C204.397 42.6862 204.317 42.8862 203.877 42.8862C201.717 42.8062 199.357 42.7662 197.157 42.7662ZM224.517 49.5662C225.877 48.8062 226.837 48.3662 227.677 47.9662C228.117 47.7662 228.397 47.8062 228.717 48.2462C230.117 50.0062 231.397 52.0462 232.157 54.1662C232.237 54.4462 232.317 54.6062 232.317 54.7662C232.317 55.0062 232.157 55.1262 231.837 55.3262C230.877 55.8862 230.197 56.2062 229.277 56.5662C228.717 56.7662 228.477 56.5662 228.277 56.0062C227.357 53.6862 226.117 51.4862 224.517 49.5662ZM232.557 47.5262C234.157 46.7662 235.077 46.3262 235.757 46.0462C236.197 45.8462 236.477 45.8862 236.797 46.3663C237.877 47.7662 239.237 50.2862 239.877 52.2062C240.077 52.8062 239.997 53.0062 239.477 53.2862C238.717 53.7262 237.837 54.1262 236.717 54.5262C236.277 54.6862 236.117 54.4862 235.917 53.9262C234.997 51.5662 234.077 49.6462 232.557 47.5262ZM245.157 46.5662C246.837 47.0862 248.637 47.8062 249.637 48.4862C249.957 48.7262 250.157 48.9262 250.157 49.1662C250.157 49.4062 250.037 49.6062 249.717 49.8862C249.117 50.4062 248.837 51.2062 248.517 51.9262C246.797 56.0062 244.717 59.6462 242.477 62.5662C239.837 65.9262 237.637 68.0462 234.237 70.2863C233.917 70.5263 233.597 70.7263 233.277 70.7263C233.077 70.7263 232.837 70.6463 232.637 70.4463C231.637 69.6463 230.717 69.2063 229.237 68.7663C234.037 65.6062 236.437 63.5662 238.837 60.4462C240.837 57.8463 243.077 53.9262 244.237 50.8062C244.757 49.3262 244.997 48.4462 245.157 46.5662ZM287.837 45.6462H273.397C270.797 45.6462 268.517 45.7662 266.797 45.8462C266.277 45.8862 266.117 45.6062 266.037 45.0462C265.917 44.2462 265.757 42.1662 265.677 41.0062C267.477 41.2062 269.597 41.2862 273.357 41.2862H287.637C288.837 41.2862 289.277 41.2062 289.837 40.8862C290.077 40.7262 290.317 40.6462 290.517 40.6462C290.757 40.6462 290.997 40.7262 291.197 40.9262C292.237 41.7662 293.237 42.7262 293.917 43.6862C294.117 43.9662 294.237 44.2062 294.237 44.4862C294.237 44.7262 294.117 44.9662 293.837 45.2462C293.477 45.6062 293.277 46.0062 292.917 46.8062C290.957 51.5262 288.517 55.9262 285.157 59.8062C281.717 63.7262 277.837 67.0462 273.797 69.3263C273.437 69.5663 273.077 69.6863 272.717 69.6863C272.397 69.6863 272.037 69.5663 271.717 69.2463C270.797 68.3662 269.477 67.6462 267.997 67.0462C273.837 64.0862 277.397 61.3262 281.077 57.0462C284.197 53.4862 286.237 50.0862 287.837 45.6462ZM296.717 33.6862C299.117 33.6862 301.037 35.5662 301.037 37.9662C301.037 40.3662 299.117 42.2462 296.717 42.2462C294.317 42.2462 292.397 40.3662 292.397 37.9662C292.397 35.4862 294.317 33.6862 296.717 33.6862ZM296.717 35.6062C295.357 35.6062 294.357 36.6062 294.357 37.9662C294.357 39.3262 295.357 40.3262 296.717 40.3262C298.077 40.3262 299.077 39.3262 299.077 37.9662C299.077 36.6062 298.077 35.6062 296.717 35.6062Z"/>
</mask>
<path d="M22.0027 44.6062H25.0027C25.0027 43.6032 24.5014 42.6665 23.6668 42.1101L22.0027 44.6062ZM21.6827 44.2862L23.8041 42.1649C23.7399 42.1008 23.6729 42.0396 23.6033 41.9816L21.6827 44.2862ZM19.5227 42.9662L17.3183 40.9314C16.6276 41.6797 16.3636 42.7274 16.6173 43.7137C16.8711 44.7 17.6079 45.4902 18.5741 45.8123L19.5227 42.9662ZM23.4427 36.8462L20.6853 35.6645C20.678 35.6815 20.6708 35.6987 20.6638 35.7159L23.4427 36.8462ZM24.0827 34.6862L24.5459 31.7222C22.9693 31.4759 21.4758 32.5068 21.1471 34.0682L24.0827 34.6862ZM27.5227 35.4062L28.3121 32.512C28.2825 32.5039 28.2527 32.4963 28.2229 32.4891L27.5227 35.4062ZM27.6827 36.6063L26.0927 34.0623C26.0678 34.0778 26.0431 34.0938 26.0186 34.1101L27.6827 36.6063ZM27.1227 37.6862L29.9317 38.7396L29.9317 38.7396L27.1227 37.6862ZM27.0027 38.0062L24.1938 36.9529C23.8483 37.8742 23.9765 38.9063 24.537 39.715C25.0974 40.5238 26.0188 41.0062 27.0027 41.0062V38.0062ZM31.6427 41.1262V38.1262C30.522 38.1262 29.4947 38.751 28.9791 39.7461C28.4635 40.7412 28.5455 41.9407 29.1918 42.8563L31.6427 41.1262ZM32.9227 43.2463L30.2941 44.692L30.3003 44.7032L32.9227 43.2463ZM32.5227 43.8063L31.7951 40.8958C31.7839 40.8986 31.7728 40.9015 31.7616 40.9044L32.5227 43.8063ZM30.0827 44.4462L29.3216 41.5444C27.8624 41.9271 26.9144 43.3339 27.1074 44.83C27.3003 46.3261 28.5742 47.4462 30.0827 47.4462V44.4462ZM35.3627 70.4463L37.3558 72.6885C37.3624 72.6826 37.3689 72.6768 37.3755 72.6709L35.3627 70.4463ZM28.8427 70.2063L25.8967 70.7728C25.8981 70.7801 25.8995 70.7873 25.901 70.7946L28.8427 70.2063ZM27.9627 67.4863L28.3726 64.5144C27.2699 64.3623 26.1735 64.8333 25.5248 65.738C24.876 66.6427 24.7816 67.8322 25.2795 68.8279L27.9627 67.4863ZM32.4427 54.8063H35.4427C35.4427 53.1494 34.0996 51.8063 32.4427 51.8063V54.8063ZM29.4427 44.4462V47.4462C30.8341 47.4462 32.0428 46.4896 32.3625 45.1355C32.6821 43.7814 32.0288 42.3852 30.7844 41.763L29.4427 44.4462ZM29.2827 44.0863L32.1932 43.3586C32.1574 43.2156 32.1112 43.0754 32.0548 42.9392L29.2827 44.0863ZM27.8027 41.1262L30.3653 39.5664C29.821 38.6721 28.8497 38.1262 27.8027 38.1262V41.1262ZM25.5627 41.1262V38.1262C24.4591 38.1262 23.4446 38.7322 22.9213 39.7039L25.5627 41.1262ZM23.4427 44.2062L21.1526 42.2684C21.1348 42.2894 21.1173 42.3107 21.1001 42.3322L23.4427 44.2062ZM23.2827 44.4062L20.9401 42.5322C20.2408 43.4063 20.0864 44.5972 20.5396 45.6208C20.9928 46.6444 21.9783 47.3306 23.0956 47.4004L23.2827 44.4062ZM32.4427 47.0062H35.4427C35.4427 45.3494 34.0996 44.0062 32.4427 44.0062V47.0062ZM25.7227 47.0062V44.0062C24.0659 44.0062 22.7227 45.3494 22.7227 47.0062H25.7227ZM25.7227 48.4463H22.7227C22.7227 50.1031 24.0659 51.4463 25.7227 51.4463V48.4463ZM32.4427 48.4463V51.4463C34.0996 51.4463 35.4427 50.1031 35.4427 48.4463H32.4427ZM25.7227 52.2862H22.7227C22.7227 53.9431 24.0659 55.2862 25.7227 55.2862V52.2862ZM32.4427 52.2862V55.2862C34.0996 55.2862 35.4427 53.9431 35.4427 52.2862H32.4427ZM32.4427 50.8462H35.4427C35.4427 49.1894 34.0996 47.8462 32.4427 47.8462V50.8462ZM25.7227 50.8462V47.8462C24.0659 47.8462 22.7227 49.1894 22.7227 50.8462H25.7227ZM5.36273 45.7662H8.36273C8.36273 44.1094 7.01959 42.7662 5.36273 42.7662V45.7662ZM4.40273 45.0863L6.42991 42.8748C6.42511 42.8704 6.4203 42.866 6.41548 42.8616L4.40273 45.0863ZM2.12273 43.4463L0.14722 41.1885C-0.594562 41.8376 -0.970193 42.8096 -0.857643 43.7888C-0.745093 44.768 -0.158722 45.6295 0.710976 46.0933L2.12273 43.4463ZM7.40273 36.7262L10.1106 38.0177L10.1139 38.0105L7.40273 36.7262ZM8.16273 34.6062L8.57544 31.6348C7.00284 31.4164 5.53237 32.461 5.22099 34.0179L8.16273 34.6062ZM11.8827 35.2462L12.6721 32.352C12.6057 32.3338 12.5386 32.318 12.4711 32.3045L11.8827 35.2462ZM12.0027 36.4862L13.6668 38.9824C13.6937 38.9645 13.7202 38.9462 13.7464 38.9274L12.0027 36.4862ZM11.4027 37.4462L14.1602 38.628C14.1698 38.6056 14.1791 38.5831 14.1882 38.5604L11.4027 37.4462ZM11.1627 38.0062L8.4053 36.8245C8.00806 37.7514 8.10308 38.8158 8.65821 39.6577C9.21334 40.4996 10.1543 41.0062 11.1627 41.0062V38.0062ZM15.2027 41.1262V38.1262C14.1037 38.1262 13.0927 38.7272 12.5675 39.6926C12.0423 40.658 12.087 41.8333 12.684 42.756L15.2027 41.1262ZM16.3627 43.1662L19.046 41.8246C19.0266 41.7857 19.0063 41.7473 18.9852 41.7093L16.3627 43.1662ZM15.9627 43.7662L15.3342 40.8328C15.3188 40.8361 15.3035 40.8395 15.2882 40.8431L15.9627 43.7662ZM13.3627 44.3662L13.9511 47.308C13.9799 47.3022 14.0087 47.296 14.0373 47.2894L13.3627 44.3662ZM12.5627 44.0062L15.457 43.2169C15.4485 43.1858 15.4396 43.1548 15.4301 43.124L12.5627 44.0062ZM11.4027 41.1262L14.0625 39.7386C13.5455 38.7476 12.5204 38.1262 11.4027 38.1262V41.1262ZM9.40273 41.1262V38.1262C8.39117 38.1262 7.44772 38.636 6.89335 39.4822L9.40273 41.1262ZM6.84273 44.4062L4.63832 42.3714C3.85054 43.2248 3.62615 44.4563 4.06227 45.5328C4.4984 46.6092 5.51667 47.3372 6.67633 47.4016L6.84273 44.4062ZM9.32273 54.8063V51.8063C7.66588 51.8063 6.32273 53.1494 6.32273 54.8063H9.32273ZM15.6027 47.0062H18.6027C18.6027 45.3494 17.2596 44.0062 15.6027 44.0062V47.0062ZM9.32273 47.0062V44.0062C7.66588 44.0062 6.32273 45.3494 6.32273 47.0062H9.32273ZM9.32273 48.4463H6.32273C6.32273 50.1031 7.66588 51.4463 9.32273 51.4463V48.4463ZM15.6027 48.4463V51.4463C17.2596 51.4463 18.6027 50.1031 18.6027 48.4463H15.6027ZM15.6027 52.2862V55.2862C17.2596 55.2862 18.6027 53.9431 18.6027 52.2862H15.6027ZM15.6027 50.8462H18.6027C18.6027 49.1894 17.2596 47.8462 15.6027 47.8462V50.8462ZM9.32273 50.8462V47.8462C7.66588 47.8462 6.32273 49.1894 6.32273 50.8462H9.32273ZM9.32273 52.2862H6.32273C6.32273 53.9431 7.66588 55.2862 9.32273 55.2862V52.2862ZM24.1627 68.2862H27.1627C27.1627 66.6294 25.8196 65.2862 24.1627 65.2862V68.2862ZM17.4427 68.2862V65.2862C15.7859 65.2862 14.4427 66.6294 14.4427 68.2862H17.4427ZM17.4427 65.6062H14.4427C14.4427 67.2631 15.7859 68.6062 17.4427 68.6062V65.6062ZM24.1627 65.6062V68.6062C25.8196 68.6062 27.1627 67.2631 27.1627 65.6062H24.1627ZM24.1627 63.6063H27.1627C27.1627 61.9494 25.8196 60.6063 24.1627 60.6063V63.6063ZM17.4427 63.6063V60.6063C15.7859 60.6063 14.4427 61.9494 14.4427 63.6063H17.4427ZM17.4427 59.2463V56.2463C15.7859 56.2463 14.4427 57.5894 14.4427 59.2463H17.4427ZM17.4427 61.1662H14.4427C14.4427 62.8231 15.7859 64.1662 17.4427 64.1662V61.1662ZM24.1627 61.1662V64.1662C25.8196 64.1662 27.1627 62.8231 27.1627 61.1662H24.1627ZM24.1627 59.2463H27.1627C27.1627 57.5894 25.8196 56.2463 24.1627 56.2463V59.2463ZM25.0027 44.8462V44.6062H19.0027V44.8462H25.0027ZM23.6668 42.1101C23.7975 42.1972 23.8956 42.2809 23.9603 42.341C24.0218 42.398 24.0605 42.4409 24.0626 42.4432C24.0641 42.4449 24.0625 42.4432 24.0514 42.4306C24.0439 42.4222 24.0228 42.3983 24.0035 42.3766C23.9613 42.3295 23.8914 42.2523 23.8041 42.1649L19.5614 46.4076C19.5341 46.3802 19.5191 46.363 19.5295 46.3746C19.5364 46.3824 19.541 46.3875 19.5588 46.4076C19.5729 46.4236 19.5964 46.4501 19.6229 46.4793C19.7194 46.5854 19.9671 46.8547 20.3387 47.1024L23.6668 42.1101ZM23.6033 41.9816C22.7743 41.2908 21.7147 40.5346 20.4714 40.1202L18.5741 45.8123C18.7707 45.8779 19.1511 46.0817 19.7622 46.5909L23.6033 41.9816ZM21.7271 45.0011C23.8899 42.6581 25.1252 40.6721 26.2216 37.9766L20.6638 35.7159C19.8403 37.7404 18.9955 39.1144 17.3183 40.9314L21.7271 45.0011ZM26.2002 38.028C26.5475 37.2175 26.8368 36.1669 27.0184 35.3043L21.1471 34.0682C21.0087 34.7256 20.8179 35.355 20.6853 35.6645L26.2002 38.028ZM23.6196 37.6503C24.763 37.8289 25.8108 38.0806 26.8226 38.3234L28.2229 32.4891C27.2347 32.2519 25.9624 31.9436 24.5459 31.7222L23.6196 37.6503ZM26.7334 38.3005C26.788 38.3154 26.7585 38.3101 26.6868 38.2812C26.6196 38.2541 26.4226 38.1701 26.1896 37.9925C25.9353 37.7988 25.6414 37.4955 25.4286 37.0597C25.2177 36.6276 25.1627 36.2211 25.1627 35.9262H31.1627C31.1627 34.8759 30.696 33.8829 29.8259 33.22C29.2167 32.7559 28.5505 32.577 28.3121 32.512L26.7334 38.3005ZM25.1627 35.9262C25.1627 35.7539 25.1847 35.5115 25.2728 35.2333C25.3635 34.9472 25.5005 34.6978 25.6564 34.4931C25.9245 34.1413 26.2009 33.9946 26.0927 34.0623L29.2727 39.1502C29.4846 39.0179 30.001 38.6912 30.429 38.1294C30.9537 37.4408 31.1627 36.662 31.1627 35.9262H25.1627ZM26.0186 34.1101C25.2656 34.6121 24.8884 35.2636 24.6883 35.6889C24.5395 36.0051 24.3863 36.4394 24.3137 36.6329L29.9317 38.7396C29.9644 38.6525 29.9943 38.5717 30.0193 38.5042C30.0454 38.4337 30.0653 38.3801 30.0831 38.3331C30.1222 38.2297 30.1288 38.219 30.1172 38.2436C30.1036 38.2725 30.0389 38.4076 29.9094 38.5767C29.7653 38.7648 29.5767 38.9492 29.3468 39.1024L26.0186 34.1101ZM24.3138 36.6329L24.1938 36.9529L29.8117 39.0596L29.9317 38.7396L24.3138 36.6329ZM27.0027 41.0062H33.0027V35.0062H27.0027V41.0062ZM33.0027 41.0062C34.9239 41.0062 36.2282 40.986 37.085 40.9654C37.5139 40.955 37.8281 40.9447 38.0479 40.9369C38.3254 40.927 38.3437 40.9263 38.3227 40.9263V34.9263C38.1961 34.9263 37.6096 34.951 36.9405 34.9671C36.1373 34.9865 34.8815 35.0062 33.0027 35.0062V41.0062ZM38.3227 40.9263C38.4276 40.9263 38.2793 40.9333 38.067 40.8979C37.8337 40.859 37.1695 40.7156 36.5714 40.1176C35.9734 39.5195 35.83 38.8553 35.7911 38.6219C35.7557 38.4097 35.7627 38.2614 35.7627 38.3662H41.7627C41.7627 38.2711 41.7648 37.9678 41.7094 37.6356C41.6505 37.2822 41.4721 36.533 40.8141 35.8749C40.156 35.2169 39.4068 35.0385 39.0534 34.9796C38.7212 34.9242 38.4179 34.9263 38.3227 34.9263V40.9263ZM35.7627 38.3662V40.7662H41.7627V38.3662H35.7627ZM35.7627 40.7662C35.7627 40.8711 35.7557 40.7228 35.7911 40.5106C35.83 40.2772 35.9734 39.613 36.5714 39.0149C37.1695 38.4169 37.8336 38.2735 38.067 38.2346C38.2793 38.1992 38.4276 38.2062 38.3227 38.2062V44.2062C38.4179 44.2062 38.7212 44.2083 39.0534 44.1529C39.4068 44.094 40.156 43.9156 40.8141 43.2576C41.4721 42.5995 41.6505 41.8503 41.7094 41.4969C41.7648 41.1647 41.7627 40.8614 41.7627 40.7662H35.7627ZM38.3227 38.2062C38.3437 38.2062 38.3254 38.2055 38.0479 38.1956C37.8281 38.1878 37.5139 38.1775 37.085 38.1671C36.2282 38.1465 34.9239 38.1262 33.0027 38.1262V44.1262C34.8815 44.1262 36.1373 44.146 36.9405 44.1654C37.6096 44.1815 38.1961 44.2062 38.3227 44.2062V38.2062ZM33.0027 38.1262H31.6427V44.1262H33.0027V38.1262ZM29.1918 42.8563C29.5657 43.3859 29.8555 43.8946 30.2941 44.692L35.5514 41.8005C35.1099 40.9979 34.6798 40.2266 34.0936 39.3962L29.1918 42.8563ZM30.3003 44.7032C30.3001 44.7029 30.1217 44.403 30.0481 43.9319C29.95 43.3041 30.0562 42.4545 30.6494 41.7245C31.1056 41.163 31.6307 40.9615 31.7096 40.9302C31.833 40.8812 31.9019 40.8691 31.7951 40.8958L33.2503 46.7167C33.3836 46.6834 33.6475 46.6163 33.9221 46.5073C34.1523 46.416 34.7849 46.1495 35.3061 45.508C35.9642 44.698 36.093 43.7534 35.9761 43.0056C35.8838 42.4146 35.6453 41.9696 35.5452 41.7893L30.3003 44.7032ZM31.7616 40.9044L29.3216 41.5444L30.8439 47.3481L33.2839 46.7081L31.7616 40.9044ZM30.0827 47.4462H31.7627V41.4462H30.0827V47.4462ZM31.7627 47.4462C33.2703 47.4462 34.2912 47.4259 34.975 47.4048C35.3172 47.3943 35.5707 47.3837 35.7509 47.376C35.9792 47.3661 35.9874 47.3662 35.9627 47.3662V41.3662C35.8181 41.3662 35.6113 41.3764 35.4921 41.3815C35.3248 41.3888 35.0983 41.3982 34.7905 41.4077C34.1743 41.4266 33.2152 41.4462 31.7627 41.4462V47.4462ZM35.9627 47.3662C36.0733 47.3662 35.9077 47.3742 35.6771 47.3334C35.4052 47.2853 34.7195 47.1165 34.1283 46.4761C33.569 45.8702 33.4528 45.2237 33.4245 45.0375C33.3963 44.853 33.4027 44.7307 33.4027 44.8462H39.4027C39.4027 44.7418 39.4041 44.4495 39.356 44.1337C39.3076 43.8163 39.1565 43.0773 38.5371 42.4064C37.886 41.701 37.1153 41.4947 36.7233 41.4253C36.3728 41.3633 36.0522 41.3662 35.9627 41.3662V47.3662ZM33.4027 44.8462C33.4027 44.8314 33.4018 44.8681 33.3924 45.1139C33.3848 45.3146 33.3744 45.5939 33.364 45.955C33.3432 46.6776 33.3227 47.7164 33.3227 49.1262H39.3227C39.3227 47.7761 39.3423 46.7949 39.3615 46.1275C39.3773 45.5765 39.4027 45.0117 39.4027 44.8462H33.4027ZM33.3227 49.1262V59.8063H39.3227V49.1262H33.3227ZM33.3227 59.8063C33.3227 61.1592 33.3643 62.5726 33.4042 63.8407C33.4451 65.1376 33.4827 66.2462 33.4827 67.0863H39.4827C39.4827 66.1263 39.4404 64.8949 39.4012 63.6518C39.3612 62.3799 39.3227 61.0533 39.3227 59.8063H33.3227ZM33.4827 67.0863C33.4827 67.8511 33.4151 68.1223 33.3917 68.1926C33.3867 68.2076 33.3918 68.19 33.4084 68.1656C33.4221 68.1453 33.4156 68.1623 33.35 68.2216L37.3755 72.6709C38.1251 71.9926 38.7241 71.1689 39.0838 70.0899C39.4104 69.1102 39.4827 68.0814 39.4827 67.0863H33.4827ZM33.3696 68.204C33.5069 68.082 33.5578 68.1417 33.1399 68.2274C32.6594 68.326 31.8195 68.4062 30.3227 68.4062V74.4062C33.3459 74.4062 35.6827 74.1757 37.3558 72.6885L33.3696 68.204ZM30.3227 68.4062C29.9454 68.4062 29.9002 68.4023 29.9162 68.404C29.9482 68.4074 30.519 68.4572 31.0971 68.926C31.6812 69.3995 31.8486 69.9554 31.8624 69.9991C31.8694 70.0214 31.858 69.9855 31.7845 69.6179L25.901 70.7946C25.9475 71.027 26.0261 71.4411 26.1393 71.8009C26.2593 72.1821 26.5493 72.963 27.3183 73.5865C28.0815 74.2053 28.8997 74.3301 29.2881 74.371C29.6603 74.4102 30.08 74.4062 30.3227 74.4062V68.4062ZM31.7888 69.6397C31.5462 68.3785 31.1487 67.1499 30.646 66.1446L25.2795 68.8279C25.4968 69.2626 25.7393 69.954 25.8967 70.7728L31.7888 69.6397ZM27.5528 70.4581C28.8719 70.6401 29.9712 70.6862 30.8427 70.6862V64.6862C30.1943 64.6862 29.3736 64.6525 28.3726 64.5144L27.5528 70.4581ZM30.8427 70.6862C31.4723 70.6862 32.9962 70.6746 34.1746 69.5699C35.4234 68.399 35.4427 66.819 35.4427 66.2063H29.4427C29.4427 66.3929 29.4259 66.3396 29.4685 66.175C29.5223 65.967 29.677 65.5619 30.0709 65.1926C30.4509 64.8364 30.8299 64.7243 30.9626 64.6939C31.0713 64.669 31.0684 64.6862 30.8427 64.6862V70.6862ZM35.4427 66.2063V54.8063H29.4427V66.2063H35.4427ZM32.4427 51.8063H26.6027V57.8063H32.4427V51.8063ZM26.6027 51.8063C25.1148 51.8063 24.1036 51.8266 23.4248 51.8477C23.0851 51.8582 22.8328 51.8688 22.6535 51.8766C22.4263 51.8864 22.4178 51.8862 22.4427 51.8862V57.8862C22.5877 57.8862 22.7942 57.8761 22.9132 57.8709C23.0801 57.8637 23.3054 57.8543 23.6107 57.8448C24.2218 57.8259 25.1707 57.8063 26.6027 57.8063V51.8063ZM22.4427 51.8862C22.3379 51.8862 22.4862 51.8792 22.6984 51.9146C22.9318 51.9535 23.596 52.0969 24.1941 52.6949C24.7921 53.293 24.9355 53.9572 24.9744 54.1906C25.0098 54.4028 25.0027 54.5511 25.0027 54.4463H19.0027C19.0027 54.5414 19.0007 54.8447 19.0561 55.1769C19.115 55.5303 19.2934 56.2795 19.9514 56.9376C20.6095 57.5956 21.3587 57.774 21.712 57.8329C22.0443 57.8883 22.3476 57.8862 22.4427 57.8862V51.8862ZM25.0027 54.4463C25.0027 54.4758 25.0017 54.4716 25.0109 54.3019C25.0182 54.1656 25.0292 53.9687 25.04 53.7138C25.0619 53.1999 25.0827 52.4673 25.0827 51.4062H19.0827C19.0827 52.3852 19.0636 53.0326 19.0454 53.4587C19.0363 53.6738 19.0272 53.8369 19.0196 53.9781C19.0138 54.0859 19.0027 54.2767 19.0027 54.4463H25.0027ZM25.0827 51.4062V47.8062H19.0827V51.4062H25.0827ZM25.0827 47.8062C25.0827 46.7837 25.0618 46.0607 25.04 45.5523C25.0291 45.2996 25.0182 45.1045 25.0107 44.9687C25.0008 44.7908 25.0027 44.802 25.0027 44.8462H19.0027C19.0027 45.0105 19.0147 45.2067 19.0198 45.3C19.0273 45.4355 19.0364 45.5979 19.0455 45.8102C19.0636 46.2318 19.0827 46.8688 19.0827 47.8062H25.0827ZM26.6027 47.4462H29.4427V41.4462H26.6027V47.4462ZM30.7844 41.763C31.3847 42.0631 31.7215 42.4883 31.8754 42.7161C32.0349 42.9521 32.1165 43.153 32.1478 43.2343C32.2021 43.3757 32.2262 43.4907 32.1932 43.3586L26.3723 44.8139C26.3793 44.8418 26.4433 45.1168 26.5477 45.3882C26.604 45.5345 26.7131 45.7929 26.9038 46.0752C27.089 46.3492 27.4608 46.8094 28.1011 47.1295L30.7844 41.763ZM32.0548 42.9392C31.5251 41.6592 31.0175 40.6379 30.3653 39.5664L25.2401 42.6861C25.7079 43.4546 26.0803 44.1933 26.5107 45.2333L32.0548 42.9392ZM27.8027 38.1262H25.5627V44.1262H27.8027V38.1262ZM22.9213 39.7039C22.4665 40.5487 21.9068 41.3771 21.1526 42.2684L25.7329 46.1441C26.7387 44.9554 27.539 43.7838 28.2041 42.5485L22.9213 39.7039ZM21.1001 42.3322L20.9401 42.5322L25.6253 46.2803L25.7853 46.0803L21.1001 42.3322ZM23.0956 47.4004C23.8548 47.4479 25.0196 47.4462 26.6027 47.4462V41.4462C24.9059 41.4462 23.9906 41.4446 23.4699 41.4121L23.0956 47.4004ZM32.4427 44.0062H25.7227V50.0062H32.4427V44.0062ZM22.7227 47.0062V48.4463H28.7227V47.0062H22.7227ZM25.7227 51.4463H32.4427V45.4463H25.7227V51.4463ZM35.4427 48.4463V47.0062H29.4427V48.4463H35.4427ZM25.7227 55.2862H32.4427V49.2862H25.7227V55.2862ZM35.4427 52.2862V50.8462H29.4427V52.2862H35.4427ZM32.4427 47.8462H25.7227V53.8462H32.4427V47.8462ZM22.7227 50.8462V52.2862H28.7227V50.8462H22.7227ZM8.40273 65.4062V50.6862H2.40273V65.4062H8.40273ZM8.40273 50.6862C8.40273 49.4494 8.39259 48.4261 8.38251 47.6044C8.37223 46.7669 8.36273 46.1817 8.36273 45.7662H2.36273C2.36273 46.2308 2.37324 46.8856 2.38296 47.6781C2.39288 48.4864 2.40273 49.4831 2.40273 50.6862H8.40273ZM5.36273 42.7662C5.8256 42.7662 6.19472 42.8867 6.43446 42.9972C6.65179 43.0974 6.78225 43.1983 6.79803 43.2104C6.81836 43.226 6.80567 43.2178 6.72838 43.1482C6.64773 43.0757 6.57092 43.004 6.42991 42.8748L2.37556 47.2977C2.537 47.4457 2.86091 47.7524 3.14744 47.9721C3.41657 48.1784 4.20939 48.7662 5.36273 48.7662V42.7662ZM6.41548 42.8616C5.39761 41.9407 4.35654 41.2376 3.53449 40.7992L0.710976 46.0933C1.08893 46.2949 1.72786 46.7118 2.38999 47.3109L6.41548 42.8616ZM4.09825 45.704C6.56546 43.5452 8.65409 41.0715 10.1105 38.0177L4.69492 35.4348C3.67138 37.581 2.16001 39.4273 0.14722 41.1885L4.09825 45.704ZM10.1139 38.0105C10.505 37.185 10.8714 36.36 11.1045 35.1946L5.22099 34.0179C5.13408 34.4525 5.02049 34.7475 4.69152 35.442L10.1139 38.0105ZM7.75003 37.5777C9.11127 37.7668 10.1288 37.9549 11.2944 38.188L12.4711 32.3045C11.2366 32.0576 10.0942 31.8457 8.57544 31.6348L7.75003 37.5777ZM11.0934 38.1405C11.1405 38.1534 11.0818 38.1405 10.9749 38.0945C10.8675 38.0482 10.6183 37.9294 10.3474 37.687C10.0475 37.4187 9.79742 37.0673 9.64312 36.6573C9.50105 36.2798 9.48274 35.9653 9.48274 35.8062H15.4827C15.4827 35.0756 15.2633 34.0343 14.3481 33.2155C13.681 32.6186 12.9104 32.4169 12.6721 32.352L11.0934 38.1405ZM9.48274 35.8062C9.48274 35.5641 9.52234 35.2818 9.63018 34.9874C9.73727 34.6951 9.88363 34.4672 10.016 34.3037C10.14 34.1505 10.2483 34.0583 10.2826 34.0299C10.3133 34.0045 10.3236 33.9989 10.259 34.045L13.7464 38.9274C13.9195 38.8039 15.4827 37.8285 15.4827 35.8062H9.48274ZM10.3386 33.9901C9.24436 34.7196 8.84717 35.7574 8.61731 36.3321L14.1882 38.5604C14.2398 38.4314 14.2704 38.3606 14.2879 38.3228C14.3056 38.2843 14.2932 38.3165 14.2517 38.3833C14.2048 38.4588 14.1239 38.5742 14.0024 38.7003C13.8787 38.8288 13.758 38.9216 13.6668 38.9824L10.3386 33.9901ZM8.6453 36.2645L8.4053 36.8245L13.9202 39.188L14.1602 38.628L8.6453 36.2645ZM11.1627 41.0062H15.3627V35.0062H11.1627V41.0062ZM15.3627 41.0062C17.0866 41.0062 18.2536 40.986 19.0282 40.9652C19.4159 40.9548 19.7019 40.9443 19.9045 40.9365C20.1562 40.9269 20.1786 40.9263 20.1627 40.9263V34.9263C20.0087 34.9263 19.4471 34.9518 18.8672 34.9673C18.1519 34.9865 17.0389 35.0062 15.3627 35.0062V41.0062ZM20.1627 40.9263C20.2676 40.9263 20.1193 40.9333 19.907 40.8979C19.6737 40.859 19.0095 40.7156 18.4114 40.1176C17.8134 39.5195 17.67 38.8553 17.6311 38.6219C17.5957 38.4097 17.6027 38.2614 17.6027 38.3662H23.6027C23.6027 38.2711 23.6048 37.9678 23.5494 37.6355C23.4905 37.2822 23.3121 36.533 22.6541 35.8749C21.996 35.2169 21.2468 35.0385 20.8934 34.9796C20.5612 34.9242 20.2579 34.9263 20.1627 34.9263V40.9263ZM17.6027 38.3662V40.7662H23.6027V38.3662H17.6027ZM17.6027 40.7662C17.6027 40.8711 17.5957 40.7228 17.6311 40.5106C17.67 40.2772 17.8134 39.613 18.4114 39.0149C19.0095 38.4169 19.6736 38.2735 19.907 38.2346C20.1192 38.1992 20.2676 38.2062 20.1627 38.2062V44.2062C20.2579 44.2062 20.5612 44.2083 20.8934 44.1529C21.2468 44.094 21.996 43.9156 22.6541 43.2576C23.3121 42.5995 23.4905 41.8503 23.5494 41.4969C23.6048 41.1647 23.6027 40.8614 23.6027 40.7662H17.6027ZM20.1627 38.2062C20.1786 38.2062 20.1562 38.2056 19.9045 38.196C19.7019 38.1882 19.4159 38.1777 19.0282 38.1673C18.2536 38.1465 17.0866 38.1262 15.3627 38.1262V44.1262C17.0389 44.1262 18.1519 44.146 18.8672 44.1652C19.4471 44.1807 20.0087 44.2062 20.1627 44.2062V38.2062ZM15.3627 38.1262H15.2027V44.1262H15.3627V38.1262ZM12.684 42.756C13.0512 43.3234 13.2649 43.7676 13.7403 44.6232L18.9852 41.7093C18.6606 41.1249 18.2343 40.2891 17.7214 39.4965L12.684 42.756ZM13.6795 44.5079C13.7257 44.6004 13.6169 44.4091 13.5449 44.1067C13.4572 43.738 13.3431 42.847 13.929 41.9415C14.4241 41.1764 15.1042 40.9199 15.2097 40.8792C15.3668 40.8186 15.4579 40.8063 15.3342 40.8328L16.5913 46.6997C16.7476 46.6662 17.0537 46.5989 17.3695 46.477C17.6337 46.3751 18.4164 46.0511 18.9664 45.201C19.6074 44.2105 19.5008 43.217 19.3818 42.717C19.2785 42.2834 19.0997 41.9321 19.046 41.8246L13.6795 44.5079ZM15.2882 40.8431L12.6882 41.4431L14.0373 47.2894L16.6373 46.6894L15.2882 40.8431ZM12.7744 41.4245C12.6305 41.4533 12.6819 41.4371 12.8019 41.4291C12.9078 41.4221 13.4192 41.3902 14.0241 41.6651C14.7337 41.9877 15.123 42.5169 15.3053 42.8613C15.4413 43.1181 15.4847 43.3183 15.457 43.2169L9.66844 44.7956C9.7008 44.9142 9.79921 45.2844 10.0026 45.6687C10.2525 46.1406 10.7218 46.7548 11.5413 47.1273C12.2563 47.4523 12.9077 47.4354 13.201 47.4159C13.5086 47.3954 13.795 47.3392 13.9511 47.308L12.7744 41.4245ZM15.4301 43.124C15.0678 41.9466 14.6431 40.8514 14.0625 39.7386L8.74298 42.5139C9.12234 43.2411 9.41768 43.9859 9.6954 44.8885L15.4301 43.124ZM11.4027 38.1262H9.40273V44.1262H11.4027V38.1262ZM6.89335 39.4822C6.22318 40.5051 5.48498 41.4542 4.63832 42.3714L9.04715 46.4411C10.1205 45.2783 11.0623 44.0674 11.9121 42.7703L6.89335 39.4822ZM6.67633 47.4016C7.50154 47.4475 8.7286 47.4462 10.2427 47.4462V41.4462C8.63687 41.4462 7.62393 41.445 7.00914 41.4109L6.67633 47.4016ZM10.2427 47.4462H15.1227V41.4462H10.2427V47.4462ZM15.1227 47.4462C16.3961 47.4462 17.3 47.4257 17.9244 47.4045C18.2362 47.394 18.4743 47.3834 18.6442 47.3757C18.8596 47.366 18.8703 47.3662 18.8427 47.3662V41.3662C18.6952 41.3662 18.4908 41.3765 18.3738 41.3818C18.2112 41.3891 17.9993 41.3985 17.7211 41.408C17.1655 41.4268 16.3294 41.4462 15.1227 41.4462V47.4462ZM18.8427 47.3662C18.9636 47.3662 18.8254 47.3734 18.6239 47.3408C18.4035 47.3051 17.7313 47.1674 17.1264 46.5626C16.5216 45.9577 16.3839 45.2854 16.3482 45.0651C16.3155 44.8636 16.3227 44.7254 16.3227 44.8462H22.3227C22.3227 44.7471 22.3249 44.4389 22.271 44.1061C22.2141 43.7546 22.0389 42.9898 21.3691 42.3199C20.6992 41.6501 19.9344 41.4749 19.5828 41.4179C19.25 41.3641 18.9419 41.3662 18.8427 41.3662V47.3662ZM16.3227 44.8462C16.3227 44.8122 16.3235 44.8169 16.3139 45.0139C16.3063 45.1673 16.2956 45.3836 16.285 45.6609C16.2635 46.2178 16.2427 47.0063 16.2427 48.0863H22.2427C22.2427 47.0862 22.2619 46.3747 22.2805 45.8915C22.2899 45.6489 22.2992 45.4602 22.3066 45.3086C22.3119 45.2006 22.3227 45.0003 22.3227 44.8462H16.3227ZM16.2427 48.0863V51.1263H22.2427V48.0863H16.2427ZM16.2427 51.1263C16.2427 52.2254 16.2635 53.0328 16.2848 53.6033C16.2955 53.8875 16.3061 54.1096 16.3137 54.2676C16.3233 54.4695 16.3227 54.4779 16.3227 54.4463H22.3227C22.3227 54.2946 22.3122 54.093 22.3068 53.9811C22.2994 53.8254 22.29 53.63 22.2806 53.3792C22.262 52.8797 22.2427 52.1471 22.2427 51.1263H16.2427ZM16.3227 54.4463C16.3227 54.5568 16.3147 54.3912 16.3556 54.1606C16.4037 53.8887 16.5725 53.203 17.2129 52.6118C17.8188 52.0525 18.4653 51.9363 18.6514 51.908C18.836 51.8799 18.9583 51.8862 18.8427 51.8862V57.8862C18.9472 57.8862 19.2395 57.8876 19.5553 57.8395C19.8726 57.7912 20.6116 57.64 21.2826 57.0207C21.988 56.3695 22.1942 55.5988 22.2637 55.2069C22.3257 54.8563 22.3227 54.5357 22.3227 54.4463H16.3227ZM18.8427 51.8862C18.8703 51.8862 18.8596 51.8865 18.6442 51.8768C18.4743 51.8691 18.2362 51.8585 17.9244 51.848C17.3 51.8268 16.3961 51.8063 15.1227 51.8063V57.8063C16.3294 57.8063 17.1655 57.8257 17.7211 57.8445C17.9993 57.854 18.2112 57.8634 18.3738 57.8707C18.4908 57.876 18.6952 57.8862 18.8427 57.8862V51.8862ZM15.1227 51.8063H9.32273V57.8063H15.1227V51.8063ZM6.32273 54.8063V65.4062H12.3227V54.8063H6.32273ZM6.32273 65.4062C6.32273 67.308 6.34297 68.6995 6.36343 69.6507C6.37366 70.1264 6.3839 70.49 6.39154 70.7486C6.39547 70.8814 6.39837 70.9754 6.4005 71.0506C6.40301 71.1395 6.40273 71.1471 6.40273 71.1263H12.4027C12.4027 70.9753 12.3795 70.3324 12.362 69.5218C12.3425 68.613 12.3227 67.2645 12.3227 65.4062H6.32273ZM6.40273 71.1263C6.40273 71.2368 6.39474 71.0712 6.43557 70.8406C6.48373 70.5687 6.6525 69.883 7.29289 69.2918C7.89882 68.7325 8.54532 68.6163 8.73143 68.588C8.91599 68.5599 9.03825 68.5663 8.92274 68.5663V74.5663C9.02722 74.5663 9.31948 74.5676 9.63529 74.5195C9.95265 74.4712 10.6916 74.32 11.3626 73.7007C12.068 73.0495 12.2742 72.2788 12.3436 71.8869C12.4057 71.5363 12.4027 71.2157 12.4027 71.1263H6.40273ZM8.92274 68.5663H5.76273V74.5663H8.92274V68.5663ZM5.76273 68.5663C5.65788 68.5663 5.80622 68.5592 6.01843 68.5946C6.25182 68.6335 6.916 68.7769 7.51405 69.3749C8.11211 69.973 8.25552 70.6372 8.29442 70.8706C8.32979 71.0828 8.32273 71.2311 8.32273 71.1263H2.32273C2.32273 71.2214 2.32068 71.5247 2.37605 71.8569C2.43495 72.2103 2.61336 72.9595 3.27141 73.6176C3.92947 74.2756 4.67865 74.454 5.03204 74.5129C5.36425 74.5683 5.66759 74.5663 5.76273 74.5663V68.5663ZM8.32273 71.1263C8.32273 71.1471 8.32246 71.1395 8.32497 71.0506C8.3271 70.9754 8.33 70.8814 8.33393 70.7486C8.34157 70.49 8.35181 70.1264 8.36204 69.6507C8.3825 68.6995 8.40273 67.308 8.40273 65.4062H2.40273C2.40273 67.2645 2.38297 68.613 2.36343 69.5218C2.346 70.3324 2.32273 70.9753 2.32273 71.1263H8.32273ZM15.6027 44.0062H9.32273V50.0062H15.6027V44.0062ZM6.32273 47.0062V48.4463H12.3227V47.0062H6.32273ZM9.32273 51.4463H15.6027V45.4463H9.32273V51.4463ZM18.6027 48.4463V47.0062H12.6027V48.4463H18.6027ZM18.6027 52.2862V50.8462H12.6027V52.2862H18.6027ZM15.6027 47.8462H9.32273V53.8462H15.6027V47.8462ZM6.32273 50.8462V52.2862H12.3227V50.8462H6.32273ZM9.32273 55.2862H15.6027V49.2862H9.32273V55.2862ZM17.0027 67.1263H14.2427V73.1263H17.0027V67.1263ZM14.2427 67.1263C14.1379 67.1263 14.2862 67.1192 14.4984 67.1546C14.7318 67.1935 15.396 67.3369 15.9941 67.9349C16.5921 68.533 16.7355 69.1972 16.7744 69.4306C16.8098 69.6428 16.8027 69.7911 16.8027 69.6862H10.8027C10.8027 69.7814 10.8007 70.0847 10.8561 70.4169C10.915 70.7703 11.0934 71.5195 11.7514 72.1776C12.4095 72.8356 13.1587 73.014 13.512 73.0729C13.8443 73.1283 14.1476 73.1263 14.2427 73.1263V67.1263ZM16.8027 69.6862C16.8027 69.6894 16.8034 69.6794 16.8132 69.4119C16.8212 69.1952 16.8316 68.882 16.842 68.4183C16.8626 67.4944 16.8827 65.9809 16.8827 63.4463H10.8827C10.8827 65.9516 10.8628 67.4181 10.8435 68.2842C10.8279 68.9831 10.8027 69.5384 10.8027 69.6862H16.8027ZM16.8827 63.4463V60.8062H10.8827V63.4463H16.8827ZM16.8827 60.8062C16.8827 59.455 16.8622 58.5028 16.8412 57.8495C16.8306 57.5231 16.8201 57.2753 16.8124 57.0984C16.8027 56.8753 16.8027 56.8615 16.8027 56.8862H10.8027C10.8027 57.031 10.8128 57.2372 10.8181 57.3591C10.8254 57.5272 10.8348 57.7494 10.8443 58.043C10.8632 58.6297 10.8827 59.5175 10.8827 60.8062H16.8827ZM16.8027 56.8862C16.8027 56.7814 16.8098 56.9297 16.7744 57.1419C16.7355 57.3753 16.5921 58.0395 15.9941 58.6376C15.396 59.2356 14.7318 59.379 14.4984 59.4179C14.2862 59.4533 14.1379 59.4463 14.2427 59.4463V53.4463C14.1476 53.4463 13.8443 53.4442 13.512 53.4996C13.1586 53.5585 12.4095 53.7369 11.7514 54.3949C11.0934 55.053 10.915 55.8022 10.8561 56.1556C10.8007 56.4878 10.8027 56.7911 10.8027 56.8862H16.8027ZM14.2427 59.4463C14.2265 59.4463 14.242 59.4463 14.4535 59.4557C14.6258 59.4635 14.8677 59.4741 15.196 59.4847C15.8523 59.5059 16.8348 59.5262 18.3227 59.5262V53.5262C16.8906 53.5262 15.9732 53.5066 15.3895 53.4878C15.0978 53.4784 14.8846 53.469 14.7219 53.4618C14.5985 53.4562 14.3989 53.4463 14.2427 53.4463V59.4463ZM18.3227 59.5262H23.2427V53.5262H18.3227V59.5262ZM23.2427 59.5262C24.7305 59.5262 25.7228 59.5059 26.3837 59.4847C26.7146 59.4741 26.9578 59.4635 27.1303 59.4557C27.3512 59.4457 27.3514 59.4463 27.3227 59.4463V53.4463C27.1741 53.4463 26.9693 53.4568 26.8589 53.4618C26.7002 53.469 26.4859 53.4784 26.1918 53.4878C25.6027 53.5066 24.6749 53.5262 23.2427 53.5262V59.5262ZM27.3227 59.4463C27.4276 59.4463 27.2793 59.4533 27.067 59.4179C26.8336 59.379 26.1695 59.2356 25.5714 58.6376C24.9734 58.0395 24.83 57.3753 24.7911 57.1419C24.7557 56.9297 24.7627 56.7814 24.7627 56.8862H30.7627C30.7627 56.7911 30.7648 56.4878 30.7094 56.1556C30.6505 55.8022 30.4721 55.053 29.8141 54.3949C29.156 53.7369 28.4068 53.5585 28.0534 53.4996C27.7212 53.4442 27.4179 53.4463 27.3227 53.4463V59.4463ZM24.7627 56.8862C24.7627 56.858 24.7629 56.8747 24.7534 57.0816C24.7459 57.2451 24.7353 57.4735 24.7248 57.7612C24.7036 58.3389 24.6827 59.1457 24.6827 60.2062H30.6827C30.6827 59.2267 30.7019 58.4936 30.7207 57.9813C30.7302 57.724 30.7396 57.5199 30.7471 57.3572C30.7526 57.2378 30.7627 57.0345 30.7627 56.8862H24.7627ZM24.6827 60.2062V63.1662H30.6827V60.2062H24.6827ZM24.6827 63.1662C24.6827 65.6215 24.7028 67.1052 24.7235 68.0144C24.7339 68.4706 24.7443 68.7805 24.7523 68.9937C24.7626 69.2665 24.7627 69.2612 24.7627 69.2462H30.7627C30.7627 69.1191 30.7374 68.5563 30.722 67.8781C30.7026 67.0273 30.6827 65.591 30.6827 63.1662H24.6827ZM24.7627 69.2462C24.7627 69.3511 24.7557 69.2028 24.7911 68.9906C24.83 68.7572 24.9734 68.093 25.5714 67.4949C26.1695 66.8969 26.8337 66.7535 27.067 66.7146C27.2793 66.6792 27.4276 66.6862 27.3227 66.6862V72.6862C27.4179 72.6862 27.7212 72.6883 28.0534 72.6329C28.4068 72.574 29.156 72.3956 29.8141 71.7376C30.4721 71.0795 30.6505 70.3303 30.7094 69.9769C30.7648 69.6447 30.7627 69.3414 30.7627 69.2462H24.7627ZM27.3227 66.6862H24.6027V72.6862H27.3227V66.6862ZM24.6027 66.6862C24.4979 66.6862 24.6462 66.6792 24.8584 66.7146C25.0918 66.7535 25.756 66.8969 26.3541 67.4949C26.9521 68.093 27.0955 68.7572 27.1344 68.9906C27.1698 69.2028 27.1627 69.3511 27.1627 69.2462H21.1627C21.1627 69.3414 21.1607 69.6447 21.2161 69.9769C21.275 70.3303 21.4534 71.0795 22.1114 71.7376C22.7695 72.3956 23.5187 72.574 23.872 72.6329C24.2043 72.6883 24.5076 72.6862 24.6027 72.6862V66.6862ZM27.1627 69.2462V68.2862H21.1627V69.2462H27.1627ZM24.1627 65.2862H17.4427V71.2862H24.1627V65.2862ZM14.4427 68.2862V69.6862H20.4427V68.2862H14.4427ZM14.4427 69.6862C14.4427 69.7911 14.4357 69.6428 14.4711 69.4306C14.5099 69.1972 14.6534 68.533 15.2514 67.9349C15.8495 67.3369 16.5137 67.1935 16.747 67.1546C16.9593 67.1192 17.1076 67.1263 17.0027 67.1263V73.1263C17.0979 73.1263 17.4012 73.1283 17.7334 73.0729C18.0868 73.014 18.836 72.8356 19.4941 72.1776C20.1521 71.5195 20.3305 70.7703 20.3894 70.4169C20.4448 70.0847 20.4427 69.7814 20.4427 69.6862H14.4427ZM17.4427 68.6062H24.1627V62.6063H17.4427V68.6062ZM27.1627 65.6062V63.6063H21.1627V65.6062H27.1627ZM24.1627 60.6063H17.4427V66.6062H24.1627V60.6063ZM14.4427 63.6063V65.6062H20.4427V63.6063H14.4427ZM14.4427 59.2463V61.1662H20.4427V59.2463H14.4427ZM17.4427 64.1662H24.1627V58.1662H17.4427V64.1662ZM27.1627 61.1662V59.2463H21.1627V61.1662H27.1627ZM24.1627 56.2463H17.4427V62.2463H24.1627V56.2463ZM62.5227 65.2462H65.5227C65.5227 63.5894 64.1796 62.2463 62.5227 62.2463V65.2462ZM62.5227 61.5262V64.5263C64.1796 64.5263 65.5227 63.1831 65.5227 61.5262H62.5227ZM62.5227 58.8063H65.5227C65.5227 57.1494 64.1796 55.8063 62.5227 55.8063V58.8063ZM66.6027 58.8063V55.8063C64.9459 55.8063 63.6027 57.1494 63.6027 58.8063H66.6027ZM66.6027 61.5262H63.6027C63.6027 63.1831 64.9459 64.5263 66.6027 64.5263V61.5262ZM66.6027 65.2462V62.2463C64.9459 62.2463 63.6027 63.5894 63.6027 65.2462H66.6027ZM74.0427 55.4862V58.4862C75.6996 58.4862 77.0427 57.1431 77.0427 55.4862H74.0427ZM74.0427 52.4862H77.0427C77.0427 50.8294 75.6996 49.4862 74.0427 49.4862V52.4862ZM66.6027 52.4862V49.4862C64.9459 49.4862 63.6027 50.8294 63.6027 52.4862H66.6027ZM66.6027 55.4862H63.6027C63.6027 57.1431 64.9459 58.4862 66.6027 58.4862V55.4862ZM74.0427 46.4463H77.0427C77.0427 44.7894 75.6996 43.4463 74.0427 43.4463V46.4463ZM66.6027 46.4463V43.4463C64.9459 43.4463 63.6027 44.7894 63.6027 46.4463H66.6027ZM66.6027 49.3262H63.6027C63.6027 50.9831 64.9459 52.3262 66.6027 52.3262V49.3262ZM74.0427 49.3262V52.3262C75.6996 52.3262 77.0427 50.9831 77.0427 49.3262H74.0427ZM55.4827 55.4862H52.4827C52.4827 57.1431 53.8259 58.4862 55.4827 58.4862V55.4862ZM62.5227 55.4862V58.4862C64.1796 58.4862 65.5227 57.1431 65.5227 55.4862H62.5227ZM62.5227 52.4862H65.5227C65.5227 50.8294 64.1796 49.4862 62.5227 49.4862V52.4862ZM55.4827 52.4862V49.4862C53.8259 49.4862 52.4827 50.8294 52.4827 52.4862H55.4827ZM55.4827 49.3262H52.4827C52.4827 50.9831 53.8259 52.3262 55.4827 52.3262V49.3262ZM62.5227 49.3262V52.3262C64.1796 52.3262 65.5227 50.9831 65.5227 49.3262H62.5227ZM62.5227 46.4463H65.5227C65.5227 44.7894 64.1796 43.4463 62.5227 43.4463V46.4463ZM55.4827 46.4463V43.4463C53.8259 43.4463 52.4827 44.7894 52.4827 46.4463H55.4827ZM70.9627 41.5662L68.6752 39.6253C67.9913 40.4314 67.7821 41.5378 68.1245 42.5379C68.4668 43.538 69.3103 44.2841 70.3447 44.5019L70.9627 41.5662ZM73.7227 37.5662L76.3275 39.0547C76.3334 39.0442 76.3394 39.0337 76.3452 39.0232L73.7227 37.5662ZM74.7627 35.1263L75.6576 32.2628C74.8833 32.0209 74.044 32.1028 73.3312 32.4898C72.6183 32.8769 72.0926 33.5362 71.8738 34.3174L74.7627 35.1263ZM78.5627 36.5262L80.0512 33.9215C79.9519 33.8648 79.8495 33.8138 79.7445 33.7688L78.5627 36.5262ZM78.6027 37.8062L80.3465 40.2474C80.4809 40.1514 80.6072 40.0444 80.7241 39.9276L78.6027 37.8062ZM77.8027 38.7262L80.3414 40.3247L80.3467 40.3162L77.8027 38.7262ZM75.4827 42.1263L77.8508 43.9681C77.8652 43.9495 77.8794 43.9308 77.8934 43.9119L75.4827 42.1263ZM73.7227 42.4062L72.6856 45.2213L72.6975 45.2256L73.7227 42.4062ZM50.4827 36.6063L49.4164 33.8022C49.387 33.8133 49.3579 33.8249 49.3289 33.837L50.4827 36.6063ZM53.3227 35.5262L52.2975 32.7069C52.2838 32.7119 52.2701 32.717 52.2564 32.7222L53.3227 35.5262ZM54.1627 35.6862L56.5174 33.8273C56.4861 33.7876 56.4538 33.7488 56.4205 33.7107L54.1627 35.6862ZM57.2827 40.5262L59.966 39.1846C59.9537 39.16 59.9411 39.1356 59.9281 39.1113L57.2827 40.5262ZM56.9627 41.1262L58.1354 43.8876C58.1584 43.8778 58.1813 43.8677 58.2041 43.8573L56.9627 41.1262ZM54.0427 42.3662L55.1197 45.1663C55.1518 45.1539 55.1837 45.141 55.2154 45.1276L54.0427 42.3662ZM53.2027 42.1662L50.4694 43.4028C50.4854 43.4381 50.5021 43.4732 50.5195 43.5079L53.2027 42.1662ZM50.2027 37.2462L52.595 35.4359C52.5521 35.3793 52.5072 35.3242 52.4605 35.2707L50.2027 37.2462ZM61.2427 35.8462L62.125 38.7136C62.1472 38.7067 62.1694 38.6997 62.1914 38.6923L61.2427 35.8462ZM63.8827 34.9662L63.0005 32.0989C62.9783 32.1058 62.9561 32.1128 62.9341 32.1202L63.8827 34.9662ZM64.7227 35.1662L62.2266 36.8304C62.2298 36.8351 62.233 36.8399 62.2362 36.8447L64.7227 35.1662ZM67.3227 40.3662L64.4705 41.2963C64.4908 41.3584 64.5131 41.4198 64.5373 41.4804L67.3227 40.3662ZM66.9627 41.0062L68.0424 43.8053C68.0672 43.7957 68.092 43.7857 68.1166 43.7755L66.9627 41.0062ZM64.1627 42.0862L63.0831 39.2872C63.0716 39.2917 63.0601 39.2962 63.0486 39.3008L64.1627 42.0862ZM63.3627 41.8462L60.4993 42.7411C60.513 42.7849 60.5277 42.8284 60.5434 42.8715L63.3627 41.8462ZM60.8827 36.4862L63.4192 34.8843C63.406 34.8634 63.3926 34.8427 63.3789 34.8222L60.8827 36.4862ZM62.5227 62.2463H52.3627V68.2462H62.5227V62.2463ZM52.3627 62.2463C50.56 62.2463 49.344 62.2665 48.5403 62.2872C48.1381 62.2976 47.8424 62.308 47.6332 62.3158C47.3748 62.3254 47.349 62.3262 47.3627 62.3262V68.3262C47.5144 68.3262 48.0823 68.3011 48.6951 68.2852C49.4415 68.266 50.6055 68.2462 52.3627 68.2462V62.2463ZM47.3627 62.3262C47.2474 62.3262 47.4194 62.3179 47.6566 62.3601C47.9327 62.4092 48.6988 62.5934 49.3174 63.3357C49.8752 64.0051 49.9411 64.7006 49.9528 64.8129C49.9665 64.9445 49.9627 65.0504 49.9627 64.8863H43.9627C43.9627 64.9221 43.9589 65.183 43.9851 65.4346C44.0093 65.6669 44.1003 66.4474 44.7081 67.1768C45.3766 67.9791 46.2177 68.1983 46.6064 68.2674C46.9561 68.3296 47.278 68.3262 47.3627 68.3262V62.3262ZM49.9627 64.8863V61.8862H43.9627V64.8863H49.9627ZM49.9627 61.8862C49.9627 61.7221 49.9665 61.828 49.9528 61.9596C49.9411 62.0719 49.8752 62.7674 49.3174 63.4368C48.6988 64.1791 47.9327 64.3633 47.6566 64.4124C47.4194 64.4546 47.2474 64.4463 47.3627 64.4463V58.4463C47.278 58.4463 46.9561 58.4429 46.6064 58.5051C46.2177 58.5742 45.3766 58.7934 44.7081 59.5957C44.1003 60.3251 44.0093 61.1056 43.9851 61.3379C43.9589 61.5895 43.9627 61.8504 43.9627 61.8862H49.9627ZM47.3627 64.4463C47.349 64.4463 47.3748 64.4471 47.6332 64.4567C47.8424 64.4645 48.1381 64.4749 48.5403 64.4853C49.344 64.506 50.56 64.5263 52.3627 64.5263V58.5262C50.6055 58.5262 49.4415 58.5065 48.6951 58.4872C48.0823 58.4714 47.5144 58.4463 47.3627 58.4463V64.4463ZM52.3627 64.5263H62.5227V58.5262H52.3627V64.5263ZM65.5227 61.5262V58.8063H59.5227V61.5262H65.5227ZM62.5227 55.8063H57.4027V61.8063H62.5227V55.8063ZM57.4027 55.8063C55.422 55.8063 54.069 55.8265 53.1692 55.847C52.719 55.8573 52.3852 55.8676 52.1476 55.8753C52.0256 55.8793 51.941 55.8821 51.8728 55.8842C51.7956 55.8865 51.7862 55.8862 51.8027 55.8862V61.8862C51.9727 61.8862 52.5685 61.8623 53.3063 61.8455C54.1565 61.826 55.4635 61.8063 57.4027 61.8063V55.8063ZM51.8027 55.8862C51.6979 55.8862 51.8462 55.8792 52.0584 55.9146C52.2918 55.9535 52.956 56.0969 53.5541 56.6949C54.1521 57.293 54.2955 57.9572 54.3344 58.1906C54.3698 58.4028 54.3627 58.5511 54.3627 58.4463H48.3627C48.3627 58.5414 48.3607 58.8447 48.4161 59.1769C48.4749 59.5303 48.6534 60.2795 49.3114 60.9376C49.9695 61.5956 50.7187 61.774 51.072 61.8329C51.4043 61.8883 51.7076 61.8862 51.8027 61.8862V55.8862ZM54.3627 58.4463C54.3627 58.4679 54.3631 58.4459 54.3726 58.2172C54.3803 58.0341 54.3908 57.7784 54.4012 57.4457C54.4222 56.7795 54.4427 55.818 54.4427 54.4862H48.4427C48.4427 55.7545 48.4232 56.653 48.4042 57.2568C48.3947 57.5591 48.3852 57.7909 48.3779 57.9665C48.3724 58.0966 48.3627 58.3046 48.3627 58.4463H54.3627ZM54.4427 54.4862V47.4462H48.4427V54.4862H54.4427ZM54.4427 47.4462C54.4427 46.1143 54.4222 45.1626 54.4012 44.5011C54.3907 44.171 54.3802 43.9166 54.3727 43.7335C54.3635 43.5123 54.3627 43.4767 54.3627 43.4862H48.3627C48.3627 43.6781 48.3891 44.2135 48.4042 44.6914C48.4232 45.2899 48.4427 46.1782 48.4427 47.4462H54.4427ZM54.3627 43.4862C54.3627 43.3925 54.3706 43.5705 54.3258 43.8145C54.2725 44.1038 54.0947 44.7808 53.4599 45.3627C52.8611 45.9116 52.2249 46.0314 52.0284 46.0622C51.8347 46.0924 51.7036 46.0863 51.8027 46.0863V40.0863C51.7019 40.0863 51.4158 40.0851 51.1021 40.1341C50.7855 40.1836 50.0643 40.3359 49.4056 40.9398C48.7107 41.5767 48.4979 42.3312 48.4247 42.7292C48.3598 43.082 48.3627 43.4 48.3627 43.4862H54.3627ZM51.8027 46.0863C51.7862 46.0863 51.7956 46.086 51.8728 46.0883C51.9411 46.0904 52.0256 46.0932 52.1476 46.0972C52.3852 46.1049 52.719 46.1152 53.1692 46.1255C54.069 46.146 55.422 46.1662 57.4027 46.1662V40.1662C55.4635 40.1662 54.1565 40.1465 53.3063 40.127C52.5685 40.1102 51.9727 40.0863 51.8027 40.0863V46.0863ZM57.4027 46.1662H72.1627V40.1662H57.4027V46.1662ZM72.1627 46.1662C74.1434 46.1662 75.4965 46.146 76.3917 46.1255C76.8396 46.1152 77.1702 46.1048 77.4034 46.0971C77.6849 46.0878 77.7288 46.0863 77.7227 46.0863V40.0863C77.5747 40.0863 76.9787 40.1104 76.2538 40.127C75.409 40.1465 74.1021 40.1662 72.1627 40.1662V46.1662ZM77.7227 46.0863C77.8219 46.0863 77.6908 46.0924 77.4971 46.0622C77.3005 46.0314 76.6643 45.9116 76.0656 45.3627C75.4307 44.7808 75.2529 44.1038 75.1997 43.8145C75.1548 43.5705 75.1627 43.3925 75.1627 43.4862H81.1627C81.1627 43.4 81.1656 43.082 81.1008 42.7293C81.0275 42.3312 80.8147 41.5767 80.1199 40.9398C79.4611 40.3359 78.7399 40.1836 78.4234 40.1341C78.1097 40.0851 77.8236 40.0863 77.7227 40.0863V46.0863ZM75.1627 43.4862C75.1627 43.4646 75.1624 43.4866 75.1529 43.7153C75.1452 43.8984 75.1347 44.1541 75.1242 44.4868C75.1032 45.153 75.0827 46.1145 75.0827 47.4462H81.0827C81.0827 46.178 81.1022 45.2795 81.1212 44.6757C81.1308 44.3734 81.1403 44.1416 81.1476 43.966C81.1531 43.8359 81.1627 43.6279 81.1627 43.4862H75.1627ZM75.0827 47.4462V54.4862H81.0827V47.4462H75.0827ZM75.0827 54.4862C75.0827 55.818 75.1032 56.7795 75.1242 57.4457C75.1347 57.7784 75.1452 58.0341 75.1529 58.2172C75.1624 58.4459 75.1627 58.4679 75.1627 58.4463H81.1627C81.1627 58.3046 81.1531 58.0966 81.1476 57.9665C81.1403 57.7909 81.1308 57.5591 81.1212 57.2568C81.1022 56.653 81.0827 55.7545 81.0827 54.4862H75.0827ZM75.1627 58.4463C75.1627 58.5511 75.1557 58.4028 75.1911 58.1906C75.2299 57.9572 75.3734 57.293 75.9714 56.6949C76.5695 56.0969 77.2337 55.9535 77.467 55.9146C77.6793 55.8792 77.8276 55.8862 77.7227 55.8862V61.8862C77.8179 61.8862 78.1212 61.8883 78.4534 61.8329C78.8068 61.774 79.556 61.5956 80.2141 60.9376C80.8721 60.2795 81.0505 59.5303 81.1094 59.1769C81.1648 58.8447 81.1627 58.5414 81.1627 58.4463H75.1627ZM77.7227 55.8862C77.7288 55.8862 77.6849 55.8847 77.4034 55.8754C77.1702 55.8677 76.8396 55.8573 76.3917 55.847C75.4965 55.8265 74.1434 55.8063 72.1627 55.8063V61.8063C74.1021 61.8063 75.409 61.826 76.2538 61.8455C76.9787 61.8621 77.5747 61.8862 77.7227 61.8862V55.8862ZM72.1627 55.8063H66.6027V61.8063H72.1627V55.8063ZM63.6027 58.8063V61.5262H69.6027V58.8063H63.6027ZM66.6027 64.5263H77.2427V58.5262H66.6027V64.5263ZM77.2427 64.5263C79.0455 64.5263 80.2615 64.506 81.0651 64.4853C81.4674 64.4749 81.7631 64.4645 81.9722 64.4567C82.2307 64.4471 82.2565 64.4463 82.2427 64.4463V58.4463C82.091 58.4463 81.5232 58.4714 80.9103 58.4872C80.164 58.5065 79 58.5262 77.2427 58.5262V64.5263ZM82.2427 64.4463C82.358 64.4463 82.1861 64.4546 81.9489 64.4124C81.6727 64.3633 80.9066 64.1791 80.2881 63.4368C79.7303 62.7674 79.6643 62.0719 79.6526 61.9596C79.6389 61.828 79.6427 61.7221 79.6427 61.8862H85.6427C85.6427 61.8504 85.6465 61.5895 85.6203 61.3379C85.5961 61.1056 85.5052 60.3251 84.8974 59.5957C84.2288 58.7934 83.3877 58.5742 82.9991 58.5051C82.6494 58.4429 82.3274 58.4463 82.2427 58.4463V64.4463ZM79.6427 61.8862V64.8863H85.6427V61.8862H79.6427ZM79.6427 64.8863C79.6427 65.0504 79.6389 64.9445 79.6526 64.8129C79.6643 64.7006 79.7303 64.0051 80.2881 63.3357C80.9066 62.5934 81.6727 62.4092 81.9489 62.3601C82.1861 62.3179 82.358 62.3262 82.2427 62.3262V68.3262C82.3274 68.3262 82.6494 68.3296 82.9991 68.2674C83.3877 68.1983 84.2288 67.9791 84.8974 67.1768C85.5052 66.4474 85.5961 65.6669 85.6203 65.4346C85.6465 65.183 85.6427 64.9221 85.6427 64.8863H79.6427ZM82.2427 62.3262C82.2565 62.3262 82.2307 62.3254 81.9722 62.3158C81.7631 62.308 81.4674 62.2976 81.0651 62.2872C80.2615 62.2665 79.0455 62.2463 77.2427 62.2463V68.2462C79 68.2462 80.164 68.266 80.9103 68.2852C81.5232 68.3011 82.091 68.3262 82.2427 68.3262V62.3262ZM77.2427 62.2463H66.6027V68.2462H77.2427V62.2463ZM63.6027 65.2462V66.1263H69.6027V65.2462H63.6027ZM63.6027 66.1263C63.6027 67.7911 63.623 69.0157 63.6436 69.8549C63.6539 70.2745 63.6642 70.5955 63.6719 70.8232C63.6814 71.1032 63.6827 71.1437 63.6827 71.1263H69.6827C69.6827 70.9911 69.6585 70.3856 69.6418 69.7076C69.6224 68.9168 69.6027 67.7414 69.6027 66.1263H63.6027ZM63.6827 71.1263C63.6827 71.2311 63.6757 71.0828 63.7111 70.8705C63.75 70.6372 63.8934 69.973 64.4914 69.3749C65.0895 68.7769 65.7537 68.6335 65.987 68.5946C66.1993 68.5592 66.3476 68.5663 66.2427 68.5663V74.5663C66.3379 74.5663 66.6412 74.5683 66.9734 74.5129C67.3268 74.454 68.076 74.2756 68.734 73.6176C69.3921 72.9595 69.5705 72.2104 69.6294 71.857C69.6848 71.5247 69.6827 71.2214 69.6827 71.1263H63.6827ZM66.2427 68.5663H62.8427V74.5663H66.2427V68.5663ZM62.8427 68.5663C62.749 68.5663 62.927 68.5584 63.171 68.6032C63.4603 68.6564 64.1373 68.8342 64.7192 69.4691C65.2681 70.0678 65.3879 70.704 65.4186 70.9006C65.4489 71.0943 65.4427 71.2254 65.4427 71.1263H59.4427C59.4427 71.2271 59.4416 71.5132 59.4906 71.8269C59.54 72.1434 59.6924 72.8647 60.2963 73.5234C60.9332 74.2183 61.6877 74.4311 62.0857 74.5043C62.4385 74.5691 62.7565 74.5663 62.8427 74.5663V68.5663ZM65.4427 71.1263C65.4427 71.1327 65.4444 71.0792 65.4536 70.8055C65.4612 70.577 65.4715 70.2574 65.4818 69.8403C65.5024 69.0059 65.5227 67.7913 65.5227 66.1263H59.5227C59.5227 67.7412 59.503 68.9066 59.4837 69.6922C59.4669 70.3697 59.4427 70.9695 59.4427 71.1263H65.4427ZM65.5227 66.1263V65.2462H59.5227V66.1263H65.5227ZM77.0427 55.4862V52.4862H71.0427V55.4862H77.0427ZM74.0427 49.4862H66.6027V55.4862H74.0427V49.4862ZM63.6027 52.4862V55.4862H69.6027V52.4862H63.6027ZM66.6027 58.4862H74.0427V52.4862H66.6027V58.4862ZM74.0427 43.4463H66.6027V49.4463H74.0427V43.4463ZM63.6027 46.4463V49.3262H69.6027V46.4463H63.6027ZM66.6027 52.3262H74.0427V46.3262H66.6027V52.3262ZM77.0427 49.3262V46.4463H71.0427V49.3262H77.0427ZM55.4827 58.4862H62.5227V52.4862H55.4827V58.4862ZM65.5227 55.4862V52.4862H59.5227V55.4862H65.5227ZM62.5227 49.4862H55.4827V55.4862H62.5227V49.4862ZM52.4827 52.4862V55.4862H58.4827V52.4862H52.4827ZM55.4827 52.3262H62.5227V46.3262H55.4827V52.3262ZM65.5227 49.3262V46.4463H59.5227V49.3262H65.5227ZM62.5227 43.4463H55.4827V49.4463H62.5227V43.4463ZM52.4827 46.4463V49.3262H58.4827V46.4463H52.4827ZM73.2503 43.5072C74.521 42.0095 75.4635 40.5666 76.3275 39.0547L71.118 36.0778C70.382 37.3659 69.6445 38.483 68.6752 39.6253L73.2503 43.5072ZM76.3452 39.0232C76.8002 38.2043 77.2825 37.2535 77.6516 35.9351L71.8738 34.3174C71.683 34.999 71.4453 35.4882 71.1003 36.1093L76.3452 39.0232ZM73.8679 37.9897C75.0512 38.3595 76.3554 38.8442 77.381 39.2837L79.7445 33.7688C78.53 33.2483 77.0342 32.693 75.6576 32.2628L73.8679 37.9897ZM77.0743 39.131C77.0433 39.1132 76.8429 38.9992 76.6219 38.7392C76.38 38.4546 76.0427 37.901 76.0427 37.1262H82.0427C82.0427 35.1146 80.4421 34.1449 80.0512 33.9215L77.0743 39.131ZM76.0427 37.1262C76.0427 36.688 76.1534 36.3374 76.2572 36.1048C76.3577 35.8799 76.4671 35.7303 76.5202 35.6623C76.5753 35.592 76.6141 35.554 76.6042 35.5641C76.6004 35.5679 76.593 35.5753 76.572 35.5959C76.5578 35.6097 76.5179 35.6485 76.4814 35.6849L80.7241 39.9276C80.6673 39.9843 81.0063 39.6655 81.2452 39.3602C81.4899 39.0476 82.0427 38.2608 82.0427 37.1262H76.0427ZM76.859 35.3651C76.1117 35.8988 75.5429 36.6816 75.2587 37.1363L80.3467 40.3162C80.3562 40.301 80.3731 40.2756 80.3959 40.2443C80.4185 40.2133 80.441 40.1849 80.4603 40.1622C80.4696 40.1512 80.4766 40.1434 80.481 40.1386C80.4855 40.1338 80.4856 40.1339 80.4811 40.1383C80.4768 40.1425 80.4648 40.154 80.4449 40.171C80.4254 40.1876 80.3926 40.2145 80.3465 40.2474L76.859 35.3651ZM75.264 37.1278C74.6203 38.1502 73.8227 39.3272 73.0721 40.3406L77.8934 43.9119C78.7427 42.7653 79.6252 41.4623 80.3414 40.3247L75.264 37.1278ZM73.1147 40.2844C73.0186 40.408 73.1329 40.2294 73.4108 40.0405C73.5743 39.9293 73.7836 39.8201 74.0341 39.7443C74.2826 39.6691 74.5069 39.6462 74.6827 39.6462V45.6462C75.4249 45.6462 76.1463 45.4361 76.7847 45.002C77.3125 44.6431 77.6669 44.2045 77.8508 43.9681L73.1147 40.2844ZM74.6827 39.6462C74.7907 39.6462 74.8776 39.6554 74.937 39.6642C74.9944 39.6728 75.0273 39.6814 75.0274 39.6814C75.028 39.6816 75.0227 39.6802 75.0103 39.6765C74.9979 39.6729 74.9801 39.6674 74.9558 39.6594C74.9059 39.6431 74.8392 39.6201 74.748 39.5869L72.6975 45.2256C73.1019 45.3727 73.8463 45.6462 74.6827 45.6462V39.6462ZM74.7598 39.5912C73.9506 39.2931 72.5519 38.8351 71.5808 38.6306L70.3447 44.5019C70.8935 44.6174 71.9749 44.9594 72.6856 45.2213L74.7598 39.5912ZM51.5491 39.4103L54.3891 38.3303L52.2564 32.7222L49.4164 33.8022L51.5491 39.4103ZM54.348 38.3456C54.4465 38.3098 54.3833 38.3375 54.261 38.3651C54.1199 38.3969 53.7669 38.4617 53.3095 38.3854C52.3064 38.2182 51.8009 37.5428 51.905 37.6618L56.4205 33.7107C56.2446 33.5097 55.539 32.6743 54.2959 32.4671C53.2678 32.2957 52.3729 32.6794 52.2975 32.7069L54.348 38.3456ZM51.8081 37.5452C52.8735 38.8947 53.7797 40.3378 54.6374 41.9412L59.9281 39.1113C58.9457 37.2747 57.852 35.5178 56.5174 33.8273L51.8081 37.5452ZM54.5995 41.8679C54.5986 41.8662 54.5934 41.8557 54.5855 41.8386C54.5776 41.8215 54.5649 41.7931 54.5498 41.7555C54.5223 41.6873 54.4694 41.546 54.4282 41.3532C54.334 40.9118 54.3079 40.2014 54.6964 39.4676C55.0252 38.8464 55.4826 38.5442 55.5973 38.4704C55.7287 38.3858 55.8117 38.354 55.7213 38.3951L58.2041 43.8573C58.3337 43.7984 58.5868 43.6817 58.8444 43.5159C59.0854 43.3608 59.6252 42.9811 59.9991 42.2749C60.4326 41.4561 60.414 40.6532 60.296 40.1005C60.1997 39.6494 60.0227 39.2979 59.966 39.1846L54.5995 41.8679ZM55.7901 38.3649L52.8701 39.6049L55.2154 45.1276L58.1354 43.8876L55.7901 38.3649ZM52.9658 39.5662C52.838 39.6154 52.8845 39.5922 52.9926 39.5652C53.0931 39.5401 53.534 39.4333 54.1146 39.5543C54.7998 39.6971 55.2893 40.0678 55.5816 40.3948C55.7075 40.5355 55.787 40.6563 55.8263 40.7197C55.8474 40.7539 55.8625 40.7806 55.8714 40.7969C55.8804 40.8134 55.8854 40.8234 55.886 40.8246L50.5195 43.5079C50.5942 43.6573 51.2259 45.0813 52.8909 45.4282C53.5915 45.5741 54.1724 45.4549 54.4478 45.3861C54.7309 45.3153 54.9874 45.2171 55.1197 45.1663L52.9658 39.5662ZM55.9361 40.9297C55.0589 38.9908 53.8071 37.0377 52.595 35.4359L47.8105 39.0566C48.8384 40.4148 49.8265 41.9817 50.4694 43.4028L55.9361 40.9297ZM52.4605 35.2707C52.4752 35.2876 52.5232 35.3433 52.5837 35.431C52.642 35.5154 52.7437 35.675 52.8361 35.9001C53.0496 36.42 53.1916 37.2733 52.7689 38.1655C52.4286 38.8841 51.9016 39.2177 51.7932 39.2858C51.6466 39.3779 51.5548 39.4095 51.6366 39.3755L49.3289 33.837C49.1706 33.903 48.8889 34.0246 48.6011 34.2054C48.3514 34.3623 47.7319 34.7834 47.3465 35.597C46.8789 36.5842 47.0234 37.54 47.2856 38.1787C47.5006 38.7024 47.811 39.0686 47.945 39.2218L52.4605 35.2707ZM62.1914 38.6923L64.8314 37.8123L62.9341 32.1202L60.2941 33.0002L62.1914 38.6923ZM64.765 37.8336C64.9111 37.7886 64.8743 37.8038 64.788 37.8211C64.6996 37.8388 64.2969 37.9172 63.7704 37.8028C63.1603 37.6701 62.7261 37.3591 62.4694 37.109C62.2764 36.9209 62.18 36.7605 62.2266 36.8304L67.2189 33.5021C67.1714 33.4309 66.4935 32.2546 65.045 31.9397C64.4036 31.8003 63.8684 31.8862 63.6113 31.9376C63.3562 31.9887 63.1143 32.0639 63.0005 32.0989L64.765 37.8336ZM62.2362 36.8447C63.1927 38.2617 63.9734 39.7718 64.4705 41.2963L70.1749 39.4362C69.4721 37.2807 68.4128 35.2708 67.2093 33.4878L62.2362 36.8447ZM64.5373 41.4804C64.581 41.5897 64.4969 41.4078 64.448 41.1332C64.3833 40.7703 64.3377 40.0209 64.7969 39.2402C65.184 38.5822 65.7119 38.2973 65.7891 38.2545C65.8911 38.1979 65.9545 38.1763 65.8089 38.237L68.1166 43.7755C68.2109 43.7362 68.4594 43.6346 68.6989 43.5017C68.9135 43.3827 69.5315 43.0253 69.9685 42.2823C70.4778 41.4166 70.4421 40.5697 70.3549 40.0805C70.2835 39.6797 70.1445 39.3428 70.1082 39.2521L64.5373 41.4804ZM65.8831 38.2072L63.0831 39.2872L65.2424 44.8853L68.0424 43.8053L65.8831 38.2072ZM63.0486 39.3008C62.8938 39.3627 62.944 39.336 63.0654 39.305C63.1474 39.2841 63.7699 39.1163 64.5464 39.3752C65.4593 39.6795 65.9109 40.3287 66.0707 40.6062C66.1889 40.8116 66.2411 40.9834 66.1821 40.821L60.5434 42.8715C60.5643 42.9291 60.6815 43.2709 60.871 43.6C61.102 44.0013 61.6312 44.728 62.649 45.0673C63.5306 45.3612 64.2856 45.1859 64.5489 45.1187C64.8515 45.0415 65.1317 44.9298 65.2769 44.8717L63.0486 39.3008ZM66.2262 40.9514C65.5438 38.768 64.5101 36.6115 63.4192 34.8843L58.3463 38.0882C59.1754 39.401 59.9816 41.0845 60.4993 42.7411L66.2262 40.9514ZM63.3789 34.8222C63.3882 34.8361 63.4248 34.8916 63.4702 34.9789C63.5139 35.0632 63.5903 35.2234 63.6523 35.4438C63.7935 35.9454 63.8516 36.7694 63.374 37.5944C62.9782 38.2781 62.4302 38.5671 62.301 38.6333C62.1397 38.7159 62.041 38.7394 62.125 38.7136L60.3605 32.9789C60.1844 33.0331 59.8808 33.1316 59.5657 33.293C59.2828 33.4379 58.6323 33.8094 58.1815 34.5881C57.6489 35.5081 57.6994 36.4396 57.8769 37.0699C58.0248 37.5951 58.2762 37.9847 58.3866 38.1503L63.3789 34.8222ZM99.1227 34.0863L98.2585 36.9591C99.0975 37.2115 100.005 37.0845 100.742 36.6115C101.48 36.1385 101.974 35.3667 102.094 34.499L99.1227 34.0863ZM91.7427 31.8662L88.8454 31.0883C88.4247 32.6547 89.3253 34.2719 90.8785 34.7391L91.7427 31.8662ZM110.583 43.8062L110.069 40.8506C108.632 41.1005 107.583 42.3477 107.583 43.8062H110.583ZM110.583 44.2262H107.583C107.583 45.6416 108.572 46.8644 109.956 47.1601L110.583 44.2262ZM91.0227 59.2262L90.18 56.347C88.5946 56.8111 87.6826 58.4695 88.14 60.0569L91.0227 59.2262ZM98.4027 57.0662L101.332 56.4195C101.153 55.6083 100.646 54.9076 99.9307 54.4845C99.2157 54.0614 98.3574 53.9537 97.56 54.187L98.4027 57.0662ZM100.203 47.5262H97.2027C97.2027 49.1831 98.5459 50.5262 100.203 50.5262V47.5262ZM100.203 41.4062V38.4062C98.5459 38.4062 97.2027 39.7494 97.2027 41.4062H100.203ZM99.9869 31.2134L92.6069 28.9934L90.8785 34.7391L98.2585 36.9591L99.9869 31.2134ZM94.6401 32.6442C95.3433 30.0254 96.6844 28.1704 98.4361 26.9436C100.213 25.6994 102.609 24.9662 105.603 24.9662V18.9662C101.636 18.9662 97.9728 19.9431 94.9943 22.0289C91.9911 24.1321 89.8821 27.2271 88.8454 31.0883L94.6401 32.6442ZM105.603 24.9662C109.201 24.9662 111.9 26.011 113.65 27.508C115.367 28.9781 116.343 31.0213 116.343 33.4862H122.343C122.343 29.2912 120.618 25.5744 117.551 22.9495C114.515 20.3515 110.345 18.9662 105.603 18.9662V24.9662ZM116.343 33.4862C116.343 35.5736 115.725 37.2042 114.736 38.3812C113.748 39.5566 112.226 40.4755 110.069 40.8506L111.097 46.7619C114.46 46.177 117.317 44.6359 119.329 42.2413C121.34 39.8483 122.343 36.7989 122.343 33.4862H116.343ZM107.583 43.8062V44.2262H113.583V43.8062H107.583ZM109.956 47.1601C112.529 47.7097 114.301 48.7894 115.432 50.1371C116.554 51.474 117.243 53.3091 117.243 55.7463H123.243C123.243 52.1234 122.192 48.8585 120.028 46.2804C117.874 43.7131 114.816 42.0628 111.209 41.2924L109.956 47.1601ZM117.243 55.7463C117.243 59.0372 116.067 61.6227 114.161 63.3999C112.239 65.1933 109.351 66.3662 105.603 66.3662V72.3662C110.614 72.3662 115.047 70.7792 118.254 67.7876C121.479 64.7798 123.243 60.5553 123.243 55.7463H117.243ZM105.603 66.3662C102.206 66.3662 99.718 65.6773 97.9209 64.4645C96.1664 63.2805 94.7697 61.3951 93.9055 58.3956L88.14 60.0569C89.3158 64.1374 91.429 67.322 94.5646 69.438C97.6575 71.5252 101.439 72.3662 105.603 72.3662V66.3662ZM91.8654 62.1055L99.2454 59.9455L97.56 54.187L90.18 56.347L91.8654 62.1055ZM95.4733 57.713C96.0494 60.3226 97.0451 62.6381 98.8673 64.2722C100.75 65.9605 103.089 66.5462 105.543 66.5462V60.5462C104.037 60.5462 103.315 60.202 102.873 59.8053C102.37 59.3544 101.776 58.4299 101.332 56.4195L95.4733 57.713ZM105.543 66.5462C108.397 66.5462 111.01 65.5739 112.886 63.5242C114.733 61.5062 115.563 58.7761 115.563 55.8062H109.563C109.563 57.6964 109.043 58.8363 108.46 59.4733C107.906 60.0786 107.009 60.5462 105.543 60.5462V66.5462ZM115.563 55.8062C115.563 52.7761 114.851 49.7867 112.652 47.5874C110.454 45.3902 107.317 44.5262 103.683 44.5262V50.5262C106.468 50.5262 107.771 51.1923 108.409 51.8301C109.045 52.4658 109.563 53.6164 109.563 55.8062H115.563ZM103.683 44.5262H100.203V50.5262H103.683V44.5262ZM103.203 47.5262V41.4062H97.2027V47.5262H103.203ZM100.203 44.4062H103.383V38.4062H100.203V44.4062ZM103.383 44.4062C106.738 44.4062 109.712 43.6955 111.846 41.7625C114.045 39.772 114.783 37.0125 114.783 34.2062H108.783C108.783 36.02 108.321 36.8605 107.819 37.315C107.254 37.827 106.028 38.4062 103.383 38.4062V44.4062ZM114.783 34.2062C114.783 31.5195 113.983 29.0646 112.179 27.2853C110.384 25.5147 107.972 24.7862 105.483 24.7862V30.7862C106.833 30.7862 107.571 31.1678 107.966 31.5571C108.352 31.9379 108.783 32.693 108.783 34.2062H114.783ZM105.483 24.7862C103.252 24.7862 101.048 25.4936 99.2967 27.1152C97.5584 28.7252 96.523 30.997 96.1513 33.6735L102.094 34.499C102.322 32.8555 102.877 31.9773 103.374 31.5173C103.858 31.0689 104.534 30.7862 105.483 30.7862V24.7862ZM156.797 40.2462L158.209 42.8933C158.345 42.821 158.474 42.7384 158.597 42.6462L156.797 40.2462ZM157.917 40.4062L159.766 38.0437C159.706 37.9969 159.645 37.9523 159.581 37.9101L157.917 40.4062ZM160.517 43.2062L163.09 41.6628C163.043 41.585 162.993 41.5094 162.939 41.4362L160.517 43.2062ZM160.197 44.5262L158.355 42.1582C158.323 42.1835 158.291 42.2095 158.259 42.2361L160.197 44.5262ZM158.717 46.2862L156.157 44.7219C156.148 44.7379 156.138 44.7539 156.129 44.77L158.717 46.2862ZM153.597 53.7663L151.24 51.9111C150.738 52.5486 150.516 53.362 150.624 54.166C150.732 54.97 151.161 55.6959 151.813 56.1783L153.597 53.7663ZM164.677 63.4463L162.545 65.5561C162.548 65.5599 162.552 65.5637 162.556 65.5676L164.677 63.4463ZM164.717 64.6062L162.413 62.6857L162.404 62.6956L164.717 64.6062ZM162.037 67.3262L160.108 65.0291C160.041 65.0849 159.977 65.1436 159.916 65.2049L162.037 67.3262ZM160.997 67.2462L158.719 69.1986C158.769 69.2569 158.822 69.3133 158.876 69.3676L160.997 67.2462ZM150.597 57.3262L152.455 54.9709C151.242 54.0136 149.5 54.135 148.431 55.2513L150.597 57.3262ZM137.157 67.8863L138.376 70.6277C138.46 70.5903 138.542 70.5491 138.622 70.5042L137.157 67.8863ZM135.557 67.8463L133.232 69.7413C133.239 69.7498 133.246 69.7583 133.253 69.7668L135.557 67.8463ZM132.197 65.2462L130.842 62.5699C129.848 63.0733 129.215 64.0862 129.198 65.2004C129.181 66.3145 129.782 67.3464 130.761 67.8799L132.197 65.2462ZM146.277 55.0462L148.419 57.1471C148.426 57.1394 148.434 57.1316 148.441 57.1238L146.277 55.0462ZM153.797 45.0062L156.391 46.5133C156.931 45.5835 156.933 44.4357 156.394 43.5047C155.856 42.5738 154.861 42.0021 153.786 42.0063L153.797 45.0062ZM143.477 45.0462V48.0463L143.489 48.0462L143.477 45.0462ZM137.157 45.2863L136.936 42.2944C136.885 42.2982 136.835 42.3032 136.785 42.3094L137.157 45.2863ZM136.637 44.6062L139.589 44.0696C139.579 44.0166 139.568 43.9638 139.556 43.9114L136.637 44.6062ZM136.277 40.4462L136.499 37.4544C135.667 37.3928 134.847 37.6803 134.236 38.248C133.625 38.8156 133.277 39.6121 133.277 40.4462H136.277ZM143.037 43.6062H154.037V37.6062H143.037V43.6062ZM154.037 43.6062C155.293 43.6062 156.825 43.6316 158.209 42.8933L155.385 37.5992C155.516 37.5297 155.58 37.5441 155.39 37.5659C155.148 37.5936 154.77 37.6062 154.037 37.6062V43.6062ZM158.597 42.6462C158.52 42.7039 158.324 42.8401 158.026 42.9465C157.709 43.0599 157.426 43.0863 157.237 43.0863V37.0863C156.341 37.0863 155.603 37.3923 154.997 37.8462L158.597 42.6462ZM157.237 43.0863C156.663 43.0863 156.264 42.8872 156.141 42.8199C156.08 42.7871 156.05 42.7653 156.079 42.7849C156.093 42.7939 156.109 42.8046 156.14 42.8261C156.168 42.8448 156.209 42.8729 156.253 42.9024L159.581 37.9101C159.566 37.8996 159.548 37.8877 159.518 37.867C159.492 37.8492 159.45 37.8211 159.408 37.7926C159.325 37.7372 159.184 37.6454 159.014 37.5526C158.67 37.3653 158.052 37.0863 157.237 37.0863V43.0863ZM156.068 42.7688C156.693 43.258 157.428 44.0628 158.095 44.9763L162.939 41.4362C162.087 40.2697 160.981 38.9945 159.766 38.0437L156.068 42.7688ZM157.945 44.7497C157.988 44.8222 157.942 44.7547 157.888 44.6235C157.827 44.4744 157.717 44.1563 157.717 43.7262H163.717C163.717 42.6325 163.177 41.8085 163.09 41.6628L157.945 44.7497ZM157.717 43.7262C157.717 43.1656 157.905 42.7488 158.054 42.5128C158.199 42.2825 158.334 42.1746 158.355 42.1582L162.039 46.8943C162.713 46.37 163.717 45.3157 163.717 43.7262H157.717ZM158.259 42.2361C157.478 42.8974 156.753 43.7477 156.157 44.7219L161.277 47.8506C161.562 47.3848 161.877 47.0351 162.135 46.8164L158.259 42.2361ZM156.129 44.77C154.565 47.439 153.085 49.5662 151.24 51.9111L155.955 55.6214C157.95 53.0863 159.589 50.7335 161.306 47.8025L156.129 44.77ZM151.813 56.1783C155.515 58.9159 158.959 61.932 162.545 65.5561L166.81 61.3364C163.035 57.5205 159.36 54.2966 155.381 51.3542L151.813 56.1783ZM162.556 65.5676C162.527 65.5382 162.426 65.434 162.316 65.2444C162.222 65.0821 161.997 64.6448 161.997 64.0062H167.997C167.997 63.2077 167.712 62.5904 167.509 62.2381C167.289 61.8585 167.028 61.5543 166.799 61.3249L162.556 65.5676ZM161.997 64.0062C161.997 63.5822 162.103 63.2523 162.197 63.0452C162.288 62.8414 162.382 62.7224 162.413 62.6857L167.022 66.5268C167.444 66.0198 167.997 65.1554 167.997 64.0062H161.997ZM162.404 62.6956C161.742 63.4975 160.948 64.3232 160.108 65.0291L163.967 69.6234C165.126 68.6493 166.173 67.555 167.03 66.5169L162.404 62.6956ZM159.916 65.2049C160.083 65.0379 160.641 64.5663 161.557 64.5663V70.5663C162.794 70.5663 163.672 69.9346 164.159 69.4476L159.916 65.2049ZM161.557 64.5663C162.116 64.5663 162.561 64.75 162.842 64.9214C163.064 65.0575 163.178 65.1839 163.119 65.1249L158.876 69.3676C159.074 69.5654 160.016 70.5663 161.557 70.5663V64.5663ZM163.275 65.2939C159.769 61.2032 156.182 57.9109 152.455 54.9709L148.739 59.6816C152.212 62.4216 155.506 65.4493 158.719 69.1986L163.275 65.2939ZM148.431 55.2513C144.113 59.7596 139.789 62.9756 135.692 65.2683L138.622 70.5042C143.245 67.9169 148.041 64.3329 152.764 59.4012L148.431 55.2513ZM135.939 65.1448C135.876 65.1729 135.818 65.1995 135.769 65.2221C135.744 65.2333 135.721 65.2442 135.7 65.2537C135.679 65.2636 135.661 65.2719 135.644 65.2799C135.569 65.3145 135.551 65.3217 135.553 65.3208C135.558 65.319 135.625 65.2919 135.733 65.2653C135.846 65.2376 136.02 65.2063 136.237 65.2063V71.2063C136.938 71.2063 137.493 71.0069 137.781 70.8917C137.934 70.8308 138.071 70.768 138.158 70.7276C138.265 70.6782 138.312 70.6562 138.376 70.6277L135.939 65.1448ZM136.237 65.2063C137.068 65.2063 137.619 65.6338 137.862 65.9257L133.253 69.7668C133.896 70.5387 134.926 71.2063 136.237 71.2063V65.2063ZM137.883 65.9512C136.648 64.4359 135.101 63.413 133.634 62.6126L130.761 67.8799C131.933 68.5195 132.706 69.0966 133.232 69.7413L137.883 65.9512ZM133.553 67.9226C140.086 64.6142 144.071 61.5794 148.419 57.1471L144.136 52.9454C140.244 56.9131 136.789 59.5583 130.842 62.5699L133.553 67.9226ZM148.441 57.1238C151.485 53.9539 153.83 50.9228 156.391 46.5133L151.203 43.4992C148.885 47.4897 146.83 50.1386 144.113 52.9687L148.441 57.1238ZM153.786 42.0063L143.466 42.0463L143.489 48.0462L153.809 48.0062L153.786 42.0063ZM143.477 42.0462C141.319 42.0462 139.165 42.1293 136.936 42.2944L137.379 48.2781C139.47 48.1232 141.476 48.0462 143.477 48.0462V42.0462ZM136.785 42.3094C137.171 42.2612 137.699 42.2904 138.247 42.5523C138.784 42.8092 139.118 43.1837 139.303 43.4622C139.476 43.7213 139.548 43.9359 139.569 44.0043C139.594 44.0819 139.597 44.1161 139.589 44.0696L133.686 45.1429C133.73 45.3858 133.859 46.1117 134.311 46.7903C134.577 47.1888 135.006 47.6532 135.658 47.9651C136.321 48.2821 136.983 48.3313 137.529 48.2631L136.785 42.3094ZM139.556 43.9114C139.435 43.406 139.277 41.7564 139.277 40.4462H133.277C133.277 41.9361 133.439 44.1265 133.719 45.3011L139.556 43.9114ZM136.056 43.438C138.345 43.6076 140.457 43.6062 143.037 43.6062V37.6062C140.417 37.6062 138.529 37.6049 136.499 37.4544L136.056 43.438ZM196.117 52.0462V49.0462C194.523 49.0462 193.207 50.2936 193.122 51.8858L196.117 52.0462ZM193.757 62.2463L191.088 60.8766L191.088 60.8773L193.757 62.2463ZM186.717 69.8063L185.186 67.2267C185.159 67.2425 185.133 67.2587 185.107 67.2753L186.717 69.8063ZM184.677 69.8863L182.556 72.0076L184.677 69.8863ZM181.117 67.7663L179.69 65.1274C178.654 65.6875 178.042 66.8017 178.125 67.9763C178.207 69.1508 178.969 70.1686 180.073 70.5785L181.117 67.7663ZM189.077 60.6462L186.46 59.1792C186.457 59.1845 186.454 59.1899 186.452 59.1952L189.077 60.6462ZM191.117 52.0462L194.115 52.1725C194.149 51.3556 193.849 50.5602 193.283 49.97C192.717 49.3799 191.935 49.0462 191.117 49.0462V52.0462ZM177.517 52.2862L177.341 49.2914C177.289 49.2945 177.238 49.2989 177.186 49.3046L177.517 52.2862ZM176.997 51.5262L179.988 51.2962C179.981 51.1965 179.968 51.0973 179.951 50.9989L176.997 51.5262ZM176.677 47.6862L176.944 44.6981C176.105 44.6233 175.274 44.9043 174.652 45.4726C174.031 46.0409 173.677 46.8442 173.677 47.6862H176.677ZM209.237 47.6462V44.6462C209.17 44.6462 209.102 44.6485 209.034 44.6531L209.237 47.6462ZM209.677 48.4463H206.677C206.677 48.523 206.68 48.5998 206.686 48.6763L209.677 48.4463ZM209.677 51.5262L206.686 51.2962C206.68 51.3727 206.677 51.4495 206.677 51.5262H209.677ZM209.077 52.2062L208.962 55.204C209 55.2055 209.039 55.2062 209.077 55.2062V52.2062ZM182.517 42.9263V45.9263C182.553 45.9263 182.589 45.9256 182.624 45.9243L182.517 42.9263ZM181.837 42.2462L184.827 41.9971C184.823 41.956 184.819 41.915 184.814 41.8741L181.837 42.2462ZM181.557 38.4062L181.728 35.4111C180.861 35.3616 180.015 35.6905 179.408 36.3127C178.802 36.935 178.495 37.7896 178.568 38.6554L181.557 38.4062ZM203.917 38.4463V35.4463C203.857 35.4463 203.797 35.448 203.738 35.4516L203.917 38.4463ZM204.397 39.2062H201.397C201.397 39.2894 201.401 39.3725 201.408 39.4554L204.397 39.2062ZM204.397 42.1263L201.408 41.8771C201.401 41.96 201.397 42.0431 201.397 42.1263H204.397ZM203.877 42.8862L203.766 45.8842C203.803 45.8856 203.84 45.8862 203.877 45.8862V42.8862ZM201.477 49.0462H196.117V55.0462H201.477V49.0462ZM193.122 51.8858C192.894 56.1271 192.386 58.3467 191.088 60.8766L196.426 63.6159C198.248 60.0658 198.86 56.9254 199.113 52.2067L193.122 51.8858ZM191.088 60.8773C189.752 63.4817 187.273 65.9875 185.186 67.2267L188.249 72.3858C191.282 70.585 194.562 67.2508 196.427 63.6152L191.088 60.8773ZM185.107 67.2753C185.032 67.3228 184.979 67.3542 184.942 67.3747C184.904 67.3954 184.897 67.3975 184.914 67.3903C184.931 67.3832 184.99 67.359 185.085 67.3357C185.182 67.3122 185.33 67.2862 185.517 67.2862V73.2862C186.84 73.2862 187.907 72.6052 188.328 72.3372L185.107 67.2753ZM185.517 67.2862C185.823 67.2862 186.113 67.3554 186.361 67.4702C186.596 67.5796 186.738 67.7046 186.799 67.7649L182.556 72.0076C183.264 72.7152 184.269 73.2862 185.517 73.2862V67.2862ZM186.799 67.7649C185.601 66.5669 183.822 65.5705 182.162 64.954L180.073 70.5785C181.213 71.002 182.154 71.6056 182.556 72.0076L186.799 67.7649ZM182.544 70.4051C186.73 68.1413 189.638 65.834 191.703 62.0973L186.452 59.1952C185.157 61.5385 183.344 63.1512 179.69 65.1274L182.544 70.4051ZM191.694 62.1133C193.5 58.892 193.945 56.1986 194.115 52.1725L188.12 51.92C187.969 55.4939 187.615 57.1205 186.46 59.1792L191.694 62.1133ZM191.117 49.0462H183.517V55.0462H191.117V49.0462ZM183.517 49.0462C181.412 49.0462 179.36 49.1727 177.341 49.2914L177.693 55.2811C179.755 55.1598 181.622 55.0462 183.517 55.0462V49.0462ZM177.186 49.3046C177.494 49.2703 177.994 49.2794 178.543 49.532C179.111 49.7929 179.479 50.1977 179.692 50.544C179.884 50.856 179.95 51.1169 179.97 51.2035C179.992 51.3011 179.992 51.3453 179.988 51.2962L174.006 51.7563C174.029 52.0536 174.094 52.8954 174.582 53.6885C174.875 54.1648 175.344 54.6646 176.036 54.983C176.71 55.2931 177.36 55.3222 177.849 55.2679L177.186 49.3046ZM179.951 50.9989C179.786 50.0775 179.677 48.7363 179.677 47.6862H173.677C173.677 49.0362 173.809 50.735 174.044 52.0536L179.951 50.9989ZM176.41 50.6744C178.806 50.8883 181.18 50.8862 183.477 50.8862V44.8862C181.134 44.8862 179.028 44.8842 176.944 44.6981L176.41 50.6744ZM183.477 50.8862H201.437V44.8862H183.477V50.8862ZM201.437 50.8862C204.616 50.8862 207.004 50.8045 209.44 50.6394L209.034 44.6531C206.751 44.808 204.499 44.8862 201.437 44.8862V50.8862ZM209.237 50.6462C209.072 50.6462 208.615 50.6273 208.089 50.3532C207.485 50.0389 207.094 49.5507 206.883 49.0934C206.71 48.717 206.683 48.4172 206.679 48.3799C206.674 48.3243 206.677 48.3191 206.677 48.4463H212.677C212.677 48.2934 212.676 48.0482 212.65 47.7901C212.627 47.5503 212.565 47.0855 212.331 46.5791C212.06 45.9918 211.584 45.4086 210.861 45.0318C210.214 44.6952 209.603 44.6462 209.237 44.6462V50.6462ZM206.686 48.6763C206.686 48.6741 206.687 48.6844 206.688 48.711C206.689 48.7364 206.691 48.7699 206.692 48.8121C206.695 48.8969 206.698 49.0036 206.7 49.1288C206.705 49.3789 206.707 49.6801 206.707 49.9862C206.707 50.2924 206.705 50.5936 206.7 50.8437C206.698 50.9689 206.695 51.0756 206.692 51.1604C206.691 51.2026 206.689 51.2361 206.688 51.2615C206.687 51.2881 206.686 51.2984 206.686 51.2962L212.668 51.7563C212.72 51.0832 212.72 48.8893 212.668 48.2162L206.686 48.6763ZM206.677 51.5262C206.677 51.3895 206.703 50.6278 207.391 49.9399C208.085 49.2457 208.874 49.2062 209.077 49.2062V55.2062C209.64 55.2062 210.729 55.0868 211.634 54.1826C212.531 53.2847 212.677 52.183 212.677 51.5262H206.677ZM209.193 49.2085C207.092 49.1277 204.29 49.0462 201.477 49.0462V55.0462C204.185 55.0462 206.903 55.1248 208.962 55.204L209.193 49.2085ZM197.157 39.7663H188.197V45.7663H197.157V39.7663ZM188.197 39.7663C186.287 39.7663 184.6 39.85 182.41 39.9282L182.624 45.9243C184.915 45.8425 186.428 45.7663 188.197 45.7663V39.7663ZM182.517 39.9263C182.525 39.9263 183.451 39.9051 184.217 40.7482C184.562 41.1275 184.708 41.5102 184.769 41.7198C184.824 41.9118 184.83 42.0357 184.827 41.9971L178.848 42.4954C178.869 42.7528 178.938 43.8611 179.777 44.7843C180.744 45.8474 181.99 45.9263 182.517 45.9263V39.9263ZM184.814 41.8741C184.698 40.9467 184.693 39.9089 184.547 38.1571L178.568 38.6554C178.662 39.7836 178.736 41.6258 178.86 42.6184L184.814 41.8741ZM181.386 41.4014C184.247 41.5648 186.344 41.6062 188.197 41.6062V35.6062C186.451 35.6062 184.468 35.5677 181.728 35.4111L181.386 41.4014ZM188.197 41.6062H197.157V35.6062H188.197V41.6062ZM197.157 41.6062C199.419 41.6062 202.008 41.5662 204.097 41.4409L203.738 35.4516C201.826 35.5663 199.376 35.6062 197.157 35.6062V41.6062ZM203.917 41.4463C203.74 41.4463 203.335 41.4232 202.862 41.196C202.332 40.9416 201.936 40.5363 201.69 40.0971C201.477 39.717 201.424 39.3962 201.409 39.2951C201.393 39.1846 201.397 39.1341 201.397 39.2062H207.397C207.397 38.9968 207.423 38.0557 206.925 37.1654C206.609 36.6012 206.117 36.1034 205.46 35.7877C204.86 35.4993 204.294 35.4463 203.917 35.4463V41.4463ZM201.408 39.4554C201.474 40.2496 201.474 41.0829 201.408 41.8771L207.387 42.3754C207.481 41.2496 207.481 40.0829 207.387 38.9571L201.408 39.4554ZM201.397 42.1263C201.397 42.2194 201.392 42.1643 201.41 42.0437C201.427 41.9314 201.49 41.5551 201.758 41.1263C202.073 40.6233 202.535 40.2569 203.039 40.0574C203.462 39.8897 203.797 39.8862 203.877 39.8862V45.8862C204.476 45.8862 205.948 45.7433 206.846 44.3062C207.189 43.7574 207.301 43.2261 207.346 42.9188C207.392 42.6032 207.397 42.3131 207.397 42.1263H201.397ZM203.988 39.8883C201.788 39.8068 199.391 39.7663 197.157 39.7663V45.7663C199.324 45.7663 201.647 45.8057 203.766 45.8842L203.988 39.8883ZM224.517 49.5662L223.054 46.9474C222.275 47.3827 221.73 48.1422 221.567 49.0196C221.405 49.897 221.641 50.8013 222.213 51.4868L224.517 49.5662ZM227.677 47.9662L226.436 45.2351C226.42 45.2425 226.404 45.25 226.387 45.2577L227.677 47.9662ZM228.717 48.2463L226.291 50.0108C226.316 50.0457 226.343 50.08 226.369 50.1138L228.717 48.2463ZM232.157 54.1662L235.042 53.3421C235.024 53.2787 235.004 53.2159 234.981 53.1539L232.157 54.1662ZM231.837 55.3262L233.349 57.9176C233.375 57.9022 233.401 57.8864 233.427 57.8702L231.837 55.3262ZM229.277 56.5662L230.286 59.3915C230.314 59.3814 230.343 59.3709 230.37 59.36L229.277 56.5662ZM228.277 56.0062L231.102 54.9972C231.091 54.9647 231.079 54.9324 231.066 54.9004L228.277 56.0062ZM232.557 47.5262L231.27 44.8164C230.467 45.1978 229.875 45.9156 229.653 46.7763C229.43 47.637 229.601 48.5519 230.119 49.2743L232.557 47.5262ZM235.757 46.0462L236.9 48.8203C236.933 48.8066 236.966 48.7923 236.999 48.7774L235.757 46.0462ZM236.797 46.3662L234.301 48.0303C234.339 48.0878 234.38 48.144 234.422 48.1987L236.797 46.3662ZM239.877 52.2062L242.723 51.2576V51.2576L239.877 52.2062ZM239.477 53.2862L238.055 50.6448C238.028 50.6595 238.001 50.6745 237.974 50.69L239.477 53.2862ZM236.717 54.5262L235.708 51.701C235.703 51.703 235.697 51.7049 235.692 51.7069L236.717 54.5262ZM235.917 53.9263L238.742 52.9172C238.733 52.8902 238.723 52.8633 238.712 52.8366L235.917 53.9263ZM245.157 46.5662L246.044 43.7004C245.177 43.4319 244.234 43.5708 243.481 44.0782C242.728 44.5856 242.245 45.4069 242.168 46.3119L245.157 46.5662ZM249.637 48.4862L251.437 46.0863C251.4 46.0585 251.363 46.0315 251.324 46.0055L249.637 48.4862ZM249.717 49.8862L251.682 52.1533C251.686 52.1502 251.689 52.1471 251.693 52.144L249.717 49.8862ZM248.517 51.9263L245.776 50.7078C245.768 50.7254 245.76 50.7431 245.753 50.7609L248.517 51.9263ZM242.477 62.5662L244.836 64.4197C244.843 64.4106 244.85 64.4014 244.858 64.3922L242.477 62.5662ZM234.237 70.2862L232.587 67.7811C232.536 67.8146 232.486 67.8497 232.437 67.8862L234.237 70.2862ZM232.637 70.4463L234.759 68.3249C234.68 68.2467 234.598 68.1728 234.511 68.1036L232.637 70.4463ZM229.237 68.7663L227.588 66.2605C226.613 66.902 226.099 68.0504 226.269 69.2045C226.44 70.3587 227.264 71.3094 228.382 71.6419L229.237 68.7663ZM238.837 60.4463L236.459 58.6171V58.6171L238.837 60.4463ZM244.237 50.8062L247.049 51.8517C247.056 51.8348 247.062 51.8178 247.068 51.8007L244.237 50.8062ZM225.981 52.1851C227.24 51.4816 228.107 51.0843 228.967 50.6748L226.387 45.2577C225.567 45.6482 224.515 46.1309 223.054 46.9474L225.981 52.1851ZM228.919 50.6973C228.899 50.7061 228.759 50.7699 228.534 50.8121C228.289 50.8583 227.938 50.8794 227.535 50.7818C226.699 50.5789 226.313 50.0405 226.291 50.0108L231.143 46.4817C230.802 46.012 230.116 45.2336 228.949 44.9507C227.807 44.6738 226.868 45.0385 226.436 45.2351L228.919 50.6973ZM226.369 50.1138C227.639 51.7099 228.718 53.4629 229.333 55.1786L234.981 53.1539C234.076 50.6296 232.595 48.3026 231.065 46.3787L226.369 50.1138ZM229.273 54.9904C229.308 55.1148 229.342 55.2196 229.367 55.2949C229.377 55.3271 229.391 55.3677 229.396 55.3831C229.4 55.3937 229.402 55.401 229.404 55.4067C229.405 55.4094 229.405 55.4114 229.406 55.4127C229.406 55.4141 229.407 55.4147 229.407 55.4146C229.407 55.4146 229.406 55.4138 229.406 55.4122C229.405 55.4107 229.405 55.4084 229.404 55.4053C229.402 55.3993 229.399 55.3897 229.396 55.3771C229.389 55.3525 229.378 55.3114 229.367 55.258C229.344 55.1494 229.317 54.979 229.317 54.7663H235.317C235.317 54.2021 235.175 53.7552 235.128 53.6079C235.106 53.5381 235.069 53.4294 235.065 53.4163C235.053 53.3779 235.046 53.3577 235.042 53.3421L229.273 54.9904ZM229.317 54.7663C229.317 54.479 229.368 54.1341 229.517 53.7756C229.663 53.4238 229.858 53.1693 230.013 53.0052C230.155 52.8539 230.274 52.7684 230.296 52.7521C230.32 52.7351 230.319 52.7372 230.247 52.7823L233.427 57.8702C233.533 57.8042 233.992 57.5311 234.382 57.1173C234.937 56.528 235.317 55.7192 235.317 54.7663H229.317ZM230.326 52.7349C229.506 53.2131 228.966 53.4664 228.184 53.7725L230.37 59.36C231.428 58.9461 232.249 58.5594 233.349 57.9176L230.326 52.7349ZM228.268 53.741C228.335 53.7171 229.225 53.4099 230.21 54.0134C230.633 54.2728 230.869 54.587 230.978 54.7606C231.081 54.9238 231.115 55.0315 231.102 54.9972L225.452 57.0153C225.582 57.378 225.976 58.4557 227.075 59.1291C228.369 59.9226 229.659 59.6154 230.286 59.3915L228.268 53.741ZM231.066 54.9004C230.047 52.3298 228.654 49.8445 226.822 47.6457L222.213 51.4868C223.58 53.128 224.668 55.0427 225.489 57.1121L231.066 54.9004ZM233.844 50.2361C235.49 49.4542 236.313 49.0616 236.9 48.8203L234.615 43.2722C233.841 43.5909 232.824 44.0783 231.27 44.8164L233.844 50.2361ZM236.999 48.7774C236.981 48.7852 236.833 48.8532 236.595 48.8963C236.333 48.9438 235.958 48.9615 235.533 48.8455C235.107 48.7295 234.793 48.5236 234.59 48.3467C234.405 48.185 234.314 48.0492 234.301 48.0303L239.293 44.7022C238.978 44.2288 238.309 43.3836 237.112 43.057C235.921 42.7323 234.937 43.1235 234.516 43.3151L236.999 48.7774ZM234.422 48.1987C235.294 49.3287 236.496 51.5492 237.031 53.1549L242.723 51.2576C241.979 49.0233 240.461 46.2038 239.173 44.5338L234.422 48.1987ZM237.031 53.1549C237.055 53.2276 237.015 53.1274 236.992 52.9353C236.967 52.7146 236.956 52.2988 237.138 51.8129C237.324 51.3176 237.618 50.995 237.817 50.8215C237.986 50.6741 238.109 50.6157 238.055 50.6448L240.9 55.9277C241.194 55.7692 242.274 55.2044 242.756 53.9196C243.219 52.6854 242.827 51.5682 242.723 51.2576L237.031 53.1549ZM237.974 50.69C237.406 51.0187 236.699 51.347 235.708 51.701L237.726 57.3515C238.975 56.9054 240.028 56.4338 240.98 55.8825L237.974 50.69ZM235.692 51.7069C235.795 51.6693 236.138 51.5544 236.622 51.5846C237.186 51.6199 237.724 51.8386 238.148 52.1916C238.508 52.4917 238.675 52.7978 238.72 52.8815C238.768 52.9739 238.776 53.0124 238.742 52.9172L233.092 54.9353C233.159 55.1214 233.469 56.1025 234.307 56.8009C235.601 57.8791 237.043 57.5998 237.742 57.3456L235.692 51.7069ZM238.712 52.8366C237.736 50.3318 236.708 48.167 234.995 45.7782L230.119 49.2743C231.446 51.1255 232.259 52.8006 233.122 55.0159L238.712 52.8366ZM244.27 49.4321C245.895 49.935 247.337 50.5501 247.95 50.967L251.324 46.0055C249.937 45.0624 247.779 44.2375 246.044 43.7004L244.27 49.4321ZM247.837 50.8862C247.96 50.978 247.846 50.91 247.695 50.726C247.511 50.5009 247.157 49.9602 247.157 49.1662H253.157C253.157 48.1323 252.703 47.3716 252.339 46.9265C252.009 46.5225 251.635 46.2345 251.437 46.0863L247.837 50.8862ZM247.157 49.1662C247.157 48.9688 247.183 48.7474 247.249 48.5165C247.314 48.2875 247.405 48.0981 247.495 47.9514C247.654 47.689 247.803 47.5747 247.742 47.6285L251.693 52.144C252.212 51.6894 253.157 50.7301 253.157 49.1662H247.157ZM247.752 47.6192C247.055 48.2237 246.626 48.9188 246.352 49.4448C246.11 49.9081 245.865 50.5074 245.776 50.7078L251.259 53.1447C251.307 53.0364 251.352 52.9305 251.392 52.8378C251.434 52.7403 251.469 52.6599 251.504 52.5788C251.575 52.4177 251.627 52.3059 251.673 52.2177C251.769 52.0337 251.78 52.0688 251.682 52.1533L247.752 47.6192ZM245.753 50.7609C244.117 54.6423 242.159 58.0529 240.097 60.7403L244.858 64.3922C247.276 61.2396 249.478 57.3702 251.282 53.0916L245.753 50.7609ZM240.118 60.7128C237.646 63.8589 235.678 65.7448 232.587 67.7811L235.888 72.7914C239.597 70.3477 242.028 67.9936 244.836 64.4197L240.118 60.7128ZM232.437 67.8862C232.321 67.9736 232.332 67.9549 232.416 67.913C232.503 67.8695 232.813 67.7262 233.277 67.7262V73.7262C234.716 73.7262 235.777 72.8817 236.037 72.6862L232.437 67.8862ZM233.277 67.7262C233.854 67.7262 234.383 67.949 234.759 68.3249L230.516 72.5676C231.292 73.3435 232.301 73.7262 233.277 73.7262V67.7262ZM234.511 68.1036C233.133 67.0009 231.836 66.4092 230.092 65.8906L228.382 71.6419C229.598 72.0033 230.142 72.2916 230.763 72.7889L234.511 68.1036ZM230.887 71.272C235.829 68.0187 238.531 65.7644 241.215 62.2754L236.459 58.6171C234.343 61.3681 232.246 63.1938 227.588 66.2605L230.887 71.272ZM241.215 62.2754C243.38 59.4612 245.775 55.2801 247.049 51.8517L241.425 49.7608C240.38 52.5724 238.295 56.2313 236.459 58.6171L241.215 62.2754ZM247.068 51.8007C247.656 50.1271 247.961 48.9968 248.146 46.8206L242.168 46.3119C242.033 47.8957 241.859 48.5254 241.407 49.8118L247.068 51.8007ZM287.837 45.6462L290.66 46.6633C290.991 45.7441 290.854 44.7211 290.292 43.9216C289.73 43.1221 288.814 42.6462 287.837 42.6462V45.6462ZM266.797 45.8462L266.658 42.8495C266.628 42.8509 266.597 42.8528 266.567 42.8551L266.797 45.8462ZM266.037 45.0462L269.007 44.622C269.006 44.6151 269.005 44.6081 269.004 44.6012L266.037 45.0462ZM265.677 41.0062L266.009 38.0246C265.125 37.9264 264.243 38.2254 263.601 38.8411C262.959 39.4567 262.623 40.3254 262.684 41.2127L265.677 41.0062ZM289.837 40.8862L291.326 43.491C291.385 43.4568 291.444 43.4206 291.501 43.3824L289.837 40.8862ZM291.197 40.9262L289.076 43.0476C289.151 43.1225 289.23 43.1935 289.312 43.2601L291.197 40.9262ZM293.917 43.6862L291.469 45.4203L291.476 45.43L293.917 43.6862ZM292.917 46.8062L290.182 45.5752C290.169 45.6018 290.158 45.6287 290.147 45.6557L292.917 46.8062ZM285.157 59.8063L287.412 61.785C287.416 61.7801 287.421 61.7751 287.425 61.7701L285.157 59.8063ZM273.797 69.3262L272.323 66.7136C272.258 66.7501 272.195 66.7889 272.133 66.8301L273.797 69.3262ZM271.717 69.2462L273.839 67.1249C273.823 67.1092 273.807 67.0937 273.791 67.0783L271.717 69.2462ZM267.997 67.0462L266.641 64.3703C265.592 64.9019 264.951 65.9973 265 67.1721C265.049 68.347 265.78 69.3847 266.87 69.8265L267.997 67.0462ZM281.077 57.0462L278.821 55.0689C278.815 55.0761 278.809 55.0832 278.802 55.0904L281.077 57.0462ZM287.837 42.6462H273.397V48.6462H287.837V42.6462ZM273.397 42.6462C270.714 42.6462 268.359 42.7704 266.658 42.8495L266.937 48.843C268.675 48.7621 270.881 48.6462 273.397 48.6462V42.6462ZM266.567 42.8551C266.701 42.8448 267.013 42.8374 267.407 42.9669C267.842 43.1097 268.236 43.3741 268.536 43.7259C268.807 44.0445 268.923 44.3424 268.966 44.4747C269.009 44.6052 269.015 44.6754 269.007 44.622L263.067 45.4705C263.114 45.7985 263.253 46.7766 263.969 47.6166C264.912 48.7243 266.179 48.9027 267.027 48.8374L266.567 42.8551ZM269.004 44.6012C268.906 43.9471 268.753 42.0053 268.67 40.7998L262.684 41.2127C262.761 42.3272 262.929 44.5454 263.07 45.4913L269.004 44.6012ZM265.346 43.9879C267.318 44.207 269.574 44.2862 273.357 44.2862V38.2862C269.621 38.2862 267.637 38.2055 266.009 38.0246L265.346 43.9879ZM273.357 44.2862H287.637V38.2862H273.357V44.2862ZM287.637 44.2862C288.98 44.2862 290.069 44.209 291.326 43.491L288.349 38.2815C288.311 38.303 288.323 38.2936 288.364 38.2779C288.409 38.2609 288.441 38.2545 288.441 38.2546C288.431 38.2564 288.374 38.2658 288.237 38.2736C288.099 38.2816 287.909 38.2862 287.637 38.2862V44.2862ZM291.501 43.3824C291.433 43.4282 291.326 43.4881 291.178 43.5397C291.034 43.5898 290.809 43.6462 290.517 43.6462V37.6462C289.566 37.6462 288.755 38.0023 288.173 38.3901L291.501 43.3824ZM290.517 43.6462C290.302 43.6462 290.047 43.6099 289.779 43.505C289.506 43.398 289.266 43.2379 289.076 43.0476L293.319 38.8049C292.497 37.9834 291.466 37.6462 290.517 37.6462V43.6462ZM289.312 43.2601C290.248 44.0161 291.014 44.7773 291.469 45.4203L296.365 41.9522C295.461 40.6752 294.226 39.5164 293.082 38.5924L289.312 43.2601ZM291.476 45.43C291.516 45.4859 291.456 45.413 291.389 45.2552C291.31 45.068 291.237 44.8013 291.237 44.4862H297.237C297.237 43.2561 296.671 42.3805 296.358 41.9425L291.476 45.43ZM291.237 44.4862C291.237 44.0743 291.348 43.7229 291.481 43.4672C291.599 43.239 291.715 43.1256 291.716 43.1249L295.959 47.3676C296.508 46.8183 297.237 45.858 297.237 44.4862H291.237ZM291.716 43.1249C290.911 43.9294 290.516 44.8314 290.182 45.5752L295.653 48.0373C295.741 47.8428 295.807 47.697 295.865 47.578C295.922 47.46 295.958 47.3909 295.982 47.3497C296.004 47.3118 296.008 47.308 295.998 47.3222C295.985 47.3388 295.97 47.356 295.959 47.3676L291.716 43.1249ZM290.147 45.6557C288.271 50.1735 285.982 54.2714 282.889 57.8424L287.425 61.7701C291.053 57.5811 293.644 52.879 295.688 47.9568L290.147 45.6557ZM282.902 57.8275C279.634 61.5515 276.009 64.6334 272.323 66.7136L275.272 71.9389C279.666 69.4591 283.8 65.901 287.412 61.785L282.902 57.8275ZM272.133 66.8301C272.145 66.8225 272.203 66.7853 272.309 66.7502C272.418 66.7138 272.558 66.6862 272.717 66.6862V72.6862C273.78 72.6862 274.709 72.3237 275.461 71.8224L272.133 66.8301ZM272.717 66.6862C272.934 66.6862 273.154 66.7274 273.36 66.8122C273.569 66.8983 273.729 67.0149 273.839 67.1249L269.596 71.3676C270.485 72.2566 271.611 72.6862 272.717 72.6862V66.6862ZM273.791 67.0783C272.471 65.8159 270.747 64.9238 269.124 64.266L266.87 69.8265C268.208 70.3687 269.123 70.9166 269.644 71.4142L273.791 67.0783ZM269.354 69.7222C275.504 66.6048 279.388 63.6121 283.352 59.0021L278.802 55.0904C275.406 59.0404 272.171 61.5677 266.641 64.3703L269.354 69.7222ZM283.333 59.0236C286.69 55.1931 288.927 51.4699 290.66 46.6633L285.015 44.6292C283.547 48.7026 281.704 51.7794 278.821 55.0689L283.333 59.0236ZM296.717 36.6862C297.497 36.6862 298.037 37.2595 298.037 37.9662H304.037C304.037 33.873 300.738 30.6862 296.717 30.6862V36.6862ZM298.037 37.9662C298.037 38.673 297.497 39.2462 296.717 39.2462V45.2462C300.738 45.2462 304.037 42.0595 304.037 37.9662H298.037ZM296.717 39.2462C295.938 39.2462 295.397 38.673 295.397 37.9662H289.397C289.397 42.0595 292.697 45.2462 296.717 45.2462V39.2462ZM295.397 37.9662C295.397 37.5297 295.555 37.2363 295.751 37.0449C295.956 36.8454 296.278 36.6862 296.717 36.6862V30.6862C292.734 30.6862 289.397 33.7564 289.397 37.9662H295.397ZM296.717 32.6062C293.7 32.6062 291.357 34.9494 291.357 37.9662H297.357C297.357 38.0417 297.319 38.2272 297.149 38.3976C296.978 38.5679 296.793 38.6062 296.717 38.6062V32.6062ZM291.357 37.9662C291.357 40.9831 293.7 43.3262 296.717 43.3262V37.3262C296.793 37.3262 296.978 37.3646 297.149 37.5349C297.319 37.7053 297.357 37.8907 297.357 37.9662H291.357ZM296.717 43.3262C299.734 43.3262 302.077 40.9831 302.077 37.9662H296.077C296.077 37.8907 296.116 37.7053 296.286 37.5349C296.456 37.3646 296.642 37.3262 296.717 37.3262V43.3262ZM302.077 37.9662C302.077 34.9494 299.734 32.6062 296.717 32.6062V38.6062C296.642 38.6062 296.456 38.5679 296.286 38.3976C296.116 38.2272 296.077 38.0417 296.077 37.9662H302.077Z" fill="#EF788C" mask="url(#path-1-outside-1_1591_49448)"/>
</svg>
