<svg width="778" height="617" viewBox="0 0 778 617" fill="none" xmlns="http://www.w3.org/2000/svg">
<g opacity="0.6">
<path d="M773 100.085L686.772 59.5902L642.772 3H615.172L602.37 80.3007H571.37V169.755H603.415V131.469H626.611L675.438 178.299L773 100.085Z" fill="#BFE781" stroke="white" stroke-width="5"/>
<path d="M115.739 577.777H99.0488V614H115.739V577.777Z" fill="#FFC58C" stroke="white" stroke-width="5"/>
<path d="M109.514 264H93V283.266H109.514V264Z" fill="#FFE224" stroke="white" stroke-width="5"/>
<path d="M0 355H141.542L215 294.843V170" stroke="#C2C2C2"/>
<path d="M281.105 491.588L232.847 509.085V557.78H285.575L295.772 545.6H310.729L320.198 557.78H349.571V491.588H281.105Z" fill="#FCD8DE" stroke="white" stroke-width="5"/>
<path d="M646.237 213.001V186.749H623.358V213.001H597.159V186.749H571.423V284.165L571.37 284.205V373.289H658.616V244.847L646.237 213.001Z" fill="#9BF3CE" stroke="white" stroke-width="5"/>
<path d="M359.583 505.381H373.655V492.711H359.583V505.381Z" fill="#DCAFFF" stroke="white" stroke-width="5"/>
<path d="M336.805 415.346V480.651H385.146V557.78H440.917V476.856H447.357V415.346H336.805Z" fill="#DCAFFF" stroke="white" stroke-width="5"/>
<path d="M532.911 297.854H509.239L492.972 310.523H516.645L532.911 297.854Z" fill="#A1CEFF" stroke="white" stroke-width="5"/>
<path d="M254.893 415.346L232.847 441.928V480.651H336.805V415.346H254.893Z" fill="#FFB3E9" stroke="white" stroke-width="5"/>
<path d="M658.616 373.289H548.358V426.441H570.59V471.393H611.019V450.286H627.656V501.573L658.616 477.357V373.289Z" fill="#7598FF" stroke="white" stroke-width="5"/>
<path d="M215.152 443.104H166.549H131.701V482.925H148.497V468.47H157.794V610.494L184.364 598.644V582.497L197.179 577.55V590.511L215.152 579.124V443.104Z" fill="#FFC58C" stroke="white" stroke-width="5"/>
<path fill-rule="evenodd" clip-rule="evenodd" d="M475.607 360.184L571.37 284.206V373.29H548.358V426.441H570.589V471.393H584.29V506.082H554.177V486.192H531.258L518.773 506.082H459.154V476.855H447.358V415.346H383.719L428.763 376.543V338.891H455.941V360.184H475.607Z" fill="#A1CEFF"/>
<path d="M571.37 284.206H573.87V279.031L569.816 282.247L571.37 284.206ZM475.607 360.184V362.684H476.478L477.161 362.142L475.607 360.184ZM571.37 373.29V375.79H573.87V373.29H571.37ZM548.358 373.29V370.79H545.858V373.29H548.358ZM548.358 426.441H545.858V428.941H548.358V426.441ZM570.589 426.441H573.089V423.941H570.589V426.441ZM570.589 471.393H568.089V473.893H570.589V471.393ZM584.29 471.393H586.79V468.893H584.29V471.393ZM584.29 506.082V508.582H586.79V506.082H584.29ZM554.177 506.082H551.677V508.582H554.177V506.082ZM554.177 486.192H556.677V483.692H554.177V486.192ZM531.258 486.192V483.692H529.875L529.14 484.863L531.258 486.192ZM518.773 506.082V508.582H520.156L520.891 507.411L518.773 506.082ZM459.154 506.082H456.654V508.582H459.154V506.082ZM459.154 476.855H461.654V474.355H459.154V476.855ZM447.358 476.855H444.858V479.355H447.358V476.855ZM447.358 415.346H449.858V412.846H447.358V415.346ZM383.719 415.346L382.087 413.452L376.986 417.846H383.719V415.346ZM428.763 376.543L430.395 378.437L431.263 377.689V376.543H428.763ZM428.763 338.891V336.391H426.263V338.891H428.763ZM455.941 338.891H458.441V336.391H455.941V338.891ZM455.941 360.184H453.441V362.684H455.941V360.184ZM569.816 282.247L474.053 358.225L477.161 362.142L572.924 286.164L569.816 282.247ZM573.87 373.29V284.206H568.87V373.29H573.87ZM548.358 375.79H571.37V370.79H548.358V375.79ZM550.858 426.441V373.29H545.858V426.441H550.858ZM570.589 423.941H548.358V428.941H570.589V423.941ZM573.089 471.393V426.441H568.089V471.393H573.089ZM584.29 468.893H570.589V473.893H584.29V468.893ZM586.79 506.082V471.393H581.79V506.082H586.79ZM554.177 508.582H584.29V503.582H554.177V508.582ZM551.677 486.192V506.082H556.677V486.192H551.677ZM531.258 488.692H554.177V483.692H531.258V488.692ZM520.891 507.411L533.375 487.521L529.14 484.863L516.656 504.753L520.891 507.411ZM459.154 508.582H518.773V503.582H459.154V508.582ZM456.654 476.855V506.082H461.654V476.855H456.654ZM447.358 479.355H459.154V474.355H447.358V479.355ZM444.858 415.346V476.855H449.858V415.346H444.858ZM383.719 417.846H447.358V412.846H383.719V417.846ZM427.132 374.649L382.087 413.452L385.35 417.24L430.395 378.437L427.132 374.649ZM426.263 338.891V376.543H431.263V338.891H426.263ZM455.941 336.391H428.763V341.391H455.941V336.391ZM458.441 360.184V338.891H453.441V360.184H458.441ZM475.607 357.684H455.941V362.684H475.607V357.684Z" fill="white"/>
</g>
</svg>
