<svg width="34" height="75" viewBox="0 0 34 75" fill="none" xmlns="http://www.w3.org/2000/svg">
<path d="M11.3203 69.5295C10.9685 69.7961 10.1617 70.2759 9.33719 69.8316C9.25545 68.0226 8.80054 57.7268 8.69748 50.793C9.45447 50.8356 10.3288 50.8783 11.2777 50.9067C11.2101 57.1404 11.1391 67.0702 11.3168 69.5295H11.3203Z" fill="white"/>
<path d="M14.7395 69.5331C14.9207 67.0808 14.8461 57.1688 14.7821 50.928C15.6315 50.9138 16.4951 50.8818 17.3623 50.832C17.2557 57.7658 16.8043 68.0262 16.7226 69.8316C15.8945 70.2829 15.0913 69.7996 14.7395 69.5295V69.5331Z" fill="white"/>
<path d="M6.34083 13.9356V13.932C4.90147 12.4749 4.22977 10.9076 4.3435 9.26919C4.57806 5.9249 7.9579 3.31272 7.99343 3.28429C10.7442 1.18744 14.1916 2.19677 15.4248 2.66945C15.2898 2.96799 15.144 3.26297 15.0019 3.55439C14.4723 4.6348 13.9321 5.74009 13.2391 6.71388C12.7487 7.40335 12.2191 7.96488 11.654 8.40557C11.3342 8.46599 10.9823 8.58327 10.698 8.84271C10.3782 9.13414 10.0725 9.69922 10.1045 10.211C10.1045 10.2394 10.1116 10.2607 10.1152 10.2892C10.1436 10.4953 10.236 10.6659 10.3071 10.7903L10.332 10.8329C10.4954 11.1244 10.7336 11.3554 11.025 11.526C11.0321 11.8991 11.1103 12.2794 11.2595 12.649C11.3768 12.9369 11.5368 13.2177 11.7358 13.4878C12.1871 14.0955 12.7842 14.5611 13.3208 14.9413C13.3208 14.9449 13.3137 14.9484 13.3102 14.9556C13.3173 14.9556 13.328 14.9556 13.3351 14.9556C13.3528 14.9698 13.3742 14.984 13.3919 14.9982C13.4843 15.0622 13.591 15.0942 13.6976 15.0942C13.7296 15.0942 13.7615 15.087 13.7971 15.0835L13.8397 15.4069H12.738C12.4146 15.5313 12.0236 15.5846 11.6505 15.613C11.3626 15.6379 10.9575 15.5917 10.5665 15.5206C10.3568 15.4851 10.1507 15.4389 9.96589 15.3962C9.89481 15.4105 9.82729 15.4211 9.75621 15.4318C9.77753 15.4105 9.78819 15.382 9.80596 15.3572C9.95523 15.151 9.94812 14.8667 9.76332 14.6783C9.04186 13.9391 8.62604 13.1466 8.4128 12.3327C8.38437 12.2225 8.36305 12.1124 8.34173 12.0058C8.00765 10.2856 8.51587 8.46599 8.985 6.79207C9.06318 6.50775 8.8997 6.21277 8.61538 6.13458C8.33106 6.05639 8.03608 6.21988 7.9579 6.50419C7.4248 8.40202 6.80285 10.6233 7.41058 12.7521C7.65225 13.5944 8.08584 14.4225 8.79308 15.2079C8.86061 15.2825 8.92813 15.3536 8.99921 15.4282C9.03475 15.4638 9.0774 15.4886 9.12005 15.51C8.93168 15.5242 8.74332 15.5277 8.55141 15.5242C7.965 15.51 7.43901 15.3429 6.89881 15.1261C6.65714 15.0302 6.45812 14.8809 6.29108 14.7174C6.30174 14.7103 6.3124 14.7068 6.32307 14.6961C6.5292 14.49 6.53275 14.1559 6.33017 13.9462L6.34083 13.9356Z" fill="white"/>
<path d="M12.5927 12.8424C12.3511 12.5154 12.1911 12.16 12.1236 11.8153C12.1556 11.8153 12.184 11.8188 12.216 11.8188C12.4186 11.8188 12.6247 11.7975 12.838 11.7549C13.1258 11.6944 13.3106 11.4137 13.2538 11.1258C13.1934 10.8379 12.9126 10.6531 12.6247 10.71C12.6212 10.71 12.6141 10.71 12.6105 10.71C12.1414 10.8024 11.5123 10.7526 11.2671 10.3048L11.2387 10.2551C11.2138 10.2124 11.1782 10.1485 11.1711 10.12C11.1676 10.0205 11.2884 9.74687 11.4235 9.62248C11.587 9.47321 11.889 9.43056 12.2373 9.39147C12.2587 9.39147 12.28 9.38436 12.3013 9.37726C12.5252 9.32395 12.6922 9.13558 12.71 8.90813C13.2076 8.46388 13.6731 7.93789 14.1103 7.32661C14.8531 6.28174 15.4146 5.1338 15.9583 4.02496C16.0508 3.8366 16.1432 3.64113 16.2356 3.44922C17.4546 4.09604 18.6309 5.29018 19.1534 7.47232C19.1569 7.49009 19.6509 9.78241 18.3466 11.5949C18.2649 11.7087 18.1725 11.8153 18.0765 11.9184L17.7211 11.435C17.6038 11.2751 17.3835 11.2431 17.2236 11.3568C17.0636 11.4741 17.0317 11.6944 17.1454 11.8544L17.5612 12.423C16.6265 13.1942 15.3151 13.674 13.6412 13.8482C13.2538 13.5567 12.8806 13.2333 12.5892 12.8424H12.5927ZM16.1965 8.92945C16.662 9.17468 17.1027 8.81217 17.1134 8.41413C17.1347 7.69267 16.5945 7.25198 16.1147 7.71044C15.802 8.00897 15.7771 8.70555 16.1965 8.92945Z" fill="white"/>
<path d="M17.1134 8.41239C17.1028 8.81043 16.6621 9.17294 16.1965 8.92771C15.7736 8.70381 15.802 8.00723 16.1148 7.7087C16.5946 7.25024 17.1383 7.69093 17.1134 8.41239Z" fill="black"/>
<path d="M8.80043 15.1905C8.09319 14.4015 7.65961 13.577 7.41794 12.7347C6.8102 10.6058 7.43215 8.38461 7.96525 6.48679C8.04344 6.20247 8.33842 6.03899 8.62273 6.11717C8.90705 6.19536 9.07054 6.49034 8.99235 6.77466C8.52322 8.44858 8.015 10.2682 8.34908 11.9883C8.3704 12.0985 8.39173 12.2087 8.42016 12.3153C8.6334 13.1327 9.04921 13.9253 9.77067 14.6609C9.95548 14.8493 9.96259 15.1336 9.81332 15.3397C9.79555 15.3646 9.78489 15.3931 9.76356 15.4144C9.6605 15.5139 9.52545 15.5672 9.3904 15.5672C9.29799 15.5672 9.21269 15.5352 9.13095 15.489C9.08831 15.4641 9.04566 15.4428 9.01012 15.4073C8.93904 15.3326 8.87151 15.2616 8.80399 15.1869L8.80043 15.1905Z" fill="black"/>
<path d="M26.479 19.2232L25.9921 20.2645C25.5443 20.1685 25.0325 20.0335 24.6807 19.8913L25.2031 18.3987C25.2777 18.1819 25.2066 17.9438 25.0289 17.8052C24.9117 17.6665 24.7304 17.0126 25.2422 15.5448C25.7006 14.0059 26.3084 12.5168 26.71 11.8984C26.6922 12.5417 26.3937 13.8389 25.953 15.0721C25.8535 15.3494 25.9992 15.655 26.2764 15.7545C27.5132 16.1988 28.5438 16.8776 28.5723 17.1441C28.1102 19.081 27.0618 18.9282 27.0512 18.9247C27.0227 18.9211 26.9907 18.9175 26.9623 18.9175C26.7597 18.9175 26.5678 19.0348 26.479 19.2232ZM27.7797 17.0944C27.7797 16.8136 27.6624 16.5648 27.4457 16.3907C26.9019 15.9571 25.8428 16.149 25.5301 16.2165C25.2422 16.2805 25.0609 16.5648 25.1249 16.8527C25.1889 17.1406 25.4767 17.3183 25.7611 17.2578C26.0774 17.1868 26.4576 17.1654 26.6638 17.1939C26.5323 17.3467 26.1698 17.5493 25.825 17.6452C25.5443 17.727 25.3772 18.0184 25.4554 18.3027C25.523 18.5373 25.7362 18.6936 25.9672 18.6936C26.0134 18.6936 26.0632 18.6865 26.1094 18.6723C26.2799 18.6261 27.7797 18.1783 27.7797 17.0908V17.0944Z" fill="white"/>
<path d="M25.9658 18.6946C25.7312 18.6946 25.518 18.5418 25.454 18.3037C25.3758 18.0194 25.5393 17.7279 25.8236 17.6462C26.1719 17.5467 26.5344 17.3441 26.6624 17.1948C26.4562 17.1664 26.0795 17.1913 25.7597 17.2588C25.4753 17.3192 25.1875 17.1415 25.1235 16.8537C25.0595 16.5658 25.2408 16.2815 25.5287 16.2175C25.8414 16.15 26.9005 15.9545 27.4442 16.3916C27.661 16.5658 27.7783 16.8146 27.7783 17.0953C27.7783 18.1793 26.2785 18.6271 26.108 18.6768C26.0617 18.6911 26.012 18.6982 25.9658 18.6982V18.6946Z" fill="black"/>
<path d="M29.1676 6.78838C29.0859 6.9412 28.9366 7.03716 28.7731 7.06203C28.6629 7.0798 28.5456 7.06203 28.439 7.00872C28.176 6.87367 28.0765 6.55737 28.2151 6.30148L29.029 4.80526C29.1676 4.54937 29.4946 4.45341 29.7576 4.58847C30.0205 4.72352 30.1201 5.03982 29.9815 5.29571L29.1676 6.79193V6.78838Z" fill="white"/>
<path d="M25.9245 6.0809C25.8854 6.088 25.8463 6.088 25.8036 6.08445C25.5087 6.06313 25.2812 5.81435 25.3025 5.52648L25.4234 3.79924C25.4447 3.51137 25.7006 3.29458 25.9956 3.3159C26.2905 3.33722 26.518 3.586 26.4967 3.87388L26.3758 5.60111C26.3581 5.84989 26.1661 6.04536 25.9209 6.0809H25.9245Z" fill="white"/>
<path d="M32.8683 7.6201L31.4644 8.68985C31.3898 8.74671 31.301 8.78225 31.2157 8.79647C31.0309 8.8249 30.8354 8.75738 30.711 8.60456C30.5262 8.3771 30.5653 8.05013 30.7998 7.87244L32.2037 6.80269C32.4382 6.62499 32.7759 6.66408 32.9607 6.89154C33.1455 7.11899 33.1064 7.44596 32.8718 7.62366L32.8683 7.6201Z" fill="white"/>
<path d="M11.9644 26.4632C11.9644 26.4632 11.9857 26.4632 11.9964 26.4632C12.1563 26.4347 12.2949 26.3317 12.3731 26.1895L16.7232 18.0189C17.1141 17.2868 17.7787 17.0273 18.3616 17.0273C18.4646 17.0273 18.5641 17.0345 18.6601 17.0487C19.2963 17.1482 20.0355 17.596 20.2096 18.5591L23.2412 35.245C23.3194 35.6715 23.2447 36.1122 23.035 36.4889L16.0479 48.903L12.007 26.6551L11.9715 26.4596L11.9644 26.4632Z" fill="#01B956"/>
<path d="M6.02813 36.1369C5.92151 35.7317 5.56256 35.4581 5.13608 35.4581H4.7558L6.01747 34.008C6.20938 33.7877 6.18806 33.4501 5.96416 33.2546C5.93217 33.2297 5.90018 33.2048 5.8682 33.1871C5.87886 33.1124 5.88242 33.0378 5.87531 32.9596C5.83266 32.5473 5.50925 32.2275 5.08988 32.1884C5.06145 32.1884 5.02946 32.1884 4.99747 32.1884L4.33288 32.2346C4.47859 31.9787 4.50703 31.6695 4.3933 31.3781C4.22982 30.9552 3.81755 30.6922 3.35909 30.7135L1.81311 22.2088C1.63897 21.2457 2.17206 20.5633 2.73004 20.2506C3.28801 19.9343 4.14807 19.8277 4.88375 20.4745L11.5439 26.3421C11.6576 26.4416 11.8069 26.4878 11.9597 26.47L11.9953 26.6655L16.0361 48.9099L5.47371 39.9894C5.14319 39.7122 4.91929 39.3212 4.8411 38.8947L4.61009 37.6295C4.90863 37.5051 5.23559 37.3452 5.58744 37.1497C5.94994 36.9436 6.12764 36.5385 6.02102 36.1404L6.02813 36.1369Z" fill="#FFF222"/>
<path d="M2.27282 31.8504L3.31414 31.7793L2.44697 32.4581C2.26216 32.6038 2.19463 32.849 2.27638 33.0694C2.36167 33.2897 2.57846 33.4248 2.81303 33.4106L4.00006 33.3253L2.73839 33.9579C2.4754 34.0894 2.36878 34.4092 2.50028 34.6722C2.63178 34.9352 2.95163 35.0418 3.21463 34.9104L4.28793 34.3737L3.1862 35.6389C3.04759 35.7953 3.0156 36.0192 3.10445 36.2111C3.18975 36.403 3.38166 36.5239 3.59135 36.5239H4.4834C3.7726 36.8579 3.33902 36.9183 3.17198 36.8544C2.44697 36.5772 1.26705 34.523 1.06803 33.1902C0.950744 32.4012 2.02404 31.9463 2.27638 31.8504H2.27282Z" fill="white"/>
<path d="M2.00168 30.8169C2.04077 30.8027 2.08342 30.7956 2.12607 30.792L2.28955 30.7814L0.764893 22.394C0.537439 21.1465 1.10608 19.9382 2.20781 19.3162C3.3131 18.6943 4.63873 18.8329 5.5912 19.6681L6.88129 20.8018C7.06255 20.4926 7.22958 20.2154 7.36819 19.9808L8.2709 18.5059C8.32065 18.3531 8.38818 18.2252 8.48058 18.1363C9.01013 17.6068 9.8382 17.2656 10.3642 17.0879V15.9257C10.3642 15.7551 10.4459 15.6059 10.5703 15.5064C10.9613 15.5774 11.3664 15.6201 11.6543 15.5988C12.0275 15.5703 12.4184 15.517 12.7418 15.3926H13.8435L13.8009 15.0692C13.7689 15.0763 13.7369 15.0799 13.7014 15.0799C13.5948 15.0799 13.4881 15.0479 13.3957 14.9839C13.378 14.9697 13.3566 14.9555 13.3389 14.9413C13.3318 14.9413 13.3211 14.9413 13.314 14.9413C13.314 14.9377 13.3211 14.9342 13.3247 14.9271C12.788 14.5468 12.1909 14.0812 11.7396 13.4735C11.5406 13.2034 11.3806 12.9226 11.2633 12.6347C11.1105 12.2651 11.0323 11.8849 11.0288 11.5117C10.7374 11.3447 10.4992 11.1136 10.3358 10.8187L10.3109 10.776C10.2398 10.6516 10.1474 10.481 10.119 10.2749C10.1154 10.25 10.1083 10.2251 10.1083 10.1967C10.0763 9.68494 10.3855 9.11986 10.7018 8.82843C10.9861 8.56899 11.338 8.45171 11.6578 8.39129C12.2194 7.95415 12.7525 7.38907 13.2429 6.6996C13.9359 5.72581 14.4761 4.61697 15.0057 3.54011C15.1478 3.24869 15.2936 2.95371 15.4286 2.65517C14.1918 2.18249 10.748 1.17316 7.99724 3.27001C7.9617 3.29489 4.58187 5.91062 4.34731 9.25491C4.23358 10.8933 4.90528 12.4642 6.34464 13.9177V13.9213C6.54722 14.131 6.54366 14.465 6.33753 14.6712C6.32687 14.6818 6.31621 14.6818 6.30555 14.6925C6.20604 14.7778 6.0852 14.824 5.96081 14.824C5.82221 14.824 5.68715 14.7707 5.58054 14.6641C3.91727 12.9795 3.14251 11.135 3.27756 9.17672C3.54411 5.3562 7.19049 2.53789 7.34331 2.42061C11.274 -0.578948 16.1572 1.79156 16.3633 1.89462C16.573 1.99769 16.6832 2.22159 16.6512 2.44193C18.1225 3.18827 19.5583 4.59209 20.1838 7.21848C20.2087 7.33221 20.7951 9.98703 19.2136 12.1976C18.2825 13.4984 16.8076 14.3442 14.8315 14.7351L14.9168 15.3891H15.1621C15.457 15.3891 15.6952 15.6272 15.6952 15.9222V17.0843C15.784 17.1128 15.88 17.1483 15.983 17.1874C16.6227 16.2811 17.696 15.812 18.8191 15.9897C20.0701 16.1852 21.0261 17.1163 21.2536 18.3638L22.1065 23.0657C22.1527 22.9591 22.1954 22.856 22.2416 22.7529C22.629 21.8396 23.0199 20.8551 23.4428 19.7463C23.4926 19.6183 23.585 19.5224 23.6987 19.4619L24.0968 18.3211C23.8338 17.884 23.6099 16.9777 24.2283 15.2078C24.5872 13.9995 25.5219 11.1421 26.4673 10.6587C26.7374 10.5201 26.9719 10.5521 27.1176 10.6054C27.274 10.6587 27.4873 10.7867 27.6259 11.0781C28.0204 11.9026 27.473 13.868 27.1248 14.9306C28.2265 15.382 29.8755 16.2527 29.609 17.3758C29.1505 19.2985 28.063 19.8991 27.2989 19.9808L27.0075 20.6028C27.0288 20.6916 27.0288 20.784 27.0004 20.8764C26.677 21.9213 26.3535 22.8986 26.0088 23.8618C25.6641 24.8178 25.2376 25.9551 24.6832 27.1279C24.4237 27.6681 24.1252 28.2545 23.6916 28.8871C23.5566 29.0754 23.4251 29.2567 23.2687 29.4344L24.2887 35.0568C24.4095 35.7249 24.2958 36.4215 23.9617 37.015L19.8853 44.2545L20.7063 49.9693C20.7276 50.1114 20.6885 50.2536 20.6032 50.3673C20.5179 50.4811 20.39 50.5557 20.2478 50.5735C19.6543 50.6481 19.0466 50.7085 18.4317 50.7583C18.3215 58.2323 17.8062 69.5339 17.7778 70.1559C17.7707 70.3158 17.6925 70.4651 17.561 70.561C17.5041 70.6037 17.4473 70.6392 17.3904 70.6748C17.6072 71.5277 17.9306 73.2336 17.3442 74.0262C17.1239 74.3247 16.7898 74.4882 16.4095 74.4882H13.9217C13.8649 74.4882 13.808 74.4775 13.7547 74.4598C13.6694 74.4313 13.3744 74.3069 13.1825 73.8876C13.1079 73.7241 13.0617 73.5286 13.0368 73.3154C13.0119 73.5286 12.9657 73.7241 12.8911 73.8876C12.6992 74.3034 12.4042 74.4313 12.3189 74.4598C12.2656 74.4775 12.2087 74.4882 12.1518 74.4882H9.66406C9.28378 74.4882 8.94971 74.3247 8.72936 74.0262C8.1394 73.2336 8.46637 71.5277 8.68316 70.6748C8.6263 70.6392 8.56943 70.6001 8.51257 70.561C8.38462 70.4651 8.30288 70.3158 8.29577 70.1559C8.26734 69.5339 7.74846 58.1968 7.64184 50.7227C6.54011 50.6445 5.8613 50.577 5.83998 50.5735C5.69427 50.5593 5.56277 50.4846 5.47392 50.3673C5.38507 50.2501 5.34597 50.1043 5.37085 49.9586C5.61252 48.4269 6.03545 45.4913 6.49746 42.2216L4.80577 40.7929C4.28689 40.3558 3.93505 39.7445 3.81066 39.0763L3.60097 37.9142C3.50857 37.9249 3.41616 37.932 3.33087 37.932C3.1354 37.932 2.9577 37.9 2.79777 37.8396C1.52545 37.3527 0.235352 34.7725 0.0221138 33.3367C-0.191126 31.908 1.1736 31.0728 2.01234 30.8062L2.00168 30.8169ZM17.561 12.4215L17.1452 11.8529C17.0279 11.6929 17.0634 11.4726 17.2234 11.3553C17.3833 11.238 17.6036 11.2736 17.7209 11.4335L18.0763 11.9168C18.1687 11.8102 18.2647 11.7072 18.3464 11.5934C19.6507 9.78445 19.1567 7.48858 19.1532 7.47081C18.6307 5.28867 17.4579 4.09453 16.2354 3.44771C16.143 3.63962 16.0506 3.83509 15.9582 4.02345C15.4144 5.13585 14.8529 6.28378 14.1101 7.3251C13.6729 7.93638 13.2074 8.46593 12.7098 8.90662C12.6885 9.13408 12.525 9.32599 12.3011 9.37575C12.2798 9.3793 12.2585 9.38641 12.2371 9.38996C11.8888 9.4255 11.5868 9.4717 11.4233 9.62097C11.2847 9.74536 11.1674 10.019 11.1709 10.1185C11.1781 10.1434 11.2136 10.2074 11.2385 10.2536L11.2669 10.3033C11.5157 10.7511 12.1447 10.8009 12.6103 10.7085C12.6139 10.7085 12.621 10.7085 12.6245 10.7085C12.9124 10.6481 13.1932 10.8329 13.2536 11.1243C13.314 11.4122 13.1292 11.6929 12.8378 11.7534C12.6245 11.796 12.4184 11.8173 12.2158 11.8173C12.1838 11.8173 12.1554 11.8138 12.1234 11.8138C12.1909 12.1585 12.3509 12.5139 12.5925 12.8409C12.884 13.2318 13.2571 13.5552 13.6445 13.8467C15.3184 13.6725 16.6299 13.1927 17.5646 12.4215H17.561ZM27.0501 18.9253C27.0501 18.9253 28.1092 19.0817 28.5712 17.1447C28.5428 16.8782 27.5157 16.1958 26.2754 15.7551C25.9981 15.6556 25.8524 15.35 25.9519 15.0728C26.3926 13.8395 26.6947 12.5423 26.7089 11.8991C26.3073 12.5175 25.6996 14.0066 25.2411 15.5455C24.7258 17.0168 24.9071 17.6707 25.0279 17.8058C25.2056 17.9444 25.2767 18.1825 25.2021 18.3993L24.6796 19.892C25.0315 20.0341 25.5432 20.1692 25.991 20.2651L26.4779 19.2238C26.5668 19.0355 26.7551 18.9182 26.9613 18.9182C26.9897 18.9182 27.0217 18.9182 27.0501 18.9253ZM14.7818 50.9289C14.8493 57.1661 14.9204 67.0781 14.7391 69.5339C15.091 69.804 15.8906 70.2838 16.7223 69.836C16.804 68.0306 17.2554 57.7667 17.362 50.8365C16.4948 50.8898 15.6312 50.9182 14.7818 50.9324V50.9289ZM14.1385 73.4255H16.406C16.4628 73.4255 16.4699 73.4149 16.4841 73.3936C16.708 73.095 16.6156 72.0359 16.3811 71.0586C16.2602 71.0764 16.1394 71.0835 16.0221 71.0835C15.4926 71.0835 14.9986 70.9164 14.5899 70.6996C13.9182 72.5264 14.0497 73.2194 14.1314 73.4255H14.1385ZM13.0297 72.5584C13.0972 71.8725 13.3247 71.0231 13.7191 70.0137C13.6694 69.9178 13.6445 69.8111 13.6552 69.701C13.8613 67.9453 13.7831 57.4433 13.7156 50.9466C13.6872 50.9466 13.6587 50.9466 13.6303 50.9466C13.1932 50.9466 12.7631 50.9431 12.3473 50.936C12.2798 57.4326 12.2016 67.9453 12.4077 69.701C12.4219 69.8111 12.3971 69.9213 12.3438 70.0137C12.7382 71.0231 12.9657 71.8725 13.0332 72.5584H13.0297ZM9.57521 73.3936C9.58942 73.4149 9.60008 73.4255 9.65339 73.4255H11.9208C12.0026 73.2194 12.1341 72.5299 11.4624 70.6996C11.0537 70.9164 10.5632 71.0835 10.0301 71.0835C9.91284 71.0835 9.792 71.0764 9.67117 71.0586C9.44016 72.0359 9.34775 73.095 9.5681 73.3936H9.57521ZM9.33709 69.836C10.1581 70.2803 10.9648 69.8005 11.3202 69.5339C11.139 67.0746 11.2136 57.1448 11.2811 50.9111C10.3322 50.8827 9.45793 50.8436 8.70093 50.7974C8.80399 57.7312 9.2589 68.0271 9.34064 69.836H9.33709ZM4.84842 38.8915C4.92661 39.318 5.15051 39.7054 5.48103 39.9862L16.0435 48.9067L23.0306 36.4962C23.2403 36.1194 23.3149 35.6752 23.2367 35.2523L20.2052 18.5663C20.031 17.6032 19.2882 17.1554 18.6556 17.0559C18.5597 17.0417 18.4602 17.0346 18.3571 17.0346C17.7778 17.0346 17.1096 17.2905 16.7187 18.0261L12.3686 26.1967C12.2904 26.3389 12.1554 26.4419 11.9919 26.4704C11.9813 26.4704 11.9706 26.4704 11.9599 26.4704C11.8071 26.4882 11.6578 26.4455 11.5441 26.3424L4.88396 20.4748C4.14828 19.828 3.29177 19.9346 2.73025 20.2509C2.17227 20.5672 1.63562 21.246 1.81332 22.2092L3.3593 30.7138C3.81776 30.6925 4.23358 30.9555 4.39351 31.3784C4.50724 31.6699 4.4788 31.979 4.33309 32.2349L4.99768 32.1887C5.02967 32.1887 5.0581 32.1887 5.09009 32.1887C5.50946 32.2314 5.83287 32.5477 5.87552 32.9599C5.88263 33.0381 5.88262 33.1128 5.86841 33.1874C5.90395 33.2052 5.93593 33.2265 5.96437 33.2549C6.18471 33.4468 6.20959 33.7845 6.01768 34.0084L4.75601 35.4584H5.13629C5.56277 35.4584 5.92172 35.732 6.02834 36.1372C6.1314 36.5352 5.95726 36.9404 5.59475 37.1465C5.24291 37.3456 4.9195 37.5055 4.61741 37.6263L4.84842 38.8915ZM1.06343 33.191C1.26245 34.5237 2.44237 36.5779 3.16738 36.8551C3.33442 36.9191 3.76801 36.8551 4.4788 36.5246H3.58675C3.37707 36.5246 3.18871 36.4038 3.09986 36.2118C3.01456 36.0199 3.04655 35.7996 3.1816 35.6396L4.28333 34.3744L3.21003 34.9111C2.94704 35.0426 2.62718 34.936 2.49568 34.673C2.36419 34.41 2.4708 34.0901 2.7338 33.9586L3.99546 33.326L2.80843 33.4113C2.57387 33.4255 2.35708 33.2905 2.27178 33.0701C2.18649 32.8498 2.25756 32.6045 2.44237 32.4588L3.30954 31.78L2.26823 31.8511C2.0159 31.9471 0.942593 32.402 1.05987 33.191H1.06343Z" fill="black"/>
</svg>
