<svg width="52" height="34" viewBox="0 0 52 34" fill="none" xmlns="http://www.w3.org/2000/svg">
<path d="M5.51323 2.12671C3.86468 2.40455 4.14253 2.34899 3.42013 2.46012C3.42013 2.46012 3.38308 1.14499 3.32751 0.311447L5.21686 0.126217L5.51323 2.12671ZM8.34726 6.47963C8.34726 6.47963 7.99533 7.29465 7.03213 7.7392C7.03213 7.7392 8.18056 8.33194 8.51397 8.42455L7.736 9.96197C7.736 9.96197 6.23563 9.07286 4.99459 8.20228C4.99459 8.20228 5.10573 12.1662 5.0872 13.574L3.29046 13.5554C3.29046 13.5554 3.43865 9.62855 3.43865 8.85058C2.88296 9.46185 1.34554 9.85083 0.49348 9.77674C2.6792 8.03557 3.92025 6.20178 4.06843 4.94222C4.06843 4.94222 2.1976 5.07188 1.4752 5.07188L1.41963 3.31219C1.41963 3.31219 5.38357 3.33071 7.03213 3.29366C6.82837 4.46062 6.27268 5.8128 5.328 6.83157C5.328 6.83157 5.79108 7.14646 6.21711 7.31317C6.21711 7.31317 6.71723 6.46111 6.97656 5.77575L8.34726 6.47963ZM8.82886 2.53422C12.1815 2.62683 14.182 2.6824 15.8306 2.64535C15.8306 2.64535 16.3678 10.3324 14.5154 14.3705C14.5154 14.3705 13.6078 12.5367 12.589 11.629L13.9042 11.7031C13.9042 11.7031 14.3487 6.47963 14.2191 4.44209L12.6817 4.34948C12.3853 7.29465 11.737 10.0916 9.08819 11.3512C9.97729 9.53594 11.0331 6.73895 10.922 4.47914C10.922 4.47914 10.2181 4.49766 8.79182 4.47914L8.82886 2.53422ZM31.001 4.38652C32.4458 5.34972 33.3164 6.88714 33.2608 8.48012C33.2052 10.814 32.0198 12.5182 29.0746 13.1665C31.6493 10.6103 31.5937 7.09089 29.7785 6.10917C28.5374 7.31317 27.6854 8.10966 26.7962 8.90615L27.6113 10.6658L25.8701 11.5735L25.2588 9.85083C25.2588 9.85083 23.6473 11.1474 22.3878 11.7402C21.9247 11.0919 21.2578 9.75822 21.3319 8.31342C21.4246 6.79452 21.9432 5.59052 23.351 4.64585C23.351 4.64585 22.999 3.59003 22.6286 2.6824L24.6661 1.96L25.2588 3.71969C26.3887 3.33071 27.389 3.20105 29.019 3.46037L29.9452 1.99705L32.0012 3.49742C32.0012 3.49742 31.2418 4.16425 31.001 4.38652ZM23.0175 9.27662C23.351 9.07286 24.1474 8.42455 24.6661 8.05409L23.9993 6.33145C23.4621 6.59077 22.573 7.88738 23.0175 9.27662ZM25.9627 7.2576C26.7592 6.62782 27.2038 5.99803 28.1114 5.22006C27.3149 5.01631 26.2591 4.99778 25.37 5.51643L25.9627 7.2576ZM50.1353 4.6088C46.9864 5.46086 45.5231 8.7024 48.4682 11.4994L45.486 12.796C43.1521 9.70265 43.6337 6.22031 46.3751 4.94222C46.3751 4.94222 43.3559 5.20154 40.4107 5.31268L40.3551 2.90468C40.3551 2.90468 47.6532 2.90468 49.9316 2.55274L50.1353 4.6088ZM9.08819 31.0921C11.0887 29.4436 11.6258 28.1099 11.6444 26.5169C11.6629 24.7943 10.5886 23.794 9.31046 23.6644C8.4584 26.4058 6.99508 28.8879 5.0872 30.4623C3.80911 29.7214 2.95705 28.1655 3.10523 26.1094C3.29046 23.1642 5.82813 21.4972 8.62511 21.6268C12.126 21.7935 13.9598 24.1274 13.7375 26.8318C13.5152 29.3139 11.8111 30.8143 9.08819 31.0921ZM5.38357 27.758C6.47643 26.4428 7.27293 24.6461 7.47668 23.5903C6.58757 23.5532 5.19834 24.2571 4.92049 25.739C4.79083 26.5354 4.99459 27.2208 5.38357 27.758ZM22.3137 32.185C24.555 29.1842 25.4811 26.0909 25.4811 24.2942C25.4811 24.2942 21.9988 24.4238 20.8318 24.4794V22.2937L25.9442 22.3492L25.6108 19.7745L28.4078 19.8116L28.1114 22.2566L33.3905 22.2751L33.3349 24.183C33.3349 24.183 28.7412 24.2942 27.5742 24.2571C27.5742 24.2571 27.4631 25.2944 27.3705 25.5908L31.4826 25.7945C31.5937 28.1099 31.1677 31.8516 30.5935 33.426C30.5935 33.426 28.9264 31.7775 28.1299 31.1847C28.1299 31.1847 28.8894 31.2033 29.4636 31.2218C29.4636 31.2218 29.7599 28.9249 29.6303 27.8506L26.8518 27.5913C26.3702 30.3142 24.7031 31.6478 22.3137 32.185ZM44.2635 25.1833C42.689 26.3502 41.5591 27.5542 40.67 28.3322C40.67 28.3322 39.3734 26.7948 39.1141 26.4428C39.1141 26.4428 43.7078 22.7382 44.282 22.4789C44.282 22.4789 50.7651 26.554 52.0061 27.5172L50.1168 29.7029C48.5794 28.4804 45.6342 25.8501 44.2635 25.1833Z" fill="white"/>
</svg>
